<?xml version="1.0" standalone="no"?>
<!DOCTYPE svg PUBLIC "-//W3C//DTD SVG 1.1//EN" "http://www.w3.org/Graphics/SVG/1.1/DTD/svg11.dtd" >
<svg xmlns="http://www.w3.org/2000/svg">
<metadata></metadata>
<defs>
<font id="trim_monolight" horiz-adv-x="1269" >
<font-face units-per-em="2048" ascent="1536" descent="-512" />
<missing-glyph horiz-adv-x="500" />
<glyph unicode="&#xfb01;" horiz-adv-x="2539" d="M238 0v98h241v901h-241v99h241v186q114 184 422 184q113 0 176 -14v-92q-87 6 -139 6q-258 0 -336 -119v-151h475v-99h-475v-901h475v-98h-839zM1493 0v98h377v901h-340v99h463v-1000h379v-98h-879zM1831 1366v113q8 14 34.5 25.5t57.5 11.5q29 0 56 -12t32 -25v-113 q-5 -11 -32 -23t-56 -12q-31 0 -57 11.5t-35 23.5z" />
<glyph unicode="&#xfb02;" horiz-adv-x="2539" d="M238 0v98h241v901h-241v99h241v186q114 184 422 184q113 0 176 -14v-92q-87 6 -139 6q-258 0 -336 -119v-151h475v-99h-475v-901h475v-98h-839zM1477 0v98h376v1237h-340v99h463v-1336h377v-98h-876z" />
<glyph />
<glyph />
<glyph horiz-adv-x="682" />
<glyph unicode="&#xd;" />
<glyph unicode=" " />
<glyph unicode="!" d="M541 23v112q5 12 31.5 23.5t62.5 11.5q35 0 62 -11.5t32 -23.5v-112q-5 -14 -31.5 -25.5t-62.5 -11.5q-38 0 -63.5 11t-30.5 26zM567 1241v193h135v-193l-20 -870h-94z" />
<glyph unicode="&#x22;" d="M375 1229v205h131v-207l-23 -281h-82zM764 1229v205h131v-207l-23 -281h-81z" />
<glyph unicode="#" d="M94 426v94h191l61 379h-176v92h188l74 443h88v-70l-59 -373h407l74 443h88v-70l-59 -373h176v-92h-193l-59 -379h176v-94h-192l-68 -426h-90v70l57 356h-407l-70 -426h-90v70l57 356h-174zM387 520h408l61 379h-412z" />
<glyph unicode="$" d="M172 238v204h121v-174q18 -32 44 -62t66.5 -60.5t99.5 -49t128 -18.5q72 0 133 19t102 50t66.5 61t40.5 60v226q-16 32 -30 52t-42 44t-75 43t-117 37l-164 41q-98 25 -167.5 55t-109.5 64t-59 59.5t-37 62.5v244q10 25 29 54t54.5 64t79.5 64t108.5 52t136.5 30v170h108 v-170q87 -9 162.5 -40t124 -72.5t78.5 -79.5t45 -72v-180h-125v149q-12 30 -38 61t-67 62t-103 50.5t-134 19.5q-69 0 -129 -19t-100.5 -50t-66.5 -62t-42 -62v-172q13 -27 27.5 -46t43.5 -43t79.5 -45.5t123.5 -39.5l160 -41q97 -25 165 -54t108 -63.5t59 -59.5t39 -64 v-299q-17 -36 -47 -74t-79 -80t-123 -72.5t-161 -38.5v-170h-108v170q-86 8 -159 38t-121.5 72t-78.5 79.5t-49 75.5z" />
<glyph unicode="%" d="M68 0v63l325 418h70v-63l-328 -418h-67zM68 836v446q22 63 104 115.5t184 52.5q101 0 183 -53t102 -115v-446q-20 -63 -102 -115.5t-183 -52.5q-103 0 -184.5 52t-103.5 116zM170 854q20 -44 70 -75t116 -31q64 0 113.5 31t69.5 75v408q-20 47 -69 78.5t-114 31.5 q-66 0 -116 -31.5t-70 -78.5v-408zM629 154v446q22 63 103.5 115.5t182.5 52.5q102 0 184.5 -53t102.5 -115v-446q-20 -63 -102 -115.5t-185 -52.5q-101 0 -182.5 52.5t-103.5 115.5zM731 172q20 -44 69.5 -75t114.5 -31q67 0 116 30.5t69 75.5v408q-20 47 -70 78.5 t-115 31.5q-64 0 -114 -32t-70 -78v-408zM811 952v64l324 418h67v-64l-323 -418h-68z" />
<glyph unicode="&#x26;" d="M94 240v295q68 157 219 225q-118 46 -188 149v320q10 25 30.5 53t56 60.5t79 58t105.5 42.5t130 17q67 0 127.5 -16.5t104 -41t79.5 -56.5t57 -61t32 -56v-154h-119v133q-36 60 -107 103t-174 43t-175.5 -44t-104.5 -104v-266q32 -54 105 -94.5t175 -40.5h281v123h119 v-123h323v-98h-323v-496q14 -24 24.5 -38.5t37 -39t68.5 -37t97 -12.5q42 0 96 6v-94q-3 0 -27 -3.5t-51.5 -6t-54.5 -2.5q-179 0 -268 104q-122 -115 -322 -115q-167 0 -278 78t-154 189zM213 268q38 -93 118.5 -140.5t194.5 -47.5q181 0 281 129v498h-281 q-113 0 -196.5 -57.5t-116.5 -141.5v-240z" />
<glyph unicode="'" d="M569 1229v205h131v-207l-22 -281h-82z" />
<glyph unicode="(" d="M379 -27v1143q24 59 63.5 111.5t99 101t147 77t190.5 28.5h14v-101h-14q-140 0 -235.5 -75.5t-135.5 -184.5v-1057q40 -109 134.5 -184.5t236.5 -75.5h14v-100h-14q-103 0 -190.5 28.5t-147 76.5t-99 100.5t-63.5 111.5z" />
<glyph unicode=")" d="M375 -244h14q142 0 236.5 75.5t134.5 184.5v1057q-40 109 -135.5 184.5t-235.5 75.5h-14v101h14q103 0 190.5 -28.5t147 -77t99 -101t63.5 -111.5v-1143q-24 -59 -63.5 -111.5t-99 -100.5t-147 -76.5t-190.5 -28.5h-14v100z" />
<glyph unicode="*" d="M201 1047q0 24 11 51.5t30 38.5l358 -144l-25 383q23 17 62 17q36 0 59 -17l-28 -383l360 144q18 -10 29.5 -39.5t11.5 -53.5q0 -16 -2 -22l-385 -88l256 -305q-11 -28 -38 -49.5t-58 -22.5l-209 332l-203 -332q-33 0 -59.5 19.5t-36.5 52.5l252 305l-381 88q-4 6 -4 25z " />
<glyph unicode="+" d="M125 641v107h455v448h104v-448h461v-107h-461v-451h-104v451h-455z" />
<glyph unicode="," d="M541 23v112q5 13 33.5 24t62.5 11q32 0 59.5 -11t32.5 -24v-287q-4 -18 -43 -44.5t-80 -26.5h-53v69h49q6 0 17.5 7t17.5 14v119q-42 0 -66.5 11.5t-29.5 25.5z" />
<glyph unicode="-" d="M283 641v107h704v-107h-704z" />
<glyph unicode="." d="M541 23v112q5 12 31.5 23.5t62.5 11.5q35 0 62 -11.5t32 -23.5v-112q-5 -14 -31.5 -25.5t-62.5 -11.5q-38 0 -63.5 11t-30.5 26z" />
<glyph unicode="/" d="M231 -115l721 1653h86v-70l-719 -1652h-88v69z" />
<glyph unicode="0" d="M178 240v954q19 46 57 90.5t94.5 85t136.5 65.5t169 25t169 -25t136.5 -65.5t94.5 -85t57 -90.5v-954q-19 -46 -57.5 -91.5t-94.5 -85.5t-136 -65t-169 -25t-169 25t-136 65t-94.5 85.5t-57.5 91.5zM303 279l606 966q-107 111 -274 111q-118 0 -206.5 -57t-125.5 -138 v-882zM362 186q105 -108 273 -108q119 0 208 56.5t124 137.5v879z" />
<glyph unicode="1" d="M272 0v94h332v1225l-332 -80v94l369 101h88v-1340h324v-94h-781z" />
<glyph unicode="2" d="M186 0v98l670 682q104 107 109 131v254q-32 78 -122.5 136.5t-207.5 58.5q-112 0 -192.5 -49.5t-120.5 -112.5v-209h-117v250q21 35 53 69t83.5 70.5t128 59t165.5 22.5q90 0 169.5 -24.5t134.5 -65t93 -84.5t58 -90v-319q-22 -36 -125 -144l-607 -616v-11h748v-106h-920 z" />
<glyph unicode="3" d="M201 229v172h118v-129q31 -79 122 -136.5t208 -57.5q118 0 207.5 57.5t122.5 136.5v238q-33 80 -122.5 136t-209.5 56h-143v105h129q111 0 192.5 49t118.5 111v231q-38 62 -119 112t-192 50q-114 0 -197.5 -50.5t-116.5 -111.5v-147h-118v188q18 32 51 66.5t84.5 71 t129.5 60t167 23.5t167.5 -23.5t131 -61t86.5 -74.5t51 -72v-281q-24 -50 -89.5 -104t-158.5 -82q105 -31 177 -95t106 -135v-292q-20 -45 -57.5 -89.5t-93 -85.5t-135 -66.5t-169.5 -25.5t-169 25t-133 64.5t-90.5 82t-55.5 84.5z" />
<glyph unicode="4" d="M90 375v100l627 959h209v-953h207v-106h-207v-375h-117v375h-719zM217 481h592v856h-35z" />
<glyph unicode="5" d="M193 229v183h116v-140q33 -79 122.5 -136.5t205.5 -57.5q119 0 206 56.5t120 137.5v357q-33 81 -119.5 137.5t-206.5 56.5q-100 0 -175.5 -36t-119.5 -80h-115v727h842v-109h-723v-508q48 46 130.5 78.5t182.5 32.5q160 0 273.5 -77.5t154.5 -174.5v-447 q-20 -43 -56.5 -84.5t-91 -81.5t-133.5 -65t-169 -25q-89 0 -167 24.5t-132 64t-90 82t-55 85.5z" />
<glyph unicode="6" d="M199 240v956q19 47 57 91.5t93 84t134 64t168 24.5q90 0 169 -24.5t133.5 -64t91 -81.5t55.5 -84v-172h-119v131q-33 78 -122 134.5t-208 56.5q-116 0 -204 -56.5t-123 -134.5v-413q133 129 340 129q87 0 163.5 -23.5t129.5 -61.5t88.5 -80.5t54.5 -86.5v-400 q-18 -42 -54.5 -84.5t-91 -82t-134 -64.5t-169.5 -25q-89 0 -168.5 25t-134.5 65.5t-92.5 85.5t-56.5 91zM324 272q35 -80 123 -137t204 -57q118 0 204 57t120 137v326q-32 78 -117.5 128t-206.5 50q-105 0 -188.5 -39t-138.5 -108v-357z" />
<glyph unicode="7" d="M123 1325v109h956v-101l-641 -1333h-92v90l604 1213v22h-827z" />
<glyph unicode="8" d="M180 240v272q27 63 92.5 126.5t155.5 100.5q-83 36 -138 88t-83 101v315q14 24 36 50.5t60.5 57t84.5 54t111.5 39.5t137.5 16t137 -16t111 -40t84.5 -55.5t60.5 -58t37 -51.5v-311q-31 -49 -87 -101.5t-138 -87.5q91 -38 154.5 -100.5t93.5 -126.5v-272 q-19 -46 -56 -90.5t-92.5 -85.5t-135 -66t-169.5 -25t-169.5 25t-135.5 66t-94 85.5t-58 90.5zM305 272q33 -79 123.5 -136.5t208.5 -57.5t207 57.5t121 136.5v228q-32 79 -121 136.5t-207 57.5t-208.5 -57.5t-123.5 -136.5v-228zM322 944q37 -60 119.5 -108t195.5 -48 t193 47.5t118 108.5v252q-37 63 -117.5 111.5t-193.5 48.5t-195.5 -48.5t-119.5 -111.5v-252z" />
<glyph unicode="9" d="M168 227v164h119v-119q33 -79 123 -136.5t208 -57.5t207 57.5t121 136.5v394q-129 -123 -330 -123q-90 0 -168.5 22.5t-133 60t-91 80.5t-55.5 89v415q18 41 55 82t91.5 80t134 63.5t169.5 24.5q89 0 168.5 -24.5t135 -64.5t93 -84.5t56.5 -90.5v-956 q-20 -46 -57.5 -90.5t-92.5 -85.5t-134.5 -66t-168.5 -25q-90 0 -169 24.5t-134 64t-91.5 81.5t-55.5 84zM293 825q32 -77 118.5 -127.5t204.5 -50.5q105 0 189.5 39.5t140.5 106.5v372q-32 78 -121 134.5t-207 56.5q-117 0 -204.5 -55.5t-120.5 -133.5v-342z" />
<glyph unicode=":" d="M541 23v112q5 12 31.5 23.5t62.5 11.5q35 0 62 -11.5t32 -23.5v-112q-5 -14 -31.5 -25.5t-62.5 -11.5q-38 0 -63.5 11t-30.5 26zM541 741v113q5 12 31.5 23.5t62.5 11.5q35 0 62 -11.5t32 -23.5v-113q-5 -14 -31 -25t-63 -11q-38 0 -63.5 11t-30.5 25z" />
<glyph unicode=";" d="M541 23v112q5 13 33.5 24t62.5 11q32 0 59.5 -11t32.5 -24v-287q-4 -18 -43 -44.5t-80 -26.5h-53v69h49q6 0 17.5 7t17.5 14v119q-42 0 -66.5 11.5t-29.5 25.5zM541 741v113q5 12 31.5 23.5t62.5 11.5q35 0 62 -11.5t32 -23.5v-113q-5 -14 -31 -25t-63 -11 q-38 0 -63.5 11t-30.5 25z" />
<glyph unicode="&#x3c;" d="M96 575v80l987 443h91v-76l-930 -408l930 -403v-78h-91z" />
<glyph unicode="=" d="M125 432v107h1020v-107h-1020zM125 848v106h1020v-106h-1020z" />
<glyph unicode="&#x3e;" d="M96 133v78l930 403l-930 408v76h90l988 -443v-80l-988 -442h-90z" />
<glyph unicode="?" d="M182 1018v223q158 219 449 219q92 0 170.5 -21.5t133 -57.5t90.5 -71t62 -75v-346q-4 -8 -10.5 -16t-15.5 -17.5t-16 -16.5t-20.5 -18t-20 -17t-22.5 -18t-21 -16t-22 -16.5t-19 -14.5l-322 -237v-146h-125v201l344 248q122 91 144 127v266q-47 65 -133 110.5t-197 45.5 q-109 0 -194.5 -46t-133.5 -110v-180h-121zM440 23v112q5 12 32 23.5t63 11.5q35 0 62 -11.5t32 -23.5v-112q-5 -14 -31.5 -25.5t-62.5 -11.5q-38 0 -64 11t-31 26z" />
<glyph unicode="@" d="M143 117v844q15 70 56 137t102.5 123t149 90.5t186.5 34.5t186 -34t147.5 -90.5t100.5 -123.5t55 -137v-795h-96v117q-123 -119 -293 -119q-56 0 -105 15t-77.5 32t-56 47.5t-35.5 43t-23 36.5v334q98 172 305 172q82 0 156.5 -32t128.5 -79v219q-14 54 -45.5 106 t-80 96.5t-118.5 71.5t-151 27t-151 -27t-118 -71.5t-79.5 -96t-46.5 -106.5v-827q31 -122 135.5 -212.5t257.5 -90.5v-92q-97 0 -184 34.5t-148 90.5t-102 123.5t-56 138.5zM547 373q9 -16 15.5 -25t25 -27t38.5 -28.5t54.5 -19.5t75.5 -9q91 0 165.5 34.5t108.5 84.5v242 q-37 50 -110.5 85t-163.5 35q-142 0 -209 -102v-270z" />
<glyph unicode="A" d="M127 0v90l403 1344h207l408 -1344v-90h-107l-149 506h-514l-152 -506h-96zM406 612h450l-207 705h-33z" />
<glyph unicode="B" d="M233 0v1434h459q130 0 231.5 -67.5t157.5 -172.5v-262q-32 -56 -86.5 -104t-117.5 -76q67 -26 131.5 -76t99.5 -109v-325q-26 -46 -61 -85.5t-85 -76.5t-120 -58.5t-150 -21.5h-459zM362 106h302q83 0 147 26.5t100.5 64t67.5 90.5v237q-44 73 -124.5 120.5t-168.5 47.5 h-324v-586zM362 799h324q74 0 149 45.5t123 118.5v186q-45 80 -122 129t-172 49h-302v-528z" />
<glyph unicode="C" d="M143 283v868q19 44 46.5 85t72 82.5t97.5 72.5t127 50t157 19q104 0 192 -28t147.5 -75t98.5 -96.5t64 -105.5v-229h-129v190q-37 97 -136 165.5t-237 68.5q-137 0 -236.5 -69t-134.5 -165v-799q38 -100 135.5 -166.5t235.5 -66.5t235 66t138 167v213h129v-251 q-20 -44 -47.5 -84.5t-72 -82t-97.5 -71.5t-127 -49t-158 -19q-104 0 -191.5 28t-147 75.5t-98.5 98.5t-63 108z" />
<glyph unicode="D" d="M205 0v1434h430q100 0 184 -24t142 -66t97.5 -89.5t63.5 -103.5v-868q-24 -56 -63.5 -103.5t-97.5 -89.5t-142 -66t-184 -24h-430zM334 106h287q140 0 236.5 58t135.5 151v803q-39 93 -135.5 151t-236.5 58h-287v-1221z" />
<glyph unicode="E" d="M262 0v1434h852v-107h-723v-532h666v-107h-666v-582h742v-106h-871z" />
<glyph unicode="F" d="M268 0v1434h832v-107h-703v-532h662v-107h-662v-688h-129z" />
<glyph unicode="G" d="M137 287v864q23 56 62 107t97 98t144 75.5t187 28.5q102 0 187.5 -28t143.5 -74.5t96.5 -96t61.5 -104.5v-201h-129v164q-35 98 -130 164t-230 66t-229 -66t-132 -164v-803q37 -100 132 -166.5t233 -66.5q132 0 226.5 66.5t133.5 162.5v310h-327v106h452v-450 q-23 -55 -61.5 -105.5t-97 -97.5t-144 -75t-186.5 -28q-102 0 -187.5 28.5t-144 76.5t-97 99.5t-61.5 109.5z" />
<glyph unicode="H" d="M182 0v1434h129v-641h647v641h129v-1434h-129v686h-647v-686h-129z" />
<glyph unicode="I" d="M199 0v106h372v1221h-372v107h870v-107h-369v-1221h369v-106h-870z" />
<glyph unicode="J" d="M233 0v111q40 -5 117 -5q176 0 314 57.5t194 153.5v1010h-625v107h754v-1145q-75 -129 -235 -211t-406 -82q-67 0 -113 4z" />
<glyph unicode="K" d="M215 0v1434h129v-707h31l694 707h64v-91l-519 -526l539 -727v-90h-74l-549 735l-186 -190v-545h-129z" />
<glyph unicode="L" d="M276 0v1434h130v-1328h743v-106h-873z" />
<glyph unicode="M" d="M133 0v1434h213l281 -787h28l269 787h215v-1434h-123v1266h-29l-285 -797h-133l-284 797h-29v-1266h-123z" />
<glyph unicode="N" d="M172 0v1434h201l573 -1256h23v1256h129v-1434h-197l-573 1257h-27v-1257h-129z" />
<glyph unicode="O" d="M135 283v868q19 44 46.5 85t71.5 82.5t97 72t127 50t158 19.5t158 -19.5t127 -50t97 -72t71.5 -82.5t46.5 -85v-868q-24 -57 -63 -108t-98.5 -98.5t-147 -75.5t-191.5 -28t-191.5 28t-147 75.5t-98.5 98.5t-63 108zM264 317q38 -100 135.5 -166.5t235.5 -66.5t235.5 66.5 t135.5 166.5v799q-35 97 -134 165.5t-237 68.5t-237 -68.5t-134 -165.5v-799z" />
<glyph unicode="P" d="M221 0v1434h494q125 0 231.5 -64t167.5 -176v-399q-59 -107 -163 -173.5t-236 -66.5h-365v-555h-129zM350 662h336q97 0 176.5 44.5t122.5 129.5v317q-49 90 -129.5 132t-169.5 42h-336v-665z" />
<glyph unicode="Q" d="M135 283v868q19 44 46.5 85t71.5 82.5t97 72t127 50t158 19.5t158 -19.5t127 -50t97 -72t71.5 -82.5t46.5 -85v-868q-43 -103 -137 -189t-238 -117q40 -78 119.5 -127t144.5 -49h115v-98h-105q-129 0 -237 74t-164 196h-7q-99 0 -183 27q-87 28 -146.5 76t-98.5 99 t-63 108zM264 317q38 -100 135.5 -166.5t235.5 -66.5t235.5 66.5t135.5 166.5v799q-35 97 -134 165.5t-237 68.5t-237 -68.5t-134 -165.5v-799z" />
<glyph unicode="R" d="M197 0v1434h510q123 0 230 -65t167 -175v-344q-53 -97 -139.5 -162.5t-198.5 -85.5l348 -512v-90h-88l-408 606h-292v-606h-129zM326 713h352q194 0 297 176v264q-49 85 -126 129.5t-171 44.5h-352v-614z" />
<glyph unicode="S" d="M158 233v209h131v-178q18 -31 45.5 -59.5t69.5 -57t102 -46t129 -17.5t130 18t102.5 47t69 57.5t44.5 57.5v221q-34 63 -93.5 107t-185.5 76l-155 39q-78 20 -139 44.5t-98.5 46.5t-69 52t-47 51.5t-35.5 54.5v244q159 260 477 260q82 0 155 -19t121.5 -46t91 -65 t64.5 -65.5t41 -58.5v-190h-127v153q-36 67 -127.5 124t-218.5 57t-216.5 -56.5t-129.5 -124.5v-170q22 -40 49.5 -67.5t85 -56t145.5 -52.5l158 -43q94 -27 161.5 -56.5t109.5 -63.5t65 -63t45 -69v-301q-18 -30 -40.5 -59t-64.5 -66t-91 -64t-122 -46t-155 -19 q-83 0 -156 18.5t-122.5 46t-91.5 65t-65 67.5t-42 63z" />
<glyph unicode="T" d="M90 1327v107h1088v-107h-478v-1327h-129v1327h-481z" />
<glyph unicode="U" d="M170 233v1201h129v-1180q34 -67 128.5 -118.5t207.5 -51.5t207.5 51.5t128.5 118.5v1180h129v-1201q-19 -44 -53.5 -86t-89.5 -83t-138.5 -66t-183.5 -25t-183.5 25t-138.5 66t-89.5 83t-53.5 86z" />
<glyph unicode="V" d="M109 1343v91h102l410 -1309h32l408 1309h100v-91l-426 -1343h-200z" />
<glyph unicode="W" d="M86 1343v91h119l110 -1270h27l207 760h170l209 -760h26l109 1270h121v-91l-131 -1343h-199l-211 786h-22l-213 -786h-193z" />
<glyph unicode="X" d="M154 0v90l395 627l-395 626v91h94l375 -619h32l379 619h80v-91l-393 -622l393 -631v-90h-90l-373 621h-33l-380 -621h-84z" />
<glyph unicode="Y" d="M152 1343v91h100l373 -646h32l367 646h94v-91l-422 -708v-635h-129v643z" />
<glyph unicode="Z" d="M158 0v88l778 1215v24h-762v107h936v-88l-778 -1215v-25h778v-106h-952z" />
<glyph unicode="[" d="M406 -344v1778h536v-101h-407v-1577h407v-100h-536z" />
<glyph unicode="\" d="M219 1427v70h98l734 -1653v-69h-101z" />
<glyph unicode="]" d="M324 -244h407v1577h-407v101h536v-1778h-536v100z" />
<glyph unicode="^" d="M215 700v74l350 660h142l346 -660v-74h-78l-326 619h-28l-322 -619h-84z" />
<glyph unicode="_" d="M10 -154h1250v-90h-1250v90z" />
<glyph unicode="`" d="M506 1513v64h112l146 -307v-31h-90z" />
<glyph unicode="a" d="M178 145v314q17 22 29.5 36.5t49.5 44t76.5 47.5t105 33t141.5 15q200 0 344 -113v305q-32 84 -114.5 138.5t-209.5 54.5q-194 0 -285 -129v-113h-114v154q10 15 24 32.5t49.5 48t77.5 53.5t108 40.5t140 17.5q94 0 173 -24.5t132 -66t87.5 -85.5t54.5 -92v-856h-119v102 q-141 -129 -348 -129q-265 0 -402 172zM301 193q110 -117 279 -117q122 0 211 43.5t133 107.5v158q-40 62 -130.5 103.5t-213.5 41.5q-189 0 -279 -110v-227z" />
<glyph unicode="b" d="M244 0v1434h123v-412q130 100 319 100q72 0 135 -16t104 -38.5t75.5 -54t52.5 -56t32 -50.5v-717q-14 -26 -32 -50.5t-52.5 -56.5t-75.5 -55t-104 -39t-135 -16q-187 0 -321 103v-76h-121zM367 213q45 -59 125 -97t186 -38q111 0 183 45t102 100v651q-34 56 -104.5 101 t-180.5 45q-106 0 -186 -38t-125 -97v-672z" />
<glyph unicode="c" d="M219 240v618q16 38 40.5 73t62.5 71t84.5 62.5t110.5 43t136 16.5q90 0 165.5 -24.5t126 -64.5t83 -81.5t51.5 -85.5v-166h-114v125q-34 82 -115 137.5t-197 55.5q-118 0 -197.5 -55t-113.5 -138v-555q34 -84 113.5 -140t197.5 -56q116 0 197 56.5t115 139.5v123h114 v-164q-19 -45 -51.5 -87t-83 -82t-126 -64.5t-165.5 -24.5q-89 0 -165 24.5t-127.5 65.5t-86 85t-55.5 92z" />
<glyph unicode="d" d="M182 190v717q14 26 32 50.5t52.5 56t76 54t104.5 38.5t135 16q187 0 319 -102v414h123v-1434h-119v78q-128 -105 -323 -105q-72 0 -135 16t-104.5 39t-76 55t-52.5 56.5t-32 50.5zM305 223q33 -56 104 -100.5t181 -44.5q105 0 186 38t125 97v674q-45 57 -126 95t-185 38 q-111 0 -182.5 -45.5t-102.5 -100.5v-651z" />
<glyph unicode="e" d="M203 240v618q22 48 56.5 91.5t87 84.5t129 65.5t167.5 24.5q90 0 167.5 -25t129 -65t84.5 -80t51 -80v-352h-749v-250q36 -84 117 -140t200 -56q118 0 200.5 56t117.5 140v84h114v-131q-17 -35 -40 -67.5t-61 -67t-83.5 -59.5t-110 -41.5t-137.5 -16.5q-91 0 -167.5 24.5 t-129 66t-87 85t-56.5 91.5zM326 621h635v204q-36 83 -118 139t-200 56q-119 0 -200 -56t-117 -139v-204z" />
<glyph unicode="f" d="M238 0v98h241v901h-241v99h241v186q114 184 422 184q113 0 176 -14v-92q-87 6 -139 6q-258 0 -336 -119v-151h475v-99h-475v-901h475v-98h-839z" />
<glyph unicode="g" d="M203 352v555q14 26 32 50.5t53 56t76 54t103.5 38.5t134.5 16q191 0 326 -104v80h116v-1192q-20 -48 -54 -90t-86 -79t-128 -59t-166 -22q-71 0 -134 15.5t-105 38.5t-76.5 53t-53 55t-30.5 49v164h115v-129q36 -56 105 -100t179 -44q122 0 200 47t112 127v308 q-130 -103 -320 -103q-72 0 -134.5 16t-103.5 38.5t-76 54t-53 56t-32 50.5zM326 387q36 -56 105 -99.5t179 -43.5q107 0 188 37.5t124 95.5v510q-43 57 -124.5 95t-185.5 38q-59 0 -110 -14.5t-85 -38.5t-55.5 -46.5t-35.5 -46.5v-487z" />
<glyph unicode="h" d="M221 0v1434h123v-414q132 102 320 102q72 0 134.5 -16t103 -38.5t75.5 -54.5t53 -55.5t33 -50.5v-907h-123v874q-34 56 -104.5 101t-180.5 45q-106 0 -186 -38t-125 -97v-885h-123z" />
<glyph unicode="i" d="M223 0v98h377v901h-340v99h463v-1000h379v-98h-879zM561 1366v113q8 14 34.5 25.5t57.5 11.5q29 0 56 -12t32 -25v-113q-5 -11 -32 -23t-56 -12q-31 0 -57 11.5t-35 23.5z" />
<glyph unicode="j" d="M211 -246q202 0 340.5 57.5t196.5 143.5v1044h-508v99h630v-1182q-32 -48 -84 -91.5t-130.5 -84.5t-193.5 -65.5t-251 -24.5v104zM709 1366v113q8 14 34.5 25.5t57.5 11.5q29 0 56 -12t32 -25v-113q-5 -11 -32 -23t-56 -12q-31 0 -57 11.5t-35 23.5z" />
<glyph unicode="k" d="M279 0v1434h122v-902h21l573 566h72v-82l-408 -395l424 -539v-82h-79l-426 543l-177 -172v-371h-122z" />
<glyph unicode="l" d="M207 0v98h377v1237h-340v99h463v-1336h376v-98h-876z" />
<glyph unicode="m" d="M98 0v1098h115v-74q84 98 215 98q150 0 229 -123q51 61 108 92t136 31q65 0 117 -21.5t83 -56t48.5 -64.5t26.5 -60v-920h-123v905q-18 46 -61 80.5t-107 34.5q-61 0 -111 -32t-80 -83v-905h-114v903q-21 47 -64.5 82t-109.5 35q-122 0 -185 -113v-907h-123z" />
<glyph unicode="n" d="M221 0v1098h119v-80q127 104 324 104q72 0 134.5 -16t103 -38.5t75.5 -54.5t53 -55.5t33 -50.5v-907h-123v874q-34 56 -104.5 101t-180.5 45q-106 0 -186 -38t-125 -97v-885h-123z" />
<glyph unicode="o" d="M201 240v616q21 48 55 92t85.5 85.5t127.5 66t166 24.5t166.5 -25t128 -66t85.5 -85t54 -92v-616q-20 -48 -54 -92t-85.5 -85t-128 -65.5t-166.5 -24.5t-166 24.5t-127.5 66t-85.5 85t-55 91.5zM324 272q34 -84 114.5 -140t196.5 -56q118 0 197.5 56t113.5 140v553 q-34 84 -113.5 139.5t-197.5 55.5q-116 0 -196.5 -56t-114.5 -139v-553z" />
<glyph unicode="p" d="M244 -336v1434h121v-78q128 102 321 102q72 0 135 -16t104 -38.5t75.5 -54t52.5 -56t32 -50.5v-717q-14 -26 -32 -50.5t-52.5 -56.5t-75.5 -55t-104 -39t-135 -16q-185 0 -319 103v-412h-123zM367 213q45 -59 125 -97t186 -38q111 0 183 45t102 100v651 q-34 56 -104.5 101t-180.5 45q-106 0 -186 -38t-125 -97v-672z" />
<glyph unicode="q" d="M182 190v717q14 26 32 50.5t52.5 56t76 54t104.5 38.5t135 16q192 0 323 -104v80h119v-1434h-123v412q-134 -103 -319 -103q-72 0 -135 16t-104.5 39t-76 55t-52.5 56.5t-32 50.5zM305 223q33 -56 104 -100.5t181 -44.5q101 0 184 38t127 97v674q-45 57 -126 95t-185 38 q-111 0 -182.5 -45.5t-102.5 -100.5v-651z" />
<glyph unicode="r" d="M193 0v98h294v901h-294v99h415v-142q69 62 179.5 102t259.5 40q24 0 55 -2v-107q-37 2 -53 2q-151 0 -264 -39.5t-175 -101.5v-752h432v-98h-849z" />
<glyph unicode="s" d="M223 166v172h115v-135q105 -127 299 -127q108 0 182 37t115 90v170q-54 80 -234 121l-153 32q-128 29 -211.5 76t-112.5 96v234q17 23 37 44t57.5 49.5t80 49t105.5 35t132 14.5q71 0 134 -14.5t106 -34.5t80 -48.5t57.5 -50t36.5 -44.5v-168h-115v125 q-41 54 -114.5 92.5t-182.5 38.5q-110 0 -184 -38.5t-115 -92.5v-141q63 -82 240 -117l143 -33q131 -31 215.5 -78t112.5 -96v-258q-21 -30 -50.5 -58t-79 -61t-123 -53.5t-159.5 -20.5q-70 0 -133 14.5t-106 35.5t-80.5 49.5t-57.5 49.5t-37 44z" />
<glyph unicode="t" d="M184 999v99h273v336h123v-336h485v-99h-485v-788q85 -129 352 -129q29 0 153 8v-94q-81 -12 -188 -12q-330 0 -440 182v833h-273z" />
<glyph unicode="u" d="M211 184v914h123v-875q84 -145 274 -145q102 0 181.5 38t119.5 91v891h123v-1098h-117v80q-70 -54 -142.5 -80.5t-170.5 -26.5q-69 0 -129.5 15.5t-101 37.5t-75 53t-52.5 55t-33 50z" />
<glyph unicode="v" d="M156 1016v82h98l369 -975h30l365 975h96v-82l-391 -1016h-172z" />
<glyph unicode="w" d="M80 1016v82h104l129 -971h27l203 723h182l205 -723h26l127 971h107v-82l-143 -1016h-195l-211 737h-23l-210 -737h-185z" />
<glyph unicode="x" d="M231 0v82l322 477l-322 457v82h80l318 -465h14l322 465h73v-82l-319 -457l319 -477v-82h-77l-318 481h-14l-326 -481h-72z" />
<glyph unicode="y" d="M178 -244q66 -4 94 -4q82 0 152.5 29.5t116.5 75.5l37 114l-390 1041v86h99l338 -946h24l334 946h88v-80l-434 -1215q-54 -70 -151.5 -110.5t-196.5 -40.5q-66 0 -111 10v94z" />
<glyph unicode="z" d="M205 0v88l696 893v18h-696v99h858v-84l-703 -897v-19h703v-98h-858z" />
<glyph unicode="{" d="M293 492v98q151 0 182 106v420q19 47 46.5 89.5t71 85t97 73.5t128 50.5t159.5 19.5v-101q-142 0 -238.5 -71.5t-134.5 -180.5v-409q-31 -90 -119 -133q88 -43 119 -129v-410q38 -111 134.5 -184.5t238.5 -73.5v-94q-85 0 -159.5 19t-128 49.5t-97 73t-71 85t-46.5 88.5 v420q-32 109 -182 109z" />
<glyph unicode="|" d="M571 -266v1884h127v-1884h-127z" />
<glyph unicode="}" d="M293 -258q142 0 238.5 73.5t134.5 184.5v410q35 88 118 129q-83 41 -118 133v409q-38 109 -134.5 180.5t-238.5 71.5v101q85 0 159.5 -19.5t128.5 -50.5t98 -73.5t71.5 -85.5t46.5 -89v-420q31 -106 180 -106v-98q-148 0 -180 -109v-420q-19 -46 -46.5 -88.5t-71.5 -84.5 t-98 -73t-128.5 -50t-159.5 -19v94z" />
<glyph unicode="~" d="M104 649v111q4 4 12.5 10t36.5 22.5t58.5 29t78.5 22.5t97 10q102 0 281.5 -52t267.5 -52q60 0 117 22.5t85 45.5l27 22v-121q-10 -8 -28 -19.5t-77 -31t-122 -19.5q-71 0 -149.5 16.5t-136 36t-131.5 36t-138 16.5q-45 0 -90 -11t-77.5 -26t-59 -30.5t-39.5 -26.5z" />
<glyph unicode="&#xa0;" />
<glyph unicode="&#xa1;" d="M500 975v112q5 14 31.5 25.5t62.5 11.5q38 0 63.5 -11t30.5 -26v-112q-5 -12 -31.5 -23.5t-62.5 -11.5q-35 0 -62 11.5t-32 23.5zM526 -131l21 870h94l21 -870v-193h-136v193z" />
<glyph unicode="&#xa2;" d="M186 240v618q21 44 55 85.5t84.5 81t123.5 65.5t159 32v172h115v-174q155 -16 256 -90.5t141 -161.5v-166h-116v125q-35 82 -125.5 137.5t-219.5 55.5q-131 0 -221 -55.5t-127 -137.5v-555q37 -84 127 -140t221 -56q129 0 219.5 56.5t125.5 139.5v123h116v-164 q-39 -89 -140 -164.5t-257 -91.5v-172h-115v170q-164 14 -270 91.5t-152 175.5z" />
<glyph unicode="&#xa3;" d="M111 684v78h135v434q19 46 55.5 90.5t91 84.5t132.5 64.5t167 24.5q90 0 169 -25t133 -64.5t90.5 -81.5t54.5 -83v-153h-119v112q-32 78 -120.5 135.5t-207.5 57.5q-115 0 -203.5 -57t-121.5 -136v-403h551l-13 -78h-538v-469q-35 -61 -82 -111h854v-104h-1024v94 q30 6 70 39.5t61 85.5v465h-135z" />
<glyph unicode="&#xa4;" d="M174 240v65l88 88q-46 59 -65 109v381q21 52 67 108l-90 94v64h88l80 -82q127 82 293 82q162 0 297 -80l80 80h86v-64l-94 -90q39 -46 69 -112v-381q-28 -66 -67 -109l92 -88v-65h-86l-84 79q-122 -81 -293 -81q-167 0 -295 79l-78 -77h-88zM319 535q32 -83 114 -139 t202 -56t201.5 55.5t115.5 139.5v317q-34 84 -115.5 140.5t-201.5 56.5t-202 -56.5t-114 -140.5v-317z" />
<glyph unicode="&#xa5;" d="M121 393v78h450v178l-12 19h-438v77h393l-389 619v70h102l400 -664h26l398 664h98v-70l-383 -619h383v-77h-434l-15 -27v-170h449v-78h-449v-393h-129v393h-450z" />
<glyph unicode="&#xa6;" d="M571 -260v788h127v-788h-127zM571 827v791h127v-791h-127z" />
<glyph unicode="&#xa7;" d="M242 -8v168h114v-135q39 -52 109.5 -91.5t169.5 -39.5q101 0 171 39.5t107 91.5v147q-47 77 -223 121l-135 33q-124 30 -203.5 76t-109.5 94v258q64 97 182 149q-137 60 -182 141v224q17 23 36 44.5t55 50t76.5 48.5t100 34.5t125.5 14.5q253 0 395 -192v-170h-117v137 q-36 51 -106.5 90t-169.5 39q-101 0 -171.5 -38.5t-109.5 -90.5v-150q26 -41 76.5 -65t149.5 -51l137 -37q249 -67 311 -170v-258q-64 -94 -184 -152q131 -55 184 -135v-225q-22 -31 -49.5 -58.5t-75.5 -61.5t-117.5 -54.5t-150.5 -20.5q-83 0 -153.5 20.5t-118 54.5t-75 62 t-48.5 58zM356 543q56 -87 222 -121l88 -19q84 1 147 41.5t100 92.5v182q-55 83 -221 117l-106 20q-154 -31 -230 -135v-178z" />
<glyph unicode="&#xa8;" d="M350 1354v123q42 28 86 28q27 0 51.5 -10t30.5 -18v-123q-5 -9 -29.5 -19t-52.5 -10q-51 0 -86 29zM754 1354v123q9 9 33.5 18.5t52.5 9.5q47 0 82 -28v-123q-29 -29 -82 -29q-29 0 -54 10t-32 19z" />
<glyph unicode="&#xa9;" d="M37 717q0 152 47.5 290t127.5 237t190.5 157.5t232.5 58.5t232.5 -58.5t190.5 -157.5t127.5 -237t47.5 -290q0 -203 -80 -374.5t-217.5 -270.5t-300.5 -99t-300.5 99t-217.5 270.5t-80 374.5zM121 717q0 -181 67 -333.5t185.5 -241.5t261.5 -89q144 0 262 89t185 241.5 t67 333.5t-67 333t-185 241t-262 89q-107 0 -202.5 -52.5t-164 -141t-108 -211t-39.5 -258.5zM322 434v559q15 29 36.5 58t59 63t94 55t123.5 21q205 0 311 -191v-165h-108v127q-23 51 -76 93t-127 42q-71 0 -125 -41.5t-78 -93.5v-496q24 -51 78 -92t125 -41q74 0 127 41 t76 92v127h108v-166q-112 -188 -311 -188q-66 0 -122.5 20.5t-94 53.5t-60 62.5t-36.5 59.5z" />
<glyph unicode="&#xaa;" d="M338 836v198q95 111 252 111q144 0 239 -84v199q-24 51 -76 84.5t-132 33.5q-116 0 -183 -84v-61h-88v90q96 125 271 125q121 0 196.5 -51t104.5 -121v-533h-91v70q-91 -84 -241 -84q-56 0 -103 12t-77 32t-45.5 34.5t-26.5 28.5zM428 866q54 -69 178 -69q80 0 137.5 25 t85.5 65v96q-29 39 -87 66.5t-136 27.5q-111 0 -178 -73v-138z" />
<glyph unicode="&#xab;" d="M147 569v86l381 443h86v-70l-360 -418l360 -415v-70h-86zM655 569v86l381 443h86v-70l-360 -418l360 -415v-70h-86z" />
<glyph unicode="&#xac;" d="M125 641v107h1020v-558h-105v451h-915z" />
<glyph unicode="&#xad;" d="M408 641v107h704v-107h-704z" />
<glyph unicode="&#xae;" d="M145 1198q0 99 39 189.5t105 156.5t156.5 105t189.5 39q132 0 244.5 -66t178.5 -179t66 -245t-66 -244.5t-178.5 -178.5t-244.5 -66t-245 66t-179 178.5t-66 244.5zM207 1198q0 -181 123.5 -307.5t304.5 -126.5q179 0 303.5 126.5t124.5 307.5t-124.5 307.5t-303.5 126.5 q-181 0 -304.5 -126.5t-123.5 -307.5zM453 915v584h229q53 0 100.5 -28t71.5 -78v-152q-22 -39 -58 -68.5t-77 -39.5l121 -172v-46h-54l-145 218h-119v-218h-69zM522 1198h148q82 0 116 66v108q-34 66 -116 66h-148v-240z" />
<glyph unicode="&#xaf;" d="M309 1372v98h649v-98h-649z" />
<glyph unicode="&#xb0;" d="M328 1233v262q14 25 37.5 49.5t60 50.5t91 42t118.5 16q117 0 194.5 -49.5t110.5 -108.5v-262q-14 -25 -37.5 -49t-60.5 -49.5t-91 -41.5t-116 -16q-63 0 -118 16t-91.5 42t-59.5 50t-38 48zM420 1264q26 -42 80.5 -72.5t134.5 -30.5q77 0 131 30.5t84 72.5v202 q-30 42 -84 72.5t-131 30.5q-80 0 -134.5 -30.5t-80.5 -72.5v-202z" />
<glyph unicode="&#xb1;" d="M125 66v102h1020v-102h-1020zM125 729v107h455v405h104v-405h461v-107h-461v-405h-104v405h-455z" />
<glyph unicode="&#xb2;" d="M319 573v80l455 385q63 56 68 64v164q-23 44 -81 74t-134 30q-74 0 -125 -25t-76 -59v-125h-96v156q36 49 109.5 91t187.5 42q119 0 201.5 -48.5t111.5 -109.5v-217q-10 -17 -104 -96l-381 -317v-5h497v-84h-633z" />
<glyph unicode="&#xb3;" d="M326 707v112h92v-78q21 -44 79 -74t134 -30q77 0 133.5 29.5t81.5 74.5v140q-24 42 -81.5 73t-133.5 31h-103v78h93q72 0 125 27.5t77 62.5v133q-26 32 -78.5 58t-123.5 26q-74 0 -127 -26t-76 -58v-86h-92v117q26 45 103 89t192 44q113 0 192.5 -45t108.5 -94v-174 q-18 -28 -60.5 -59.5t-101.5 -49.5q67 -17 115 -55t67 -78v-178q-28 -61 -109.5 -109.5t-201.5 -48.5q-116 0 -197 47t-108 101z" />
<glyph unicode="&#xb4;" d="M506 1239v31l145 307h113v-64l-164 -274h-94z" />
<glyph unicode="&#xb5;" d="M223 -336v1434h123v-877q93 -143 279 -143q93 0 171.5 36.5t125.5 92.5v891h122v-1098h-116v78q-128 -105 -314 -105q-90 0 -160 23.5t-108 54.5v-387h-123z" />
<glyph unicode="&#xb6;" d="M109 774v420q61 112 167.5 176t231.5 64h246v-1639h-105v740h-141q-131 0 -236 66.5t-163 172.5zM1059 -205v1639h104v-1639h-104z" />
<glyph unicode="&#xb7;" d="M541 651v113q5 12 31.5 23.5t62.5 11.5q35 0 62 -11.5t32 -23.5v-113q-5 -14 -31.5 -25.5t-62.5 -11.5q-38 0 -63.5 11t-30.5 26z" />
<glyph unicode="&#xb8;" d="M449 -426l20 76q81 -51 164 -51q37 0 65 15.5t39 37.5v90q-8 19 -37 34t-69 15h-115l57 211h89l-41 -137h34q59 0 103 -27.5t61 -62.5v-160q-53 -98 -182 -98q-107 0 -188 57z" />
<glyph unicode="&#xb9;" d="M367 1309v65l247 60h74v-789h213v-72h-532v72h219v701z" />
<glyph unicode="&#xba;" d="M342 899v377q29 70 105 121t194 51t193 -50.5t106 -121.5v-377q-32 -69 -107 -119.5t-192 -50.5q-118 0 -194 51t-105 119zM434 918q24 -49 77.5 -83t129.5 -34q78 0 131 34t76 83v342q-22 51 -75 84.5t-132 33.5q-77 0 -130 -33.5t-77 -84.5v-342z" />
<glyph unicode="&#xbb;" d="M145 125v70l361 415l-361 418v70h91l378 -443v-86l-378 -444h-91zM651 125v70l363 415l-363 418v70h90l381 -443v-86l-381 -444h-90z" />
<glyph unicode="&#xbc;" d="M66 1333v62l176 39h73v-695h140v-69h-385v69h147v609zM68 0v63l325 418h70v-63l-328 -418h-67zM580 188v76l358 500h160v-498h125v-78h-125v-188h-94v188h-424zM678 266h326v408h-23zM811 952v64l324 418h67v-64l-323 -418h-68z" />
<glyph unicode="&#xbd;" d="M66 1333v62l176 39h73v-695h140v-69h-385v69h147v609zM68 0v63l325 418h70v-63l-328 -418h-67zM614 0v74l418 342q54 41 62 57v139q-20 37 -73.5 63.5t-121.5 26.5q-66 0 -114 -21.5t-68 -49.5v-111h-90v142q30 41 98.5 78.5t173.5 37.5q111 0 187 -43.5t104 -97.5v-193 q-8 -11 -76 -65l-364 -293v-4h452v-82h-588zM811 952v64l324 418h67v-64l-323 -418h-68z" />
<glyph unicode="&#xbe;" d="M68 0v63l325 418h70v-63l-328 -418h-67zM68 786v103h92v-68q20 -38 71.5 -64t122.5 -26q69 0 121 26t72 64v121q-18 36 -71 62t-122 26h-96v76h84q64 0 112.5 23.5t71.5 52.5v118q-23 27 -72 49.5t-112 22.5q-65 0 -113 -22.5t-69 -49.5v-73h-92v106q13 16 32.5 32.5 t52.5 37t82.5 33t106.5 12.5q107 0 181.5 -41t101.5 -86v-154q-17 -25 -56.5 -51.5t-93.5 -42.5q60 -14 104 -47.5t64 -69.5v-157q-28 -54 -104 -98t-185 -44q-110 0 -185.5 41t-100.5 88zM580 188v76l358 500h160v-498h125v-78h-125v-188h-94v188h-424zM678 266h326v408 h-23zM811 952v64l324 418h67v-64l-323 -418h-68z" />
<glyph unicode="&#xbf;" d="M141 -125v346q6 10 14 20.5t22 23t22.5 21t29 24t26.5 20.5t29.5 22.5t24.5 18.5l322 237v146h125v-201l-344 -248q-122 -91 -144 -127v-266q47 -65 133 -110.5t197 -45.5q109 0 194.5 46t133.5 110v180h121v-223q-158 -219 -449 -219q-92 0 -170.5 21.5t-133.5 57.5 t-91 71.5t-62 74.5zM600 975v112q5 14 31.5 25.5t62.5 11.5q38 0 63.5 -11t30.5 -26v-112q-5 -12 -31.5 -23.5t-62.5 -11.5q-35 0 -62 11.5t-32 23.5z" />
<glyph unicode="&#xc0;" d="M127 0v90l403 1344h207l408 -1344v-90h-107l-149 506h-514l-152 -506h-96zM406 612h450l-207 705h-33zM416 1792v63h112l146 -270v-33h-90z" />
<glyph unicode="&#xc1;" d="M127 0v90l403 1344h207l408 -1344v-90h-107l-149 506h-514l-152 -506h-96zM406 612h450l-207 705h-33zM528 1552v33l146 270h112v-63l-163 -240h-95z" />
<glyph unicode="&#xc2;" d="M127 0v90l403 1344h207l408 -1344v-90h-107l-149 506h-514l-152 -506h-96zM362 1552v33l191 270h164l190 -270v-33h-78l-196 215l-193 -215h-78zM406 612h450l-207 705h-33z" />
<glyph unicode="&#xc3;" d="M127 0v90l403 1344h207l408 -1344v-90h-107l-149 506h-514l-152 -506h-96zM276 1540v121q11 74 62 118t131 44q48 0 91 -19.5t73.5 -47.5t57.5 -56.5t54.5 -48t53.5 -19.5q82 0 98 88v99h96v-123q-12 -73 -62 -116.5t-126 -43.5q-50 0 -92.5 19.5t-71.5 47.5t-55 56 t-54.5 47.5t-58.5 19.5q-51 0 -72.5 -23.5t-29.5 -60.5v-102h-95zM406 612h450l-207 705h-33z" />
<glyph unicode="&#xc4;" d="M127 0v90l403 1344h207l408 -1344v-90h-107l-149 506h-514l-152 -506h-96zM350 1626v121q35 29 86 29q28 0 52.5 -10t29.5 -19v-121q-5 -9 -29.5 -19t-52.5 -10q-57 0 -86 29zM406 612h450l-207 705h-33zM754 1626v121q7 9 32 19t54 10q53 0 82 -29v-121q-29 -29 -82 -29 q-30 0 -54.5 9.5t-31.5 19.5z" />
<glyph unicode="&#xc5;" d="M127 0v90l389 1299q-68 30 -88 75v191q21 41 78 68.5t129 27.5q71 0 129 -27.5t80 -68.5v-191q-22 -46 -94 -75l395 -1299v-90h-107l-149 506h-516l-152 -506h-94zM403 612h453l-207 705h-33zM510 1495q9 -22 45 -37.5t80 -15.5t79 15.5t44 37.5v129q-9 21 -44.5 36 t-78.5 15t-79.5 -15t-45.5 -36v-129z" />
<glyph unicode="&#xc6;" d="M47 0v90l451 1344h700v-107h-450v-534h415v-105h-415v-582h466v-106h-585v485h-340l-160 -485h-82zM324 590h305v737h-60z" />
<glyph unicode="&#xc7;" d="M143 283v868q19 44 46.5 85t72 82.5t97.5 72.5t127 50t157 19q104 0 192 -28t147.5 -75t98.5 -96.5t64 -105.5v-229h-129v190q-37 97 -136 165.5t-237 68.5q-137 0 -236.5 -69t-134.5 -165v-799q38 -100 135.5 -166.5t235.5 -66.5t235 66t138 167v213h129v-251 q-25 -55 -63.5 -104.5t-95.5 -95.5t-140 -74.5t-182 -31.5l-33 -108h35q59 0 102.5 -27.5t60.5 -62.5v-160q-53 -98 -182 -98q-107 0 -188 57l20 76q81 -51 164 -51q37 0 65.5 15.5t39.5 37.5v90q-8 19 -37.5 34t-69.5 15h-115l49 186q-89 8 -164 38.5t-126.5 75.5t-86 92.5 t-55.5 99.5z" />
<glyph unicode="&#xc8;" d="M262 0v1434h852v-107h-723v-532h666v-107h-666v-582h742v-106h-871zM510 1792v63h113l145 -270v-33h-90z" />
<glyph unicode="&#xc9;" d="M262 0v1434h852v-107h-723v-532h666v-107h-666v-582h742v-106h-871zM627 1552v33l145 270h113v-63l-164 -240h-94z" />
<glyph unicode="&#xca;" d="M262 0v1434h852v-107h-723v-532h666v-107h-666v-582h742v-106h-871zM418 1552v33l190 270h164l191 -270v-33h-78l-197 215l-192 -215h-78z" />
<glyph unicode="&#xcb;" d="M262 0v1434h852v-107h-723v-532h666v-107h-666v-582h742v-106h-871zM426 1626v121q35 29 86 29q28 0 52.5 -10t29.5 -19v-121q-5 -9 -29.5 -19t-52.5 -10q-57 0 -86 29zM829 1626v121q7 9 32 19t54 10q53 0 82 -29v-121q-29 -29 -82 -29q-30 0 -54.5 9.5t-31.5 19.5z" />
<glyph unicode="&#xcc;" d="M199 0v106h372v1221h-372v107h870v-107h-369v-1221h369v-106h-870zM420 1792v63h112l146 -270v-33h-90z" />
<glyph unicode="&#xcd;" d="M199 0v106h372v1221h-372v107h870v-107h-369v-1221h369v-106h-870zM584 1552v33l145 270h113v-63l-164 -240h-94z" />
<glyph unicode="&#xce;" d="M199 0v106h372v1221h-372v107h870v-107h-369v-1221h369v-106h-870zM360 1552v33l191 270h164l190 -270v-33h-78l-196 215l-193 -215h-78z" />
<glyph unicode="&#xcf;" d="M199 0v106h372v1221h-372v107h870v-107h-369v-1221h369v-106h-870zM346 1622v121q35 29 86 29q28 0 52.5 -10t29.5 -19v-121q-5 -9 -29.5 -19t-52.5 -10q-57 0 -86 29zM750 1622v121q7 9 32 19t54 10q53 0 82 -29v-121q-29 -29 -82 -29q-30 0 -54.5 9.5t-31.5 19.5z" />
<glyph unicode="&#xd0;" d="M82 678v106h123v650h430q100 0 184 -24t142 -66t97.5 -89.5t63.5 -103.5v-868q-24 -56 -63.5 -103.5t-97.5 -89.5t-142 -66t-184 -24h-430v678h-123zM334 106h287q140 0 236.5 58t135.5 151v803q-39 93 -135.5 151t-236.5 58h-287v-543h373v-106h-373v-572z" />
<glyph unicode="&#xd1;" d="M172 0v1434h201l573 -1256h23v1256h129v-1434h-197l-573 1257h-27v-1257h-129zM270 1540v121q11 74 62 118t131 44q48 0 91 -19.5t73.5 -47.5t57.5 -56.5t54.5 -48t53.5 -19.5q82 0 98 88v99h96v-123q-12 -73 -62 -116.5t-126 -43.5q-50 0 -92.5 19.5t-71.5 47.5t-55 56 t-54.5 47.5t-58.5 19.5q-51 0 -72.5 -23.5t-29.5 -60.5v-102h-95z" />
<glyph unicode="&#xd2;" d="M135 283v868q19 44 46.5 85t71.5 82.5t97 72t127 50t158 19.5t158 -19.5t127 -50t97 -72t71.5 -82.5t46.5 -85v-868q-24 -57 -63 -108t-98.5 -98.5t-147 -75.5t-191.5 -28t-191.5 28t-147 75.5t-98.5 98.5t-63 108zM264 317q38 -100 135.5 -166.5t235.5 -66.5t235.5 66.5 t135.5 166.5v799q-35 97 -134 165.5t-237 68.5t-237 -68.5t-134 -165.5v-799zM438 1796v64h113l145 -271v-33h-90z" />
<glyph unicode="&#xd3;" d="M135 283v868q19 44 46.5 85t71.5 82.5t97 72t127 50t158 19.5t158 -19.5t127 -50t97 -72t71.5 -82.5t46.5 -85v-868q-24 -57 -63 -108t-98.5 -98.5t-147 -75.5t-191.5 -28t-191.5 28t-147 75.5t-98.5 98.5t-63 108zM264 317q38 -100 135.5 -166.5t235.5 -66.5t235.5 66.5 t135.5 166.5v799q-35 97 -134 165.5t-237 68.5t-237 -68.5t-134 -165.5v-799zM596 1556v33l145 271h113v-64l-164 -240h-94z" />
<glyph unicode="&#xd4;" d="M135 283v868q19 44 46.5 85t71.5 82.5t97 72t127 50t158 19.5t158 -19.5t127 -50t97 -72t71.5 -82.5t46.5 -85v-868q-24 -57 -63 -108t-98.5 -98.5t-147 -75.5t-191.5 -28t-191.5 28t-147 75.5t-98.5 98.5t-63 108zM264 317q38 -100 135.5 -166.5t235.5 -66.5t235.5 66.5 t135.5 166.5v799q-35 97 -134 165.5t-237 68.5t-237 -68.5t-134 -165.5v-799zM371 1556v33l190 271h164l190 -271v-33h-77l-197 216l-192 -216h-78z" />
<glyph unicode="&#xd5;" d="M135 283v868q19 44 46.5 85t71.5 82.5t97 72t127 50t158 19.5t158 -19.5t127 -50t97 -72t71.5 -82.5t46.5 -85v-868q-24 -57 -63 -108t-98.5 -98.5t-147 -75.5t-191.5 -28t-191.5 28t-147 75.5t-98.5 98.5t-63 108zM264 317q38 -100 135.5 -166.5t235.5 -66.5t235.5 66.5 t135.5 166.5v799q-35 97 -134 165.5t-237 68.5t-237 -68.5t-134 -165.5v-799zM293 1544v121q11 74 61.5 118t130.5 44q48 0 91 -19.5t73.5 -47.5t57.5 -56.5t54.5 -48t53.5 -19.5q82 0 98 88v99h97v-123q-12 -73 -62.5 -116.5t-126.5 -43.5q-50 0 -92.5 19.5t-71.5 48 t-55 56.5t-54.5 47.5t-58.5 19.5q-51 0 -72.5 -23.5t-29.5 -60.5v-103h-94z" />
<glyph unicode="&#xd6;" d="M135 283v868q19 44 46.5 85t71.5 82.5t97 72t127 50t158 19.5t158 -19.5t127 -50t97 -72t71.5 -82.5t46.5 -85v-868q-24 -57 -63 -108t-98.5 -98.5t-147 -75.5t-191.5 -28t-191.5 28t-147 75.5t-98.5 98.5t-63 108zM264 317q38 -100 135.5 -166.5t235.5 -66.5t235.5 66.5 t135.5 166.5v799q-35 97 -134 165.5t-237 68.5t-237 -68.5t-134 -165.5v-799zM348 1622v121q35 29 86 29q28 0 52.5 -10t29.5 -19v-121q-5 -9 -29.5 -19t-52.5 -10q-57 0 -86 29zM752 1622v121q7 9 32 19t54 10q53 0 82 -29v-121q-29 -29 -82 -29q-30 0 -54.5 9.5 t-31.5 19.5z" />
<glyph unicode="&#xd7;" d="M168 240v69l391 385l-391 387v68h76l387 -383l391 383h76v-68l-393 -387l393 -385v-69h-76l-391 378l-387 -378h-76z" />
<glyph unicode="&#xd8;" d="M135 0v53l72 109q-46 58 -72 121v868q19 44 46.5 85t71.5 82.5t97 72t127 50t158 19.5q216 0 362 -125l68 99h70v-54l-74 -110q49 -58 74 -119v-868q-24 -57 -63 -108t-98.5 -98.5t-147 -75.5t-191.5 -28q-221 0 -365 123l-65 -96h-70zM264 317q6 -19 19 -43l647 959 q-117 117 -295 117q-138 0 -237 -68.5t-134 -165.5v-799zM340 201q110 -117 295 -117q138 0 235.5 66.5t135.5 166.5v799q-11 25 -21 43z" />
<glyph unicode="&#xd9;" d="M170 233v1201h129v-1180q34 -67 128.5 -118.5t207.5 -51.5t207.5 51.5t128.5 118.5v1180h129v-1201q-19 -44 -53.5 -86t-89.5 -83t-138.5 -66t-183.5 -25t-183.5 25t-138.5 66t-89.5 83t-53.5 86zM473 1792v63h113l145 -270v-33h-90z" />
<glyph unicode="&#xda;" d="M170 233v1201h129v-1180q34 -67 128.5 -118.5t207.5 -51.5t207.5 51.5t128.5 118.5v1180h129v-1201q-19 -44 -53.5 -86t-89.5 -83t-138.5 -66t-183.5 -25t-183.5 25t-138.5 66t-89.5 83t-53.5 86zM592 1552v33l145 270h113v-63l-164 -240h-94z" />
<glyph unicode="&#xdb;" d="M170 233v1201h129v-1180q34 -67 128.5 -118.5t207.5 -51.5t207.5 51.5t128.5 118.5v1180h129v-1201q-19 -44 -53.5 -86t-89.5 -83t-138.5 -66t-183.5 -25t-183.5 25t-138.5 66t-89.5 83t-53.5 86zM369 1552v33l190 270h164l190 -270v-33h-77l-197 215l-193 -215h-77z" />
<glyph unicode="&#xdc;" d="M170 233v1201h129v-1180q34 -67 128.5 -118.5t207.5 -51.5t207.5 51.5t128.5 118.5v1180h129v-1201q-19 -44 -53.5 -86t-89.5 -83t-138.5 -66t-183.5 -25t-183.5 25t-138.5 66t-89.5 83t-53.5 86zM352 1622v121q35 29 86 29q28 0 52.5 -10t29.5 -19v-121q-5 -9 -29.5 -19 t-52.5 -10q-57 0 -86 29zM756 1622v121q7 9 32 19t54 10q53 0 82 -29v-121q-29 -29 -82 -29q-30 0 -54.5 9.5t-31.5 19.5z" />
<glyph unicode="&#xdd;" d="M152 1343v91h100l373 -646h32l367 646h94v-91l-422 -708v-635h-129v643zM643 1552v33l145 270h113v-63l-164 -240h-94z" />
<glyph unicode="&#xde;" d="M221 0v1434h129v-244h365q125 0 231.5 -63.5t167.5 -176.5v-399q-59 -107 -163 -173.5t-236 -66.5h-365v-311h-129zM350 418h336q97 0 177 45.5t124 128.5v317q-49 90 -129.5 132t-171.5 42h-336v-665z" />
<glyph unicode="&#xdf;" d="M203 0v1231q27 45 63.5 82.5t88.5 72t124.5 54.5t157.5 20q83 0 156.5 -20.5t126.5 -54t89.5 -69t59.5 -73.5v-336q-81 -105 -211 -145q171 -59 254 -225v-297q-62 -129 -177 -184.5t-304 -55.5v104q45 0 75 1.5t68.5 6.5t65.5 16.5t56 29.5t52 47.5t41 68.5v236 q-28 67 -83.5 112.5t-118 64t-130.5 18.5v102q94 0 173.5 36t121.5 97v258q-42 71 -124.5 116.5t-190.5 45.5q-114 0 -191.5 -46t-119.5 -116v-1198h-123z" />
<glyph unicode="&#xe0;" d="M178 145v314q17 22 29.5 36.5t49.5 44t76.5 47.5t105 33t141.5 15q200 0 344 -113v305q-32 84 -114.5 138.5t-209.5 54.5q-194 0 -285 -129v-113h-114v154q10 15 24 32.5t49.5 48t77.5 53.5t108 40.5t140 17.5q94 0 173 -24.5t132 -66t87.5 -85.5t54.5 -92v-856h-119v102 q-141 -129 -348 -129q-265 0 -402 172zM301 193q110 -117 279 -117q122 0 211 43.5t133 107.5v158q-40 62 -130.5 103.5t-213.5 41.5q-189 0 -279 -110v-227zM428 1513v64h113l145 -307v-31h-90z" />
<glyph unicode="&#xe1;" d="M178 145v314q17 22 29.5 36.5t49.5 44t76.5 47.5t105 33t141.5 15q200 0 344 -113v305q-32 84 -114.5 138.5t-209.5 54.5q-194 0 -285 -129v-113h-114v154q10 15 24 32.5t49.5 48t77.5 53.5t108 40.5t140 17.5q94 0 173 -24.5t132 -66t87.5 -85.5t54.5 -92v-856h-119v102 q-141 -129 -348 -129q-265 0 -402 172zM301 193q110 -117 279 -117q122 0 211 43.5t133 107.5v158q-40 62 -130.5 103.5t-213.5 41.5q-189 0 -279 -110v-227zM569 1239v31l146 307h112v-64l-163 -274h-95z" />
<glyph unicode="&#xe2;" d="M178 145v314q17 22 29.5 36.5t49.5 44t76.5 47.5t105 33t141.5 15q200 0 344 -113v305q-32 84 -114.5 138.5t-209.5 54.5q-194 0 -285 -129v-113h-114v154q10 15 24 32.5t49.5 48t77.5 53.5t108 40.5t140 17.5q94 0 173 -24.5t132 -66t87.5 -85.5t54.5 -92v-856h-119v102 q-141 -129 -348 -129q-265 0 -402 172zM301 193q110 -117 279 -117q122 0 211 43.5t133 107.5v158q-40 62 -130.5 103.5t-213.5 41.5q-189 0 -279 -110v-227zM362 1237v33l191 305h164l190 -305v-33h-78l-196 248l-193 -248h-78z" />
<glyph unicode="&#xe3;" d="M178 145v314q17 22 29.5 36.5t49.5 44t76.5 47.5t105 33t141.5 15q200 0 344 -113v305q-32 84 -114.5 138.5t-209.5 54.5q-194 0 -285 -129v-113h-114v154q10 15 24 32.5t49.5 48t77.5 53.5t108 40.5t140 17.5q94 0 173 -24.5t132 -66t87.5 -85.5t54.5 -92v-856h-119v102 q-141 -129 -348 -129q-265 0 -402 172zM266 1255v121q11 74 62 119t131 45q48 0 91 -19.5t73 -47.5t57 -56t54.5 -47.5t53.5 -19.5q84 0 99 88v96h96v-121q-12 -73 -62 -116.5t-126 -43.5q-50 0 -92.5 19.5t-71.5 47.5t-55 56.5t-54.5 48t-58.5 19.5q-51 0 -73 -24t-30 -62 v-103h-94zM301 193q110 -117 279 -117q122 0 211 43.5t133 107.5v158q-40 62 -130.5 103.5t-213.5 41.5q-189 0 -279 -110v-227z" />
<glyph unicode="&#xe4;" d="M178 145v314q17 22 29.5 36.5t49.5 44t76.5 47.5t105 33t141.5 15q200 0 344 -113v305q-32 84 -114.5 138.5t-209.5 54.5q-194 0 -285 -129v-113h-114v154q10 15 24 32.5t49.5 48t77.5 53.5t108 40.5t140 17.5q94 0 173 -24.5t132 -66t87.5 -85.5t54.5 -92v-856h-119v102 q-141 -129 -348 -129q-265 0 -402 172zM301 193q110 -117 279 -117q122 0 211 43.5t133 107.5v158q-40 62 -130.5 103.5t-213.5 41.5q-189 0 -279 -110v-227zM338 1354v123q42 28 86 28q27 0 51.5 -10t30.5 -18v-123q-5 -9 -29.5 -19t-52.5 -10q-51 0 -86 29zM741 1354v123 q9 9 33.5 18.5t52.5 9.5q47 0 82 -28v-123q-29 -29 -82 -29q-29 0 -54 10t-32 19z" />
<glyph unicode="&#xe5;" d="M178 145v314q17 22 29.5 36.5t49.5 44t76.5 47.5t105 33t141.5 15q200 0 344 -113v305q-32 84 -114.5 138.5t-209.5 54.5q-194 0 -285 -129v-113h-114v154q10 15 24 32.5t49.5 48t77.5 53.5t108 40.5t140 17.5q94 0 173 -24.5t132 -66t87.5 -85.5t54.5 -92v-856h-119v102 q-141 -129 -348 -129q-265 0 -402 172zM301 193q110 -117 279 -117q122 0 211 43.5t133 107.5v158q-40 62 -130.5 103.5t-213.5 41.5q-189 0 -279 -110v-227zM410 1364v205q22 39 83.5 68.5t139.5 29.5q75 0 135.5 -29t83.5 -69v-205q-23 -41 -83 -69.5t-136 -28.5 q-78 0 -140 29t-83 69zM494 1393q51 -45 139 -45q46 0 82 15t51 30v141q-13 18 -49 34.5t-84 16.5q-50 0 -87 -16t-52 -35v-141z" />
<glyph unicode="&#xe6;" d="M84 139v305q9 19 21.5 38t37.5 45t54.5 45t74 32.5t95.5 13.5q127 0 208 -71v342q-19 69 -69 100t-115 31q-150 0 -188 -121v-121h-115v154q23 71 101 131.5t196 60.5q97 0 154 -32.5t102 -92.5q54 63 112.5 94t143.5 31q213 0 297 -194v-408h-496v-299q27 -147 189 -147 q148 0 192 137v143h115v-170q-85 -213 -299 -213q-166 0 -256 115q-69 -61 -128 -88t-140 -27q-186 0 -287 166zM207 182q68 -106 182 -106q106 0 186 80v268q-69 90 -186 90q-119 0 -182 -98v-234zM698 621h381v274q-20 59 -70.5 92t-119.5 33q-74 0 -124 -35.5t-67 -97.5 v-266z" />
<glyph unicode="&#xe7;" d="M219 240v618q16 38 40.5 73t62.5 71t84.5 62.5t110.5 43t136 16.5q90 0 165.5 -24.5t126 -64.5t83 -81.5t51.5 -85.5v-166h-114v125q-34 82 -115 137.5t-197 55.5q-118 0 -197.5 -55t-113.5 -138v-555q34 -84 113.5 -140t197.5 -56q116 0 197 56.5t115 139.5v123h114 v-164q-18 -43 -49 -83.5t-78.5 -80t-118 -65t-153.5 -29.5l-33 -108h35q59 0 103 -27.5t61 -62.5v-160q-53 -98 -182 -98q-108 0 -189 57l21 76q81 -51 163 -51q37 0 65.5 15.5t39.5 37.5v90q-8 19 -37.5 34t-69.5 15h-114l49 186q-144 14 -237 90.5t-136 172.5z" />
<glyph unicode="&#xe8;" d="M203 240v618q22 48 56.5 91.5t87 84.5t129 65.5t167.5 24.5q90 0 167.5 -25t129 -65t84.5 -80t51 -80v-352h-749v-250q36 -84 117 -140t200 -56q118 0 200.5 56t117.5 140v84h114v-131q-17 -35 -40 -67.5t-61 -67t-83.5 -59.5t-110 -41.5t-137.5 -16.5q-91 0 -167.5 24.5 t-129 66t-87 85t-56.5 91.5zM326 621h635v204q-36 83 -118 139t-200 56q-119 0 -200 -56t-117 -139v-204zM498 1513v64h112l146 -307v-31h-90z" />
<glyph unicode="&#xe9;" d="M203 240v618q22 48 56.5 91.5t87 84.5t129 65.5t167.5 24.5q90 0 167.5 -25t129 -65t84.5 -80t51 -80v-352h-749v-250q36 -84 117 -140t200 -56q118 0 200.5 56t117.5 140v84h114v-131q-17 -35 -40 -67.5t-61 -67t-83.5 -59.5t-110 -41.5t-137.5 -16.5q-91 0 -167.5 24.5 t-129 66t-87 85t-56.5 91.5zM326 621h635v204q-36 83 -118 139t-200 56q-119 0 -200 -56t-117 -139v-204zM614 1239v31l146 307h112v-64l-163 -274h-95z" />
<glyph unicode="&#xea;" d="M203 240v618q22 48 56.5 91.5t87 84.5t129 65.5t167.5 24.5q90 0 167.5 -25t129 -65t84.5 -80t51 -80v-352h-749v-250q36 -84 117 -140t200 -56q118 0 200.5 56t117.5 140v84h114v-131q-17 -35 -40 -67.5t-61 -67t-83.5 -59.5t-110 -41.5t-137.5 -16.5q-91 0 -167.5 24.5 t-129 66t-87 85t-56.5 91.5zM326 621h635v204q-36 83 -118 139t-200 56q-119 0 -200 -56t-117 -139v-204zM393 1237v33l191 305h164l190 -305v-33h-78l-196 248l-193 -248h-78z" />
<glyph unicode="&#xeb;" d="M203 240v618q22 48 56.5 91.5t87 84.5t129 65.5t167.5 24.5q90 0 167.5 -25t129 -65t84.5 -80t51 -80v-352h-749v-250q36 -84 117 -140t200 -56q118 0 200.5 56t117.5 140v84h114v-131q-17 -35 -40 -67.5t-61 -67t-83.5 -59.5t-110 -41.5t-137.5 -16.5q-91 0 -167.5 24.5 t-129 66t-87 85t-56.5 91.5zM326 621h635v204q-36 83 -118 139t-200 56q-119 0 -200 -56t-117 -139v-204zM354 1354v123q42 28 86 28q27 0 51.5 -10t30.5 -18v-123q-5 -9 -29.5 -19t-52.5 -10q-51 0 -86 29zM758 1354v123q9 9 33.5 18.5t52.5 9.5q47 0 82 -28v-123 q-29 -29 -82 -29q-29 0 -54 10t-32 19z" />
<glyph unicode="&#xec;" d="M223 0v98h377v901h-340v99h463v-1000h379v-98h-879zM442 1513v64h113l145 -307v-31h-90z" />
<glyph unicode="&#xed;" d="M223 0v98h377v901h-340v99h463v-1000h379v-98h-879zM616 1239v31l146 307h112v-64l-163 -274h-95z" />
<glyph unicode="&#xee;" d="M223 0v98h377v901h-340v99h463v-1000h379v-98h-879zM383 1237v33l190 305h164l191 -305v-33h-78l-197 248l-192 -248h-78z" />
<glyph unicode="&#xef;" d="M223 0v98h377v901h-340v99h463v-1000h379v-98h-879zM375 1354v123q42 28 86 28q27 0 51.5 -10t30.5 -18v-123q-5 -9 -29.5 -19t-52.5 -10q-51 0 -86 29zM778 1354v123q9 9 33.5 18.5t52.5 9.5q47 0 82 -28v-123q-29 -29 -82 -29q-29 0 -54 10t-32 19z" />
<glyph unicode="&#xf0;" d="M190 240v501q19 46 53.5 90.5t85 85t123.5 65t156 24.5q204 0 328 -99v84q-32 81 -170 226l-330 -109v76l275 88q-76 71 -187 131l84 65q98 -47 221 -157l228 75v-73l-170 -60q58 -59 103.5 -122.5t66.5 -106.5v-784q-20 -48 -54 -92t-85.5 -85t-128 -65.5t-166.5 -24.5 q-89 0 -165 24.5t-128 65.5t-86 85t-54 92zM311 272q34 -83 115 -139.5t197 -56.5q118 0 198.5 56t114.5 140v512q-129 119 -313 119q-116 0 -197.5 -54.5t-114.5 -137.5v-439z" />
<glyph unicode="&#xf1;" d="M221 0v1098h119v-80q127 104 324 104q72 0 134.5 -16t103 -38.5t75.5 -54.5t53 -55.5t33 -50.5v-907h-123v874q-34 56 -104.5 101t-180.5 45q-106 0 -186 -38t-125 -97v-885h-123zM293 1251v121q11 74 61.5 119t130.5 45q48 0 91 -19.5t73.5 -47.5t57.5 -56t54.5 -47.5 t53.5 -19.5q83 0 98 88v96h97v-121q-12 -73 -62.5 -116.5t-126.5 -43.5q-50 0 -92.5 19.5t-71.5 47.5t-55 56.5t-54.5 48t-58.5 19.5q-51 0 -72.5 -24t-29.5 -62v-103h-94z" />
<glyph unicode="&#xf2;" d="M201 240v616q21 48 55 92t85.5 85.5t127.5 66t166 24.5t166.5 -25t128 -66t85.5 -85t54 -92v-616q-20 -48 -54 -92t-85.5 -85t-128 -65.5t-166.5 -24.5t-166 24.5t-127.5 66t-85.5 85t-55 91.5zM324 272q34 -84 114.5 -140t196.5 -56q118 0 197.5 56t113.5 140v553 q-34 84 -113.5 139.5t-197.5 55.5q-116 0 -196.5 -56t-114.5 -139v-553zM446 1509v64h113l146 -307v-31h-91z" />
<glyph unicode="&#xf3;" d="M201 240v616q21 48 55 92t85.5 85.5t127.5 66t166 24.5t166.5 -25t128 -66t85.5 -85t54 -92v-616q-20 -48 -54 -92t-85.5 -85t-128 -65.5t-166.5 -24.5t-166 24.5t-127.5 66t-85.5 85t-55 91.5zM324 272q34 -84 114.5 -140t196.5 -56q118 0 197.5 56t113.5 140v553 q-34 84 -113.5 139.5t-197.5 55.5q-116 0 -196.5 -56t-114.5 -139v-553zM602 1235v31l146 307h112v-64l-164 -274h-94z" />
<glyph unicode="&#xf4;" d="M201 240v616q21 48 55 92t85.5 85.5t127.5 66t166 24.5t166.5 -25t128 -66t85.5 -85t54 -92v-616q-20 -48 -54 -92t-85.5 -85t-128 -65.5t-166.5 -24.5t-166 24.5t-127.5 66t-85.5 85t-55 91.5zM324 272q34 -84 114.5 -140t196.5 -56q118 0 197.5 56t113.5 140v553 q-34 84 -113.5 139.5t-197.5 55.5q-116 0 -196.5 -56t-114.5 -139v-553zM367 1237v33l190 305h164l190 -305v-33h-77l-197 248l-193 -248h-77z" />
<glyph unicode="&#xf5;" d="M201 240v616q21 48 55 92t85.5 85.5t127.5 66t166 24.5t166.5 -25t128 -66t85.5 -85t54 -92v-616q-20 -48 -54 -92t-85.5 -85t-128 -65.5t-166.5 -24.5t-166 24.5t-127.5 66t-85.5 85t-55 91.5zM266 1251v121q11 74 62 119t131 45q48 0 91 -19.5t73 -47.5t57 -56 t54.5 -47.5t53.5 -19.5q84 0 99 88v96h96v-121q-12 -73 -62 -116.5t-126 -43.5q-50 0 -92.5 19.5t-71.5 47.5t-55 56.5t-54.5 48t-58.5 19.5q-51 0 -73 -24t-30 -62v-103h-94zM324 272q34 -84 114.5 -140t196.5 -56q118 0 197.5 56t113.5 140v553q-34 84 -113.5 139.5 t-197.5 55.5q-116 0 -196.5 -56t-114.5 -139v-553z" />
<glyph unicode="&#xf6;" d="M201 240v616q21 48 55 92t85.5 85.5t127.5 66t166 24.5t166.5 -25t128 -66t85.5 -85t54 -92v-616q-20 -48 -54 -92t-85.5 -85t-128 -65.5t-166.5 -24.5t-166 24.5t-127.5 66t-85.5 85t-55 91.5zM324 272q34 -84 114.5 -140t196.5 -56q118 0 197.5 56t113.5 140v553 q-34 84 -113.5 139.5t-197.5 55.5q-116 0 -196.5 -56t-114.5 -139v-553zM346 1354v123q42 28 86 28q27 0 51.5 -10t30.5 -18v-123q-5 -9 -29.5 -19t-52.5 -10q-51 0 -86 29zM750 1354v123q9 9 33.5 18.5t52.5 9.5q47 0 82 -28v-123q-29 -29 -82 -29q-29 0 -54 10t-32 19z " />
<glyph unicode="&#xf7;" d="M125 641v107h1020v-107h-1020zM543 289v112q5 12 31.5 23.5t62.5 11.5q35 0 62 -11.5t32 -23.5v-112q-5 -14 -31.5 -25.5t-62.5 -11.5q-38 0 -63.5 11t-30.5 26zM543 989v113q5 12 31.5 23.5t62.5 11.5q35 0 62 -11.5t32 -23.5v-113q-5 -14 -31.5 -25.5t-62.5 -11.5 q-38 0 -63.5 11t-30.5 26z" />
<glyph unicode="&#xf8;" d="M201 0v55l63 82q-37 42 -63 103v616q21 48 55 92t85.5 85.5t127.5 66t166 24.5q181 0 311 -104l60 78h63v-58l-63 -82q40 -49 63 -102v-616q-20 -48 -54 -92t-85.5 -85t-128 -65.5t-166.5 -24.5q-185 0 -311 103l-60 -76h-63zM324 272q4 -12 16 -36l537 694 q-93 90 -242 90q-116 0 -196.5 -56t-114.5 -139v-553zM393 168q92 -92 242 -92q118 0 197.5 56t113.5 140v553q-3 6 -8.5 18t-7.5 17z" />
<glyph unicode="&#xf9;" d="M211 184v914h123v-875q84 -145 274 -145q102 0 181.5 38t119.5 91v891h123v-1098h-117v80q-70 -54 -142.5 -80.5t-170.5 -26.5q-69 0 -129.5 15.5t-101 37.5t-75 53t-52.5 55t-33 50zM455 1513v64h112l146 -307v-31h-90z" />
<glyph unicode="&#xfa;" d="M211 184v914h123v-875q84 -145 274 -145q102 0 181.5 38t119.5 91v891h123v-1098h-117v80q-70 -54 -142.5 -80.5t-170.5 -26.5q-69 0 -129.5 15.5t-101 37.5t-75 53t-52.5 55t-33 50zM592 1239v31l145 307h113v-64l-164 -274h-94z" />
<glyph unicode="&#xfb;" d="M211 184v914h123v-875q84 -145 274 -145q102 0 181.5 38t119.5 91v891h123v-1098h-117v80q-70 -54 -142.5 -80.5t-170.5 -26.5q-69 0 -129.5 15.5t-101 37.5t-75 53t-52.5 55t-33 50zM367 1237v33l190 305h164l190 -305v-33h-77l-197 248l-193 -248h-77z" />
<glyph unicode="&#xfc;" d="M211 184v914h123v-875q84 -145 274 -145q102 0 181.5 38t119.5 91v891h123v-1098h-117v80q-70 -54 -142.5 -80.5t-170.5 -26.5q-69 0 -129.5 15.5t-101 37.5t-75 53t-52.5 55t-33 50zM342 1354v123q42 28 86 28q27 0 51.5 -10t30.5 -18v-123q-5 -9 -29.5 -19t-52.5 -10 q-51 0 -86 29zM745 1354v123q9 9 33.5 18.5t52.5 9.5q47 0 82 -28v-123q-29 -29 -82 -29q-29 0 -54 10t-32 19z" />
<glyph unicode="&#xfd;" d="M184 -244q66 -4 95 -4q82 0 152 29.5t116 75.5l37 114l-389 1041v86h98l338 -946h24l334 946h88v-80l-434 -1215q-54 -70 -151.5 -110.5t-196.5 -40.5q-66 0 -111 10v94zM606 1239v31l146 307h112v-64l-164 -274h-94z" />
<glyph unicode="&#xfe;" d="M246 -336v1770h121v-414q128 102 319 102q72 0 135 -16t104 -38.5t75.5 -54t52.5 -56t32 -50.5v-717q-14 -26 -32 -50.5t-52.5 -56.5t-75.5 -55t-104 -39t-135 -16q-185 0 -319 103v-412h-121zM367 213q45 -59 125 -97t186 -38q111 0 183 45t102 100v651 q-34 56 -104.5 101t-180.5 45q-106 0 -186 -38t-125 -97v-672z" />
<glyph unicode="&#xff;" d="M184 -244q66 -4 95 -4q82 0 152 29.5t116 75.5l37 114l-389 1041v86h98l338 -946h24l334 946h88v-80l-434 -1215q-54 -70 -151.5 -110.5t-196.5 -40.5q-66 0 -111 10v94zM369 1354v123q42 28 86 28q27 0 51.5 -10t30.5 -18v-123q-5 -9 -29.5 -19t-52.5 -10q-51 0 -86 29z M772 1354v123q9 9 33.5 18.5t52.5 9.5q47 0 82 -28v-123q-29 -29 -82 -29q-29 0 -54 10t-32 19z" />
<glyph unicode="&#x152;" d="M84 291v854q18 45 42.5 85.5t64 81.5t88.5 71t118.5 48.5t149.5 18.5q90 0 168 -16h483v-107h-450v-532h415v-107h-415v-582h466v-106h-501q-65 -16 -166 -16q-81 0 -150 18.5t-118 48.5t-88.5 71.5t-64 82t-42.5 86.5zM197 319q38 -97 129 -161t221 -64q46 0 82 8v1233 q-36 8 -82 8q-129 0 -220.5 -64.5t-129.5 -162.5v-797z" />
<glyph unicode="&#x153;" d="M78 186v744q84 194 297 194q86 0 143.5 -30.5t112.5 -94.5l4 -8l6 8q55 64 112.5 94.5t143.5 30.5q213 0 297 -194v-408h-496v-297q27 -149 189 -149q148 0 192 137v143h115v-170q-85 -213 -299 -213q-176 0 -260 117q-84 -117 -258 -117q-214 0 -299 213zM193 213 q44 -137 192 -137q161 0 188 149v662q-18 62 -67 97.5t-123 35.5q-69 0 -119.5 -33t-70.5 -92v-682zM698 621h381v274q-20 59 -70.5 92t-119.5 33q-74 0 -124 -35.5t-67 -97.5v-266z" />
<glyph unicode="&#x178;" d="M152 1343v91h100l373 -646h32l367 646h94v-91l-422 -708v-635h-129v643zM344 1626v121q35 29 86 29q28 0 52.5 -10t29.5 -19v-121q-5 -9 -29.5 -19t-52.5 -10q-57 0 -86 29zM748 1626v121q7 9 32 19t54 10q52 0 81 -29v-121q-29 -29 -81 -29q-30 0 -54.5 9.5t-31.5 19.5z " />
<glyph unicode="&#x2c6;" d="M362 1237v33l191 305h164l190 -305v-33h-78l-196 248l-193 -248h-78z" />
<glyph unicode="&#x2dc;" d="M276 1255v121q11 74 62 119t131 45q48 0 91 -19.5t73.5 -47.5t57.5 -56t54.5 -47.5t53.5 -19.5q83 0 98 88v96h96v-121q-12 -73 -62 -116.5t-126 -43.5q-50 0 -92.5 19.5t-71.5 47.5t-55 56.5t-54.5 48t-58.5 19.5q-51 0 -72.5 -24t-29.5 -62v-103h-95z" />
<glyph unicode="&#x2000;" horiz-adv-x="930" />
<glyph unicode="&#x2001;" horiz-adv-x="1860" />
<glyph unicode="&#x2002;" horiz-adv-x="930" />
<glyph unicode="&#x2003;" horiz-adv-x="1860" />
<glyph unicode="&#x2004;" horiz-adv-x="620" />
<glyph unicode="&#x2005;" horiz-adv-x="465" />
<glyph unicode="&#x2006;" horiz-adv-x="310" />
<glyph unicode="&#x2007;" horiz-adv-x="310" />
<glyph unicode="&#x2008;" horiz-adv-x="232" />
<glyph unicode="&#x2009;" horiz-adv-x="372" />
<glyph unicode="&#x200a;" horiz-adv-x="103" />
<glyph unicode="&#x2010;" d="M283 641v107h704v-107h-704z" />
<glyph unicode="&#x2011;" d="M283 641v107h704v-107h-704z" />
<glyph unicode="&#x2012;" d="M283 641v107h704v-107h-704z" />
<glyph unicode="&#x2013;" d="M160 641v107h950v-107h-950z" />
<glyph unicode="&#x2014;" d="M20 641v107h1229v-107h-1229z" />
<glyph unicode="&#x2018;" d="M541 1075v287q4 19 43 45.5t80 26.5h53v-70h-49q-6 0 -17.5 -7t-17.5 -14v-118q42 0 66.5 -11.5t29.5 -25.5v-113q-5 -13 -33.5 -24t-62.5 -11q-32 0 -59.5 11t-32.5 24z" />
<glyph unicode="&#x2019;" d="M541 1309v112q5 13 33.5 24t62.5 11q32 0 59.5 -11t32.5 -24v-286q-4 -19 -43 -45.5t-80 -26.5h-53v70h49q6 0 17.5 6.5t17.5 13.5v119q-42 0 -66.5 11.5t-29.5 25.5z" />
<glyph unicode="&#x201a;" d="M541 23v112q5 13 33.5 24t62.5 11q32 0 59.5 -11t32.5 -24v-287q-4 -18 -43 -44.5t-80 -26.5h-53v69h49q6 0 17.5 7t17.5 14v119q-42 0 -66.5 11.5t-29.5 25.5z" />
<glyph unicode="&#x201c;" d="M346 1075v287q4 19 43 45.5t80 26.5h53v-70h-49q-6 0 -17.5 -7t-17.5 -14v-118q42 0 67 -11.5t30 -25.5v-113q-5 -13 -34 -24t-63 -11q-32 0 -59.5 11t-32.5 24zM735 1075v287q4 19 43 45.5t80 26.5h53v-70h-49q-6 0 -17.5 -7t-17.5 -14v-118q42 0 67 -11.5t30 -25.5 v-113q-5 -13 -34 -24t-63 -11q-32 0 -59.5 11t-32.5 24z" />
<glyph unicode="&#x201d;" d="M346 1309v112q5 13 33.5 24t62.5 11q32 0 60 -11t33 -24v-286q-4 -19 -43 -45.5t-80 -26.5h-54v70h50q6 0 17 6.5t17 13.5v119q-42 0 -66.5 11.5t-29.5 25.5zM735 1309v112q5 13 33.5 24t62.5 11q32 0 60 -11t33 -24v-286q-4 -19 -43 -45.5t-80 -26.5h-53v70h49 q6 0 17 6.5t17 13.5v119q-42 0 -66.5 11.5t-29.5 25.5z" />
<glyph unicode="&#x201e;" d="M346 23v112q5 13 33.5 24t62.5 11q32 0 60 -11t33 -24v-287q-4 -18 -43 -44.5t-80 -26.5h-54v69h50q6 0 17 7t17 14v119q-42 0 -66.5 11.5t-29.5 25.5zM735 23v112q5 13 33.5 24t62.5 11q32 0 60 -11t33 -24v-287q-4 -18 -43 -44.5t-80 -26.5h-53v69h49q6 0 17 7t17 14 v119q-42 0 -66.5 11.5t-29.5 25.5z" />
<glyph unicode="&#x2022;" d="M459 643v191q22 36 70 61t108 25q118 0 176 -86v-193q-27 -40 -72.5 -65t-103.5 -25q-60 0 -108 27t-70 65z" />
<glyph unicode="&#x2026;" d="M152 23v112q5 12 31.5 23.5t62.5 11.5q35 0 62 -11.5t32 -23.5v-112q-5 -14 -31.5 -25.5t-62.5 -11.5q-38 0 -63.5 11t-30.5 26zM541 23v112q5 12 31.5 23.5t62.5 11.5q35 0 62 -11.5t32 -23.5v-112q-5 -14 -31.5 -25.5t-62.5 -11.5q-38 0 -63.5 11t-30.5 26zM930 23v112 q5 12 31.5 23.5t62.5 11.5q35 0 62 -11.5t32 -23.5v-112q-5 -14 -31.5 -25.5t-62.5 -11.5q-38 0 -63.5 11t-30.5 26z" />
<glyph unicode="&#x202f;" horiz-adv-x="372" />
<glyph unicode="&#x2039;" d="M295 569v86l594 443h86v-70l-553 -418l553 -415v-70h-86z" />
<glyph unicode="&#x203a;" d="M295 125v70l553 415l-553 418v70h86l594 -443v-86l-594 -444h-86z" />
<glyph unicode="&#x205f;" horiz-adv-x="465" />
<glyph unicode="&#x20ac;" d="M92 569v76h137v182h-137v76h137v293q20 46 57 90t92.5 84.5t135 65t170.5 24.5q90 0 169.5 -24.5t135 -64t92.5 -81.5t56 -84v-149h-119v108q-33 80 -123.5 136.5t-210.5 56.5t-209.5 -56.5t-122.5 -136.5v-262h555l-10 -76h-545v-182h518l-8 -76h-510v-297 q33 -80 122.5 -137t209.5 -57t210.5 57t123.5 137v105h119v-148q-19 -42 -56 -84.5t-92.5 -82t-135 -64.5t-169.5 -25q-91 0 -170.5 25t-135 65.5t-92.5 85t-57 91.5v329h-137z" />
<glyph unicode="&#x2122;" d="M78 1354v80h399v-80h-149v-719h-101v719h-149zM545 635v799h153l154 -635h16l148 635h160v-799h-99v663h-16l-162 -663h-78l-166 663h-16v-663h-94z" />
<glyph unicode="&#x25fc;" horiz-adv-x="1095" d="M0 0v1096h1096v-1096h-1096z" />
</font>
</defs>
</svg>
