<?xml version="1.0" standalone="no"?>
<!DOCTYPE svg PUBLIC "-//W3C//DTD SVG 1.1//EN" "http://www.w3.org/Graphics/SVG/1.1/DTD/svg11.dtd" >
<svg xmlns="http://www.w3.org/2000/svg">
<metadata></metadata>
<defs>
<font id="trim_monobold" horiz-adv-x="1269" >
<font-face units-per-em="2048" ascent="1536" descent="-512" />
<missing-glyph horiz-adv-x="500" />
<glyph unicode="&#xfb01;" horiz-adv-x="2539" d="M166 0v258h240v598h-240v258h240v189q18 38 50.5 70t87 62t141.5 47t198 17q149 0 235 -26v-244q-32 4 -104 4q-199 0 -248 -49v-70h352v-258h-352v-598h352v-258h-952zM1403 0v258h332v598h-287v258h647v-856h326v-258h-1018zM1708 1335v166q16 39 71 68.5t130 29.5 q76 0 130.5 -29.5t71.5 -68.5v-166q-17 -39 -71.5 -68.5t-130.5 -29.5q-75 0 -130 29.5t-71 68.5z" />
<glyph unicode="&#xfb02;" horiz-adv-x="2539" d="M166 0v258h240v598h-240v258h240v189q18 38 50.5 70t87 62t141.5 47t198 17q149 0 235 -26v-244q-32 4 -104 4q-199 0 -248 -49v-70h352v-258h-352v-598h352v-258h-952zM1413 0v258h330v918h-285v258h645v-1176h328v-258h-1018z" />
<glyph />
<glyph />
<glyph horiz-adv-x="682" />
<glyph unicode="&#xd;" />
<glyph unicode=" " />
<glyph unicode="!" d="M430 72v200q17 37 74 68t131 31q75 0 131.5 -31t73.5 -68v-200q-17 -37 -73.5 -68t-131.5 -31q-74 0 -131 31t-74 68zM432 1106v328h406v-328l-45 -598h-318z" />
<glyph unicode="&#x22;" d="M219 1053v381h322v-379l-45 -326h-232zM729 1053v381h322v-379l-45 -326h-232z" />
<glyph unicode="#" d="M70 377v256h133l30 184h-92v256h133l58 361h252v-189l-29 -172h195l57 361h252v-189l-29 -172h94v-256h-133l-30 -184h94v-256h-135l-60 -377h-252v188l29 189h-195l-59 -377h-250v188l29 189h-92zM483 633h195l31 184h-195z" />
<glyph unicode="$" d="M106 244v221h375v-139q14 -29 54.5 -52.5t99.5 -23.5t100.5 23.5t55.5 52.5v163q-16 31 -43 50.5t-86 31.5l-89 19q-113 24 -198.5 55.5t-137.5 67.5t-81.5 68t-49.5 69v340q15 31 43 65t73 73.5t115 72.5t152 49v170h293v-170q81 -16 150.5 -49t114.5 -72.5t73 -73.5 t43 -65v-211h-372v129q-14 29 -55.5 53.5t-100.5 24.5q-58 0 -99.5 -25t-54.5 -53v-133q24 -61 129 -82l86 -19q114 -24 199 -56t136.5 -68t81 -68t50.5 -70v-368q-17 -33 -45 -67.5t-73 -74t-113.5 -71.5t-149.5 -47v-170h-293v170q-81 15 -150.5 47.5t-114.5 72t-73 73.5 t-45 67z" />
<glyph unicode="%" d="M51 0v164l283 360h172v-164l-281 -360h-174zM51 854v406q27 79 104.5 136.5t196.5 57.5q118 0 196 -58t103 -136v-406q-24 -78 -102.5 -135t-196.5 -57q-119 0 -197 57t-104 135zM287 889q3 -19 21 -32t44 -13t43.5 13t20.5 32v336q-3 19 -21 33t-43 14t-43.5 -14 t-21.5 -33v-336zM618 178v406q26 79 104.5 136.5t197.5 57.5q118 0 196 -58t103 -136v-406q-24 -78 -102.5 -135t-196.5 -57q-119 0 -197.5 57t-104.5 135zM764 909v164l283 361h172v-164l-281 -361h-174zM854 213q3 -19 22 -32t44 -13q24 0 42 13t21 32v336q-3 19 -21 33 t-42 14t-43.5 -14t-22.5 -33v-336z" />
<glyph unicode="&#x26;" d="M70 250v321q56 109 153 172q-97 53 -147 136v313q16 35 41 69.5t67.5 72t94.5 65.5t126 46.5t158 18.5q83 0 157 -18.5t125.5 -46.5t94 -66t67.5 -72t42 -69v-148h-361v84q-13 26 -47 46t-78 20t-79 -20.5t-48 -47.5v-198q14 -25 47.5 -44.5t79.5 -19.5h125v86h361v-86 h184v-264h-184v-313q35 -47 129 -47q43 0 55 4v-244q-89 -27 -193 -27q-131 0 -223 52q-119 -56 -254 -56q-105 0 -193 26.5t-146 70.5t-95 89.5t-59 94.5zM430 315q38 -75 133 -75q86 0 125 61v299h-125q-47 0 -83 -22t-50 -54v-209z" />
<glyph unicode="'" d="M469 1053v381h332v-379l-45 -326h-242z" />
<glyph unicode="(" d="M338 2v1085q24 65 68 124t112 110.5t168.5 82t220.5 30.5h23v-256h-23q-41 0 -70.5 -14t-46 -32t-28 -51.5t-15 -54.5t-8.5 -59v-832q4 -31 5.5 -44t8 -42t13 -43.5t19 -35.5t28.5 -31.5t40 -18.5t54 -8h23v-256h-23q-120 0 -220.5 30.5t-168.5 82t-112 110t-68 123.5z " />
<glyph unicode=")" d="M338 -88h22q30 0 54 8t40 18.5t28.5 31.5t19 35.5t13 43.5t8 42t5.5 44v832q-5 38 -8.5 59t-15 54.5t-28 51.5t-46 32t-70.5 14h-22v256h22q120 0 220.5 -30.5t168.5 -82t113 -110.5t68 -124v-1085q-19 -51 -50 -99t-80.5 -93.5t-111.5 -79t-146.5 -54t-181.5 -20.5h-22 v256z" />
<glyph unicode="*" d="M193 963q0 67 28 134.5t74 108.5l254 -135l-53 285q73 37 157 37q89 0 156 -37l-53 -285l256 135q46 -41 74 -108.5t28 -134.5q0 -16 -4 -52l-291 -37l215 -206q-31 -68 -104 -122t-148 -63l-129 265l-127 -265q-77 11 -150.5 64.5t-101.5 120.5l213 206l-290 37 q-4 18 -4 52z" />
<glyph unicode="+" d="M90 541v284h399v396h289v-396h402v-284h-402v-398h-289v398h-399z" />
<glyph unicode="," d="M430 72v200q17 37 73.5 68t129.5 31q76 0 133 -31t74 -68v-383q-17 -53 -95.5 -112.5t-175.5 -59.5h-106v166h86q24 0 49 15t35 39v36q-73 0 -129.5 31t-73.5 68z" />
<glyph unicode="-" d="M236 541v284h798v-284h-798z" />
<glyph unicode="." d="M430 72v200q17 37 74 68t131 31q75 0 131.5 -31t73.5 -68v-200q-17 -37 -73.5 -68t-131.5 -31q-74 0 -131 31t-74 68z" />
<glyph unicode="/" d="M154 4l710 1534h252v-188l-710 -1534h-252v188z" />
<glyph unicode="0" d="M88 244v946q23 45 66 89.5t109 87.5t163.5 70t208.5 27t208.5 -27t163.5 -70t109 -87.5t66 -89.5v-946q-23 -45 -66 -89.5t-109 -88t-163.5 -70.5t-208.5 -27t-208.5 27t-163.5 70.5t-109 88t-66 89.5zM463 635l321 502q-54 47 -149 47q-61 0 -108.5 -22t-63.5 -54v-473z M477 305q48 -55 158 -55q61 0 110 22t64 54v495z" />
<glyph unicode="1" d="M168 0v244h307v889l-307 -37v241l362 97h318v-1190h287v-244h-967z" />
<glyph unicode="2" d="M117 0v276l536 508q102 97 113 127v197q-16 32 -57.5 54t-96.5 22q-52 0 -92 -20.5t-55 -47.5v-184h-344v311q17 23 38.5 46t66 56.5t96 58t128.5 42.5t162 18q108 0 201.5 -27t157 -70t105 -87.5t63.5 -89.5v-363q-20 -56 -146 -170l-381 -344v-16h531v-297h-1026z" />
<glyph unicode="3" d="M113 199v243h344v-116q14 -31 56 -53.5t95 -22.5q54 0 96 22.5t56 53.5v180q-12 40 -53.5 67t-96.5 27h-194v264h188q51 0 91.5 25t56.5 55v172q-14 28 -54.5 48t-93.5 20q-52 0 -93 -20.5t-54 -47.5v-112h-344v239q14 22 37 46t67 56.5t96 58t129 43t162 17.5 q86 0 164 -18.5t134.5 -47t103.5 -65t75 -70t45 -65.5v-307q-19 -32 -71 -72.5t-117 -73.5q68 -34 121 -82.5t76 -93.5v-325q-21 -43 -62.5 -87.5t-105 -88.5t-158 -71.5t-201.5 -27.5q-85 0 -163 18t-130.5 44.5t-96.5 60t-67.5 59t-37.5 48.5z" />
<glyph unicode="4" d="M72 279v274l467 881h544v-871h144v-284h-144v-279h-356v279h-655zM412 563h315v531h-37z" />
<glyph unicode="5" d="M143 199v223h344v-96q16 -31 58.5 -53.5t95.5 -22.5q54 0 96 22t56 54v280q-15 31 -56 53.5t-96 22.5q-86 0 -115.5 -32t-29.5 -81h-344v865h981v-299h-637v-287q113 88 270 88q134 0 233 -62.5t138 -148.5v-526q-16 -25 -39.5 -51t-68 -59.5t-96.5 -59t-129 -43 t-163 -17.5t-162.5 17.5t-128.5 42.5t-97 58.5t-68.5 59.5t-41.5 52z" />
<glyph unicode="6" d="M129 244v946q22 46 64 91t105.5 87.5t156.5 69t200 26.5q106 0 196.5 -25t150 -64.5t94.5 -73t57 -66.5v-221h-344v94q-14 32 -57 55t-97 23q-53 0 -95 -23t-56 -55v-307q119 100 276 100q136 0 233.5 -61t139.5 -150v-491q-15 -23 -38.5 -48.5t-68 -59.5t-97.5 -60 t-131 -44t-163 -18q-107 0 -200.5 27t-157 70.5t-105 88t-63.5 89.5zM504 326q14 -31 56 -53.5t95 -22.5t96.5 22.5t57.5 53.5v245q-14 31 -58 53.5t-100 22.5q-77 0 -147 -45v-276z" />
<glyph unicode="7" d="M133 1135v299h1012v-271l-506 -1163h-322v209l451 893v33h-635z" />
<glyph unicode="8" d="M109 244v311q53 108 178 184q-88 53 -146 131v373q17 23 39 46.5t66.5 56.5t95.5 57.5t128.5 42.5t162.5 18q86 0 163.5 -18t128.5 -42.5t96 -58.5t66.5 -56.5t38.5 -45.5v-373q-56 -75 -147 -131q120 -70 180 -184v-311q-21 -45 -62.5 -90t-104.5 -88t-157 -70t-202 -27 q-107 0 -200.5 27t-156.5 70t-104.5 88t-62.5 90zM481 326q14 -31 56.5 -53.5t95.5 -22.5q54 0 96.5 22.5t56.5 53.5v217q-14 31 -56.5 54.5t-96.5 23.5q-53 0 -95.5 -23.5t-56.5 -54.5v-217zM485 920q17 -27 57 -47.5t91 -20.5q53 0 93.5 21t55.5 47v198q-15 26 -55.5 47 t-93.5 21q-51 0 -91 -20.5t-57 -47.5v-198z" />
<glyph unicode="9" d="M119 199v207h344v-80q14 -31 56 -53.5t95 -22.5q54 0 96 22.5t58 53.5v284q-122 -100 -276 -100q-136 0 -234.5 61.5t-138.5 149.5v514q20 30 54.5 63.5t93.5 73.5t150.5 66t196.5 26q108 0 202 -27t157.5 -70t105 -87.5t62.5 -89.5v-946q-23 -46 -64.5 -91t-104.5 -88 t-156.5 -69.5t-201.5 -26.5q-106 0 -196 25t-149 65t-93.5 73.5t-56.5 66.5zM463 840q14 -31 57.5 -53.5t100.5 -22.5q82 0 147 45v299q-16 33 -58 55.5t-96 22.5q-53 0 -95 -23t-56 -55v-268z" />
<glyph unicode=":" d="M430 72v200q17 37 74 68t131 31q75 0 131.5 -31t73.5 -68v-200q-17 -37 -73.5 -68t-131.5 -31q-74 0 -131 31t-74 68zM430 727v201q17 36 74 67t131 31q75 0 131.5 -30.5t73.5 -67.5v-201q-17 -37 -73.5 -67.5t-131.5 -30.5q-74 0 -131 31t-74 67z" />
<glyph unicode=";" d="M430 72v200q17 37 73.5 68t129.5 31q76 0 133 -31t74 -68v-383q-17 -53 -95.5 -112.5t-175.5 -59.5h-106v166h86q24 0 49 15t35 39v36q-73 0 -129.5 31t-73.5 68zM430 727v201q17 36 74 67t131 31q75 0 131.5 -30.5t73.5 -67.5v-201q-17 -37 -73.5 -67.5t-131.5 -30.5 q-74 0 -131 31t-74 67z" />
<glyph unicode="&#x3c;" d="M78 475v256l852 383h262v-192l-754 -320l754 -319v-193h-262z" />
<glyph unicode="=" d="M90 319v285h1090v-285h-1090zM90 764v285h1090v-285h-1090z" />
<glyph unicode="&#x3e;" d="M78 90v193l753 319l-753 320v192h262l852 -383v-256l-852 -385h-262z" />
<glyph unicode="?" d="M119 971v274q28 36 65 69t96.5 69.5t147 58.5t190.5 22q91 0 172 -18.5t136.5 -46.5t103 -65.5t74.5 -69.5t47 -66v-336q-24 -48 -160 -137l-264 -174v-86h-367v225l265 180q131 87 151 121v107q-20 32 -61.5 52.5t-96.5 20.5t-95.5 -20t-59.5 -53v-127h-344zM338 72v200 q17 37 74 68t131 31q75 0 131.5 -31t73.5 -68v-200q-17 -37 -73.5 -68t-131.5 -31q-74 0 -131 31t-74 68z" />
<glyph unicode="@" d="M82 100v877q15 70 61 141t115 131.5t169 98.5t210 38t209 -38t167.5 -98.5t114 -131.5t60.5 -141v-821h-223v77q-104 -79 -238 -79q-55 0 -105 13t-82.5 30.5t-61.5 41.5t-43 41.5t-25 34.5v381q15 25 37 49.5t60.5 54.5t95.5 49t124 19q128 0 238 -73v135 q-28 118 -109.5 189t-220.5 71t-219.5 -70.5t-110.5 -189.5v-783q63 -239 328 -262v-196q-105 0 -203 38t-168 98.5t-117.5 132.5t-62.5 142zM641 426q18 -29 55 -51.5t88 -22.5q98 0 181 56v210q-89 56 -181 56q-94 0 -143 -68v-180z" />
<glyph unicode="A" d="M74 0v209l280 1225h559l281 -1225v-209h-352l-66 350h-321l-68 -350h-313zM510 635h215l-86 465h-39z" />
<glyph unicode="B" d="M131 0v1434h598q148 0 255 -72.5t161 -171.5v-311q-18 -33 -58.5 -74.5t-78.5 -63.5q40 -24 81 -61t66 -76v-358q-53 -100 -166 -173t-260 -73h-598zM520 276h125q111 0 154 80v172q-18 33 -58 54.5t-90 21.5h-131v-328zM520 858h131q91 0 137 76v145q-38 78 -143 78 h-125v-299z" />
<glyph unicode="C" d="M90 283v868q24 55 66 106t107.5 99.5t165 78t218.5 29.5q117 0 215 -28.5t161.5 -74.5t102 -89t62.5 -88v-324h-373v219q-19 40 -62.5 66t-105.5 26q-63 0 -105.5 -25.5t-62.5 -66.5v-725q19 -40 62.5 -66t105.5 -26t105.5 26t62.5 66v240h373v-344q-19 -35 -45 -69 t-73 -74t-103.5 -69t-140.5 -49t-179 -20q-118 0 -217.5 29.5t-165 78.5t-108 100t-66.5 106z" />
<glyph unicode="D" d="M135 0v1434h563q94 0 175 -24.5t138 -66.5t96.5 -90t63.5 -102v-868q-24 -54 -63.5 -102t-96.5 -90t-138 -66.5t-175 -24.5h-563zM524 285h92q62 0 106 25t60 63v688q-16 38 -60 63t-106 25h-92v-864z" />
<glyph unicode="E" d="M174 0v1434h940v-285h-551v-275h518v-286h-518v-303h563v-285h-952z" />
<glyph unicode="F" d="M184 0v1434h932v-285h-543v-289h510v-285h-510v-575h-389z" />
<glyph unicode="G" d="M100 283v868q19 43 48 84t76.5 83.5t106 74t141.5 51.5t177 20t176 -20t137.5 -49t101.5 -69.5t72 -74.5t46 -71v-236h-373v135q-19 40 -60 66t-100 26q-109 0 -160 -92v-725q18 -39 62 -65.5t104 -26.5q116 0 166 82v186h-162v277h523v-553q-21 -37 -46.5 -71t-72 -75 t-101.5 -70t-137 -49t-176 -20q-116 0 -213.5 29.5t-162.5 78.5t-107 100t-66 106z" />
<glyph unicode="H" d="M113 0v1434h389v-553h266v553h389v-1434h-389v596h-266v-596h-389z" />
<glyph unicode="I" d="M150 0v285h290v864h-290v285h968v-285h-289v-864h289v-285h-968z" />
<glyph unicode="J" d="M199 0v293q46 -4 110 -4q120 0 217.5 27.5t135.5 68.5v764h-463v285h852v-1155q-79 -123 -265.5 -203t-470.5 -80q-76 0 -116 4z" />
<glyph unicode="K" d="M139 0v1434h389v-447h31l313 447h297v-209l-338 -420l347 -596v-209h-324l-276 516l-50 -72v-444h-389z" />
<glyph unicode="L" d="M193 0v1434h389v-1149h563v-285h-952z" />
<glyph unicode="M" d="M76 0v1434h469l86 -424h28l78 424h457v-1434h-363v862h-28l-98 -416h-142l-96 416h-31v-862h-360z" />
<glyph unicode="N" d="M100 0v1434h422l250 -770h37v770h360v-1434h-421l-250 768h-37v-768h-361z" />
<glyph unicode="O" d="M78 283v868q24 55 66 106t107.5 99.5t165 78t218.5 29.5q118 0 217.5 -29.5t165 -78t108 -99.5t66.5 -106v-868q-19 -43 -48 -84t-77.5 -84t-108 -74.5t-143.5 -51.5t-180 -20q-118 0 -217.5 29.5t-165 78.5t-108 100t-66.5 106zM467 354q19 -40 62.5 -66t105.5 -26 t105.5 26t62.5 66v725q-19 40 -62.5 66t-105.5 26t-105.5 -26t-62.5 -66v-725z" />
<glyph unicode="P" d="M125 0v1434h606q140 0 256 -63.5t184 -180.5v-465q-59 -107 -173 -176.5t-267 -69.5h-217v-479h-389zM514 764h129q113 0 154 78v229q-21 38 -62.5 58t-91.5 20h-129v-385z" />
<glyph unicode="Q" d="M78 283v868q24 55 66 106t107.5 99.5t165 78t218.5 29.5q118 0 217.5 -29.5t165 -78t108 -99.5t66.5 -106v-868q-32 -70 -92.5 -136t-151.5 -112q21 -33 53 -53.5t66 -20.5h137v-268h-182q-109 0 -224 80.5t-165 195.5q-96 1 -179.5 21t-142.5 51.5t-107.5 74t-77.5 83.5 t-48 84zM467 354q19 -40 62.5 -66t105.5 -26t105.5 26t62.5 66v725q-19 40 -62.5 66t-105.5 26t-105.5 -26t-62.5 -66v-725z" />
<glyph unicode="R" d="M127 0v1434h616q139 0 254.5 -64t182.5 -180v-440q-73 -131 -207 -195l223 -346v-209h-309l-273 504h-98v-504h-389zM516 772h139q117 0 156 76v223q-40 78 -156 78h-139v-377z" />
<glyph unicode="S" d="M98 244v221h369v-111q19 -40 62.5 -66t105.5 -26q63 0 105.5 25.5t62.5 66.5v125q-32 59 -141 82l-93 21q-113 25 -198.5 56.5t-138 65.5t-83.5 65.5t-51 68.5v352q18 33 43 65t72 71.5t103 68.5t140 49t179 20t178 -20t139.5 -49t103 -68.5t72 -71.5t43.5 -65v-211h-368 v100q-20 41 -63.5 66.5t-104.5 25.5q-62 0 -105.5 -26t-62.5 -66v-104q29 -57 143 -80l95 -21q112 -24 196.5 -55.5t136 -67t81.5 -67t52 -68.5v-372q-19 -35 -44.5 -67.5t-72.5 -72t-102.5 -68t-138.5 -48t-178 -19.5t-178.5 20t-139.5 49t-103 68.5t-72 71.5t-44 66z" />
<glyph unicode="T" d="M78 1149v285h1112v-285h-361v-1149h-389v1149h-362z" />
<glyph unicode="U" d="M106 244v1190h390v-1088q14 -37 51.5 -60.5t87.5 -23.5q49 0 85 23t54 61v1088h389v-1190q-27 -53 -70.5 -99.5t-106.5 -87.5t-153.5 -64.5t-197.5 -23.5t-198 23.5t-154.5 64.5t-107 87.5t-69.5 99.5z" />
<glyph unicode="V" d="M59 1225v209h377l195 -996h39l200 996h338v-209l-307 -1225h-532z" />
<glyph unicode="W" d="M45 1225v209h336l27 -932h32l68 481h254l67 -481h33l25 932h338v-209l-109 -1225h-422l-57 346h-29l-53 -346h-401z" />
<glyph unicode="X" d="M78 0v209l305 508l-305 508v209h354l197 -435h39l202 435h320v-209l-305 -508l305 -508v-209h-354l-195 434h-39l-203 -434h-321z" />
<glyph unicode="Y" d="M82 1225v209h352l197 -453h39l200 453h318v-209l-369 -680v-545h-389v584z" />
<glyph unicode="Z" d="M129 0v242l522 870v37h-514v285h1002v-242l-525 -870v-37h525v-285h-1010z" />
<glyph unicode="[" d="M340 -344v1778h672v-256h-283v-1266h283v-256h-672z" />
<glyph unicode="\" d="M154 1350v188h252l710 -1534v-188h-252z" />
<glyph unicode="]" d="M258 -88h283v1266h-283v256h672v-1778h-672v256z" />
<glyph unicode="^" d="M190 700v209l281 525h326l280 -525v-209h-233l-189 375h-41l-190 -375h-234z" />
<glyph unicode="_" d="M10 -94h1250v-225h-1250v225z" />
<glyph unicode="`" d="M410 1432v151h352l98 -317v-31h-287z" />
<glyph unicode="a" d="M113 139v338q14 28 40 57.5t69 62t110.5 53t146.5 20.5q184 0 295 -90v219q-45 78 -158 78q-106 0 -147 -62v-72h-334v185q17 23 34.5 43t60.5 55t92 59.5t127 43t167 18.5q111 0 204 -26.5t154 -71t99.5 -89.5t61.5 -94v-866h-349v74q-124 -105 -307 -105 q-79 0 -147 18.5t-111.5 46.5t-69.5 54.5t-38 50.5zM465 254q46 -57 145 -57q113 0 164 55v127q-53 57 -164 57q-56 0 -93 -17t-52 -36v-129z" />
<glyph unicode="b" d="M135 0v1434h361v-404q109 109 272 109q76 0 141.5 -25.5t109 -66.5t71.5 -83.5t43 -86.5v-637q-15 -45 -43 -88t-71.5 -84t-109 -66t-141.5 -25q-176 0 -287 123v-100h-346zM496 297q49 -49 141 -49q51 0 87.5 21t47.5 44v490q-13 23 -48.5 43t-88.5 20q-92 0 -139 -47 v-522z" />
<glyph unicode="c" d="M143 250v614q21 48 59 94t97.5 90.5t150 71.5t197.5 27q86 0 161.5 -18.5t126 -44.5t92.5 -61t63.5 -61t35.5 -51v-245h-331v133q-14 33 -54.5 55.5t-93.5 22.5t-90.5 -22.5t-52.5 -55.5v-484q15 -32 52.5 -53.5t90.5 -21.5t93.5 22t54.5 53v134h331v-246 q-13 -23 -34 -49t-63 -60.5t-93 -61t-127.5 -45t-161.5 -18.5q-87 0 -163 18t-130 47t-98 67t-70.5 74.5t-42.5 74.5z" />
<glyph unicode="d" d="M135 240v637q15 44 43 86.5t71.5 83.5t109 66.5t141.5 25.5q163 0 272 -109v404h361v-1434h-347v100q-111 -123 -286 -123q-76 0 -141.5 25t-109 66t-71.5 84t-43 88zM496 313q13 -25 48.5 -45t88.5 -20q90 0 139 49v520q-53 49 -141 49q-52 0 -88 -20t-47 -43v-490z" />
<glyph unicode="e" d="M137 250v614q22 48 61 94t100 90.5t153.5 71.5t201.5 27q88 0 166 -18.5t130.5 -45t95 -61t65 -61t35.5 -50.5v-438h-647v-158q16 -32 57 -53.5t98 -21.5t100.5 22t59.5 53v56h332v-168q-14 -24 -36 -50t-65 -60.5t-95 -60.5t-130 -44.5t-166 -18.5t-166 18t-133.5 46.5 t-100.5 67t-72 75t-44 74.5zM498 688h315v113q-16 32 -59 54t-101 22q-57 0 -98 -21.5t-57 -54.5v-113z" />
<glyph unicode="f" d="M166 0v258h240v598h-240v258h240v189q18 38 50.5 70t87 62t141.5 47t198 17q149 0 235 -26v-244q-32 4 -104 4q-199 0 -248 -49v-70h352v-258h-352v-598h352v-258h-952z" />
<glyph unicode="g" d="M135 399v478q15 44 43 86.5t71.5 83.5t109 66.5t141.5 25.5q177 0 286 -125v100h347v-1184q-18 -39 -44.5 -75t-70 -73.5t-97 -64.5t-129.5 -44t-163 -17q-86 0 -162 17.5t-126 43.5t-92 60.5t-64 62.5t-38 56v149h349v-61q13 -23 48 -42.5t85 -19.5q54 0 91.5 20.5 t51.5 53.5v250q-109 -109 -272 -109q-76 0 -141.5 25t-109 66t-71.5 83.5t-43 87.5zM496 469q13 -25 48.5 -45.5t88.5 -20.5q89 0 139 50v364q-53 49 -141 49q-52 0 -88 -20t-47 -43v-334z" />
<glyph unicode="h" d="M143 0v1434h361v-404q109 109 272 109q76 0 141.5 -25.5t109 -66.5t71.5 -83.5t43 -86.5v-877h-361v803q-13 23 -48.5 43t-88.5 20q-92 0 -139 -47v-819h-361z" />
<glyph unicode="i" d="M133 0v258h332v598h-287v258h647v-856h326v-258h-1018zM438 1335v166q16 39 71 68.5t130 29.5q77 0 131.5 -29.5t71.5 -68.5v-166q-17 -39 -71.5 -68.5t-131.5 -29.5q-75 0 -130 29.5t-71 68.5z" />
<glyph unicode="j" d="M186 -78q138 0 235 26.5t136 67.5v840h-358v258h719v-1175q-32 -49 -88.5 -95t-143.5 -90.5t-217 -72t-283 -27.5v268zM530 1335v166q16 39 71 68.5t130 29.5q77 0 131.5 -29.5t71.5 -68.5v-166q-17 -39 -71.5 -68.5t-131.5 -29.5q-75 0 -130 29.5t-71 68.5z" />
<glyph unicode="k" d="M152 0v1434h360v-666h39l375 346h252v-192l-328 -295l344 -434v-193h-291l-297 373l-94 -74v-299h-360z" />
<glyph unicode="l" d="M143 0v258h330v918h-285v258h646v-1176h327v-258h-1018z" />
<glyph unicode="m" d="M70 0v1114h288v-100q62 125 185 125q41 0 73 -11.5t54.5 -34.5t36 -44.5t28.5 -53.5q79 144 226 144q47 0 86.5 -16.5t65 -42t45 -60t30 -65.5t16.5 -64v-891h-313v817q-5 21 -21 35t-39 14q-45 0 -59 -35v-831h-268v817q-11 49 -62 49q-20 0 -36 -11t-21 -24v-831h-315z " />
<glyph unicode="n" d="M143 0v1114h334v-115q113 140 299 140q76 0 141.5 -25.5t109 -66.5t71.5 -83.5t43 -86.5v-877h-361v803q-13 23 -48.5 43t-88.5 20q-92 0 -139 -47v-819h-361z" />
<glyph unicode="o" d="M129 250v616q21 48 59.5 94t98.5 90t150.5 70.5t197.5 26.5q86 0 162.5 -18.5t130 -46.5t98 -66.5t71 -75t44.5 -74.5v-616q-18 -38 -44.5 -74.5t-71 -75t-98 -66.5t-130 -46.5t-162.5 -18.5q-107 0 -197.5 26.5t-150.5 70.5t-98.5 90t-59.5 94zM489 315q14 -31 53.5 -53 t92.5 -22t92 22t53 53v486q-15 32 -53.5 54t-91.5 22t-92 -22.5t-54 -53.5v-486z" />
<glyph unicode="p" d="M135 -319v1433h346v-100q109 125 287 125q76 0 141.5 -25.5t109 -66.5t71.5 -83.5t43 -86.5v-637q-15 -45 -43 -88t-71.5 -84t-109 -66t-141.5 -25q-163 0 -272 109v-405h-361zM496 297q49 -49 141 -49q51 0 87.5 21t47.5 44v490q-13 23 -48.5 43t-88.5 20 q-92 0 -139 -47v-522z" />
<glyph unicode="q" d="M135 240v637q15 44 43 86.5t71.5 83.5t109 66.5t141.5 25.5q177 0 286 -125v100h347v-1433h-361v405q-109 -109 -272 -109q-76 0 -141.5 25t-109 66t-71.5 84t-43 88zM496 313q13 -25 48.5 -45t88.5 -20q90 0 139 49v520q-53 49 -141 49q-52 0 -88 -20t-47 -43v-490z" />
<glyph unicode="r" d="M156 0v258h219v598h-219v258h555v-153q112 153 370 153q24 0 49 -2v-319q-25 2 -63 2q-235 0 -332 -64v-473h342v-258h-921z" />
<glyph unicode="s" d="M141 188v174h334v-79q16 -25 58.5 -42.5t99.5 -17.5t100.5 17.5t59.5 42.5v77q-22 40 -134 58l-118 20q-172 30 -269.5 84t-130.5 105v301q13 22 35.5 46.5t66 56.5t96 57t131 42t165.5 17q107 0 198 -25t149.5 -64.5t90.5 -69.5t53 -60v-168h-333v74q-16 24 -59 40.5 t-101 16.5t-100 -16.5t-58 -40.5v-70q18 -32 133 -55l119 -23q172 -33 268.5 -85t130.5 -101v-312q-19 -30 -53 -62t-92.5 -70t-149.5 -62.5t-198 -24.5q-87 0 -164.5 17.5t-129.5 42t-95.5 56.5t-66 56.5t-36.5 46.5z" />
<glyph unicode="t" d="M143 856v258h232v320h360v-320h361v-258h-361v-569q68 -47 266 -47q79 0 115 4v-244q-105 -27 -244 -27q-221 0 -339 56.5t-158 140.5v686h-232z" />
<glyph unicode="u" d="M133 225v889h361v-803q14 -24 46.5 -43.5t84.5 -19.5q88 0 135 47v819h360v-1114h-334v113q-113 -136 -294 -136q-77 0 -141 23t-106 61.5t-69.5 79t-42.5 84.5z" />
<glyph unicode="v" d="M98 922v192h344l193 -719h35l196 719h305v-192l-305 -922h-465z" />
<glyph unicode="w" d="M31 922v192h348l39 -711h33l92 433h229l90 -433h33l41 711h303v-192l-123 -922h-383l-76 307h-26l-74 -307h-401z" />
<glyph unicode="x" d="M129 0v193l250 366l-250 363v192h324l170 -342h20l172 342h326v-192l-254 -363l254 -366v-193h-328l-170 340h-20l-172 -340h-322z" />
<glyph unicode="y" d="M119 922v192h344l166 -600h37l157 600h318v-190l-367 -1110q-61 -68 -170 -115t-262 -47q-127 0 -195 22v246q58 -4 115 -4q64 0 114.5 17.5t76.5 39.5l18 62z" />
<glyph unicode="z" d="M145 0v242l531 589v25h-531v258h975v-223l-545 -606v-25h545v-260h-975z" />
<glyph unicode="{" d="M303 403v259q43 0 65.5 23t26.5 81v321q23 65 68 124t113.5 110.5t169 82t219.5 30.5v-256q-86 0 -121.5 -47.5t-44.5 -131.5v-280q-42 -119 -144 -187q102 -72 144 -186v-280q4 -39 13 -68t26.5 -55t49.5 -40t77 -14v-258q-119 0 -219.5 30.5t-169 82.5t-113.5 111 t-68 125v321q-4 57 -27 79.5t-65 22.5z" />
<glyph unicode="|" d="M440 -266v1884h387v-1884h-387z" />
<glyph unicode="}" d="M303 -111q45 0 77 14t49.5 40t26.5 55t13 68v280q42 115 143 186q-101 68 -143 187v280q-9 84 -44.5 131.5t-121.5 47.5v256q119 0 219.5 -30.5t168.5 -82t113 -110.5t68 -124v-321q4 -58 27 -81t66 -23v-259q-43 0 -66 -22.5t-27 -79.5v-321q-23 -66 -68 -125t-113 -111 t-168.5 -82.5t-219.5 -30.5v258z" />
<glyph unicode="~" d="M104 555v299q4 4 12.5 10t36.5 22.5t58.5 29t78.5 22.5t97 10q102 0 281.5 -52t267.5 -52q60 0 117 22.5t85 45.5l27 22v-309q-10 -8 -28 -19.5t-77 -31t-122 -19.5q-89 0 -187.5 26t-193 52t-174.5 26q-45 0 -90 -10.5t-77.5 -26t-59 -31t-39.5 -25.5z" />
<glyph unicode="&#xa0;" />
<glyph unicode="&#xa1;" d="M389 848v201q17 37 73.5 67.5t131.5 30.5q74 0 131 -31t74 -67v-201q-17 -36 -74 -67t-131 -31q-75 0 -131.5 30.5t-73.5 67.5zM391 14l45 598h318l43 -598v-327h-406v327z" />
<glyph unicode="&#xa2;" d="M127 250v614q18 39 49 77t77 76.5t113 69.5t146 46v167h293v-170q74 -15 137.5 -43.5t105.5 -62.5t67 -60.5t42 -52.5v-245h-332v133q-18 33 -64 55.5t-106 22.5q-61 0 -105.5 -22.5t-60.5 -55.5v-484q16 -31 60.5 -53t105.5 -22q60 0 106 22t64 53v134h332v-246 q-15 -24 -40.5 -51.5t-67.5 -61t-106 -62t-138 -42.5v-172h-293v170q-151 28 -248 104t-137 162z" />
<glyph unicode="&#xa3;" d="M76 643v176h88v371q21 43 62.5 87.5t104.5 88t156 71t199 27.5q85 0 162.5 -18t130.5 -44.5t97 -60t67.5 -59t36.5 -47.5v-219h-344v92q-14 32 -56 55t-94 23q-51 0 -93 -23.5t-56 -54.5v-289h458l-24 -176h-434v-250q-26 -65 -58 -104h701v-289h-1088v244q22 4 43 19.5 t29 43.5v336h-88z" />
<glyph unicode="&#xa4;" d="M121 164v172l41 41q-26 37 -37 65v478q11 28 37 65l-41 43v174h235l39 -41q108 41 240 41q134 0 239 -43l44 43h229v-174l-43 -43q23 -33 39 -65v-478q-12 -24 -37 -65l41 -41v-172h-229l-39 37q-103 -41 -244 -41q-142 0 -242 41l-37 -37h-235zM485 506q16 -32 56 -54 t94 -22q53 0 93 22.5t54 53.5v350q-14 31 -54 53.5t-93 22.5q-54 0 -94 -22t-56 -54v-350z" />
<glyph unicode="&#xa5;" d="M72 403v175h358v6l-70 125h-288v174h196l-196 362v189h374l191 -441h33l192 441h336v-189l-197 -362h197v-174h-289l-37 -66q-33 -64 -34 -65h360v-175h-379v-403h-389v403h-358z" />
<glyph unicode="&#xa6;" d="M440 -264v905h387v-905h-387zM440 786v832h387v-832h-387z" />
<glyph unicode="&#xa7;" d="M166 33v168h332v-82q15 -25 51 -42.5t86 -17.5q47 0 84 17.5t51 42.5v82q-18 37 -117 55l-104 23q-166 33 -260 85.5t-123 100.5v307q30 49 88 94q-67 44 -88 84v295q14 23 35 47.5t62 56.5t90.5 56.5t123.5 41.5t158 17t158 -17.5t122 -41.5t90 -58t61 -56t36 -46v-166 h-332v80q-15 25 -52 43.5t-85 18.5t-84 -18.5t-51 -43.5v-80q17 -35 114 -57l105 -21q166 -33 260.5 -85.5t124.5 -100.5v-307q-33 -52 -90 -96q65 -41 90 -82v-297q-15 -23 -35.5 -46.5t-62 -56.5t-90.5 -57t-123 -41.5t-158 -17.5t-158 18t-122 42t-90 58t-61 55.5 t-36 45.5zM498 596q17 -36 114 -57l31 -7q44 1 78 19.5t49 42.5v88q-17 38 -115 59l-32 7q-45 -3 -78.5 -21t-46.5 -41v-90z" />
<glyph unicode="&#xa8;" d="M227 1317v203q20 25 63 47t111 22q70 0 115 -22.5t62 -46.5v-203q-17 -25 -62 -47.5t-115 -22.5q-111 0 -174 70zM688 1317v203q60 69 176 69q70 0 113 -22t63 -47v-203q-55 -70 -176 -70q-106 0 -176 70z" />
<glyph unicode="&#xa9;" d="M37 717q0 152 47.5 290.5t127.5 238.5t190.5 159t232.5 59t232.5 -59t190.5 -159t127.5 -238.5t47.5 -290.5q0 -204 -80 -376t-218 -272t-300 -100t-300 100t-218 272t-80 376zM121 717q0 -181 67 -334.5t185.5 -243.5t261.5 -90q108 0 203.5 53t163.5 143t107.5 213 t39.5 259q0 182 -66.5 334.5t-185 242.5t-262.5 90q-143 0 -261.5 -90t-185.5 -243t-67 -334zM256 444v545q11 27 28 56t49.5 63.5t72 60.5t99 44t126.5 18t125.5 -16t96 -38t69 -52.5t46.5 -51.5t27 -43v-225h-295v125q-8 23 -25 41t-36 18q-21 0 -36.5 -17.5t-22.5 -41.5 v-428q7 -24 22 -41t37 -17q19 0 35.5 18t25.5 40v125h295v-226q-16 -30 -38 -57t-64.5 -63t-110.5 -58t-151 -22q-68 0 -127.5 18t-99 44t-71.5 61t-49 63.5t-28 56.5z" />
<glyph unicode="&#xaa;" d="M307 819v205q11 19 28 38t45.5 40.5t72.5 35t96 13.5q116 0 205 -61v141q-12 32 -44.5 52t-78.5 20q-42 0 -70 -16.5t-41 -35.5v-47h-201v107q15 22 35 42t56.5 46.5t94 42.5t126.5 16q136 0 223 -59t117 -139v-535h-211v47q-90 -65 -211 -65q-98 0 -160 36t-82 76z M516 885q7 -17 34.5 -31t72.5 -14q91 0 131 43v88q-43 47 -131 47q-77 0 -107 -45v-88z" />
<glyph unicode="&#xab;" d="M45 440v281l348 393h262v-188l-319 -344l319 -344v-189h-262zM612 440v281l349 393h262v-188l-320 -344l320 -344v-189h-262z" />
<glyph unicode="&#xac;" d="M90 541v284h1090v-682h-287v398h-803z" />
<glyph unicode="&#xad;" d="M236 541v284h798v-284h-798z" />
<glyph unicode="&#xae;" d="M145 1198q0 99 39 189.5t105 156.5t156.5 105t189.5 39q132 0 244.5 -66t178.5 -179t66 -245t-66 -244.5t-178.5 -178.5t-244.5 -66t-245 66t-179 178.5t-66 244.5zM231 1198q0 -168 118 -289t286 -121q167 0 285 121t118 289t-118 289t-285 121q-168 0 -286 -121 t-118 -289zM416 920v567h276q57 0 110 -31t77 -82v-170q-22 -50 -78 -84l76 -102v-98h-154l-88 170h-49v-170h-170zM586 1221h73q45 0 58 32v72q-13 31 -58 31h-73v-135z" />
<glyph unicode="&#xaf;" d="M246 1278v242h778v-242h-778z" />
<glyph unicode="&#xb0;" d="M266 1196v270q16 31 44 61t71.5 60t109 48t142.5 18q78 0 144 -18.5t109.5 -48.5t70.5 -59.5t44 -60.5v-270q-17 -32 -44 -61.5t-70.5 -59.5t-109.5 -48.5t-144 -18.5q-77 0 -142.5 18t-109 48t-71.5 60t-44 62zM518 1260q11 -20 42 -35t73 -15t74 15t45 35v141 q-13 20 -45 34.5t-74 14.5t-73 -14.5t-42 -34.5v-141z" />
<glyph unicode="&#xb1;" d="M90 25v284h1090v-284h-1090zM90 733v285h399v342h289v-342h402v-285h-402v-344h-289v344h-399z" />
<glyph unicode="&#xb2;" d="M285 573v187l364 289q66 52 76 69v117q-31 35 -102 35q-35 0 -62.5 -10.5t-38.5 -22.5v-113h-235v197q124 133 336 133q73 0 136.5 -17t106.5 -44t70.5 -53t44.5 -52v-225q-15 -26 -92 -82l-268 -195v-10h362v-203h-698z" />
<glyph unicode="&#xb3;" d="M285 688v156h235v-72q12 -14 41 -24.5t64 -10.5q34 0 62 10.5t40 24.5v105q-9 19 -36.5 31t-65.5 12h-133v180h129q34 0 61 11.5t39 25.5v100q-29 33 -100 33q-34 0 -62.5 -10.5t-38.5 -22.5v-68h-235v152q16 18 37.5 35.5t62.5 42.5t102.5 40t133.5 15t136 -17 t106.5 -43.5t70 -53.5t41.5 -52v-186q-21 -38 -125 -84q99 -43 133 -98v-199q-35 -60 -127.5 -113t-230.5 -53q-72 0 -134.5 15.5t-104 40t-63.5 42t-38 35.5z" />
<glyph unicode="&#xb4;" d="M410 1235v31l94 317h356v-151l-166 -197h-284z" />
<glyph unicode="&#xb5;" d="M141 -319v1433h361v-805q37 -61 137 -61q82 0 129 47v819h360v-1114h-333v113q-62 -69 -129 -101q-74 -35 -164 -35v-296h-361z" />
<glyph unicode="&#xb6;" d="M39 705v485q68 117 184 180.5t256 63.5h320v-1639h-267v664h-53q-153 0 -267 69.5t-173 176.5zM954 -205v1639h267v-1639h-267z" />
<glyph unicode="&#xb7;" d="M430 610v201q17 36 74 67t131 31q75 0 131.5 -30.5t73.5 -67.5v-201q-17 -37 -73.5 -67.5t-131.5 -30.5q-74 0 -131 31t-74 67z" />
<glyph unicode="&#xb8;" d="M395 -485l41 145q101 -18 142 -18q38 0 68 10.5t38 25.5v64q-14 29 -96 29h-121l68 235h157l-28 -104h20q78 0 125 -32t65 -77v-182q-28 -61 -101 -96t-173 -35q-137 0 -205 35z" />
<glyph unicode="&#xb9;" d="M330 573v166h180v488l-180 -15v162l219 60h215v-695h174v-166h-608z" />
<glyph unicode="&#xba;" d="M295 903v357q32 81 118.5 139.5t221.5 58.5q136 0 223 -59t117 -139v-357q-30 -80 -117 -138t-223 -58t-222 58t-118 138zM512 930q13 -29 44.5 -47.5t78.5 -18.5q45 0 78.5 19t44.5 47v301q-11 31 -44.5 51.5t-78.5 20.5q-47 0 -78.5 -20t-44.5 -52v-301z" />
<glyph unicode="&#xbb;" d="M45 49v189l317 344l-317 344v188h262l348 -393v-281l-348 -391h-262zM614 49v189l318 344l-318 344v188h263l348 -393v-281l-348 -391h-263z" />
<glyph unicode="&#xbc;" d="M51 0v164l283 360h172v-164l-281 -360h-174zM51 639v164h129v424h-127v149l166 58h215v-631h123v-164h-506zM514 139v178l270 478h367v-469h88v-187h-88v-139h-242v139h-395zM750 326h159v245h-24zM764 909v164l283 361h172v-164l-281 -361h-174z" />
<glyph unicode="&#xbd;" d="M51 0v164l283 360h172v-164l-281 -360h-174zM51 639v164h129v424h-127v149l166 58h215v-631h123v-164h-506zM557 0v186l334 254q62 49 74 64v102q-25 25 -88 25q-59 0 -84 -25v-102h-218v184q21 22 36 35t53 38t92.5 38.5t120.5 13.5q70 0 131 -16t102 -41t67 -49t42 -48 v-208q-15 -26 -89 -76l-239 -164v-10h328v-201h-662zM764 909v164l283 361h172v-164l-281 -361h-174z" />
<glyph unicode="&#xbe;" d="M51 0v164l283 360h172v-164l-281 -360h-174zM51 743v150h234v-66q24 -24 88 -24q62 0 86 24v93q-18 32 -86 32h-127v178h125q57 0 84 27v90q-23 23 -84 23q-29 0 -53.5 -7.5t-32.5 -15.5v-61h-234v143q14 16 35 33t59.5 39.5t97.5 36.5t128 14q131 0 218.5 -49.5 t119.5 -106.5v-172q-19 -31 -115 -75q93 -41 121 -86v-187q-33 -55 -121 -104t-221 -49q-202 0 -322 120zM514 139v178l270 478h367v-469h88v-187h-88v-139h-242v139h-395zM750 326h159v245h-24zM764 909v164l283 361h172v-164l-281 -361h-174z" />
<glyph unicode="&#xbf;" d="M78 -78v336q24 48 160 137l264 174v86h366v-225l-264 -180q-131 -87 -151 -121v-106q20 -33 61 -53.5t96 -20.5t96 20t60 54v127h344v-275q-28 -36 -65 -69t-97 -69.5t-147.5 -58.5t-190.5 -22q-91 0 -172 18.5t-136.5 46.5t-102.5 65.5t-74 69.5t-47 66zM481 848v201 q17 37 73.5 67.5t131.5 30.5q74 0 131 -31t74 -67v-201q-17 -36 -74 -67t-131 -31q-75 0 -131.5 30.5t-73.5 67.5z" />
<glyph unicode="&#xc0;" d="M74 0v209l280 1225h559l281 -1225v-209h-352l-66 350h-321l-68 -350h-313zM336 1716v150h352l98 -303v-33h-286zM510 635h215l-86 465h-39z" />
<glyph unicode="&#xc1;" d="M74 0v209l280 1225h559l281 -1225v-209h-352l-66 350h-321l-68 -350h-313zM489 1530v33l95 303h356v-150l-166 -186h-285zM510 635h215l-86 465h-39z" />
<glyph unicode="&#xc2;" d="M74 0v209l280 1225h559l281 -1225v-209h-352l-66 350h-321l-68 -350h-313zM238 1530v33l153 303h461l152 -303v-33h-259l-122 174l-127 -174h-258zM510 635h215l-86 465h-39z" />
<glyph unicode="&#xc3;" d="M74 0v209l280 1225h559l281 -1225v-209h-352l-66 350h-321l-68 -350h-313zM203 1524v149q11 76 80 130.5t172 54.5q49 0 90 -12.5t67 -30t48.5 -34.5t46 -29.5t47.5 -12.5q28 0 46 14t23 37v59h213v-147q-13 -76 -81 -130t-169 -54q-62 0 -110.5 18.5t-73 40.5t-55 40.5 t-60.5 18.5q-60 0 -71 -51v-61h-213zM510 635h215l-86 465h-39z" />
<glyph unicode="&#xc4;" d="M74 0v209l280 1225h559l281 -1225v-209h-352l-66 350h-321l-68 -350h-313zM219 1591v203q55 70 174 70q70 0 114.5 -22.5t61.5 -47.5v-203q-17 -25 -61.5 -47t-114.5 -22q-112 0 -174 69zM510 635h215l-86 465h-39zM680 1591v203q61 70 176 70q121 0 176 -70v-203 q-20 -25 -63 -47t-113 -22q-107 0 -176 69z" />
<glyph unicode="&#xc5;" d="M74 0v209l278 1218q-13 13 -24 35v238q34 61 119 101t188 40t187.5 -40t117.5 -101v-238q-9 -18 -25 -37l279 -1216v-209h-352l-66 350h-321l-68 -350h-313zM494 1499q13 -15 49 -29t92 -14t92.5 14.5t46.5 28.5v162q-10 16 -46.5 30.5t-92.5 14.5t-92.5 -14.5 t-48.5 -30.5v-162zM510 635h215l-86 465h-39z" />
<glyph unicode="&#xc6;" d="M41 0v209l254 1225h915v-285h-284v-275h262v-286h-262v-303h293v-285h-619v322h-201l-59 -322h-299zM455 606h145v543h-43z" />
<glyph unicode="&#xc7;" d="M90 283v868q24 55 66 106t107.5 99.5t165 78t218.5 29.5q117 0 215 -28.5t161.5 -74.5t102 -89t62.5 -88v-324h-373v219q-19 40 -62.5 66t-105.5 26q-63 0 -105.5 -25.5t-62.5 -66.5v-725q19 -40 62.5 -66t105.5 -26t105.5 26t62.5 66v240h373v-344q-19 -35 -45 -69 t-73 -74t-103.5 -69t-140.5 -49t-179 -20q-118 0 -217.5 29.5t-165 78.5t-108 100t-66.5 106zM397 -485l41 145q101 -18 142 -18q38 0 68 10.5t38 25.5v64q-14 29 -96 29h-121l68 235h157l-28 -104h20q78 0 125.5 -32t65.5 -77v-182q-28 -61 -101.5 -96t-173.5 -35 q-137 0 -205 35z" />
<glyph unicode="&#xc8;" d="M174 0v1434h940v-285h-551v-275h518v-286h-518v-303h563v-285h-952zM369 1716v150h352l98 -303v-33h-287z" />
<glyph unicode="&#xc9;" d="M174 0v1434h940v-285h-551v-275h518v-286h-518v-303h563v-285h-952zM524 1530v33l94 303h357v-150l-166 -186h-285z" />
<glyph unicode="&#xca;" d="M174 0v1434h940v-285h-551v-275h518v-286h-518v-303h563v-285h-952zM266 1530v33l154 303h461l151 -303v-33h-258l-123 174l-127 -174h-258z" />
<glyph unicode="&#xcb;" d="M174 0v1434h940v-285h-551v-275h518v-286h-518v-303h563v-285h-952zM227 1591v203q55 70 174 70q70 0 115 -22.5t62 -47.5v-203q-17 -24 -62 -46.5t-115 -22.5q-112 0 -174 69zM688 1591v203q61 70 176 70q121 0 176 -70v-203q-20 -25 -63 -47t-113 -22q-107 0 -176 69z " />
<glyph unicode="&#xcc;" d="M150 0v285h290v864h-290v285h968v-285h-289v-864h289v-285h-968zM324 1716v150h352l98 -303v-33h-287z" />
<glyph unicode="&#xcd;" d="M150 0v285h290v864h-290v285h968v-285h-289v-864h289v-285h-968zM487 1530v33l95 303h356v-150l-166 -186h-285z" />
<glyph unicode="&#xce;" d="M150 0v285h290v864h-290v285h968v-285h-289v-864h289v-285h-968zM256 1530v33l154 303h460l152 -303v-33h-258l-123 174l-127 -174h-258z" />
<glyph unicode="&#xcf;" d="M150 0v285h290v864h-290v285h968v-285h-289v-864h289v-285h-968zM227 1597v203q55 70 174 70q70 0 115 -22.5t62 -47.5v-203q-17 -24 -62 -46.5t-115 -22.5q-112 0 -174 69zM688 1597v203q61 70 176 70q121 0 176 -70v-203q-20 -25 -63 -47t-113 -22q-107 0 -176 69z" />
<glyph unicode="&#xd0;" d="M70 584v286h65v564h563q94 0 175 -24.5t138 -66.5t96.5 -90t63.5 -102v-868q-24 -54 -63.5 -102t-96.5 -90t-138 -66.5t-175 -24.5h-563v584h-65zM524 285h92q62 0 106 25t60 63v688q-16 38 -60 63t-106 25h-92v-279h158v-286h-158v-299z" />
<glyph unicode="&#xd1;" d="M100 0v1434h422l250 -770h37v770h360v-1434h-421l-250 768h-37v-768h-361zM240 1524v149q11 76 80 130.5t172 54.5q49 0 90 -12.5t67 -30t48.5 -34.5t46 -29.5t47.5 -12.5q28 0 46 14t23 37v59h213v-147q-13 -76 -81 -130t-169 -54q-62 0 -110.5 18.5t-73 40.5t-55 40.5 t-60.5 18.5q-60 0 -71 -51v-61h-213z" />
<glyph unicode="&#xd2;" d="M78 283v868q24 55 66 106t107.5 99.5t165 78t218.5 29.5q118 0 217.5 -29.5t165 -78t108 -99.5t66.5 -106v-868q-19 -43 -48 -84t-77.5 -84t-108 -74.5t-143.5 -51.5t-180 -20q-118 0 -217.5 29.5t-165 78.5t-108 100t-66.5 106zM352 1737v149h353l98 -303v-33h-287z M467 354q19 -40 62.5 -66t105.5 -26t105.5 26t62.5 66v725q-19 40 -62.5 66t-105.5 26t-105.5 -26t-62.5 -66v-725z" />
<glyph unicode="&#xd3;" d="M78 283v868q24 55 66 106t107.5 99.5t165 78t218.5 29.5q118 0 217.5 -29.5t165 -78t108 -99.5t66.5 -106v-868q-19 -43 -48 -84t-77.5 -84t-108 -74.5t-143.5 -51.5t-180 -20q-118 0 -217.5 29.5t-165 78.5t-108 100t-66.5 106zM467 354q19 -40 62.5 -66t105.5 -26 t105.5 26t62.5 66v725q-19 40 -62.5 66t-105.5 26t-105.5 -26t-62.5 -66v-725zM496 1550v33l94 303h356v-149l-166 -187h-284z" />
<glyph unicode="&#xd4;" d="M78 283v868q24 55 66 106t107.5 99.5t165 78t218.5 29.5q118 0 217.5 -29.5t165 -78t108 -99.5t66.5 -106v-868q-19 -43 -48 -84t-77.5 -84t-108 -74.5t-143.5 -51.5t-180 -20q-118 0 -217.5 29.5t-165 78.5t-108 100t-66.5 106zM264 1550v33l154 303h461l151 -303v-33 h-258l-123 174l-127 -174h-258zM467 354q19 -40 62.5 -66t105.5 -26t105.5 26t62.5 66v725q-19 40 -62.5 66t-105.5 26t-105.5 -26t-62.5 -66v-725z" />
<glyph unicode="&#xd5;" d="M78 283v868q24 55 66 106t107.5 99.5t165 78t218.5 29.5q118 0 217.5 -29.5t165 -78t108 -99.5t66.5 -106v-868q-19 -43 -48 -84t-77.5 -84t-108 -74.5t-143.5 -51.5t-180 -20q-118 0 -217.5 29.5t-165 78.5t-108 100t-66.5 106zM223 1544v150q11 76 80 130t172 54 q49 0 90 -12.5t67 -30t48.5 -34.5t46 -29.5t47.5 -12.5q28 0 46.5 14t23.5 37v60h213v-148q-13 -76 -81 -130t-169 -54q-51 0 -91.5 12.5t-66.5 30t-47.5 34.5t-45 29.5t-48.5 12.5q-61 0 -72 -51v-62h-213zM467 354q19 -40 62.5 -66t105.5 -26t105.5 26t62.5 66v725 q-19 40 -62.5 66t-105.5 26t-105.5 -26t-62.5 -66v-725z" />
<glyph unicode="&#xd6;" d="M78 283v868q24 55 66 106t107.5 99.5t165 78t218.5 29.5q118 0 217.5 -29.5t165 -78t108 -99.5t66.5 -106v-868q-19 -43 -48 -84t-77.5 -84t-108 -74.5t-143.5 -51.5t-180 -20q-118 0 -217.5 29.5t-165 78.5t-108 100t-66.5 106zM229 1599v203q55 70 174 70 q70 0 115 -22.5t62 -47.5v-203q-17 -24 -62 -46.5t-115 -22.5q-112 0 -174 69zM467 354q19 -40 62.5 -66t105.5 -26t105.5 26t62.5 66v725q-19 40 -62.5 66t-105.5 26t-105.5 -26t-62.5 -66v-725zM690 1599v203q61 70 176 70q121 0 176 -70v-203q-20 -25 -63 -47t-113 -22 q-107 0 -176 69z" />
<glyph unicode="&#xd7;" d="M96 164v188l334 332l-334 328v190h217l322 -317l321 317h218v-190l-334 -328l334 -332v-188h-218l-321 313l-322 -313h-217z" />
<glyph unicode="&#xd8;" d="M78 283v868q24 55 66 106t107.5 99.5t165 78t218.5 29.5q203 0 356 -92l45 62h144v-107l-54 -74q47 -56 66 -102v-868q-19 -43 -48 -84t-77.5 -84t-108 -74.5t-143.5 -51.5t-180 -20q-212 0 -359 92l-43 -61h-143v106l51 72q-38 46 -63 105zM467 324q19 -40 62.5 -66.5 t105.5 -26.5t105.5 26.5t62.5 66.5v475l-336 -471v-4zM467 635l336 471v4q-19 40 -62.5 66t-105.5 26t-105.5 -26t-62.5 -66v-475z" />
<glyph unicode="&#xd9;" d="M106 244v1190h390v-1088q14 -37 51.5 -60.5t87.5 -23.5q49 0 85 23t54 61v1088h389v-1190q-27 -53 -70.5 -99.5t-106.5 -87.5t-153.5 -64.5t-197.5 -23.5t-198 23.5t-154.5 64.5t-107 87.5t-69.5 99.5zM328 1716v150h352l98 -303v-33h-286z" />
<glyph unicode="&#xda;" d="M106 244v1190h390v-1088q14 -37 51.5 -60.5t87.5 -23.5q49 0 85 23t54 61v1088h389v-1190q-27 -53 -70.5 -99.5t-106.5 -87.5t-153.5 -64.5t-197.5 -23.5t-198 23.5t-154.5 64.5t-107 87.5t-69.5 99.5zM489 1530v33l95 303h356v-150l-166 -186h-285z" />
<glyph unicode="&#xdb;" d="M106 244v1190h390v-1088q14 -37 51.5 -60.5t87.5 -23.5q49 0 85 23t54 61v1088h389v-1190q-27 -53 -70.5 -99.5t-106.5 -87.5t-153.5 -64.5t-197.5 -23.5t-198 23.5t-154.5 64.5t-107 87.5t-69.5 99.5zM248 1530v33l153 303h461l152 -303v-33h-258l-123 174l-127 -174 h-258z" />
<glyph unicode="&#xdc;" d="M106 244v1190h390v-1088q14 -37 51.5 -60.5t87.5 -23.5q49 0 85 23t54 61v1088h389v-1190q-27 -53 -70.5 -99.5t-106.5 -87.5t-153.5 -64.5t-197.5 -23.5t-198 23.5t-154.5 64.5t-107 87.5t-69.5 99.5zM225 1599v203q55 70 174 70q70 0 114.5 -22.5t61.5 -47.5v-203 q-17 -25 -61.5 -47t-114.5 -22q-112 0 -174 69zM686 1599v203q61 70 176 70q121 0 176 -70v-203q-20 -25 -63 -47t-113 -22q-107 0 -176 69z" />
<glyph unicode="&#xdd;" d="M82 1225v209h352l197 -453h39l200 453h318v-209l-369 -680v-545h-389v584zM504 1530v33l94 303h356v-150l-166 -186h-284z" />
<glyph unicode="&#xde;" d="M125 0v1434h389v-209h217q140 0 256 -63.5t184 -180.5v-465q-59 -107 -173 -176.5t-267 -69.5h-217v-270h-389zM514 555h129q113 0 154 78v229q-21 38 -62.5 58t-91.5 20h-129v-385z" />
<glyph unicode="&#xdf;" d="M127 0v1194q23 46 62 89t100 86t151.5 69t196.5 26q85 0 161.5 -17t128 -42t94.5 -57.5t66.5 -58.5t38.5 -50v-369q-22 -32 -59 -65t-74 -53q120 -75 172 -181v-321q-62 -124 -191 -187t-360 -63v270q76 0 116.5 13t70.5 57v182q-42 76 -160 76v268q51 0 92.5 18.5 t61.5 51.5v190q-43 68 -158 68q-53 0 -90.5 -19.5t-54.5 -48.5v-1126h-365z" />
<glyph unicode="&#xe0;" d="M113 139v338q14 28 40 57.5t69 62t110.5 53t146.5 20.5q184 0 295 -90v219q-45 78 -158 78q-106 0 -147 -62v-72h-334v185q17 23 34.5 43t60.5 55t92 59.5t127 43t167 18.5q111 0 204 -26.5t154 -71t99.5 -89.5t61.5 -94v-866h-349v74q-124 -105 -307 -105 q-79 0 -147 18.5t-111.5 46.5t-69.5 54.5t-38 50.5zM338 1432v151h352l98 -317v-31h-286zM465 254q46 -57 145 -57q113 0 164 55v127q-53 57 -164 57q-56 0 -93 -17t-52 -36v-129z" />
<glyph unicode="&#xe1;" d="M113 139v338q14 28 40 57.5t69 62t110.5 53t146.5 20.5q184 0 295 -90v219q-45 78 -158 78q-106 0 -147 -62v-72h-334v185q17 23 34.5 43t60.5 55t92 59.5t127 43t167 18.5q111 0 204 -26.5t154 -71t99.5 -89.5t61.5 -94v-866h-349v74q-124 -105 -307 -105 q-79 0 -147 18.5t-111.5 46.5t-69.5 54.5t-38 50.5zM465 254q46 -57 145 -57q113 0 164 55v127q-53 57 -164 57q-56 0 -93 -17t-52 -36v-129zM496 1235v31l94 317h356v-151l-166 -197h-284z" />
<glyph unicode="&#xe2;" d="M113 139v338q14 28 40 57.5t69 62t110.5 53t146.5 20.5q184 0 295 -90v219q-45 78 -158 78q-106 0 -147 -62v-72h-334v185q17 23 34.5 43t60.5 55t92 59.5t127 43t167 18.5q111 0 204 -26.5t154 -71t99.5 -89.5t61.5 -94v-866h-349v74q-124 -105 -307 -105 q-79 0 -147 18.5t-111.5 46.5t-69.5 54.5t-38 50.5zM248 1227v30l153 318h461l152 -318v-30h-258l-123 186l-127 -186h-258zM465 254q46 -57 145 -57q113 0 164 55v127q-53 57 -164 57q-56 0 -93 -17t-52 -36v-129z" />
<glyph unicode="&#xe3;" d="M113 139v338q14 28 40 57.5t69 62t110.5 53t146.5 20.5q184 0 295 -90v219q-45 78 -158 78q-106 0 -147 -62v-72h-334v185q17 23 34.5 43t60.5 55t92 59.5t127 43t167 18.5q111 0 204 -26.5t154 -71t99.5 -89.5t61.5 -94v-866h-349v74q-124 -105 -307 -105 q-79 0 -147 18.5t-111.5 46.5t-69.5 54.5t-38 50.5zM229 1231v149q11 76 80 130.5t172 54.5q49 0 90 -12.5t67 -29.5t48.5 -34.5t46 -30t47.5 -12.5q28 0 46.5 14t23.5 37v59h213v-147q-13 -76 -81 -130t-169 -54q-62 0 -110.5 18.5t-73 40.5t-55 40.5t-60.5 18.5 q-61 0 -72 -51v-61h-213zM465 254q46 -57 145 -57q113 0 164 55v127q-53 57 -164 57q-56 0 -93 -17t-52 -36v-129z" />
<glyph unicode="&#xe4;" d="M113 139v338q14 28 40 57.5t69 62t110.5 53t146.5 20.5q184 0 295 -90v219q-45 78 -158 78q-106 0 -147 -62v-72h-334v185q17 23 34.5 43t60.5 55t92 59.5t127 43t167 18.5q111 0 204 -26.5t154 -71t99.5 -89.5t61.5 -94v-866h-349v74q-124 -105 -307 -105 q-79 0 -147 18.5t-111.5 46.5t-69.5 54.5t-38 50.5zM240 1317v203q20 25 63 47t111 22q70 0 114.5 -22t61.5 -47v-203q-17 -25 -61.5 -47.5t-114.5 -22.5q-111 0 -174 70zM465 254q46 -57 145 -57q113 0 164 55v127q-53 57 -164 57q-56 0 -93 -17t-52 -36v-129zM700 1317 v203q60 69 177 69q70 0 113 -22t63 -47v-203q-55 -70 -176 -70q-107 0 -177 70z" />
<glyph unicode="&#xe5;" d="M113 139v338q14 28 40 57.5t69 62t110.5 53t146.5 20.5q184 0 295 -90v219q-45 78 -158 78q-106 0 -147 -62v-72h-334v185q17 23 34.5 43t60.5 55t92 59.5t127 43t167 18.5q111 0 204 -26.5t154 -71t99.5 -89.5t61.5 -94v-866h-349v74q-124 -105 -307 -105 q-79 0 -147 18.5t-111.5 46.5t-69.5 54.5t-38 50.5zM348 1364v221q33 62 109.5 100.5t175.5 38.5t176.5 -38.5t110.5 -100.5v-221q-33 -62 -110.5 -100.5t-176.5 -38.5t-175.5 38.5t-109.5 100.5zM465 254q46 -57 145 -57q113 0 164 55v127q-53 57 -164 57q-56 0 -93 -17 t-52 -36v-129zM510 1403q8 -16 45 -29.5t78 -13.5q43 0 79 13.5t46 29.5v143q-10 16 -46 29.5t-79 13.5q-41 0 -78 -13.5t-45 -29.5v-143z" />
<glyph unicode="&#xe6;" d="M61 141v324q8 25 28.5 53t52.5 57.5t80.5 48.5t103.5 19q115 0 188 -65v256q-3 31 -22 46t-41 15q-55 0 -66 -61v-82h-324v122q16 49 41.5 92.5t68 86t109 67.5t148.5 25q129 0 217 -74q88 74 221 74q80 0 145 -24.5t104 -64t60 -72.5t33 -66v-439h-415v-200 q16 -60 65 -60q24 0 44.5 14.5t27.5 45.5v88h278v-172q-8 -25 -22 -51t-42.5 -58.5t-64.5 -57.5t-92 -42t-121 -17q-175 0 -266 121q-58 -64 -120.5 -92.5t-151.5 -28.5q-60 0 -110.5 19t-81.5 48t-49 55t-26 50zM369 233q22 -59 73 -59q40 0 72 35v182q-28 47 -74 47 q-26 0 -45 -16t-26 -37v-152zM793 680h137v156q-6 28 -27.5 43.5t-44.5 15.5q-21 0 -41 -15.5t-24 -43.5v-156z" />
<glyph unicode="&#xe7;" d="M143 250v614q21 48 59 94t97.5 90.5t150 71.5t197.5 27q86 0 161.5 -18.5t126 -44.5t92.5 -61t63.5 -61t35.5 -51v-245h-331v133q-14 33 -54.5 55.5t-93.5 22.5t-90.5 -22.5t-52.5 -55.5v-484q15 -32 52.5 -53.5t90.5 -21.5t93.5 22t54.5 53v134h331v-246 q-16 -28 -45 -59.5t-79 -70t-129 -67t-171 -35.5l-18 -69h21q78 0 125 -32t65 -77v-182q-28 -61 -101 -96t-173 -35q-137 0 -205 35l41 145q101 -18 141 -18q38 0 68.5 10.5t38.5 25.5v64q-15 29 -97 29h-121l60 206q-84 11 -155.5 40.5t-119.5 70t-79.5 80.5t-49.5 82z" />
<glyph unicode="&#xe8;" d="M137 250v614q22 48 61 94t100 90.5t153.5 71.5t201.5 27q88 0 166 -18.5t130.5 -45t95 -61t65 -61t35.5 -50.5v-438h-647v-158q16 -32 57 -53.5t98 -21.5t100.5 22t59.5 53v56h332v-168q-14 -24 -36 -50t-65 -60.5t-95 -60.5t-130 -44.5t-166 -18.5t-166 18t-133.5 46.5 t-100.5 67t-72 75t-44 74.5zM362 1432v151h353l98 -317v-31h-287zM498 688h315v113q-16 32 -59 54t-101 22q-57 0 -98 -21.5t-57 -54.5v-113z" />
<glyph unicode="&#xe9;" d="M137 250v614q22 48 61 94t100 90.5t153.5 71.5t201.5 27q88 0 166 -18.5t130.5 -45t95 -61t65 -61t35.5 -50.5v-438h-647v-158q16 -32 57 -53.5t98 -21.5t100.5 22t59.5 53v56h332v-168q-14 -24 -36 -50t-65 -60.5t-95 -60.5t-130 -44.5t-166 -18.5t-166 18t-133.5 46.5 t-100.5 67t-72 75t-44 74.5zM498 688h315v113q-16 32 -59 54t-101 22q-57 0 -98 -21.5t-57 -54.5v-113zM526 1235v31l95 317h356v-151l-166 -197h-285z" />
<glyph unicode="&#xea;" d="M137 250v614q22 48 61 94t100 90.5t153.5 71.5t201.5 27q88 0 166 -18.5t130.5 -45t95 -61t65 -61t35.5 -50.5v-438h-647v-158q16 -32 57 -53.5t98 -21.5t100.5 22t59.5 53v56h332v-168q-14 -24 -36 -50t-65 -60.5t-95 -60.5t-130 -44.5t-166 -18.5t-166 18t-133.5 46.5 t-100.5 67t-72 75t-44 74.5zM270 1227v30l154 318h461l151 -318v-30h-258l-123 186l-127 -186h-258zM498 688h315v113q-16 32 -59 54t-101 22q-57 0 -98 -21.5t-57 -54.5v-113z" />
<glyph unicode="&#xeb;" d="M137 250v614q22 48 61 94t100 90.5t153.5 71.5t201.5 27q88 0 166 -18.5t130.5 -45t95 -61t65 -61t35.5 -50.5v-438h-647v-158q16 -32 57 -53.5t98 -21.5t100.5 22t59.5 53v56h332v-168q-14 -24 -36 -50t-65 -60.5t-95 -60.5t-130 -44.5t-166 -18.5t-166 18t-133.5 46.5 t-100.5 67t-72 75t-44 74.5zM246 1317v203q20 25 63 47t111 22q70 0 114.5 -22t61.5 -47v-203q-17 -25 -61.5 -47.5t-114.5 -22.5q-111 0 -174 70zM498 688h315v113q-16 32 -59 54t-101 22q-57 0 -98 -21.5t-57 -54.5v-113zM707 1317v203q60 69 176 69q70 0 113 -22t63 -47 v-203q-55 -70 -176 -70q-106 0 -176 70z" />
<glyph unicode="&#xec;" d="M133 0v258h332v598h-287v258h647v-856h326v-258h-1018zM360 1432v151h353l98 -317v-31h-287z" />
<glyph unicode="&#xed;" d="M133 0v258h332v598h-287v258h647v-856h326v-258h-1018zM524 1235v31l94 317h357v-151l-166 -197h-285z" />
<glyph unicode="&#xee;" d="M133 0v258h332v598h-287v258h647v-856h326v-258h-1018zM285 1227v30l153 318h461l152 -318v-30h-258l-123 186l-127 -186h-258z" />
<glyph unicode="&#xef;" d="M133 0v258h332v598h-287v258h647v-856h326v-258h-1018zM264 1317v203q20 25 63 47t111 22q70 0 114.5 -22t61.5 -47v-203q-17 -25 -61.5 -47.5t-114.5 -22.5q-111 0 -174 70zM725 1317v203q60 69 176 69q70 0 113 -22t63 -47v-203q-55 -70 -176 -70q-106 0 -176 70z" />
<glyph unicode="&#xf0;" d="M121 250v442q14 49 43 95.5t73.5 89t111.5 68.5t147 26q84 0 147 -29t129 -84v137q-29 56 -84 111l-321 -105v166l178 58q-74 52 -139 88l227 184q143 -52 268 -158l232 76v-166l-103 -32q79 -92 103 -150v-815q-23 -50 -61.5 -95.5t-98 -90t-149.5 -71t-197 -26.5 q-87 0 -163 18t-130 46.5t-98.5 67t-71 75t-43.5 74.5zM481 315q14 -31 53.5 -53t92.5 -22t92 22t53 53v312q-14 31 -53 53t-92 22t-92.5 -22t-53.5 -53v-312z" />
<glyph unicode="&#xf1;" d="M143 0v1114h334v-115q113 140 299 140q76 0 141.5 -25.5t109 -66.5t71.5 -83.5t43 -86.5v-877h-361v803q-13 23 -48.5 43t-88.5 20q-92 0 -139 -47v-819h-361zM215 1239v150q11 76 80 130t172 54q49 0 90 -12.5t67 -29.5t48.5 -34.5t46 -30t47.5 -12.5q28 0 46.5 14 t23.5 37v60h213v-148q-13 -76 -81 -130t-169 -54q-51 0 -91.5 12.5t-66.5 29.5t-47.5 34.5t-45 30t-48.5 12.5q-30 0 -48.5 -14.5t-23.5 -37.5v-61h-213z" />
<glyph unicode="&#xf2;" d="M129 250v616q21 48 59.5 94t98.5 90t150.5 70.5t197.5 26.5q86 0 162.5 -18.5t130 -46.5t98 -66.5t71 -75t44.5 -74.5v-616q-18 -38 -44.5 -74.5t-71 -75t-98 -66.5t-130 -46.5t-162.5 -18.5q-107 0 -197.5 26.5t-150.5 70.5t-98.5 90t-59.5 94zM334 1440v151h352 l98 -317v-31h-286zM489 315q14 -31 53.5 -53t92.5 -22t92 22t53 53v486q-15 32 -53.5 54t-91.5 22t-92 -22.5t-54 -53.5v-486z" />
<glyph unicode="&#xf3;" d="M129 250v616q21 48 59.5 94t98.5 90t150.5 70.5t197.5 26.5q86 0 162.5 -18.5t130 -46.5t98 -66.5t71 -75t44.5 -74.5v-616q-18 -38 -44.5 -74.5t-71 -75t-98 -66.5t-130 -46.5t-162.5 -18.5q-107 0 -197.5 26.5t-150.5 70.5t-98.5 90t-59.5 94zM465 1243v31l94 317h356 v-151l-165 -197h-285zM489 315q14 -31 53.5 -53t92.5 -22t92 22t53 53v486q-15 32 -53.5 54t-91.5 22t-92 -22.5t-54 -53.5v-486z" />
<glyph unicode="&#xf4;" d="M129 250v616q21 48 59.5 94t98.5 90t150.5 70.5t197.5 26.5q86 0 162.5 -18.5t130 -46.5t98 -66.5t71 -75t44.5 -74.5v-616q-18 -38 -44.5 -74.5t-71 -75t-98 -66.5t-130 -46.5t-162.5 -18.5q-107 0 -197.5 26.5t-150.5 70.5t-98.5 90t-59.5 94zM250 1227v30l153 318h461 l152 -318v-30h-258l-123 186l-127 -186h-258zM489 315q14 -31 53.5 -53t92.5 -22t92 22t53 53v486q-15 32 -53.5 54t-91.5 22t-92 -22.5t-54 -53.5v-486z" />
<glyph unicode="&#xf5;" d="M129 250v616q21 48 59.5 94t98.5 90t150.5 70.5t197.5 26.5q86 0 162.5 -18.5t130 -46.5t98 -66.5t71 -75t44.5 -74.5v-616q-18 -38 -44.5 -74.5t-71 -75t-98 -66.5t-130 -46.5t-162.5 -18.5q-107 0 -197.5 26.5t-150.5 70.5t-98.5 90t-59.5 94zM223 1239v150 q11 76 80 130t172 54q49 0 90 -12.5t67 -29.5t48.5 -34.5t46 -30t47.5 -12.5q28 0 46.5 14t23.5 37v60h213v-148q-13 -76 -81 -130t-169 -54q-51 0 -91.5 12.5t-66.5 29.5t-47.5 34.5t-45 30t-48.5 12.5q-30 0 -48.5 -14.5t-23.5 -37.5v-61h-213zM489 315q14 -31 53.5 -53 t92.5 -22t92 22t53 53v486q-15 32 -53.5 54t-91.5 22t-92 -22.5t-54 -53.5v-486z" />
<glyph unicode="&#xf6;" d="M129 250v616q21 48 59.5 94t98.5 90t150.5 70.5t197.5 26.5q86 0 162.5 -18.5t130 -46.5t98 -66.5t71 -75t44.5 -74.5v-616q-18 -38 -44.5 -74.5t-71 -75t-98 -66.5t-130 -46.5t-162.5 -18.5q-107 0 -197.5 26.5t-150.5 70.5t-98.5 90t-59.5 94zM233 1317v203 q20 25 63.5 47t111.5 22q70 0 114.5 -22t61.5 -47v-203q-17 -25 -61.5 -47.5t-114.5 -22.5q-112 0 -175 70zM489 315q14 -31 53.5 -53t92.5 -22t92 22t53 53v486q-15 32 -53.5 54t-91.5 22t-92 -22.5t-54 -53.5v-486zM694 1317v203q60 69 176 69q70 0 113.5 -22t63.5 -47 v-203q-20 -26 -63.5 -48t-113.5 -22q-106 0 -176 70z" />
<glyph unicode="&#xf7;" d="M90 541v284h1090v-284h-1090zM430 139v201q17 36 74 67t131 31q75 0 131.5 -30.5t73.5 -67.5v-201q-17 -37 -73.5 -67.5t-131.5 -30.5q-74 0 -131 31t-74 67zM430 1026v201q17 36 74 67t131 31q75 0 131.5 -30.5t73.5 -67.5v-201q-17 -37 -73.5 -67.5t-131.5 -30.5 q-74 0 -131 31t-74 67z" />
<glyph unicode="&#xf8;" d="M129 0v106l49 60q-34 42 -49 84v614q16 38 43 74.5t71 75t98 67.5t131 47.5t163 18.5q181 0 317 -80l41 47h148v-102l-54 -64q38 -48 54 -84v-614q-18 -38 -44.5 -74.5t-71 -75t-98 -66.5t-130 -46.5t-162.5 -18.5q-187 0 -320 78l-41 -47h-145zM489 526l275 322 q-46 53 -129 53q-53 0 -92.5 -22.5t-53.5 -55.5v-297zM504 268q43 -53 131 -53q53 0 91.5 22t53.5 54v299z" />
<glyph unicode="&#xf9;" d="M133 225v889h361v-803q14 -24 46.5 -43.5t84.5 -19.5q88 0 135 47v819h360v-1114h-334v113q-113 -136 -294 -136q-77 0 -141 23t-106 61.5t-69.5 79t-42.5 84.5zM336 1432v151h352l98 -317v-31h-286z" />
<glyph unicode="&#xfa;" d="M133 225v889h361v-803q14 -24 46.5 -43.5t84.5 -19.5q88 0 135 47v819h360v-1114h-334v113q-113 -136 -294 -136q-77 0 -141 23t-106 61.5t-69.5 79t-42.5 84.5zM465 1235v31l94 317h356v-151l-165 -197h-285z" />
<glyph unicode="&#xfb;" d="M133 225v889h361v-803q14 -24 46.5 -43.5t84.5 -19.5q88 0 135 47v819h360v-1114h-334v113q-113 -136 -294 -136q-77 0 -141 23t-106 61.5t-69.5 79t-42.5 84.5zM233 1227v30l154 318h461l151 -318v-30h-258l-123 186l-126 -186h-259z" />
<glyph unicode="&#xfc;" d="M133 225v889h361v-803q14 -24 46.5 -43.5t84.5 -19.5q88 0 135 47v819h360v-1114h-334v113q-113 -136 -294 -136q-77 0 -141 23t-106 61.5t-69.5 79t-42.5 84.5zM215 1317v203q20 25 63 47t111 22q70 0 114.5 -22t61.5 -47v-203q-17 -25 -61.5 -47.5t-114.5 -22.5 q-111 0 -174 70zM676 1317v203q60 69 176 69q70 0 113 -22t63 -47v-203q-55 -70 -176 -70q-106 0 -176 70z" />
<glyph unicode="&#xfd;" d="M119 922v192h344l166 -600h37l157 600h318v-190l-367 -1110q-61 -68 -170 -115t-262 -47q-127 0 -195 22v246q58 -4 115 -4q64 0 114.5 17.5t76.5 39.5l18 62zM481 1235v31l94 317h357v-151l-166 -197h-285z" />
<glyph unicode="&#xfe;" d="M135 -319v1753h361v-420q53 60 116.5 92.5t155.5 32.5q76 0 141.5 -25.5t109 -66.5t71.5 -83.5t43 -86.5v-637q-15 -45 -43 -88t-71.5 -84t-109 -66t-141.5 -25q-163 0 -272 109v-405h-361zM496 297q49 -49 141 -49q51 0 87.5 21t47.5 44v490q-13 23 -48.5 43t-88.5 20 q-92 0 -139 -47v-522z" />
<glyph unicode="&#xff;" d="M119 922v192h344l166 -600h37l157 600h318v-190l-367 -1110q-61 -68 -170 -115t-262 -47q-127 0 -195 22v246q58 -4 115 -4q64 0 114.5 17.5t76.5 39.5l18 62zM240 1317v203q20 25 63 47t111 22q70 0 114.5 -22t61.5 -47v-203q-17 -25 -61.5 -47.5t-114.5 -22.5 q-111 0 -174 70zM700 1317v203q60 69 177 69q70 0 113 -22t63 -47v-203q-55 -70 -176 -70q-107 0 -177 70z" />
<glyph unicode="&#x152;" d="M66 272v889q132 293 505 293q66 0 168 -20h471v-285h-284v-275h262v-286h-262v-303h293v-285h-474q-88 -20 -174 -20q-374 0 -505 292zM426 348q28 -76 145 -76q19 0 29 2v885q-5 0 -14.5 1t-14.5 1q-117 0 -145 -76v-737z" />
<glyph unicode="&#x153;" d="M61 238v636q16 49 41.5 92.5t68 86t109 67.5t148.5 25q129 0 217 -74q88 74 221 74q80 0 145 -24.5t104 -64t60 -72.5t33 -66v-439h-415v-200q16 -60 65 -60q24 0 44.5 14.5t27.5 45.5v88h278v-172q-8 -25 -22 -51t-42.5 -58.5t-64.5 -57.5t-92 -42t-121 -17 q-136 0 -221 72q-85 -72 -217 -72q-66 0 -123 17t-95.5 43.5t-69.5 63.5t-49 72t-30 73zM385 279q6 -30 24 -45t42 -15q22 0 41 15t22 45v555q-3 31 -22 46t-41 15q-55 0 -66 -61v-555zM793 680h137v156q-6 28 -27.5 43.5t-44.5 15.5q-21 0 -40 -15t-25 -44v-156z" />
<glyph unicode="&#x178;" d="M82 1225v209h352l197 -453h39l200 453h318v-209l-369 -680v-545h-389v584zM246 1591v203q55 70 174 70q70 0 114.5 -22.5t61.5 -47.5v-203q-17 -25 -61.5 -47t-114.5 -22q-112 0 -174 69zM707 1591v203q61 70 176 70q121 0 176 -70v-203q-20 -25 -63 -47t-113 -22 q-107 0 -176 69z" />
<glyph unicode="&#x2c6;" d="M252 1227v30l154 318h460l152 -318v-30h-258l-123 186l-127 -186h-258z" />
<glyph unicode="&#x2dc;" d="M217 1231v149q11 76 80 130.5t172 54.5q49 0 90 -12.5t67 -29.5t48.5 -34.5t46 -30t47.5 -12.5q28 0 46.5 14t23.5 37v59h213v-147q-13 -76 -81 -130t-169 -54q-62 0 -110.5 18.5t-73 40.5t-55 40.5t-60.5 18.5q-61 0 -72 -51v-61h-213z" />
<glyph unicode="&#x2000;" horiz-adv-x="943" />
<glyph unicode="&#x2001;" horiz-adv-x="1886" />
<glyph unicode="&#x2002;" horiz-adv-x="943" />
<glyph unicode="&#x2003;" horiz-adv-x="1886" />
<glyph unicode="&#x2004;" horiz-adv-x="628" />
<glyph unicode="&#x2005;" horiz-adv-x="471" />
<glyph unicode="&#x2006;" horiz-adv-x="314" />
<glyph unicode="&#x2007;" horiz-adv-x="314" />
<glyph unicode="&#x2008;" horiz-adv-x="235" />
<glyph unicode="&#x2009;" horiz-adv-x="377" />
<glyph unicode="&#x200a;" horiz-adv-x="104" />
<glyph unicode="&#x2010;" d="M236 541v284h798v-284h-798z" />
<glyph unicode="&#x2011;" d="M236 541v284h798v-284h-798z" />
<glyph unicode="&#x2012;" d="M236 541v284h798v-284h-798z" />
<glyph unicode="&#x2013;" d="M92 541v284h1086v-284h-1086z" />
<glyph unicode="&#x2014;" d="M20 541v284h1229v-284h-1229z" />
<glyph unicode="&#x2018;" d="M430 879v383q17 53 95 112.5t175 59.5h107v-166h-86q-24 0 -49 -15t-35 -39v-36q73 0 129.5 -31t73.5 -68v-200q-17 -37 -73.5 -68t-129.5 -31q-76 0 -133 31t-74 68z" />
<glyph unicode="&#x2019;" d="M430 1161v201q17 37 73 67.5t130 30.5q76 0 133 -30.5t74 -67.5v-383q-17 -53 -95.5 -112.5t-175.5 -59.5h-106v166h86q25 0 49.5 14.5t34.5 38.5v37q-74 0 -130 30.5t-73 67.5z" />
<glyph unicode="&#x201a;" d="M430 72v200q17 37 73.5 68t129.5 31q76 0 133 -31t74 -68v-383q-17 -53 -95.5 -112.5t-175.5 -59.5h-106v166h86q24 0 49 15t35 39v36q-73 0 -129.5 31t-73.5 68z" />
<glyph unicode="&#x201c;" d="M172 879v383q17 53 95 112.5t175 59.5h107v-166h-86q-24 0 -49 -15t-35 -39v-36q73 0 129.5 -31t73.5 -68v-200q-17 -37 -73.5 -68t-129.5 -31q-76 0 -133 31t-74 68zM686 879v383q17 53 95 112.5t175 59.5h107v-166h-86q-24 0 -49 -15t-35 -39v-36q73 0 129.5 -31 t73.5 -68v-200q-17 -37 -73.5 -68t-129.5 -31q-76 0 -133 31t-74 68z" />
<glyph unicode="&#x201d;" d="M172 1161v201q17 37 73 67.5t130 30.5q76 0 133 -30.5t74 -67.5v-383q-17 -53 -95.5 -112.5t-175.5 -59.5h-106v166h86q25 0 49.5 14.5t34.5 38.5v37q-74 0 -130 30.5t-73 67.5zM686 1161v201q17 37 73 67.5t130 30.5q76 0 133 -30.5t74 -67.5v-383q-17 -53 -95.5 -112.5 t-175.5 -59.5h-106v166h86q25 0 49.5 14.5t34.5 38.5v37q-74 0 -130 30.5t-73 67.5z" />
<glyph unicode="&#x201e;" d="M172 72v200q17 37 73.5 68t129.5 31q76 0 133 -31t74 -68v-383q-17 -53 -95.5 -112.5t-175.5 -59.5h-106v166h86q24 0 49 15t35 39v36q-73 0 -129.5 31t-73.5 68zM686 72v200q17 37 73.5 68t129.5 31q76 0 133 -31t74 -68v-383q-17 -53 -95.5 -112.5t-175.5 -59.5h-106 v166h86q24 0 49 15t35 39v36q-73 0 -129.5 31t-73.5 68z" />
<glyph unicode="&#x2022;" d="M348 543v313q38 58 113 96.5t172 38.5q95 0 170.5 -38t116.5 -97v-315q-40 -63 -115.5 -101.5t-171.5 -38.5q-97 0 -172 40.5t-113 101.5z" />
<glyph unicode="&#x2026;" d="M20 72v200q17 37 67.5 68t117.5 31q68 0 118.5 -31t65.5 -68v-200q-15 -37 -65.5 -68t-118.5 -31q-67 0 -117.5 31t-67.5 68zM451 72v200q17 38 67 68.5t117 30.5q68 0 118.5 -31t65.5 -68v-200q-15 -37 -65.5 -68t-118.5 -31q-67 0 -117 30.5t-67 68.5zM881 72v200 q17 38 67 68.5t117 30.5q68 0 118.5 -31t65.5 -68v-200q-15 -37 -65.5 -68t-118.5 -31q-67 0 -117 30.5t-67 68.5z" />
<glyph unicode="&#x202f;" horiz-adv-x="377" />
<glyph unicode="&#x2039;" d="M238 440v281l532 393h262v-188l-504 -344l504 -344v-189h-262z" />
<glyph unicode="&#x203a;" d="M238 49v189l503 344l-503 344v188h262l532 -393v-281l-532 -391h-262z" />
<glyph unicode="&#x205f;" horiz-adv-x="471" />
<glyph unicode="&#x20ac;" d="M74 500v176h90v94h-90v176h90v244q21 44 62.5 89t105 88t157 70t199.5 27q105 0 196.5 -26t151 -66t94 -73.5t54.5 -63.5v-203h-344v76q-12 32 -55 55t-97 23q-52 0 -93.5 -23t-57.5 -55v-162h458l-22 -176h-436v-94h421l-24 -176h-397v-174q16 -32 57.5 -54t93.5 -22 q54 0 97 22t55 54v75h344v-202q-17 -29 -52.5 -63t-94.5 -74t-151.5 -66.5t-197.5 -26.5q-106 0 -199.5 27t-157 70t-105 88.5t-62.5 89.5v256h-90z" />
<glyph unicode="&#x2122;" d="M68 1264v170h426v-170h-113v-629h-201v629h-112zM532 635v799h277l47 -424h14l50 424h262v-799h-189v469h-16l-62 -469h-116l-60 469h-16v-469h-191z" />
<glyph unicode="&#x25fc;" horiz-adv-x="1116" d="M0 0v1116h1116v-1116h-1116z" />
</font>
</defs>
</svg>
