<?xml version="1.0" standalone="no"?>
<!DOCTYPE svg PUBLIC "-//W3C//DTD SVG 1.1//EN" "http://www.w3.org/Graphics/SVG/1.1/DTD/svg11.dtd" >
<svg xmlns="http://www.w3.org/2000/svg">
<metadata></metadata>
<defs>
<font id="trim_monomedium" horiz-adv-x="1269" >
<font-face units-per-em="2048" ascent="1536" descent="-512" />
<missing-glyph horiz-adv-x="500" />
<glyph unicode="&#xfb01;" horiz-adv-x="2539" d="M197 0v190h241v725h-241v193h241v186q17 36 47 66.5t81 61t134.5 48t190.5 17.5q66 0 126.5 -7.5t84.5 -15.5v-180q-40 4 -119 4q-226 0 -285 -80v-100h404v-193h-404v-725h404v-190h-905zM1442 0v190h348v725h-307v193h569v-918h348v-190h-958zM1759 1348v141 q13 28 56 50t100 22q56 0 99.5 -22.5t56.5 -49.5v-141q-13 -27 -56.5 -49.5t-99.5 -22.5q-57 0 -100 22t-56 50z" />
<glyph unicode="&#xfb02;" horiz-adv-x="2539" d="M197 0v190h241v725h-241v193h241v186q17 36 47 66.5t81 61t134.5 48t190.5 17.5q66 0 126.5 -7.5t84.5 -15.5v-180q-40 4 -119 4q-226 0 -285 -80v-100h404v-193h-404v-725h404v-190h-905zM1440 0v190h350v1053h-309v191h569v-1244h350v-190h-960z" />
<glyph />
<glyph />
<glyph horiz-adv-x="682" />
<glyph unicode="&#xd;" />
<glyph unicode=" " />
<glyph unicode="!" d="M475 51v160q14 27 58 49.5t102 22.5q59 0 102.5 -22.5t57.5 -49.5v-160q-13 -28 -56.5 -49.5t-103.5 -21.5q-59 0 -103 22t-57 49zM487 1161v273h295v-273l-34 -739h-226z" />
<glyph unicode="&#x22;" d="M274 1126v308h250v-308l-41 -307h-170zM745 1126v308h250v-308l-39 -307h-170z" />
<glyph unicode="#" d="M80 397v189h158l43 266h-127v186h155l64 396h184v-140l-41 -256h283l63 396h185v-140l-41 -256h127v-186h-158l-41 -266h127v-189h-158l-63 -397h-185v139l41 258h-284l-64 -397h-182v139l41 258h-127zM442 586h285l43 266h-285z" />
<glyph unicode="$" d="M133 242v215h270v-156q26 -47 84 -85t146 -38q90 0 149 38.5t84 84.5v191q-22 44 -59 71.5t-125 48.5l-121 29q-107 24 -185.5 55t-125.5 66t-72.5 65t-44.5 66v299q11 25 30 52.5t53.5 61t76.5 62t103.5 52t131.5 34.5v170h215v-170q84 -13 156 -45t118.5 -73 t75.5 -76.5t44 -67.5v-197h-271v138q-22 46 -82 85t-151 39q-88 0 -148 -39.5t-82 -84.5v-150q16 -39 56.5 -69t132.5 -52l117 -28q107 -24 185 -54.5t125 -65.5t72 -64.5t46 -67.5v-340q-17 -35 -46 -71t-76 -76t-118 -71.5t-154 -43.5v-170h-215v170q-68 10 -128.5 33.5 t-102 51t-76 61.5t-54.5 61.5t-34 54.5z" />
<glyph unicode="%" d="M57 0v123l301 383h129v-121l-301 -385h-129zM57 846v422q26 73 105 128.5t192 55.5q112 0 191 -56t102 -128v-422q-22 -72 -101.5 -127t-191.5 -55q-113 0 -192 55t-105 127zM238 874q9 -29 41.5 -50t74.5 -21q41 0 72.5 21t40.5 50v367q-9 30 -40.5 51t-72.5 21 q-43 0 -75 -21t-41 -51v-367zM623 168v422q24 72 103.5 128t191.5 56t191 -56t103 -128v-422q-24 -72 -103 -127t-191 -55t-191.5 55t-103.5 127zM784 928v121l299 385h129v-123l-299 -383h-129zM803 197q9 -30 41 -51t74 -21t73.5 21t40.5 51v364q-9 31 -41 52.5t-73 21.5 q-40 0 -73 -22t-42 -52v-364z" />
<glyph unicode="&#x26;" d="M80 246v309q59 130 182 195q-114 54 -166 141v317q17 39 51 79.5t88 81.5t135.5 67t176.5 26q77 0 145.5 -17.5t116 -44t87.5 -62t63 -67t38 -63.5v-151h-260v102q-24 42 -73 73.5t-117 31.5q-67 0 -117 -32.5t-74 -74.5v-223q24 -38 74 -66t117 -28h190v102h260v-102 h244v-195h-244v-389q49 -82 170 -82q38 0 74 6v-182q-101 -21 -170 -21q-146 0 -242 74q-119 -80 -282 -80q-78 0 -147 17t-119.5 44t-91.5 64t-67 74t-42 76zM340 297q26 -60 80 -93.5t127 -33.5q123 0 190 94v381h-190q-73 0 -129.5 -36.5t-77.5 -90.5v-221z" />
<glyph unicode="'" d="M504 1126v308h262v-308l-41 -307h-180z" />
<glyph unicode="(" d="M354 -10v1110q24 63 66.5 119t107 106t159.5 79.5t208 29.5h18v-191h-18q-195 0 -252 -231v-926q12 -49 28 -86.5t44 -75t73.5 -58t106.5 -20.5h18v-190h-18q-113 0 -208 29.5t-159.5 79.5t-107 106t-66.5 119z" />
<glyph unicode=")" d="M354 -154h19q61 0 106.5 20.5t73.5 58t44 75t28 86.5v926q-57 231 -252 231h-19v191h19q113 0 208 -29.5t159 -79.5t106.5 -106t66.5 -119v-1110q-24 -63 -66.5 -119t-106.5 -106t-159 -79.5t-208 -29.5h-19v190z" />
<glyph unicode="*" d="M184 997q0 47 21 101t55 80l301 -146l-43 334q53 27 117 27q65 0 115 -27l-43 -334l301 146q35 -28 55 -79.5t20 -101.5q0 -15 -4 -39l-331 -61l235 -246q-25 -52 -79 -92t-107 -43l-164 295l-158 -295q-56 3 -111.5 43.5t-74.5 91.5l231 246l-332 61q-4 24 -4 39z" />
<glyph unicode="+" d="M104 582v211h424v417h211v-417h426v-211h-426v-418h-211v418h-424z" />
<glyph unicode="," d="M475 51v160q13 27 58 49.5t102 22.5t102 -22.5t58 -49.5v-338q-13 -39 -74.5 -85t-134.5 -46h-84v125h69q16 0 36 11.5t28 29.5v72q-61 0 -103.5 22t-56.5 49z" />
<glyph unicode="-" d="M256 582v211h758v-211h-758z" />
<glyph unicode="." d="M475 51v160q14 27 58 49.5t102 22.5q59 0 102.5 -22.5t57.5 -49.5v-160q-13 -28 -56.5 -49.5t-103.5 -21.5q-59 0 -103 22t-57 49z" />
<glyph unicode="/" d="M178 -45l719 1583h195v-139l-717 -1583h-197v139z" />
<glyph unicode="0" d="M127 242v950q21 45 62 89.5t102.5 86.5t151.5 68t192 26t192 -26t151.5 -68t102.5 -86.5t62 -89.5v-950q-21 -46 -62 -91t-102.5 -86.5t-151.5 -67.5t-192 -26t-192 26t-151.5 67.5t-102.5 86.5t-62 91zM395 510l434 678q-77 67 -194 67q-85 0 -149.5 -36t-90.5 -89v-620 zM434 250q79 -72 201 -72q85 0 149.5 36t89.5 89v633z" />
<glyph unicode="1" d="M221 0v180h307v1030l-307 -45v170l354 99h224v-1254h293v-180h-871z" />
<glyph unicode="2" d="M145 0v203l594 579q100 100 109 129v222q-24 51 -85 87.5t-142 36.5q-76 0 -132.5 -32t-82.5 -74v-195h-250v285q21 32 54 64.5t88.5 70.5t140 62t182.5 24q101 0 188.5 -25.5t147.5 -67.5t99.5 -86.5t61.5 -90.5v-344q-19 -46 -137 -160l-475 -457v-14h620v-217h-981z " />
<glyph unicode="3" d="M150 211v215h249v-123q22 -50 84.5 -87.5t141.5 -37.5q81 0 142 37t85 88v205q-21 57 -82.5 96t-142.5 39h-174v197h163q76 0 134 34.5t84 77.5v199q-25 41 -83.5 73.5t-134.5 32.5q-78 0 -136.5 -32.5t-80.5 -73.5v-127h-249v217q15 23 37 48.5t64 57.5t91.5 56.5 t121.5 41.5t152 17t153 -17.5t125.5 -44.5t96.5 -62t70.5 -66.5t42.5 -61.5v-295q-22 -40 -80 -85.5t-135 -77.5q83 -32 144.5 -87t88.5 -112v-311q-21 -45 -60.5 -89t-99.5 -86.5t-148 -69t-189 -26.5q-80 0 -152.5 17.5t-123.5 43.5t-93.5 60t-67 63t-38.5 56z" />
<glyph unicode="4" d="M80 319v203l532 912h406v-906h170v-209h-170v-319h-256v319h-682zM334 528h428v668h-37z" />
<glyph unicode="5" d="M164 211v207h250v-115q23 -51 84.5 -88t140.5 -37q82 0 143 36t84 89v311q-23 53 -83.5 90t-143.5 37q-89 0 -139.5 -34.5t-67.5 -79.5h-250v807h924v-220h-674v-378q51 44 127 73t166 29q143 0 247 -68.5t144 -160.5v-498q-20 -36 -56 -73.5t-93 -77t-143 -64.5 t-185 -25q-98 0 -183.5 24.5t-142 64t-92.5 77t-57 74.5z" />
<glyph unicode="6" d="M158 242v950q21 46 61.5 91t100 86.5t147 67t186.5 25.5q80 0 152.5 -17t123.5 -42.5t93.5 -59t67 -63t40.5 -57.5v-201h-249v111q-22 51 -84 87.5t-144 36.5q-79 0 -140.5 -36.5t-84.5 -87.5v-349q120 113 303 113q149 0 253 -67t146 -160v-459q-18 -34 -54 -72 t-93 -77.5t-144 -65t-186 -25.5q-80 0 -153.5 17.5t-127 45.5t-98 64.5t-72.5 72.5t-44 71zM428 303q23 -51 84.5 -88t140.5 -37q82 0 144 37t84 88v279q-21 50 -83.5 84t-146.5 34q-132 0 -223 -88v-309z" />
<glyph unicode="7" d="M129 1214v220h989v-199l-563 -1235h-225v160l514 1026v28h-715z" />
<glyph unicode="8" d="M139 242v295q24 54 77 108.5t130 93.5q-108 55 -178 156v348q15 24 37.5 48.5t64.5 56.5t91.5 56t121.5 41t152 17t152 -17t121.5 -41.5t91.5 -56.5t64.5 -57t37.5 -49v-346q-65 -96 -180 -156q147 -73 208 -202v-295q-16 -35 -43 -71t-71.5 -72.5t-98.5 -64.5 t-127.5 -45.5t-154.5 -17.5t-154.5 17.5t-127 45.5t-98.5 64.5t-72.5 72.5t-43.5 71zM408 303q24 -51 85.5 -88t141.5 -37t141.5 37t83.5 88v221q-22 51 -83.5 89t-141.5 38t-141.5 -38t-85.5 -89v-221zM418 930q26 -41 83 -73t134 -32t134 32t83 73v221q-26 42 -83 74 t-134 32t-134 -32t-83 -74v-221z" />
<glyph unicode="9" d="M139 211v188h250v-96q24 -51 85.5 -88t141.5 -37t142 37t84 88v328q-121 -111 -297 -111q-153 0 -259 67.5t-147 160.5v477q19 35 55 72t93 76t143.5 64t185.5 25q81 0 154.5 -17.5t127.5 -45t98.5 -63.5t72.5 -72t43 -72v-950q-22 -46 -61.5 -90.5t-99.5 -86.5 t-147.5 -68t-187.5 -26q-99 0 -185 25t-143 64.5t-93 77t-56 73.5zM389 834q23 -50 85 -84.5t144 -34.5q133 0 224 88v330q-22 51 -83.5 87.5t-142.5 36.5q-80 0 -142 -36.5t-85 -87.5v-299z" />
<glyph unicode=":" d="M475 51v160q14 27 58 49.5t102 22.5q59 0 102.5 -22.5t57.5 -49.5v-160q-13 -28 -56.5 -49.5t-103.5 -21.5q-59 0 -103 22t-57 49zM475 733v160q14 27 58 49.5t102 22.5q59 0 102.5 -22.5t57.5 -49.5v-160q-13 -28 -56.5 -49.5t-103.5 -21.5q-59 0 -103 22t-57 49z" />
<glyph unicode=";" d="M475 51v160q13 27 58 49.5t102 22.5t102 -22.5t58 -49.5v-338q-13 -39 -74.5 -85t-134.5 -46h-84v125h69q16 0 36 11.5t28 29.5v72q-61 0 -103.5 22t-56.5 49zM475 733v160q14 27 58 49.5t102 22.5q59 0 102.5 -22.5t57.5 -49.5v-160q-13 -28 -56.5 -49.5t-103.5 -21.5 q-59 0 -103 22t-57 49z" />
<glyph unicode="&#x3c;" d="M86 516v184l907 408h191v-145l-828 -355l828 -356v-143h-191z" />
<glyph unicode="=" d="M104 367v211h1061v-211h-1061zM104 799v211h1061v-211h-1061z" />
<glyph unicode="&#x3e;" d="M86 109v143l827 356l-827 355v145h190l908 -408v-184l-908 -407h-190z" />
<glyph unicode="?" d="M145 991v252q28 38 65 71.5t94.5 69.5t140.5 57t180 21q84 0 158.5 -17t127 -42.5t97 -61t70.5 -65.5t46 -62v-356q-25 -46 -163 -141l-287 -201v-104h-266v209l299 208q125 85 147 119v191q-33 46 -92 77t-137 31t-138 -30.5t-92 -77.5v-148h-250zM381 51v160 q14 27 58 49.5t102 22.5q59 0 102 -22.5t57 -49.5v-160q-13 -28 -56 -49.5t-103 -21.5q-59 0 -103 22t-57 49z" />
<glyph unicode="@" d="M109 106v865q15 71 57.5 140.5t108 129t160.5 96.5t202 37t201 -37t158.5 -96.5t107 -129t57.5 -140.5v-811h-170v96q-113 -98 -260 -98q-202 0 -309 166v356q108 178 321 178q131 0 248 -90v170q-29 120 -119 199.5t-237 79.5q-146 0 -235.5 -79t-120.5 -200v-799 q14 -56 42 -103.5t70 -87.5t104 -63.5t138 -25.5v-158q-104 0 -197.5 37t-159 96.5t-109 130t-58.5 141.5zM602 403q53 -88 170 -88q64 0 122 23t97 59v224q-40 37 -97.5 60.5t-121.5 23.5q-111 0 -170 -82v-220z" />
<glyph unicode="A" d="M96 0v160l332 1274h412l334 -1274v-160h-250l-99 416h-407l-101 -416h-221zM469 627h307l-133 563h-37z" />
<glyph unicode="B" d="M174 0v1434h539q141 0 245 -70t160 -172v-291q-24 -42 -71 -87t-95 -69q52 -26 103 -67.5t80 -89.5v-344q-55 -100 -163 -172t-259 -72h-539zM455 207h198q155 0 224 121v198q-28 50 -86 81.5t-125 31.5h-211v-432zM455 834h211q58 0 109.5 30.5t84.5 81.5v162 q-28 55 -82 87t-125 32h-198v-393z" />
<glyph unicode="C" d="M113 283v868q19 44 47.5 84.5t75 83t103 73.5t136 50.5t170.5 19.5q90 0 169.5 -19.5t135 -49t101 -70t72.5 -77t46 -75.5v-284h-270v209q-27 63 -93.5 106t-160.5 43q-93 0 -159 -43t-93 -106v-758q27 -64 93 -107t159 -43q94 0 160 42.5t94 107.5v229h270v-305 q-19 -39 -46 -75.5t-72.5 -77t-101 -70t-135 -49t-169.5 -19.5q-111 0 -205.5 29t-157.5 77.5t-104 99t-65 106.5z" />
<glyph unicode="D" d="M164 0v1434h508q96 0 178.5 -24.5t140 -66.5t97 -89.5t63.5 -102.5v-868q-24 -55 -63.5 -102.5t-97 -89.5t-140 -66.5t-178.5 -24.5h-508zM444 211h174q95 0 160.5 38t91.5 99v737q-26 61 -92 99.5t-160 38.5h-174v-1012z" />
<glyph unicode="E" d="M211 0v1434h903v-211h-622v-383h579v-211h-579v-418h636v-211h-917z" />
<glyph unicode="F" d="M219 0v1434h891v-211h-610v-389h573v-211h-573v-623h-281z" />
<glyph unicode="G" d="M117 285v866q18 44 46 84.5t73.5 83t101.5 73.5t134.5 50.5t168.5 19.5q89 0 166.5 -19.5t131.5 -49t99 -70t71.5 -77t45.5 -75.5v-223h-272v148q-25 64 -88.5 106.5t-153.5 42.5q-91 0 -154 -42t-90 -107v-758q25 -63 90.5 -106.5t157.5 -43.5q93 0 155.5 41t90.5 103 v237h-229v207h493v-512q-25 -51 -63 -97t-98.5 -93t-151.5 -75t-201 -28t-203 29t-155 77.5t-102.5 100t-63.5 107.5z" />
<glyph unicode="H" d="M141 0v1434h281v-590h426v590h280v-1434h-280v635h-426v-635h-281z" />
<glyph unicode="I" d="M170 0v211h326v1012h-326v211h928v-211h-322v-1012h322v-211h-928z" />
<glyph unicode="J" d="M213 0v217q40 -4 113 -4q150 0 261 38t156 103v869h-530v211h811v-1151q-76 -126 -251.5 -206.5t-444.5 -80.5q-69 0 -115 4z" />
<glyph unicode="K" d="M170 0v1434h281v-555h32l471 555h199v-160l-412 -463l426 -651v-160h-217l-393 608l-106 -123v-485h-281z" />
<glyph unicode="L" d="M227 0v1434h281v-1223h639v-211h-920z" />
<glyph unicode="M" d="M100 0v1434h359l170 -578h28l160 578h352v-1434h-262v1030h-28l-177 -575h-137l-176 575h-29v-1030h-260z" />
<glyph unicode="N" d="M131 0v1434h324l387 -973h35v973h262v-1434h-324l-387 973h-35v-973h-262z" />
<glyph unicode="O" d="M100 283v868q19 43 48 84t75.5 83.5t103.5 73.5t137 50.5t171 19.5q112 0 206.5 -29t158 -77t104.5 -98.5t65 -106.5v-868q-24 -56 -65 -106.5t-104.5 -99t-158 -77.5t-206.5 -29q-91 0 -171 20t-137 51t-103.5 73t-75.5 83t-48 85zM381 338q29 -64 94.5 -107t159.5 -43 t159.5 43t94.5 107v758q-27 63 -93.5 106t-160.5 43t-160.5 -43t-93.5 -106v-758z" />
<glyph unicode="P" d="M166 0v1434h559q133 0 245 -63.5t179 -178.5v-438q-60 -107 -170 -175.5t-254 -68.5h-279v-510h-280zM446 721h216q70 0 127.5 31t87.5 88v266q-32 59 -90 88t-125 29h-216v-502z" />
<glyph unicode="Q" d="M100 283v868q19 43 48 84t75.5 83.5t103.5 73.5t137 50.5t171 19.5q112 0 206.5 -29t158 -77t104.5 -98.5t65 -106.5v-868q-37 -85 -111.5 -159.5t-187.5 -113.5q28 -52 80 -84t99 -32h129v-197h-150q-118 0 -230 77.5t-165 196.5q-111 0 -205.5 29t-157.5 77t-104.5 99 t-65.5 107zM381 338q29 -64 94.5 -107t159.5 -43t159.5 43t94.5 107v758q-27 63 -93.5 106t-160.5 43t-160.5 -43t-93.5 -106v-758z" />
<glyph unicode="R" d="M156 0v1434h571q134 0 246 -64t176 -178v-401q-95 -166 -262 -216l274 -415v-160h-215l-334 547h-176v-547h-280zM436 748h228q153 0 217 116v242q-30 56 -87 86.5t-130 30.5h-228v-475z" />
<glyph unicode="S" d="M123 240v217h270v-142q28 -51 90 -89t152 -38q88 0 151.5 38.5t90.5 88.5v164q-23 43 -67 73t-132 50l-117 29q-107 25 -186 55.5t-127.5 65t-75.5 64.5t-49 69v309q19 33 43.5 64t69.5 69.5t98 67t132 48t169 19.5q89 0 168 -19.5t132.5 -48t98 -66.5t69 -69t42.5 -63 v-201h-268v123q-27 50 -90.5 88.5t-151.5 38.5q-89 0 -152.5 -39t-89.5 -88v-133q22 -41 65.5 -69.5t135.5 -51.5l119 -28q105 -25 182.5 -56t125.5 -65.5t75 -65t49 -69.5v-342q-18 -33 -42.5 -64.5t-69 -69.5t-98 -66.5t-132.5 -47.5t-168 -19q-90 0 -169 19t-132.5 47.5 t-98 67t-69.5 70.5t-43 65z" />
<glyph unicode="T" d="M84 1223v211h1100v-211h-408v-1223h-280v1223h-412z" />
<glyph unicode="U" d="M133 240v1194h281v-1129q23 -49 83.5 -83t137.5 -34q76 0 136.5 33.5t84.5 83.5v1129h281v-1194q-23 -50 -62.5 -94.5t-99.5 -85.5t-148 -65t-192 -24t-192 24t-148 65t-99.5 85.5t-62.5 94.5z" />
<glyph unicode="V" d="M80 1274v160h262l285 -1127h37l286 1127h238v-160l-357 -1274h-393z" />
<glyph unicode="W" d="M61 1274v160h252l58 -1074h30l123 570h219l125 -570h31l55 1074h254v-160l-118 -1274h-326l-125 539h-25l-125 -539h-309z" />
<glyph unicode="X" d="M109 0v160l344 557l-344 557v160h245l273 -512h35l278 512h219v-160l-342 -555l342 -559v-160h-246l-268 514h-37l-276 -514h-223z" />
<glyph unicode="Y" d="M111 1274v160h249l269 -531h35l270 531h225v-160l-391 -690v-584h-281v608z" />
<glyph unicode="Z" d="M141 0v178l629 1014v31h-616v211h972v-179l-628 -1013v-31h628v-211h-985z" />
<glyph unicode="[" d="M367 -344v1778h616v-191h-336v-1397h336v-190h-616z" />
<glyph unicode="\" d="M178 1399v139h195l719 -1583v-139h-197z" />
<glyph unicode="]" d="M285 -154h336v1397h-336v191h616v-1778h-616v190z" />
<glyph unicode="^" d="M201 700v154l309 580h248l309 -580v-154h-168l-246 478h-37l-245 -478h-170z" />
<glyph unicode="_" d="M10 -119h1250v-170h-1250v170z" />
<glyph unicode="`" d="M451 1466v115h251l117 -313v-31h-205z" />
<glyph unicode="a" d="M139 141v328q12 21 28.5 41t50 48t73.5 48t102 34.5t133 14.5q190 0 312 -96v252q-61 125 -228 125q-145 0 -204 -90v-88h-244v172q15 21 30.5 39t56 52t86 57.5t119 42t156.5 18.5q104 0 191 -26t144.5 -69.5t94 -88t58.5 -93.5v-862h-252v86q-131 -115 -322 -115 q-70 0 -132 13.5t-102 32t-73.5 44t-49.5 44t-28 36.5zM395 236q70 -82 203 -82q84 0 146 27t94 69v125q-32 42 -95 70t-145 28q-140 0 -203 -78v-159z" />
<glyph unicode="b" d="M180 0v1434h262v-408q119 107 291 107q82 0 150.5 -24.5t113 -64t72 -77.5t43.5 -78v-670q-16 -40 -43.5 -78.5t-72 -78t-113 -63.5t-150.5 -24q-183 0 -301 115v-90h-252zM442 262q75 -86 211 -86q77 0 128.5 31t70.5 67v560q-23 37 -72.5 66.5t-126.5 29.5 q-138 0 -211 -84v-584z" />
<glyph unicode="c" d="M174 246v616q17 38 42 74t66.5 74t92.5 65.5t122 45.5t152 18q80 0 151 -18t119.5 -44.5t88.5 -61t62 -64t36 -58.5v-211h-242v129q-22 53 -78.5 89t-136.5 36t-135.5 -35.5t-77.5 -89.5v-514q22 -54 77.5 -89.5t135.5 -35.5t136.5 36t78.5 89v129h242v-211 q-12 -27 -34 -57t-62 -64t-89 -61t-120.5 -44.5t-151.5 -17.5q-100 0 -184.5 26t-140.5 68.5t-92.5 87.5t-57.5 93z" />
<glyph unicode="d" d="M156 219v670q16 40 43.5 78t72 77.5t113 64t150.5 24.5q171 0 290 -107v408h262v-1434h-251v92q-117 -117 -301 -117q-82 0 -150.5 24t-113 63.5t-72 78t-43.5 78.5zM416 274q23 -37 72 -67.5t126 -30.5q70 0 125 24t86 62v584q-32 37 -87 60.5t-124 23.5q-77 0 -128 -30 t-70 -66v-560z" />
<glyph unicode="e" d="M164 246v616q17 38 43 74t68.5 74t94.5 65.5t124.5 45.5t154.5 18t155 -18t122.5 -44.5t90.5 -61t63.5 -64t35.5 -56.5v-403h-690v-195q24 -54 82 -89.5t141 -35.5t142.5 36t82.5 89v68h242v-154q-16 -28 -38.5 -56.5t-63 -63t-89.5 -60t-121.5 -43t-154.5 -17.5 q-101 0 -187 26t-143.5 68.5t-95 87.5t-59.5 93zM426 659h448v152q-23 53 -82.5 89t-142.5 36t-141 -35.5t-82 -89.5v-152z" />
<glyph unicode="f" d="M197 0v190h241v725h-241v193h241v186q17 36 47 66.5t81 61t134.5 48t190.5 17.5q66 0 126.5 -7.5t84.5 -15.5v-180q-40 4 -119 4q-226 0 -285 -80v-100h404v-193h-404v-725h404v-190h-905z" />
<glyph unicode="g" d="M164 379v510q17 40 44.5 78t72 77.5t112.5 64t150 24.5q182 0 303 -117v92h250v-1188q-22 -49 -58 -92.5t-92 -83.5t-140 -64t-185 -24q-80 0 -150 16.5t-117 41t-85.5 57t-59.5 59t-35 53.5v156h252v-90q19 -35 69.5 -64.5t125.5 -29.5q83 0 137.5 31t77.5 83v275 q-119 -107 -293 -107q-66 0 -124 16.5t-98 41.5t-73 59t-52 64t-32 61zM426 434q19 -36 70.5 -67t128.5 -31q70 0 125 24t86 62v424q-32 37 -87 60.5t-126 23.5q-76 0 -128 -30.5t-69 -65.5v-400z" />
<glyph unicode="h" d="M176 0v1434h260v-408q119 107 293 107q82 0 150 -24.5t112.5 -64t72 -77.5t44.5 -78v-889h-260v834q-23 36 -73 66t-126 30q-140 0 -213 -84v-846h-260z" />
<glyph unicode="i" d="M172 0v190h348v725h-307v193h569v-918h348v-190h-958zM489 1348v141q13 28 56 50t100 22q56 0 99.5 -22.5t56.5 -49.5v-141q-13 -27 -56.5 -49.5t-99.5 -22.5q-57 0 -100 22t-56 50z" />
<glyph unicode="j" d="M197 -150q163 0 277.5 40t162.5 100v925h-422v193h682v-1178q-32 -49 -86.5 -94t-137.5 -88.5t-206.5 -69.5t-269.5 -26v198zM604 1348v141q13 28 56 50t100 22q56 0 99 -22t56 -50v-141q-13 -28 -56 -50t-99 -22q-57 0 -100 22t-56 50z" />
<glyph unicode="k" d="M205 0v1434h262v-764h31l456 438h179v-147l-363 -336l379 -478v-147h-201l-354 444l-127 -114v-330h-262z" />
<glyph unicode="l" d="M170 0v190h350v1053h-309v191h569v-1244h350v-190h-960z" />
<glyph unicode="m" d="M76 0v1108h221v-90q74 115 201 115q139 0 209 -140q86 140 237 140q48 0 89 -16t67.5 -40.5t47.5 -57t32 -60t18 -56.5v-903h-237v854q-10 32 -37 54t-70 22q-36 0 -65.5 -19t-43.5 -49v-862h-213v854q-10 33 -37 54.5t-71 21.5q-37 0 -66 -19.5t-43 -48.5v-862h-239z " />
<glyph unicode="n" d="M176 0v1108h244v-100q121 125 309 125q82 0 150 -24.5t112.5 -64t72 -77.5t44.5 -78v-889h-260v834q-23 36 -73 66t-126 30q-140 0 -213 -84v-846h-260z" />
<glyph unicode="o" d="M160 246v616q17 38 42 74t66.5 74t92.5 65.5t122 45.5t152 18t152 -18t122 -45.5t92.5 -65.5t66.5 -74t42 -74v-616q-21 -48 -57.5 -93t-92.5 -87.5t-140.5 -68.5t-184.5 -26t-184.5 26t-140.5 68.5t-92.5 87.5t-57.5 93zM420 297q24 -54 79.5 -89.5t135.5 -35.5 t135.5 35.5t79.5 89.5v514q-24 54 -79.5 89.5t-135.5 35.5t-135.5 -35.5t-79.5 -89.5v-514z" />
<glyph unicode="p" d="M180 -326v1434h252v-92q117 117 301 117q82 0 150.5 -24.5t113 -64t72 -77.5t43.5 -78v-670q-16 -40 -43.5 -78.5t-72 -78t-113 -63.5t-150.5 -24q-172 0 -291 107v-408h-262zM442 262q75 -86 211 -86q77 0 128.5 31t70.5 67v560q-23 37 -72.5 66.5t-126.5 29.5 q-138 0 -211 -84v-584z" />
<glyph unicode="q" d="M156 219v670q16 40 43.5 78t72 77.5t113 64t150.5 24.5q180 0 301 -117v92h251v-1434h-262v408q-119 -107 -290 -107q-82 0 -150.5 24t-113 63.5t-72 78t-43.5 78.5zM416 274q23 -37 72 -67.5t126 -30.5q70 0 125 24t86 62v584q-32 37 -87 60.5t-124 23.5q-77 0 -128 -30 t-70 -66v-560z" />
<glyph unicode="r" d="M172 0v190h250v725h-250v193h496v-150q132 150 399 150q24 0 51 -2v-232q-43 3 -59 3q-132 0 -229 -27t-148 -70v-590h381v-190h-891z" />
<glyph unicode="s" d="M176 180v172h242v-98q68 -88 217 -88q78 0 134.5 25.5t82.5 62.5v113q-39 57 -176 82l-133 26q-153 29 -245 80.5t-122 101.5v273q20 29 51.5 59.5t86 67t139 59.5t182.5 23q80 0 152 -16.5t119.5 -39.5t89 -54.5t61.5 -53.5t37 -45v-168h-242v92q-26 37 -82.5 62.5 t-134.5 25.5q-80 0 -135 -25.5t-82 -62.5v-96q37 -53 178 -82l129 -27q154 -32 246 -81.5t123 -98.5v-289q-16 -23 -37 -46.5t-62 -54t-89 -53.5t-119.5 -39t-151.5 -16q-98 0 -182.5 23t-139 59.5t-86 67t-51.5 59.5z" />
<glyph unicode="t" d="M164 915v193h250v326h260v-326h413v-193h-413v-659q76 -82 303 -82q56 0 131 6v-182q-122 -21 -221 -21q-375 0 -473 191v747h-250z" />
<glyph unicode="u" d="M166 209v899h260v-834q61 -98 192 -98q132 0 205 84v848h260v-1108h-243v96q-117 -121 -303 -121q-80 0 -146.5 23t-110 60.5t-70.5 74.5t-44 76z" />
<glyph unicode="v" d="M121 961v147h239l269 -829h33l270 829h217v-147l-342 -961h-342z" />
<glyph unicode="w" d="M51 961v147h246l72 -819h28l148 549h205l147 -549h29l71 819h222v-147l-138 -961h-293l-137 492h-26l-138 -492h-297z" />
<glyph unicode="x" d="M172 0v147l281 412l-281 402v147h219l234 -401h18l242 401h213v-147l-283 -402l283 -412v-147h-221l-234 399h-18l-242 -399h-211z" />
<glyph unicode="y" d="M147 961v147h242l238 -746h32l232 746h221v-145l-395 -1153q-58 -69 -163 -113.5t-235 -44.5q-97 0 -159 16v185q77 -5 106 -5q72 0 130.5 22t92.5 54l27 84z" />
<glyph unicode="z" d="M170 0v178l600 717v20h-600v193h928v-166l-615 -729v-20h615v-193h-928z" />
<glyph unicode="{" d="M299 440v191q111 0 127 106v363q19 49 49 94.5t77.5 90t106.5 77t139.5 52.5t172.5 20v-191q-203 0 -254 -209v-336q-35 -102 -131 -163q95 -61 131 -162v-334q50 -211 254 -211v-190q-92 0 -172.5 20t-139.5 52.5t-106.5 76.5t-77.5 90t-49 96v363q-17 104 -127 104z " />
<glyph unicode="|" d="M496 -266v1884h278v-1884h-278z" />
<glyph unicode="}" d="M299 -172q109 0 170 58.5t82 152.5v334q39 102 133 162q-95 60 -133 163v336q-21 93 -82 151t-170 58v191q91 0 171.5 -20t139 -52.5t106 -76.5t77.5 -90t49 -95v-363q19 -106 129 -106v-191q-110 0 -129 -104v-363q-19 -50 -49 -96t-77.5 -90t-106 -76.5t-139 -52.5 t-171.5 -20v190z" />
<glyph unicode="~" d="M104 594v221q4 4 12.5 10t36.5 22.5t58.5 29t78.5 22.5t97 10q102 0 281.5 -52t267.5 -52q60 0 117 22.5t85 44.5l27 23v-231q-10 -8 -28 -19.5t-77 -31t-122 -19.5q-89 0 -187.5 26t-193 52t-174.5 26q-45 0 -90 -10.5t-77.5 -26t-59 -31t-39.5 -26.5z" />
<glyph unicode="&#xa0;" />
<glyph unicode="&#xa1;" d="M434 905v160q14 28 57 50t103 22q59 0 103 -22t57 -50v-160q-14 -27 -58 -49t-102 -22q-59 0 -102.5 22t-57.5 49zM446 -45l35 739h226l34 -739v-272h-295v272z" />
<glyph unicode="&#xa2;" d="M152 246v616q42 90 143.5 166.5t257.5 99.5v170h217v-172q77 -12 143.5 -40t110.5 -63.5t72 -67t45 -62.5v-211h-242v129q-25 53 -89 89t-153 36q-91 0 -153.5 -35.5t-87.5 -89.5v-514q25 -54 87.5 -89.5t153.5 -35.5q89 0 153 36t89 89v129h242v-211q-37 -71 -131 -141 t-240 -92v-172h-217v170q-156 23 -257.5 99.5t-143.5 166.5z" />
<glyph unicode="&#xa3;" d="M90 659v136h109v397q20 44 59 88.5t98 86.5t146 68.5t186 26.5t185.5 -25.5t143.5 -65t92.5 -77t53.5 -71.5v-191h-250v101q-24 51 -84.5 87.5t-140.5 36.5q-78 0 -138.5 -37t-82.5 -87v-338h496l-19 -136h-477v-340q-36 -69 -70 -108h766v-211h-1063v180q27 6 56 28.5 t43 61.5v389h-109z" />
<glyph unicode="&#xa4;" d="M143 195v129l60 59q-34 50 -47 84v436q12 33 49 84l-62 66v127h174l56 -58q116 58 262 58q145 0 262 -60l59 60h170v-127l-63 -64q32 -41 51 -86v-436q-16 -36 -49 -84l61 -59v-129h-170l-57 55q-114 -57 -264 -57t-264 57l-54 -55h-174zM416 518q24 -54 81 -90.5 t138 -36.5t138 36.5t79 90.5v336q-22 54 -79 90.5t-138 36.5t-138 -36.5t-81 -90.5v-336z" />
<glyph unicode="&#xa5;" d="M92 399v133h397v78l-47 82h-350v133h277l-277 469v140h268l273 -527h31l272 527h242v-140l-275 -469h275v-133h-351l-41 -74q-12 -84 -12 -86h404v-133h-408v-399h-281v399h-397z" />
<glyph unicode="&#xa6;" d="M496 -262v856h278v-856h-278zM496 803v815h278v-815h-278z" />
<glyph unicode="&#xa7;" d="M197 16v168h241v-104q26 -36 76.5 -63t120.5 -27q69 0 119.5 27t74.5 63v108q-31 55 -159 84l-119 27q-148 31 -235.5 80t-118.5 98v287q46 71 127 119q-93 48 -127 106v264q16 24 36 46.5t59.5 53.5t85 54t113.5 39t144 16q95 0 174.5 -23t131.5 -60t80.5 -66t49.5 -60 v-166h-242v103q-24 36 -74.5 63t-119.5 27q-70 0 -120.5 -27t-76.5 -63v-109q34 -53 162 -82l117 -26q148 -31 236 -81t118 -99v-287q-46 -71 -129 -119q97 -48 129 -104v-267q-15 -23 -35 -46t-59 -54t-84.5 -54t-113.5 -39t-144 -16q-77 0 -145 16.5t-113 39t-85 54 t-59 53.5t-36 46zM438 573q32 -52 160 -84l45 -10q67 1 114.5 28t71.5 62v129q-31 53 -157 82l-47 11q-66 -3 -114.5 -30t-72.5 -61v-127z" />
<glyph unicode="&#xa8;" d="M279 1333v168q53 53 137 53q53 0 88.5 -17.5t48.5 -35.5v-168q-12 -18 -48 -35.5t-89 -17.5q-84 0 -137 53zM715 1333v168q53 53 139 53q51 0 86 -17.5t51 -35.5v-168q-15 -19 -50 -36t-87 -17q-86 0 -139 53z" />
<glyph unicode="&#xa9;" d="M37 717q0 152 47.5 290.5t127.5 238t190.5 158t232.5 58.5t232.5 -58.5t190.5 -158t127.5 -238t47.5 -290.5q0 -204 -80 -375.5t-218 -271t-300 -99.5t-300 99.5t-218 271t-80 375.5zM121 717q0 -181 67 -334t185.5 -242.5t261.5 -89.5q108 0 203.5 53t163.5 142.5 t107.5 212t39.5 258.5q0 182 -66.5 334t-185 241.5t-262.5 89.5q-107 0 -202.5 -52.5t-164 -142t-108 -212t-39.5 -258.5zM283 440v551q14 33 38.5 66.5t65.5 71t105.5 61.5t140.5 24q61 0 115 -15t89 -36t65.5 -51t45 -50.5t27.5 -43.5v-201h-217v125q-14 35 -46.5 63.5 t-74.5 28.5t-73.5 -28t-45.5 -64v-457q14 -34 45.5 -61t73.5 -27t74.5 27.5t46.5 60.5v127h217v-200q-17 -30 -39 -57t-62.5 -61.5t-103 -55.5t-137.5 -21q-76 0 -140.5 23.5t-105.5 61t-65.5 71.5t-38.5 67z" />
<glyph unicode="&#xaa;" d="M319 825v203q12 18 28 34.5t45.5 38.5t74.5 35t98 13q125 0 219 -72v166q-16 39 -56.5 64.5t-100.5 25.5q-54 0 -90 -19.5t-52 -43.5v-53h-153v100q102 137 295 137q129 0 210.5 -55.5t112.5 -132.5v-533h-159v55q-91 -73 -226 -73q-100 0 -161.5 36t-84.5 74zM479 877 q13 -20 47 -38t90 -18q59 0 102.5 18t65.5 46v92q-22 27 -66 46t-102 19q-97 0 -137 -57v-108z" />
<glyph unicode="&#xab;" d="M88 494v200l361 414h190v-139l-338 -375l338 -375v-139h-190zM631 494v200l360 414h191v-139l-338 -375l338 -375v-139h-191z" />
<glyph unicode="&#xac;" d="M104 582v211h1061v-629h-211v418h-850z" />
<glyph unicode="&#xad;" d="M170 582v211h758v-211h-758z" />
<glyph unicode="&#xae;" d="M145 1198q0 99 39 189.5t105 156.5t156.5 105t189.5 39q132 0 244.5 -66t178.5 -179t66 -245t-66 -244.5t-178.5 -178.5t-244.5 -66t-245 66t-179 178.5t-66 244.5zM221 1198q0 -173 121 -296.5t293 -123.5q171 0 292.5 124t121.5 296t-121.5 296t-292.5 124 q-172 0 -293 -123.5t-121 -296.5zM432 918v575h256q55 0 105.5 -30.5t74.5 -80.5v-161q-36 -70 -102 -95l94 -133v-75h-110l-113 190h-78v-190h-127zM559 1212h105q62 0 81 45v89q-21 45 -81 45h-105v-179z" />
<glyph unicode="&#xaf;" d="M272 1317v182h725v-182h-725z" />
<glyph unicode="&#xb0;" d="M293 1212v267q15 29 41 56.5t66.5 55.5t101.5 45t133 17t133 -17.5t101.5 -45.5t66 -55t41.5 -56v-267q-16 -29 -41.5 -56.5t-66 -56t-101.5 -46t-133 -17.5t-133 17.5t-102 45.5t-66.5 56t-40.5 57zM477 1262q17 -30 58 -51t100 -21q56 0 97.5 21t60.5 51v165 q-19 30 -60.5 51t-97.5 21q-59 0 -100 -21t-58 -51v-165z" />
<glyph unicode="&#xb1;" d="M104 41v209h1061v-209h-1061zM104 731v211h424v369h211v-369h426v-211h-426v-369h-211v369h-424z" />
<glyph unicode="&#xb2;" d="M299 573v142l403 329q64 55 72 68v135q-16 27 -56 45.5t-93 18.5t-91 -16.5t-53 -37.5v-116h-176v178q16 19 37.5 37t60 42.5t97 39t125.5 14.5q68 0 128 -16t101 -42t68.5 -52t42.5 -52v-221q-12 -21 -88 -80l-324 -256v-6h418v-154h-672z" />
<glyph unicode="&#xb3;" d="M301 696v138h176v-74q14 -26 55.5 -45t94.5 -19t93 18.5t56 45.5v119q-14 28 -54.5 47.5t-94.5 19.5h-119v137h113q49 0 88 19t55 41v114q-16 20 -55 37t-88 17q-51 0 -90.5 -17t-53.5 -37v-75h-176v137q14 18 36.5 37t61 42.5t96.5 38.5t126 15q127 0 214 -50t117 -106 v-180q-13 -22 -51 -48.5t-90 -45.5q56 -17 96.5 -48.5t59.5 -64.5v-190q-33 -60 -121 -111t-219 -51q-68 0 -127.5 15t-98.5 39t-63 45t-37 40z" />
<glyph unicode="&#xb4;" d="M451 1237v31l114 313h254v-115l-164 -229h-204z" />
<glyph unicode="&#xb5;" d="M176 -326v1434h260v-836q65 -96 197 -96q126 0 201 82v850h260v-1108h-244v96q-102 -95 -238 -108q-92 -11 -176 8v-322h-260z" />
<glyph unicode="&#xb6;" d="M63 733v459q65 115 178 178.5t246 63.5h301v-1639h-198v694h-103q-144 0 -254 68.5t-170 175.5zM1008 -205v1639h196v-1639h-196z" />
<glyph unicode="&#xb7;" d="M475 629v159q14 27 58 49.5t102 22.5q59 0 102.5 -22.5t57.5 -49.5v-159q-14 -28 -57 -50t-103 -22q-59 0 -103 22t-57 50z" />
<glyph unicode="&#xb8;" d="M418 -463l31 113q87 -31 151 -31q39 0 69 12.5t38 30.5v84q-16 37 -101 37h-119l64 221h123l-33 -119h31q70 0 116.5 -29.5t63.5 -70.5v-172q-25 -53 -88.5 -85t-149.5 -32q-130 0 -196 41z" />
<glyph unicode="&#xb9;" d="M352 1262v118l223 54h158v-734h182v-127h-561v127h189v576z" />
<glyph unicode="&#xba;" d="M315 901v365q31 77 112.5 132.5t209.5 55.5t211 -56t113 -132v-365q-31 -74 -114 -130t-210 -56t-209 55.5t-113 130.5zM479 924q19 -37 59 -61.5t99 -24.5q60 0 102 25t58 61v319q-16 39 -58 64.5t-102 25.5q-59 0 -99 -25t-59 -65v-319z" />
<glyph unicode="&#xbb;" d="M86 80v139l336 375l-336 375v139h190l363 -414v-200l-363 -414h-190zM631 80v139l336 375l-336 375v139h190l361 -414v-200l-361 -414h-190z" />
<glyph unicode="&#xbc;" d="M57 0v123l301 383h129v-121l-301 -385h-129zM59 651v125h138v502l-138 -6v112l168 50h158v-658h129v-125h-455zM541 160v135l307 487h280v-481h105v-141h-105v-160h-180v160h-407zM719 301h229v313h-22zM784 928v121l299 385h129v-123l-299 -383h-129z" />
<glyph unicode="&#xbd;" d="M57 0v123l301 383h129v-121l-301 -385h-129zM59 651v125h138v502l-138 -6v112l168 50h158v-658h129v-125h-455zM580 0v139l370 291q59 47 68 62v116q-13 22 -49 38t-84 16q-43 0 -77 -14.5t-46 -31.5v-106h-176v168q14 17 34 33t56.5 38.5t91 36t117.5 13.5 q123 0 206 -47t115 -101v-202q-13 -22 -82 -72l-293 -219v-6h381v-152h-632zM784 928v121l299 385h129v-123l-299 -383h-129z" />
<glyph unicode="&#xbe;" d="M57 0v123l301 383h129v-121l-301 -385h-129zM57 762v129h174v-66q15 -22 51 -37.5t83 -15.5t81.5 15.5t49.5 37.5v103q-13 24 -48 40.5t-83 16.5h-113v135h106q43 0 77 14.5t50 32.5v103q-16 16 -50 29.5t-77 13.5t-78 -13.5t-49 -29.5v-68h-174v129q14 16 34 32.5 t56.5 38t91.5 35t119 13.5q121 0 203.5 -45.5t112.5 -97.5v-164q-15 -20 -50 -44t-79 -40q50 -16 87 -43.5t52 -54.5v-177q-29 -54 -112 -100.5t-207 -46.5q-119 0 -198 41.5t-110 83.5zM541 160v135l307 487h280v-481h105v-141h-105v-160h-180v160h-407zM719 301h229v313 h-22zM784 928v121l299 385h129v-123l-299 -383h-129z" />
<glyph unicode="&#xbf;" d="M104 -98v356q24 45 164 141l287 201v105h266v-209l-299 -209q-125 -85 -147 -119v-191q33 -46 92 -77t137 -31t138 30.5t92 77.5v148h249v-252q-28 -38 -64.5 -71.5t-94 -69.5t-140.5 -57t-180 -21q-104 0 -192 24.5t-147.5 65t-97 79t-63.5 79.5zM528 905v160 q14 28 57 50t103 22q59 0 103 -22t57 -50v-160q-14 -27 -58 -49t-102 -22q-59 0 -102.5 22t-57.5 49z" />
<glyph unicode="&#xc0;" d="M96 0v160l332 1274h412l334 -1274v-160h-250l-99 416h-407l-101 -416h-221zM371 1747v115h252l116 -291v-33h-204zM469 627h307l-133 563h-37z" />
<glyph unicode="&#xc1;" d="M96 0v160l332 1274h412l334 -1274v-160h-250l-99 416h-407l-101 -416h-221zM469 627h307l-133 563h-37zM508 1538v33l115 291h254v-115l-164 -209h-205z" />
<glyph unicode="&#xc2;" d="M96 0v160l332 1274h412l334 -1274v-160h-250l-99 416h-407l-101 -416h-221zM279 1538v33l170 291h335l170 -291v-33h-184l-154 193l-153 -193h-184zM469 627h307l-133 563h-37z" />
<glyph unicode="&#xc3;" d="M96 0v160l332 1274h412l334 -1274v-160h-250l-99 416h-407l-101 -416h-221zM225 1530v137q11 75 72.5 125.5t155.5 50.5q49 0 90.5 -15.5t69.5 -37.5t52 -43.5t49 -37t50 -15.5q68 0 82 67v76h166v-137q-12 -75 -73.5 -124.5t-152.5 -49.5q-50 0 -92 15.5t-69.5 37 t-51 43.5t-48.5 37.5t-52 15.5q-67 0 -84 -65v-80h-164zM469 627h307l-133 563h-37z" />
<glyph unicode="&#xc4;" d="M96 0v160l332 1274h412l334 -1274v-160h-250l-99 416h-407l-101 -416h-221zM266 1606v168q47 53 137 53q53 0 89.5 -17.5t48.5 -35.5v-168q-13 -18 -49 -36t-89 -18q-83 0 -137 54zM469 627h307l-133 563h-37zM702 1606v168q17 19 52.5 36t87.5 17t87 -17t50 -36v-168 q-16 -19 -51 -36.5t-86 -17.5q-86 0 -140 54z" />
<glyph unicode="&#xc5;" d="M96 0v160l324 1243q-34 24 -51 57v217q30 54 103 88.5t163 34.5q91 0 163.5 -34.5t100.5 -88.5v-217q-17 -32 -51 -59l326 -1241v-160h-250l-99 416h-407l-101 -416h-221zM469 627h307l-133 563h-37zM500 1495q10 -17 47 -32t88 -15t86.5 14.5t46.5 32.5v147 q-11 18 -47 34t-86 16q-51 0 -87.5 -16t-47.5 -34v-147z" />
<glyph unicode="&#xc6;" d="M43 0v160l338 1274h823v-211h-352v-383h326v-211h-326v-418h365v-211h-605v389h-262l-98 -389h-209zM403 600h209v623h-49z" />
<glyph unicode="&#xc7;" d="M113 283v868q19 44 47.5 84.5t75 83t103 73.5t136 50.5t170.5 19.5q90 0 169.5 -19.5t135 -49t101 -70t72.5 -77t46 -75.5v-284h-270v209q-27 63 -93.5 106t-160.5 43q-93 0 -159 -43t-93 -106v-758q27 -64 93 -107t159 -43q94 0 160 42.5t94 107.5v229h270v-305 q-18 -37 -44 -73t-69.5 -75t-95.5 -69t-126.5 -50.5t-159.5 -23.5l-23 -86h31q70 0 116.5 -29.5t63.5 -70.5v-172q-25 -53 -88 -85t-149 -32q-131 0 -197 41l31 113q87 -31 151 -31q39 0 69 12.5t38 30.5v84q-16 37 -101 37h-118l55 194q-91 10 -167.5 42t-129 77t-87 91.5 t-56.5 95.5z" />
<glyph unicode="&#xc8;" d="M211 0v1434h903v-211h-622v-383h579v-211h-579v-418h636v-211h-917zM436 1747v115h252l117 -291v-33h-205z" />
<glyph unicode="&#xc9;" d="M211 0v1434h903v-211h-622v-383h579v-211h-579v-418h636v-211h-917zM567 1538v33l115 291h254v-115l-164 -209h-205z" />
<glyph unicode="&#xca;" d="M211 0v1434h903v-211h-622v-383h579v-211h-579v-418h636v-211h-917zM328 1538v33l170 291h336l170 -291v-33h-185l-153 193l-154 -193h-184z" />
<glyph unicode="&#xcb;" d="M211 0v1434h903v-211h-622v-383h579v-211h-579v-418h636v-211h-917zM309 1606v168q47 53 137 53q53 0 89.5 -17.5t48.5 -35.5v-168q-14 -18 -50 -36t-88 -18q-83 0 -137 54zM745 1606v168q17 19 52.5 36t87.5 17t87 -17t50 -36v-168q-16 -19 -51 -36.5t-86 -17.5 q-86 0 -140 54z" />
<glyph unicode="&#xcc;" d="M170 0v211h326v1012h-326v211h928v-211h-322v-1012h322v-211h-928zM365 1747v115h251l117 -291v-33h-205z" />
<glyph unicode="&#xcd;" d="M170 0v211h326v1012h-326v211h928v-211h-322v-1012h322v-211h-928zM528 1538v33l115 291h254v-115l-164 -209h-205z" />
<glyph unicode="&#xce;" d="M170 0v211h326v1012h-326v211h928v-211h-322v-1012h322v-211h-928zM299 1538v33l170 291h336l170 -291v-33h-184l-154 193l-154 -193h-184z" />
<glyph unicode="&#xcf;" d="M170 0v211h326v1012h-326v211h928v-211h-322v-1012h322v-211h-928zM281 1608v168q47 53 137 53q53 0 89 -17.5t48 -35.5v-168q-14 -18 -49.5 -36t-87.5 -18q-83 0 -137 54zM717 1608v168q47 53 139 53q52 0 87 -17t50 -36v-168q-16 -19 -51 -36.5t-86 -17.5 q-85 0 -139 54z" />
<glyph unicode="&#xd0;" d="M76 623v211h88v600h508q96 0 178.5 -24.5t140 -66.5t97 -89.5t63.5 -102.5v-868q-24 -55 -63.5 -102.5t-97 -89.5t-140 -66.5t-178.5 -24.5h-508v623h-88zM444 211h174q95 0 160.5 38t91.5 99v737q-26 61 -92 99.5t-160 38.5h-174v-389h248v-211h-248v-412z" />
<glyph unicode="&#xd1;" d="M131 0v1434h324l387 -973h35v973h262v-1434h-324l-387 973h-35v-973h-262zM252 1530v137q11 75 72.5 125.5t154.5 50.5q60 0 110 -23.5t78 -51t61 -51t63 -23.5q67 0 81 67v76h166v-137q-12 -75 -73 -124.5t-152 -49.5q-50 0 -92 15.5t-69.5 37t-51 43.5t-48.5 37.5 t-52 15.5q-67 0 -84 -65v-80h-164z" />
<glyph unicode="&#xd2;" d="M100 283v868q19 43 48 84t75.5 83.5t103.5 73.5t137 50.5t171 19.5q112 0 206.5 -29t158 -77t104.5 -98.5t65 -106.5v-868q-24 -56 -65 -106.5t-104.5 -99t-158 -77.5t-206.5 -29q-91 0 -171 20t-137 51t-103.5 73t-75.5 83t-48 85zM381 338q29 -64 94.5 -107t159.5 -43 t159.5 43t94.5 107v758q-27 63 -93.5 106t-160.5 43t-160.5 -43t-93.5 -106v-758zM389 1761v115h252l117 -291v-33h-205z" />
<glyph unicode="&#xd3;" d="M100 283v868q19 43 48 84t75.5 83.5t103.5 73.5t137 50.5t171 19.5q112 0 206.5 -29t158 -77t104.5 -98.5t65 -106.5v-868q-24 -56 -65 -106.5t-104.5 -99t-158 -77.5t-206.5 -29q-91 0 -171 20t-137 51t-103.5 73t-75.5 83t-48 85zM381 338q29 -64 94.5 -107t159.5 -43 t159.5 43t94.5 107v758q-27 63 -93.5 106t-160.5 43t-160.5 -43t-93.5 -106v-758zM539 1552v33l114 291h254v-115l-164 -209h-204z" />
<glyph unicode="&#xd4;" d="M100 283v868q19 43 48 84t75.5 83.5t103.5 73.5t137 50.5t171 19.5q112 0 206.5 -29t158 -77t104.5 -98.5t65 -106.5v-868q-24 -56 -65 -106.5t-104.5 -99t-158 -77.5t-206.5 -29q-91 0 -171 20t-137 51t-103.5 73t-75.5 83t-48 85zM307 1552v33l170 291h336l170 -291 v-33h-184l-154 193l-153 -193h-185zM381 338q29 -64 94.5 -107t159.5 -43t159.5 43t94.5 107v758q-27 63 -93.5 106t-160.5 43t-160.5 -43t-93.5 -106v-758z" />
<glyph unicode="&#xd5;" d="M100 283v868q19 43 48 84t75.5 83.5t103.5 73.5t137 50.5t171 19.5q112 0 206.5 -29t158 -77t104.5 -98.5t65 -106.5v-868q-24 -56 -65 -106.5t-104.5 -99t-158 -77.5t-206.5 -29q-91 0 -171 20t-137 51t-103.5 73t-75.5 83t-48 85zM252 1544v137q11 75 72.5 126 t154.5 51q49 0 90.5 -15.5t69.5 -37.5t52.5 -44t49.5 -37.5t50 -15.5q66 0 81 68v75h166v-137q-12 -75 -73 -124.5t-152 -49.5q-50 0 -92 15.5t-69.5 37.5t-51 44t-48.5 37.5t-52 15.5q-67 0 -84 -66v-80h-164zM381 338q29 -64 94.5 -107t159.5 -43t159.5 43t94.5 107v758 q-27 63 -93.5 106t-160.5 43t-160.5 -43t-93.5 -106v-758z" />
<glyph unicode="&#xd6;" d="M100 283v868q19 43 48 84t75.5 83.5t103.5 73.5t137 50.5t171 19.5q112 0 206.5 -29t158 -77t104.5 -98.5t65 -106.5v-868q-24 -56 -65 -106.5t-104.5 -99t-158 -77.5t-206.5 -29q-91 0 -171 20t-137 51t-103.5 73t-75.5 83t-48 85zM279 1608v168q47 53 137 53 q53 0 89 -17.5t48 -35.5v-168q-14 -18 -49.5 -36t-87.5 -18q-83 0 -137 54zM381 338q29 -64 94.5 -107t159.5 -43t159.5 43t94.5 107v758q-27 63 -93.5 106t-160.5 43t-160.5 -43t-93.5 -106v-758zM715 1608v168q47 53 139 53q52 0 87 -17t50 -36v-168q-16 -19 -51 -36.5 t-86 -17.5q-85 0 -139 54z" />
<glyph unicode="&#xd7;" d="M127 195v139l356 354l-356 352v140h158l348 -344l350 344h160v-140l-359 -352l359 -354v-139h-160l-350 342l-348 -342h-158z" />
<glyph unicode="&#xd8;" d="M100 0v88l64 90q-43 51 -64 105v868q19 43 48 84t75.5 83.5t103.5 73.5t137 50.5t171 19.5q212 0 362 -104l54 76h118v-88l-63 -91q42 -54 63 -104v-868q-24 -56 -65 -106.5t-104.5 -99t-158 -77.5t-206.5 -29q-215 0 -363 105l-53 -76h-119zM381 485l473 672 q-80 94 -219 94q-94 0 -160.5 -43t-93.5 -106v-617zM414 276q80 -94 221 -94q94 0 159.5 43t94.5 107v616z" />
<glyph unicode="&#xd9;" d="M133 240v1194h281v-1129q23 -49 83.5 -83t137.5 -34q76 0 136.5 33.5t84.5 83.5v1129h281v-1194q-23 -50 -62.5 -94.5t-99.5 -85.5t-148 -65t-192 -24t-192 24t-148 65t-99.5 85.5t-62.5 94.5zM389 1747v115h252l117 -291v-33h-205z" />
<glyph unicode="&#xda;" d="M133 240v1194h281v-1129q23 -49 83.5 -83t137.5 -34q76 0 136.5 33.5t84.5 83.5v1129h281v-1194q-23 -50 -62.5 -94.5t-99.5 -85.5t-148 -65t-192 -24t-192 24t-148 65t-99.5 85.5t-62.5 94.5zM532 1538v33l115 291h254v-115l-164 -209h-205z" />
<glyph unicode="&#xdb;" d="M133 240v1194h281v-1129q23 -49 83.5 -83t137.5 -34q76 0 136.5 33.5t84.5 83.5v1129h281v-1194q-23 -50 -62.5 -94.5t-99.5 -85.5t-148 -65t-192 -24t-192 24t-148 65t-99.5 85.5t-62.5 94.5zM297 1538v33l170 291h336l170 -291v-33h-185l-153 193l-154 -193h-184z" />
<glyph unicode="&#xdc;" d="M133 240v1194h281v-1129q23 -49 83.5 -83t137.5 -34q76 0 136.5 33.5t84.5 83.5v1129h281v-1194q-23 -50 -62.5 -94.5t-99.5 -85.5t-148 -65t-192 -24t-192 24t-148 65t-99.5 85.5t-62.5 94.5zM279 1608v168q47 53 137 53q53 0 89 -17.5t48 -35.5v-168q-14 -18 -49.5 -36 t-87.5 -18q-83 0 -137 54zM715 1608v168q47 53 139 53q52 0 87 -17t50 -36v-168q-16 -19 -51 -36.5t-86 -17.5q-85 0 -139 54z" />
<glyph unicode="&#xdd;" d="M111 1274v160h249l269 -531h35l270 531h225v-160l-391 -690v-584h-281v608zM561 1538v33l115 291h254v-115l-164 -209h-205z" />
<glyph unicode="&#xde;" d="M166 0v1434h280v-224h279q133 0 245 -63t179 -178v-439q-60 -107 -169.5 -175t-254.5 -68h-279v-287h-280zM446 498h216q71 0 128 30.5t87 87.5v267q-32 59 -90 87.5t-125 28.5h-216v-501z" />
<glyph unicode="&#xdf;" d="M158 0v1210q24 45 62.5 86t96 80t140.5 62.5t180 23.5q96 0 179 -22.5t139 -59.5t91 -71t58 -68v-354q-28 -39 -73.5 -75t-92.5 -56q142 -69 205 -199v-311q-61 -126 -184.5 -186t-337.5 -60v201q103 0 161 20.5t97 91.5v203q-31 64 -93.5 95.5t-138.5 31.5v199 q69 0 126.5 26t86.5 70v219q-29 47 -88 77t-135 30q-78 0 -132.5 -30.5t-82.5 -76.5v-1157h-264z" />
<glyph unicode="&#xe0;" d="M139 141v328q12 21 28.5 41t50 48t73.5 48t102 34.5t133 14.5q190 0 312 -96v252q-61 125 -228 125q-145 0 -204 -90v-88h-244v172q15 21 30.5 39t56 52t86 57.5t119 42t156.5 18.5q104 0 191 -26t144.5 -69.5t94 -88t58.5 -93.5v-862h-252v86q-131 -115 -322 -115 q-70 0 -132 13.5t-102 32t-73.5 44t-49.5 44t-28 36.5zM377 1466v115h252l116 -313v-31h-204zM395 236q70 -82 203 -82q84 0 146 27t94 69v125q-32 42 -95 70t-145 28q-140 0 -203 -78v-159z" />
<glyph unicode="&#xe1;" d="M139 141v328q12 21 28.5 41t50 48t73.5 48t102 34.5t133 14.5q190 0 312 -96v252q-61 125 -228 125q-145 0 -204 -90v-88h-244v172q15 21 30.5 39t56 52t86 57.5t119 42t156.5 18.5q104 0 191 -26t144.5 -69.5t94 -88t58.5 -93.5v-862h-252v86q-131 -115 -322 -115 q-70 0 -132 13.5t-102 32t-73.5 44t-49.5 44t-28 36.5zM395 236q70 -82 203 -82q84 0 146 27t94 69v125q-32 42 -95 70t-145 28q-140 0 -203 -78v-159zM528 1237v31l115 313h254v-115l-164 -229h-205z" />
<glyph unicode="&#xe2;" d="M139 141v328q12 21 28.5 41t50 48t73.5 48t102 34.5t133 14.5q190 0 312 -96v252q-61 125 -228 125q-145 0 -204 -90v-88h-244v172q15 21 30.5 39t56 52t86 57.5t119 42t156.5 18.5q104 0 191 -26t144.5 -69.5t94 -88t58.5 -93.5v-862h-252v86q-131 -115 -322 -115 q-70 0 -132 13.5t-102 32t-73.5 44t-49.5 44t-28 36.5zM295 1231v33l170 311h336l170 -311v-33h-185l-153 213l-154 -213h-184zM395 236q70 -82 203 -82q84 0 146 27t94 69v125q-32 42 -95 70t-145 28q-140 0 -203 -78v-159z" />
<glyph unicode="&#xe3;" d="M139 141v328q12 21 28.5 41t50 48t73.5 48t102 34.5t133 14.5q190 0 312 -96v252q-61 125 -228 125q-145 0 -204 -90v-88h-244v172q15 21 30.5 39t56 52t86 57.5t119 42t156.5 18.5q104 0 191 -26t144.5 -69.5t94 -88t58.5 -93.5v-862h-252v86q-131 -115 -322 -115 q-70 0 -132 13.5t-102 32t-73.5 44t-49.5 44t-28 36.5zM246 1241v137q11 75 72.5 125.5t154.5 50.5q49 0 90.5 -15.5t69.5 -37t52 -43.5t49 -37.5t50 -15.5q67 0 82 68v75h166v-137q-12 -75 -73 -124.5t-152 -49.5q-50 0 -92 15t-69.5 36.5t-51 43.5t-48.5 37t-52 15 q-68 0 -84 -65v-78h-164zM395 236q70 -82 203 -82q84 0 146 27t94 69v125q-32 42 -95 70t-145 28q-140 0 -203 -78v-159z" />
<glyph unicode="&#xe4;" d="M139 141v328q12 21 28.5 41t50 48t73.5 48t102 34.5t133 14.5q190 0 312 -96v252q-61 125 -228 125q-145 0 -204 -90v-88h-244v172q15 21 30.5 39t56 52t86 57.5t119 42t156.5 18.5q104 0 191 -26t144.5 -69.5t94 -88t58.5 -93.5v-862h-252v86q-131 -115 -322 -115 q-70 0 -132 13.5t-102 32t-73.5 44t-49.5 44t-28 36.5zM281 1333v168q53 53 137 53q53 0 88.5 -17.5t48.5 -35.5v-168q-12 -18 -48 -35.5t-89 -17.5q-84 0 -137 53zM395 236q70 -82 203 -82q84 0 146 27t94 69v125q-32 42 -95 70t-145 28q-140 0 -203 -78v-159zM717 1333 v168q53 53 139 53q51 0 86 -17.5t51 -35.5v-168q-15 -19 -50 -36t-87 -17q-86 0 -139 53z" />
<glyph unicode="&#xe5;" d="M139 141v328q12 21 28.5 41t50 48t73.5 48t102 34.5t133 14.5q190 0 312 -96v252q-61 125 -228 125q-145 0 -204 -90v-88h-244v172q15 21 30.5 39t56 52t86 57.5t119 42t156.5 18.5q104 0 191 -26t144.5 -69.5t94 -88t58.5 -93.5v-862h-252v86q-131 -115 -322 -115 q-70 0 -132 13.5t-102 32t-73.5 44t-49.5 44t-28 36.5zM373 1364v215q29 52 99.5 86.5t160.5 34.5q89 0 159 -34.5t99 -86.5v-215q-29 -53 -99 -88t-159 -35q-91 0 -161 35t-99 88zM395 236q70 -82 203 -82q84 0 146 27t94 69v125q-32 42 -95 70t-145 28q-140 0 -203 -78 v-159zM502 1399q12 -16 49 -30.5t82 -14.5t80.5 14.5t48.5 30.5v141q-12 17 -47.5 32t-81.5 15t-82.5 -15t-48.5 -32v-141z" />
<glyph unicode="&#xe6;" d="M68 758v114q15 49 38.5 91.5t63 84t100.5 65.5t138 24q150 0 235 -99q85 99 236 99q76 0 136.5 -24t97 -63.5t57 -73.5t32.5 -71v-411h-448v-230q21 -100 114 -100q45 0 79 25.5t46 74.5v98h209v-159q-9 -29 -23 -56.5t-40.5 -61t-60.5 -57.5t-86 -40.5t-113 -16.5 q-170 0 -258 129q-56 -68 -121 -98.5t-158 -30.5q-61 0 -111.5 19t-82.5 49.5t-49 54.5t-29 49v310q12 26 30 51.5t50.5 57.5t82 51.5t109.5 19.5q117 0 197 -72v281q-9 50 -39 76t-74 26q-93 0 -117 -102v-84h-241zM301 225q43 -82 119 -82q65 0 119 58v194q-51 68 -119 68 q-80 0 -119 -76v-162zM754 657h239v187q-12 48 -45 74t-78 26q-44 0 -75.5 -26t-40.5 -74v-187z" />
<glyph unicode="&#xe7;" d="M174 246v616q17 38 42 74t66.5 74t92.5 65.5t122 45.5t152 18q80 0 151 -18t119.5 -44.5t88.5 -61t62 -64t36 -58.5v-211h-242v129q-22 53 -78.5 89t-136.5 36t-135.5 -35.5t-77.5 -89.5v-514q22 -54 77.5 -89.5t135.5 -35.5t136.5 36t78.5 89v129h242v-211 q-15 -33 -45 -69t-79 -74.5t-124.5 -65.5t-163.5 -33l-24 -88h30q70 0 117 -29.5t64 -70.5v-172q-25 -53 -88.5 -85t-149.5 -32q-131 0 -197 41l31 113q87 -31 152 -31q39 0 68.5 12.5t37.5 30.5v84q-16 37 -100 37h-119l55 192q-82 9 -151.5 37.5t-117 68.5t-79 81 t-49.5 84z" />
<glyph unicode="&#xe8;" d="M166 246v616q17 38 43 74t68.5 74t94.5 65.5t124.5 45.5t154.5 18t155 -18t122.5 -44.5t90.5 -61t63.5 -64t35.5 -56.5v-403h-690v-195q24 -54 82 -89.5t141 -35.5t143 36t83 89v68h241v-154q-16 -28 -38.5 -56.5t-63 -63t-89.5 -60t-121.5 -43t-154.5 -17.5 q-101 0 -187 26t-143.5 68.5t-95 87.5t-59.5 93zM420 1466v115h252l116 -313v-31h-204zM428 659h449v152q-23 53 -83 89t-143 36t-141 -35.5t-82 -89.5v-152z" />
<glyph unicode="&#xe9;" d="M166 246v616q17 38 43 74t68.5 74t94.5 65.5t124.5 45.5t154.5 18t155 -18t122.5 -44.5t90.5 -61t63.5 -64t35.5 -56.5v-403h-690v-195q24 -54 82 -89.5t141 -35.5t143 36t83 89v68h241v-154q-16 -28 -38.5 -56.5t-63 -63t-89.5 -60t-121.5 -43t-154.5 -17.5 q-101 0 -187 26t-143.5 68.5t-95 87.5t-59.5 93zM428 659h449v152q-23 53 -83 89t-143 36t-141 -35.5t-82 -89.5v-152zM565 1237v31l115 313h254v-115l-164 -229h-205z" />
<glyph unicode="&#xea;" d="M166 246v616q17 38 43 74t68.5 74t94.5 65.5t124.5 45.5t154.5 18t155 -18t122.5 -44.5t90.5 -61t63.5 -64t35.5 -56.5v-403h-690v-195q24 -54 82 -89.5t141 -35.5t143 36t83 89v68h241v-154q-16 -28 -38.5 -56.5t-63 -63t-89.5 -60t-121.5 -43t-154.5 -17.5 q-101 0 -187 26t-143.5 68.5t-95 87.5t-59.5 93zM322 1231v33l170 311h335l170 -311v-33h-184l-154 213l-153 -213h-184zM428 659h449v152q-23 53 -83 89t-143 36t-141 -35.5t-82 -89.5v-152z" />
<glyph unicode="&#xeb;" d="M166 246v616q17 38 43 74t68.5 74t94.5 65.5t124.5 45.5t154.5 18t155 -18t122.5 -44.5t90.5 -61t63.5 -64t35.5 -56.5v-403h-690v-195q24 -54 82 -89.5t141 -35.5t143 36t83 89v68h241v-154q-16 -28 -38.5 -56.5t-63 -63t-89.5 -60t-121.5 -43t-154.5 -17.5 q-101 0 -187 26t-143.5 68.5t-95 87.5t-59.5 93zM297 1333v168q53 53 137 53q53 0 88.5 -17.5t48.5 -35.5v-168q-12 -18 -48 -35.5t-89 -17.5q-84 0 -137 53zM428 659h449v152q-23 53 -83 89t-143 36t-141 -35.5t-82 -89.5v-152zM733 1333v168q53 53 139 53q51 0 86.5 -17.5 t51.5 -35.5v-168q-15 -19 -50.5 -36t-87.5 -17q-86 0 -139 53z" />
<glyph unicode="&#xec;" d="M172 0v190h348v725h-307v193h569v-918h348v-190h-958zM399 1466v115h252l117 -313v-31h-205z" />
<glyph unicode="&#xed;" d="M172 0v190h348v725h-307v193h569v-918h348v-190h-958zM571 1237v31l115 313h254v-115l-164 -229h-205z" />
<glyph unicode="&#xee;" d="M172 0v190h348v725h-307v193h569v-918h348v-190h-958zM328 1231v33l170 311h336l170 -311v-33h-185l-153 213l-154 -213h-184z" />
<glyph unicode="&#xef;" d="M172 0v190h348v725h-307v193h569v-918h348v-190h-958zM309 1333v168q53 53 137 53q53 0 89 -17.5t49 -35.5v-168q-12 -18 -48.5 -35.5t-89.5 -17.5q-84 0 -137 53zM745 1333v168q53 53 140 53q51 0 86 -17.5t51 -35.5v-168q-15 -19 -50 -36t-87 -17q-87 0 -140 53z" />
<glyph unicode="&#xf0;" d="M150 246v467q17 48 48 93.5t78 87t116.5 66.5t150.5 25q168 0 297 -106v114q-26 62 -119 158l-326 -104v127l219 71q-81 63 -159 107l168 133q126 -50 247 -158l232 76v-127l-131 -43q97 -108 131 -184v-803q-17 -38 -42.5 -74t-67.5 -73.5t-92.5 -65t-122 -45 t-152.5 -17.5q-99 0 -183.5 26t-141 68.5t-93 87.5t-57.5 93zM412 297q22 -53 78 -89t135 -36q81 0 137 35.5t78 89.5v395q-28 38 -82 66t-133 28t-135 -35.5t-78 -88.5v-365z" />
<glyph unicode="&#xf1;" d="M145 0v1108h244v-100q121 125 309 125q82 0 150 -24.5t112.5 -64t72 -77.5t44.5 -78v-889h-260v834q-23 36 -73 66t-126 30q-139 0 -212 -84v-846h-261zM217 1243v137q11 75 72.5 125.5t154.5 50.5q60 0 110 -23.5t78 -51t61 -51t63 -23.5q67 0 82 68v75h166v-137 q-12 -75 -73.5 -124.5t-152.5 -49.5q-50 0 -92 15t-69.5 36.5t-51 43.5t-48.5 37t-52 15q-68 0 -84 -65v-78h-164z" />
<glyph unicode="&#xf2;" d="M160 246v616q17 38 42 74t66.5 74t92.5 65.5t122 45.5t152 18t152 -18t122 -45.5t92.5 -65.5t66.5 -74t42 -74v-616q-21 -48 -57.5 -93t-92.5 -87.5t-140.5 -68.5t-184.5 -26t-184.5 26t-140.5 68.5t-92.5 87.5t-57.5 93zM381 1468v115h252l117 -313v-31h-205zM420 297 q24 -54 79.5 -89.5t135.5 -35.5t135.5 35.5t79.5 89.5v514q-24 54 -79.5 89.5t-135.5 35.5t-135.5 -35.5t-79.5 -89.5v-514z" />
<glyph unicode="&#xf3;" d="M160 246v616q17 38 42 74t66.5 74t92.5 65.5t122 45.5t152 18t152 -18t122 -45.5t92.5 -65.5t66.5 -74t42 -74v-616q-21 -48 -57.5 -93t-92.5 -87.5t-140.5 -68.5t-184.5 -26t-184.5 26t-140.5 68.5t-92.5 87.5t-57.5 93zM420 297q24 -54 79.5 -89.5t135.5 -35.5 t135.5 35.5t79.5 89.5v514q-24 54 -79.5 89.5t-135.5 35.5t-135.5 -35.5t-79.5 -89.5v-514zM522 1239v31l115 313h254v-115l-164 -229h-205z" />
<glyph unicode="&#xf4;" d="M160 246v616q17 38 42 74t66.5 74t92.5 65.5t122 45.5t152 18t152 -18t122 -45.5t92.5 -65.5t66.5 -74t42 -74v-616q-21 -48 -57.5 -93t-92.5 -87.5t-140.5 -68.5t-184.5 -26t-184.5 26t-140.5 68.5t-92.5 87.5t-57.5 93zM297 1231v33l170 311h336l170 -311v-33h-185 l-153 213l-154 -213h-184zM420 297q24 -54 79.5 -89.5t135.5 -35.5t135.5 35.5t79.5 89.5v514q-24 54 -79.5 89.5t-135.5 35.5t-135.5 -35.5t-79.5 -89.5v-514z" />
<glyph unicode="&#xf5;" d="M160 246v616q17 38 42 74t66.5 74t92.5 65.5t122 45.5t152 18t152 -18t122 -45.5t92.5 -65.5t66.5 -74t42 -74v-616q-21 -48 -57.5 -93t-92.5 -87.5t-140.5 -68.5t-184.5 -26t-184.5 26t-140.5 68.5t-92.5 87.5t-57.5 93zM242 1243v137q11 75 72.5 125.5t154.5 50.5 q49 0 90.5 -15.5t69.5 -37t52 -43.5t49 -37.5t50 -15.5q67 0 82 68v75h166v-137q-12 -75 -73 -124.5t-152 -49.5q-50 0 -92 15t-69.5 36.5t-51 43.5t-49 37t-52.5 15q-67 0 -83 -65v-78h-164zM420 297q24 -54 79.5 -89.5t135.5 -35.5t135.5 35.5t79.5 89.5v514 q-24 54 -79.5 89.5t-135.5 35.5t-135.5 -35.5t-79.5 -89.5v-514z" />
<glyph unicode="&#xf6;" d="M160 246v616q17 38 42 74t66.5 74t92.5 65.5t122 45.5t152 18t152 -18t122 -45.5t92.5 -65.5t66.5 -74t42 -74v-616q-21 -48 -57.5 -93t-92.5 -87.5t-140.5 -68.5t-184.5 -26t-184.5 26t-140.5 68.5t-92.5 87.5t-57.5 93zM281 1333v168q53 53 137 53q53 0 88.5 -17.5 t48.5 -35.5v-168q-12 -18 -48 -35.5t-89 -17.5q-84 0 -137 53zM420 297q24 -54 79.5 -89.5t135.5 -35.5t135.5 35.5t79.5 89.5v514q-24 54 -79.5 89.5t-135.5 35.5t-135.5 -35.5t-79.5 -89.5v-514zM717 1333v168q53 53 139 53q51 0 86 -17.5t51 -35.5v-168q-15 -19 -50 -36 t-87 -17q-86 0 -139 53z" />
<glyph unicode="&#xf7;" d="M104 582v211h1061v-211h-1061zM475 207v160q14 27 58 49t102 22q59 0 102.5 -22t57.5 -49v-160q-14 -28 -57 -50t-103 -22q-59 0 -103 22t-57 50zM475 1008v159q14 27 58 49.5t102 22.5q59 0 102.5 -22.5t57.5 -49.5v-159q-14 -28 -57 -50t-103 -22q-59 0 -103 22t-57 50 z" />
<glyph unicode="&#xf8;" d="M160 0v82l55 72q-41 50 -55 92v616q17 38 42 74t66.5 74t92.5 65.5t122 45.5t152 18q181 0 315 -90l49 59h111v-82l-57 -72q39 -48 57 -92v-616q-21 -48 -57.5 -93t-92.5 -87.5t-140.5 -68.5t-184.5 -26q-185 0 -316 88l-49 -59h-110zM420 397l389 482q-67 67 -174 67 q-80 0 -135.5 -36.5t-79.5 -90.5v-422zM459 229q67 -67 176 -67q80 0 135.5 36.5t79.5 90.5v420z" />
<glyph unicode="&#xf9;" d="M166 209v899h260v-834q61 -98 192 -98q132 0 205 84v848h260v-1108h-243v96q-117 -121 -303 -121q-80 0 -146.5 23t-110 60.5t-70.5 74.5t-44 76zM385 1466v115h252l117 -313v-31h-205z" />
<glyph unicode="&#xfa;" d="M166 209v899h260v-834q61 -98 192 -98q132 0 205 84v848h260v-1108h-243v96q-117 -121 -303 -121q-80 0 -146.5 23t-110 60.5t-70.5 74.5t-44 76zM518 1237v31l115 313h254v-115l-164 -229h-205z" />
<glyph unicode="&#xfb;" d="M166 209v899h260v-834q61 -98 192 -98q132 0 205 84v848h260v-1108h-243v96q-117 -121 -303 -121q-80 0 -146.5 23t-110 60.5t-70.5 74.5t-44 76zM287 1231v33l170 311h336l170 -311v-33h-185l-153 213l-154 -213h-184z" />
<glyph unicode="&#xfc;" d="M166 209v899h260v-834q61 -98 192 -98q132 0 205 84v848h260v-1108h-243v96q-117 -121 -303 -121q-80 0 -146.5 23t-110 60.5t-70.5 74.5t-44 76zM268 1333v168q53 53 138 53q53 0 88.5 -17.5t48.5 -35.5v-168q-12 -18 -48 -35.5t-89 -17.5q-85 0 -138 53zM705 1333v168 q53 53 139 53q51 0 86 -17.5t51 -35.5v-168q-15 -19 -50 -36t-87 -17q-86 0 -139 53z" />
<glyph unicode="&#xfd;" d="M150 961v147h241l238 -746h33l231 746h221v-145l-395 -1153q-58 -69 -162.5 -113.5t-234.5 -44.5q-98 0 -160 16v185q77 -5 106 -5q72 0 131 22t93 54l26 84zM535 1237v31l114 313h254v-115l-164 -229h-204z" />
<glyph unicode="&#xfe;" d="M180 -326v1760h262v-418q117 117 291 117q82 0 150.5 -24.5t113 -64t72 -77.5t43.5 -78v-670q-16 -40 -43.5 -78.5t-72 -78t-113 -63.5t-150.5 -24q-172 0 -291 107v-408h-262zM442 262q75 -86 211 -86q77 0 128.5 31t70.5 67v560q-23 37 -72.5 66.5t-126.5 29.5 q-138 0 -211 -84v-584z" />
<glyph unicode="&#xff;" d="M150 961v147h241l238 -746h33l231 746h221v-145l-395 -1153q-58 -69 -162.5 -113.5t-234.5 -44.5q-98 0 -160 16v185q77 -5 106 -5q72 0 131 22t93 54l26 84zM293 1333v168q53 53 137 53q53 0 88.5 -17.5t48.5 -35.5v-168q-12 -18 -48 -35.5t-89 -17.5q-84 0 -137 53z M729 1333v168q53 53 139 53q51 0 86.5 -17.5t51.5 -35.5v-168q-15 -19 -50.5 -36t-87.5 -17q-86 0 -139 53z" />
<glyph unicode="&#x152;" d="M74 281v874q18 43 42.5 81.5t65.5 79.5t92 70t125.5 47.5t161.5 18.5q72 0 164 -18h479v-211h-352v-383h326v-211h-326v-418h365v-211h-488q-92 -18 -168 -18q-87 0 -161.5 18.5t-125.5 48t-92 70.5t-65.5 79.5t-42.5 82.5zM330 336q24 -62 84 -99.5t147 -37.5q35 0 51 4 v1030q-32 4 -51 4q-87 0 -147 -38t-84 -101v-762z" />
<glyph unicode="&#x153;" d="M68 236v636q15 49 38.5 91.5t63 84t100.5 65.5t138 24q148 0 235 -105q87 105 236 105q76 0 136.5 -24t97 -63.5t57 -73.5t32.5 -71v-411h-448v-230q24 -100 114 -100q45 0 79 25.5t46 74.5v98h209v-159q-9 -29 -23 -56.5t-40.5 -61t-60.5 -57.5t-86 -40.5t-113 -16.5 q-149 0 -236 105q-87 -105 -235 -105q-77 0 -138 24t-100.5 65.5t-63 84t-38.5 91.5zM309 264q24 -100 117 -100q44 0 74 25t39 75v578q-9 50 -39 76t-74 26q-93 0 -117 -102v-578zM754 657h239v187q-12 48 -45 74t-78 26q-44 0 -75.5 -26t-40.5 -74v-187z" />
<glyph unicode="&#x178;" d="M111 1274v160h249l269 -531h35l270 531h225v-160l-391 -690v-584h-281v608zM287 1606v168q47 53 137 53q53 0 89 -17.5t48 -35.5v-168q-14 -18 -49.5 -36t-87.5 -18q-83 0 -137 54zM723 1606v168q47 53 139 53q52 0 87 -17t50 -36v-168q-16 -19 -51 -36.5t-86 -17.5 q-85 0 -139 54z" />
<glyph unicode="&#x2c6;" d="M297 1231v33l170 311h336l170 -311v-33h-185l-153 213l-154 -213h-184z" />
<glyph unicode="&#x2dc;" d="M242 1241v137q11 75 72.5 125.5t154.5 50.5q49 0 90.5 -15.5t69.5 -37t52 -43.5t49 -37.5t50 -15.5q67 0 82 68v75h166v-137q-12 -75 -73 -124.5t-152 -49.5q-50 0 -92 15t-69.5 36.5t-51 43.5t-49 37t-52.5 15q-67 0 -83 -65v-78h-164z" />
<glyph unicode="&#x2000;" horiz-adv-x="938" />
<glyph unicode="&#x2001;" horiz-adv-x="1876" />
<glyph unicode="&#x2002;" horiz-adv-x="938" />
<glyph unicode="&#x2003;" horiz-adv-x="1876" />
<glyph unicode="&#x2004;" horiz-adv-x="625" />
<glyph unicode="&#x2005;" horiz-adv-x="469" />
<glyph unicode="&#x2006;" horiz-adv-x="312" />
<glyph unicode="&#x2007;" horiz-adv-x="312" />
<glyph unicode="&#x2008;" horiz-adv-x="234" />
<glyph unicode="&#x2009;" horiz-adv-x="375" />
<glyph unicode="&#x200a;" horiz-adv-x="104" />
<glyph unicode="&#x2010;" d="M256 582v211h758v-211h-758z" />
<glyph unicode="&#x2011;" d="M256 582v211h758v-211h-758z" />
<glyph unicode="&#x2012;" d="M256 582v211h758v-211h-758z" />
<glyph unicode="&#x2013;" d="M113 582v211h1044v-211h-1044z" />
<glyph unicode="&#x2014;" d="M20 582v211h1229v-211h-1229z" />
<glyph unicode="&#x2018;" d="M475 965v338q13 39 74.5 85t134.5 46h84v-125h-70q-16 0 -35 -11.5t-28 -29.5v-72q60 0 103 -22.5t57 -49.5v-159q-13 -27 -58 -49.5t-102 -22.5t-102 22.5t-58 49.5z" />
<glyph unicode="&#x2019;" d="M475 1227v159q13 27 58 49.5t102 22.5t102 -22.5t58 -49.5v-337q-13 -39 -74.5 -85t-134.5 -46h-84v124h69q16 0 36 11.5t28 29.5v72q-60 0 -103 22.5t-57 49.5z" />
<glyph unicode="&#x201a;" d="M475 51v160q13 27 58 49.5t102 22.5t102 -22.5t58 -49.5v-338q-13 -39 -74.5 -85t-134.5 -46h-84v125h69q16 0 36 11.5t28 29.5v72q-61 0 -103.5 22t-56.5 49z" />
<glyph unicode="&#x201c;" d="M242 965v338q13 39 74.5 85t134.5 46h84v-125h-70q-16 0 -36 -11.5t-28 -29.5v-72q60 0 103 -22.5t57 -49.5v-159q-13 -27 -58 -49.5t-102 -22.5t-101.5 22.5t-57.5 49.5zM707 965v338q13 39 74 85t134 46h84v-125h-69q-16 0 -36 -11.5t-28 -29.5v-72q60 0 103 -22.5 t57 -49.5v-159q-13 -27 -57.5 -49.5t-102.5 -22.5q-57 0 -101.5 22.5t-57.5 49.5z" />
<glyph unicode="&#x201d;" d="M242 1227v159q13 27 57.5 49.5t101.5 22.5t102 -22.5t58 -49.5v-337q-13 -39 -74.5 -85t-134.5 -46h-84v124h70q16 0 35 11.5t28 29.5v72q-60 0 -102.5 22.5t-56.5 49.5zM707 1227v159q13 27 57.5 49.5t101.5 22.5q58 0 102.5 -22.5t57.5 -49.5v-337q-13 -39 -74.5 -85 t-134.5 -46h-84v124h70q16 0 35 11.5t28 29.5v72q-60 0 -102.5 22.5t-56.5 49.5z" />
<glyph unicode="&#x201e;" d="M242 51v160q13 27 57.5 49.5t101.5 22.5t102 -22.5t58 -49.5v-338q-13 -39 -74.5 -85t-134.5 -46h-84v125h70q16 0 35 11.5t28 29.5v72q-60 0 -102.5 22t-56.5 49zM707 51v160q13 27 57.5 49.5t101.5 22.5q58 0 102.5 -22.5t57.5 -49.5v-338q-13 -39 -74.5 -85 t-134.5 -46h-84v125h70q16 0 35 11.5t28 29.5v72q-60 0 -102.5 22t-56.5 49z" />
<glyph unicode="&#x2022;" d="M393 584v264q34 49 97 81t145 32q79 0 141.5 -32t97.5 -81v-266q-34 -52 -96.5 -84.5t-142.5 -32.5q-83 0 -146 34t-96 85z" />
<glyph unicode="&#x2026;" d="M68 51v160q12 27 53 49.5t98 22.5t98.5 -22.5t53.5 -49.5v-160q-14 -28 -54.5 -49.5t-97.5 -21.5t-98 21.5t-53 49.5zM483 51v160q12 27 53.5 49.5t98.5 22.5t98 -22.5t53 -49.5v-160q-14 -28 -54 -49.5t-97 -21.5t-98.5 21.5t-53.5 49.5zM899 51v160q12 27 53.5 49.5 t98.5 22.5t98 -22.5t53 -49.5v-160q-14 -28 -54 -49.5t-97 -21.5t-98.5 21.5t-53.5 49.5z" />
<glyph unicode="&#x202f;" horiz-adv-x="375" />
<glyph unicode="&#x2039;" d="M260 494v200l559 414h191v-139l-527 -375l527 -375v-139h-191z" />
<glyph unicode="&#x203a;" d="M260 80v139l526 375l-526 375v139h191l559 -414v-200l-559 -414h-191z" />
<glyph unicode="&#x205f;" horiz-adv-x="469" />
<glyph unicode="&#x20ac;" d="M82 528v136h108v131h-108v133h108v264q21 46 61 90.5t100 86.5t147.5 67.5t187.5 25.5q99 0 185.5 -25t143.5 -64.5t93.5 -77t54.5 -72.5v-181h-250v91q-21 52 -82.5 88t-144.5 36q-80 0 -141 -36t-86 -88v-205h499l-16 -133h-483v-131h463l-19 -136h-444v-225 q25 -53 86.5 -89t140.5 -36q82 0 144 36.5t83 88.5v88h250v-180q-17 -34 -53 -72t-93.5 -77.5t-144.5 -65t-186 -25.5q-81 0 -154.5 17.5t-127.5 45t-98 64t-72 72.5t-44 72v286h-108z" />
<glyph unicode="&#x2122;" d="M72 1303v131h415v-131h-129v-668h-157v668h-129zM539 635v799h225l90 -512h18l91 512h217v-799h-152v551h-16l-103 -551h-102l-102 551h-17v-551h-149z" />
<glyph unicode="&#x25fc;" horiz-adv-x="1105" d="M0 0v1106h1106v-1106h-1106z" />
</font>
</defs>
</svg>
