<?xml version="1.0" standalone="no"?>
<!DOCTYPE svg PUBLIC "-//W3C//DTD SVG 1.1//EN" "http://www.w3.org/Graphics/SVG/1.1/DTD/svg11.dtd" >
<svg xmlns="http://www.w3.org/2000/svg">
<metadata></metadata>
<defs>
<font id="trim_monoregular" horiz-adv-x="1269" >
<font-face units-per-em="2048" ascent="1536" descent="-512" />
<missing-glyph horiz-adv-x="500" />
<glyph unicode="&#xfb01;" horiz-adv-x="2539" d="M217 0v154h242v796h-242v154h242v186q99 189 440 189q124 0 197 -19v-145q-75 6 -127 6q-235 0 -305 -100v-117h432v-154h-432v-796h432v-154h-879zM1462 0v154h361v796h-322v154h527v-950h360v-154h-926zM1788 1356v131q12 22 47.5 39.5t81.5 17.5q47 0 83 -17.5 t46 -39.5v-131q-10 -22 -46 -40t-83 -18q-46 0 -81.5 18t-47.5 40z" />
<glyph unicode="&#xfb02;" horiz-adv-x="2539" d="M217 0v154h242v796h-242v154h242v186q99 189 440 189q124 0 197 -19v-145q-75 6 -127 6q-235 0 -305 -100v-117h432v-154h-432v-796h432v-154h-879zM1456 0v154h361v1126h-322v154h526v-1280h361v-154h-926z" />
<glyph />
<glyph />
<glyph horiz-adv-x="682" />
<glyph unicode="&#xd;" />
<glyph unicode=" " />
<glyph unicode="!" d="M502 39q10 -22 46 -39.5t87 -17.5t87 17.5t46 39.5v143q-10 22 -46.5 40t-86.5 18t-86.5 -18t-46.5 -40v-143zM520 1194v240h230v-240l-29 -788h-172z" />
<glyph unicode="&#x22;" d="M309 1167v267h205v-267l-33 -297h-137zM756 1167v267h205v-267l-33 -297h-137z" />
<glyph unicode="#" d="M86 410v149h170l51 311h-147v150h170l67 414h146v-111l-49 -303h333l68 414h145v-111l-49 -303h148v-150h-172l-49 -311h147v-149h-172l-66 -410h-145v111l47 299h-334l-65 -410h-146v111l47 299h-145zM420 559h334l51 311h-336z" />
<glyph unicode="$" d="M150 240v211h208v-162q32 -59 100.5 -105.5t174.5 -46.5q108 0 177.5 47.5t98.5 104.5v203q-17 35 -34.5 56t-63 46t-119.5 43l-137 33q-104 25 -179 55.5t-118.5 65t-66.5 62.5t-41 65v276q14 32 42 68.5t75 77.5t121 73t161 43v170h172v-170q85 -11 158 -42.5 t120.5 -72.5t76.5 -77.5t44 -69.5v-190h-211v141q-24 56 -95.5 104.5t-180.5 48.5q-106 0 -176.5 -48t-98.5 -105v-158q10 -22 22.5 -38t36.5 -36t65.5 -37t99.5 -32l135 -33q83 -20 148 -45t105 -48t71.5 -52t47 -51t31.5 -52v-323q-13 -27 -33 -55.5t-55.5 -63 t-77.5 -62.5t-103 -51t-130 -31v-170h-172v170q-85 10 -156.5 40.5t-119 72t-76.5 78t-47 72.5z" />
<glyph unicode="%" d="M61 0v98l312 398h104v-99l-311 -397h-105zM61 842v432q24 68 104.5 123t188.5 55t188.5 -55t102.5 -123v-432q-22 -68 -102.5 -122t-188.5 -54t-188.5 54t-104.5 122zM211 866q13 -36 52 -61t91 -25t90.5 25t51.5 61v383q-13 37 -51.5 62.5t-90.5 25.5t-91 -25.5 t-52 -62.5v-383zM625 162v432q24 68 104.5 123t188.5 55t188 -55t102 -123v-432q-22 -68 -102 -122t-188 -54t-188.5 54t-104.5 122zM774 186q13 -36 52.5 -61t91.5 -25t90 25t51 61v383q-13 37 -51.5 62.5t-89.5 25.5t-91.5 -25.5t-52.5 -62.5v-383zM795 938v98l309 398 h104v-99l-309 -397h-104z" />
<glyph unicode="&#x26;" d="M86 244v303q61 139 197 207q-115 50 -174 145v318q12 28 34 58t60 64.5t84.5 61t112.5 44t139 17.5q90 0 167.5 -25t128.5 -64.5t84 -78.5t50 -77v-152h-203v113q-30 50 -87.5 87.5t-139.5 37.5q-81 0 -140.5 -38.5t-87.5 -88.5v-240q27 -44 86.5 -77.5t141.5 -33.5h227 v111h203v-111h276v-155h-276v-432q55 -101 192 -101q42 0 84 6v-145q-75 -18 -155 -18q-159 0 -252 86q-125 -95 -299 -95q-92 0 -171.5 24.5t-133.5 65t-91 86.5t-57 97zM289 287q31 -74 96 -115t154 -41q73 0 131 31t96 82v426h-227q-89 0 -156.5 -45t-93.5 -111v-227z " />
<glyph unicode="'" d="M532 1167v267h205v-267l-32 -297h-138z" />
<glyph unicode="(" d="M362 -16v1122q24 61 65.5 116t104.5 104.5t155.5 78.5t201.5 29h16v-154h-16q-123 0 -196.5 -70.5t-104.5 -173.5v-979q14 -49 36.5 -89.5t57.5 -78t88 -58.5t119 -21h16v-154h-16q-109 0 -201.5 29t-155.5 78.5t-104.5 104.5t-65.5 116z" />
<glyph unicode=")" d="M362 -190h17q66 0 119 21t88 58.5t57.5 78t36.5 89.5v979q-31 103 -104.5 173.5t-196.5 70.5h-17v154h17q109 0 201.5 -29t155 -78.5t104 -104.5t65.5 -116v-1122q-24 -61 -65.5 -116t-104 -104.5t-155 -78.5t-201.5 -29h-17v154z" />
<glyph unicode="*" d="M190 1016q0 39 17 81.5t45 63.5l326 -149l-37 356q37 25 94 25t92 -25l-39 -358l328 151q28 -21 44.5 -63.5t16.5 -81.5q0 -9 -4 -33l-358 -72l250 -268q-21 -45 -65 -78t-87 -33l-180 312l-176 -312q-46 0 -91.5 34t-60.5 77l246 268l-356 72q-5 30 -5 33z" />
<glyph unicode="+" d="M113 606v168h436v430h168v-430h440v-168h-440v-432h-168v432h-436z" />
<glyph unicode="," d="M502 39v143q10 22 47.5 40t85.5 18t85.5 -18t47.5 -40v-319q-9 -31 -61 -69t-113 -38h-72v103h62q12 0 28 9.5t23 22.5v91q-52 0 -87.5 17.5t-45.5 39.5z" />
<glyph unicode="-" d="M266 606v168h738v-168h-738z" />
<glyph unicode="." d="M502 39v143q10 22 46.5 40t86.5 18t86.5 -18t46.5 -40v-143q-10 -22 -46 -39.5t-87 -17.5t-87 17.5t-46 39.5z" />
<glyph unicode="/" d="M199 -74l721 1612h151v-111l-719 -1611h-153v110z" />
<glyph unicode="0" d="M147 242v950q15 36 43 72t72 72t97.5 63.5t125.5 45t150 17.5t150 -17.5t125 -45t97 -63.5t72 -72t43 -72v-950q-20 -46 -60 -91.5t-99.5 -87t-145 -67t-182.5 -25.5t-183 25.5t-145 67t-99.5 87t-60.5 91.5zM358 414l504 796q-90 86 -227 86q-98 0 -172.5 -44.5 t-104.5 -108.5v-729zM403 225q88 -88 232 -88q99 0 173.5 45t102.5 109v733z" />
<glyph unicode="1" d="M250 0v145h309v1110l-309 -57v137l352 99h168v-1289h297v-145h-817z" />
<glyph unicode="2" d="M162 0v160l624 622q100 100 109 129v234q-27 63 -99.5 108t-168.5 45q-90 0 -157 -39.5t-99 -89.5v-200h-195v272q20 33 53 66t87 70.5t135.5 61t175.5 23.5q96 0 180.5 -25.5t142.5 -67t96.5 -85.5t59.5 -90v-334q-21 -43 -131 -153l-529 -523v-12h672v-172h-956z" />
<glyph unicode="3" d="M170 219v197h197v-125q27 -63 100 -108.5t168 -45.5q96 0 168.5 45.5t99.5 108.5v217q-26 67 -98.5 113.5t-169.5 46.5h-162v159h150q90 0 158 40.5t98 90.5v211q-30 49 -97.5 89t-158.5 40q-92 0 -160 -40t-96 -89v-135h-197v207q19 31 52 64t87.5 71t137 62t176.5 24 q95 0 178.5 -25t140 -64t93 -78t55.5 -76v-291q-23 -43 -84 -92.5t-144 -79.5q92 -31 157.5 -90t94.5 -121v-303q-20 -45 -58.5 -89.5t-97 -87t-143 -68.5t-180.5 -26q-95 0 -178 25.5t-139 65.5t-92.5 79.5t-55.5 77.5z" />
<glyph unicode="4" d="M84 342v164l571 928h326v-924h184v-168h-184v-342h-201v342h-696zM291 510h489v743h-35z" />
<glyph unicode="5" d="M176 219v197h195v-125q28 -63 101 -108.5t167 -45.5q96 0 169 45t99 109v330q-26 64 -98 108.5t-170 44.5q-90 0 -152 -35.5t-92 -79.5h-194v775h891v-174h-695v-433q48 46 128 78.5t175 32.5q77 0 146.5 -21.5t119.5 -57t85 -76t53 -83.5v-481q-20 -39 -56 -78.5 t-92 -79.5t-139 -65t-178 -25t-177.5 25t-138 64.5t-91.5 79.5t-56 79z" />
<glyph unicode="6" d="M174 242v952q20 46 59.5 91t97.5 86t142 66t180 25q95 0 178 -24.5t139 -64t92 -78.5t56 -78v-187h-196v115q-26 62 -99.5 106.5t-169.5 44.5q-95 0 -167.5 -44t-100.5 -107v-371q122 119 320 119q155 0 263 -71t150 -167v-436q-18 -38 -54.5 -77.5t-92.5 -79.5 t-139.5 -65.5t-178.5 -25.5t-179.5 26t-143 67.5t-97.5 87t-59 90.5zM385 291q28 -63 101 -108.5t167 -45.5q96 0 169 45.5t100 108.5v295q-26 61 -99 102t-172 41q-165 0 -266 -113v-325z" />
<glyph unicode="7" d="M127 1260v174h975v-160l-594 -1274h-172v131l551 1102v27h-760z" />
<glyph unicode="8" d="M156 242v284q26 58 83.5 116t139.5 97q-128 62 -195 168v336q19 31 52 64t87 70t136 61t176 24q95 0 177 -24t136 -62t86.5 -70.5t52.5 -64.5v-334q-72 -109 -198 -168q83 -38 140 -96t85 -117v-284q-20 -46 -58.5 -91t-97 -86.5t-143 -67.5t-180.5 -26q-95 0 -179.5 26 t-142.5 68t-97 86.5t-60 90.5zM367 291q27 -63 100 -108.5t168 -45.5q96 0 168.5 45.5t99.5 108.5v223q-27 63 -99.5 109.5t-168.5 46.5q-94 0 -167.5 -46.5t-100.5 -109.5v-223zM379 936q30 -48 98 -87.5t158 -39.5q92 0 159 39t97 88v233q-30 49 -97 88t-159 39 q-91 0 -159 -39t-97 -88v-233z" />
<glyph unicode="9" d="M152 217v176h196v-102q27 -63 100 -108.5t168 -45.5q96 0 169 45.5t100 108.5v352q-121 -115 -312 -115q-160 0 -270.5 71t-150.5 167v453q18 37 54 76t92 78t139.5 64t178.5 25t180 -25.5t143.5 -66.5t97.5 -86t59 -90v-952q-21 -46 -60 -91.5t-97.5 -87t-142.5 -67 t-180 -25.5q-95 0 -177.5 25t-138.5 64.5t-92 78.5t-56 78zM348 834q26 -61 99 -102.5t171 -41.5q164 0 267 111v344q-27 63 -100 108t-169 45q-95 0 -168.5 -45t-99.5 -108v-311z" />
<glyph unicode=":" d="M502 39v143q10 22 46.5 40t86.5 18t86.5 -18t46.5 -40v-143q-10 -22 -46 -39.5t-87 -17.5t-87 17.5t-46 39.5zM502 735v144q10 21 46.5 39t86.5 18t86.5 -18t46.5 -39v-144q-10 -22 -46 -39.5t-87 -17.5t-87 17.5t-46 39.5z" />
<glyph unicode=";" d="M502 39v143q10 22 47.5 40t85.5 18t85.5 -18t47.5 -40v-319q-9 -31 -61 -69t-113 -38h-72v103h62q12 0 28 9.5t23 22.5v91q-52 0 -87.5 17.5t-45.5 39.5zM502 735v144q10 21 46.5 39t86.5 18t86.5 -18t46.5 -39v-144q-10 -22 -46 -39.5t-87 -17.5t-87 17.5t-46 39.5z" />
<glyph unicode="&#x3c;" d="M90 541v141l940 422h150v-117l-869 -377l869 -374v-117h-150z" />
<glyph unicode="=" d="M113 393v168h1044v-168h-1044zM113 819v168h1044v-168h-1044z" />
<glyph unicode="&#x3e;" d="M90 119v117l868 374l-868 377v117h150l940 -422v-141l-940 -422h-150z" />
<glyph unicode="?" d="M160 1001v242q164 219 467 219q99 0 183 -23t141.5 -62t94.5 -76t64 -78v-361q-11 -21 -45 -51t-55 -45.5t-66 -48.5l-301 -215v-135h-209v219l318 225q123 87 145 123v229q-38 53 -108.5 90t-161.5 37q-90 0 -160.5 -37t-108.5 -90v-162h-198zM406 39q10 -22 46 -39.5 t87 -17.5t87 17.5t46 39.5v143q-10 22 -46.5 40t-86.5 18t-86.5 -18t-46.5 -40v-143z" />
<glyph unicode="@" d="M123 111v856q15 71 56.5 139.5t104.5 127.5t155.5 95.5t197.5 36.5q104 0 196 -36.5t154.5 -95.5t103.5 -127.5t56 -139.5v-805h-141v106q-115 -108 -273 -108q-47 0 -88 8.5t-72 26t-53.5 33t-42.5 39.5t-27.5 34t-19.5 29v342q14 23 25.5 39t40.5 45.5t60.5 48t83.5 33 t112 14.5q133 0 254 -98v190q-29 120 -124.5 203.5t-246.5 83.5q-150 0 -245 -83t-126 -204v-811q31 -121 125.5 -205t243.5 -84v-135q-103 0 -194.5 36.5t-154.5 96t-104.5 129t-56.5 140.5zM580 391q58 -96 186 -96q78 0 140 28t100 72v223q-39 44 -101.5 73.5 t-138.5 29.5q-55 0 -96 -17t-56.5 -32.5t-33.5 -40.5v-240z" />
<glyph unicode="A" d="M109 0v131l360 1303h330l362 -1303v-131h-190l-119 453h-453l-120 -453h-170zM444 621h363l-162 620h-35z" />
<glyph unicode="B" d="M199 0v1434h506q137 0 239.5 -69t159.5 -173v-279q-28 -48 -78 -93.5t-104 -71.5q58 -25 113.5 -70t86.5 -98v-336q-56 -102 -161 -173t-256 -71h-506zM418 168h239q183 0 263 143v215q-34 58 -102.5 95.5t-143.5 37.5h-256v-491zM418 821h256q65 0 126.5 36t100.5 95 v172q-35 65 -99 103.5t-145 38.5h-239v-445z" />
<glyph unicode="C" d="M125 283v868q19 44 47 84.5t74 83t101 73.5t132.5 50.5t165.5 19.5t165 -19.5t131 -49.5t99 -71t72.5 -78.5t46.5 -78.5v-262h-213v201q-30 77 -109.5 130.5t-191.5 53.5t-191.5 -53.5t-109.5 -130.5v-774q32 -78 110.5 -131.5t190.5 -53.5t190 52.5t111 132.5v223h213 v-285q-25 -53 -64 -100.5t-99.5 -94t-151.5 -74.5t-199 -28q-88 0 -165.5 19.5t-132.5 50.5t-101 73t-74 83.5t-47 85.5z" />
<glyph unicode="D" d="M180 0v1434h477q98 0 180.5 -24.5t140.5 -66.5t97.5 -89.5t63.5 -102.5v-868q-24 -55 -63.5 -102.5t-97.5 -89.5t-140.5 -66.5t-180.5 -24.5h-477zM399 168h219q114 0 192.5 47t109.5 121v762q-31 74 -109.5 121t-192.5 47h-219v-1098z" />
<glyph unicode="E" d="M231 0v1434h883v-168h-663v-445h614v-168h-614v-485h679v-168h-899z" />
<glyph unicode="F" d="M240 0v1434h866v-168h-647v-449h608v-168h-608v-649h-219z" />
<glyph unicode="G" d="M125 285v866q23 56 62.5 106.5t100 98.5t150.5 77t197 29q86 0 161.5 -19.5t129 -49.5t97.5 -71t70.5 -79t45.5 -78v-211h-213v152q-30 78 -106 130t-185 52t-184 -52t-107 -130v-776q30 -78 107.5 -131.5t187.5 -53.5q109 0 184.5 52t108.5 127v264h-270v168h477v-486 q-19 -41 -45.5 -79.5t-70.5 -79.5t-97.5 -71t-129 -49.5t-161.5 -19.5t-162 20t-130.5 51t-99 73.5t-72.5 84t-46 85.5z" />
<glyph unicode="H" d="M158 0v1434h219v-611h516v611h219v-1434h-219v655h-516v-655h-219z" />
<glyph unicode="I" d="M182 0v168h344v1098h-344v168h903v-168h-340v-1098h340v-168h-903z" />
<glyph unicode="J" d="M221 0v174q36 -4 115 -4q163 0 284 44.5t171 121.5v930h-570v168h789v-1149q-76 -127 -245.5 -208t-428.5 -81q-69 0 -115 4z" />
<glyph unicode="K" d="M188 0v1434h220v-617h32l559 617h146v-131l-455 -490l471 -682v-131h-157l-457 659l-139 -149v-510h-220z" />
<glyph unicode="L" d="M248 0v1434h219v-1266h680v-168h-899z" />
<glyph unicode="M" d="M115 0v1434h295l217 -664h28l207 664h293v-1434h-205v1126h-28l-220 -665h-137l-219 665h-29v-1126h-202z" />
<glyph unicode="N" d="M150 0v1434h268l465 -1088h30v1088h207v-1434h-268l-465 1087h-33v-1087h-204z" />
<glyph unicode="O" d="M115 283v868q19 44 47 84.5t74 83t101 73.5t132.5 50.5t165.5 19.5t165.5 -19.5t132.5 -50.5t101 -73.5t74 -83t47 -84.5v-868q-19 -44 -47 -85.5t-74 -83.5t-101 -73t-132.5 -50.5t-165.5 -19.5t-165.5 19.5t-132.5 50.5t-101 73t-74 83.5t-47 85.5zM334 330 q32 -78 110.5 -131.5t190.5 -53.5t190.5 53.5t110.5 131.5v774q-30 77 -109.5 130.5t-191.5 53.5t-191.5 -53.5t-109.5 -130.5v-774z" />
<glyph unicode="P" d="M188 0v1434h533q130 0 240 -63.5t174 -178.5v-422q-59 -107 -167 -174.5t-247 -67.5h-313v-528h-220zM408 696h264q81 0 147.5 37t102.5 105v286q-39 72 -107 107t-143 35h-264v-570z" />
<glyph unicode="Q" d="M115 283v868q19 44 47 84.5t74 83t101 73.5t132.5 50.5t165.5 19.5t165.5 -19.5t132.5 -50.5t101 -73.5t74 -83t47 -84.5v-868q-39 -92 -122 -171t-208 -114q34 -63 96.5 -102t116.5 -39h123v-158h-131q-122 0 -232.5 76.5t-164.5 195.5q-87 0 -164 19.5t-132.5 50.5 t-101 73t-73.5 83.5t-47 85.5zM334 330q32 -78 110.5 -131.5t190.5 -53.5t190.5 53.5t110.5 131.5v774q-30 77 -109.5 130.5t-191.5 53.5t-191.5 -53.5t-109.5 -130.5v-774z" />
<glyph unicode="R" d="M172 0v1434h547q129 0 238.5 -64t172.5 -178v-377q-99 -180 -292 -229l305 -455v-131h-164l-369 571h-219v-571h-219zM391 733h279q172 0 252 141v250q-38 68 -104.5 105t-147.5 37h-279v-533z" />
<glyph unicode="S" d="M137 238v213h213v-156q35 -59 107.5 -104.5t177.5 -45.5q104 0 178 46.5t107 103.5v184q-29 51 -79 87t-153 61l-133 32q-103 25 -177.5 55t-120.5 64.5t-71.5 63.5t-48.5 69v285q19 33 43 63.5t67.5 69t95.5 66.5t128.5 47.5t163.5 19.5q106 0 195.5 -27.5t148.5 -72.5 t93 -83t58 -79v-196h-210v135q-32 57 -106 103t-179 46t-178.5 -46t-106.5 -103v-148q28 -49 78 -82.5t156 -60.5l135 -35q101 -26 174.5 -56.5t118.5 -65t70.5 -64t47.5 -68.5v-326q-18 -32 -42 -62.5t-67.5 -68t-95 -65.5t-128 -47t-162.5 -19q-87 0 -163.5 19t-128.5 47 t-95.5 66t-68 70t-42.5 65z" />
<glyph unicode="T" d="M86 1266v168h1096v-168h-437v-1266h-219v1266h-440z" />
<glyph unicode="U" d="M147 238v1196h220v-1151q28 -57 102.5 -97.5t165.5 -40.5t165 40.5t103 97.5v1151h219v-1196q-22 -48 -59.5 -92t-95 -85t-144 -65.5t-188.5 -24.5t-188.5 24.5t-144.5 65.5t-95.5 85t-59.5 92z" />
<glyph unicode="V" d="M92 1303v131h197l336 -1201h34l336 1201h183v-131l-385 -1303h-316z" />
<glyph unicode="W" d="M72 1303v131h204l74 -1153h29l156 620h198l158 -620h29l71 1153h207v-131l-125 -1303h-268l-164 647h-25l-163 -647h-258z" />
<glyph unicode="X" d="M127 0v131l365 586l-365 586v131h184l314 -557h34l320 557h162v-131l-363 -584l363 -588v-131h-183l-311 559h-35l-319 -559h-166z" />
<glyph unicode="Y" d="M127 1303v131h190l310 -576h35l309 576h172v-131l-404 -699v-604h-219v623z" />
<glyph unicode="Z" d="M147 0v141l691 1096v29h-676v168h958v-142l-690 -1095v-29h690v-168h-973z" />
<glyph unicode="[" d="M383 -344v1778h584v-154h-365v-1470h365v-154h-584z" />
<glyph unicode="\" d="M199 1427v111h151l721 -1612v-110h-153z" />
<glyph unicode="]" d="M301 -190h365v1470h-365v154h584v-1778h-584v154z" />
<glyph unicode="^" d="M207 700v121l325 613h205l324 -613v-121h-131l-279 535h-33l-276 -535h-135z" />
<glyph unicode="_" d="M10 -133h1250v-137h-1250v137z" />
<glyph unicode="`" d="M473 1485v94h195l129 -311v-31h-158z" />
<glyph unicode="a" d="M156 143v322q17 27 41 51.5t70 57.5t120 53t166 20q194 0 319 -98v268q-29 68 -96 111t-170 43q-165 0 -237 -107v-98h-191v164q13 19 28 37t53.5 50.5t82.5 56t114.5 41.5t149.5 18q81 0 152 -17.5t121 -44.5t91 -64.5t65.5 -73t41.5 -73.5v-860h-198v92 q-138 -121 -330 -121q-73 0 -137 14t-104 33t-74.5 45.5t-49.5 44t-28 35.5zM356 225q89 -96 234 -96q99 0 172 34.5t110 86.5v123q-36 51 -109.5 86t-172.5 35q-159 0 -234 -91v-178z" />
<glyph unicode="b" d="M207 0v1434h205v-410q123 104 303 104q85 0 155 -23.5t115 -61.5t72.5 -73.5t44.5 -72.5v-690q-13 -29 -32 -57t-52.5 -61t-74 -57t-100 -40.5t-128.5 -16.5q-184 0 -309 109v-84h-199zM412 242q37 -45 102 -75t150 -30q90 0 149.5 36.5t83.5 80.5v596q-27 45 -85 81 t-148 36q-85 0 -150 -30t-102 -75v-620z" />
<glyph unicode="c" d="M193 244v616q21 48 56.5 92.5t90 87t135.5 68t176 25.5t175.5 -25t133 -65.5t85.5 -80t51 -79.5v-193h-191v127q-27 65 -93.5 109.5t-160.5 44.5q-95 0 -161 -44t-93 -110v-530q27 -66 93 -110t161 -44q94 0 160.5 44.5t93.5 109.5v127h191v-193q-17 -39 -50 -78.5 t-86 -80t-133.5 -66t-175.5 -25.5t-176 25.5t-135.5 68t-90 87t-56.5 92.5z" />
<glyph unicode="d" d="M166 207v690q17 37 44.5 72.5t72.5 73.5t115 61.5t155 23.5q180 0 303 -104v410h205v-1434h-197v86q-123 -111 -311 -111q-69 0 -128.5 16.5t-100 40.5t-74 57t-52.5 61t-32 57zM371 254q27 -45 85 -81t148 -36q85 0 150.5 29.5t101.5 75.5v620q-37 45 -102.5 75 t-149.5 30q-90 0 -149.5 -36.5t-83.5 -80.5v-596z" />
<glyph unicode="e" d="M180 244v616q17 38 42.5 73.5t66.5 72.5t91 64.5t119.5 45t147.5 17.5q96 0 178.5 -25.5t136 -66t87 -79t51.5 -75.5v-383h-715v-217q29 -66 96.5 -110t165.5 -44q97 0 165 44.5t97 109.5v71h191v-141q-20 -40 -53.5 -78t-87 -78.5t-135 -65t-177.5 -24.5 q-78 0 -147.5 17.5t-119.5 45t-91 64.5t-66.5 72.5t-42.5 73.5zM385 647h524v170q-29 65 -97 109.5t-165 44.5q-98 0 -165.5 -44t-96.5 -110v-170z" />
<glyph unicode="f" d="M217 0v154h242v796h-242v154h242v186q99 189 440 189q124 0 197 -19v-145q-75 6 -127 6q-235 0 -305 -100v-117h432v-154h-432v-796h432v-154h-879z" />
<glyph unicode="g" d="M180 369v528q17 37 44.5 72.5t72.5 73.5t115 61.5t155 23.5q188 0 312 -112v88h196v-1190q-21 -48 -56.5 -91t-90 -82t-135 -62t-177.5 -23q-76 0 -143 16t-112 40t-82.5 55.5t-57 57.5t-33.5 52v154h197v-101q26 -44 84 -79t147 -35q98 0 162 37.5t92 101.5v287 q-125 -105 -303 -105q-69 0 -128.5 16.5t-100 40.5t-74 57t-52.5 61t-32 57zM385 416q27 -45 85 -81t148 -36q85 0 150.5 29t101.5 75v459q-37 45 -102.5 75t-149.5 30q-90 0 -149.5 -36.5t-83.5 -80.5v-434z" />
<glyph unicode="h" d="M195 0v1434h204v-410q123 104 303 104q85 0 155 -23.5t115.5 -61.5t73 -73.5t44.5 -72.5v-897h-205v850q-27 45 -85.5 81t-148.5 36q-85 0 -150 -30t-102 -75v-862h-204z" />
<glyph unicode="i" d="M193 0v154h360v796h-322v154h527v-950h360v-154h-925zM518 1356v131q12 22 47.5 39.5t81.5 17.5q47 0 83 -17.5t46 -39.5v-131q-10 -22 -46 -40t-83 -18q-46 0 -81.5 18t-47.5 40z" />
<glyph unicode="j" d="M203 -188q180 0 304 45.5t175 115.5v977h-457v154h662v-1180q-32 -48 -85.5 -92.5t-135 -86.5t-202 -67.5t-261.5 -25.5v160zM647 1356v131q12 22 47.5 39.5t81.5 17.5q47 0 83 -17.5t46 -39.5v-131q-10 -22 -46 -40t-83 -18q-46 0 -81.5 18t-47.5 40z" />
<glyph unicode="k" d="M236 0v1434h204v-820h29l502 490h135v-121l-381 -360l397 -502v-121h-149l-385 483l-148 -137v-346h-204z" />
<glyph unicode="l" d="M186 0v154h361v1126h-322v154h527v-1280h360v-154h-926z" />
<glyph unicode="m" d="M80 0v1104h182v-84q82 108 209 108q148 0 219 -135q88 135 244 135q60 0 108.5 -22.5t78.5 -59t47.5 -69.5t27.5 -68v-909h-195v874q-14 39 -47.5 66t-87.5 27q-44 0 -80 -23.5t-57 -62.5v-881h-180v874q-33 93 -135 93q-92 0 -138 -86v-881h-196z" />
<glyph unicode="n" d="M195 0v1104h192v-92q123 116 315 116q85 0 155 -23.5t115.5 -61.5t73 -73.5t44.5 -72.5v-897h-205v850q-27 45 -85.5 81t-148.5 36q-85 0 -150 -30t-102 -75v-862h-204z" />
<glyph unicode="o" d="M176 244v616q21 48 56.5 92.5t90.5 87t136 68t176 25.5t176 -25.5t136 -68t90.5 -87t56.5 -92.5v-616q-21 -48 -56.5 -92.5t-90.5 -87t-136 -68t-176 -25.5t-176 25.5t-136 68t-90.5 87t-56.5 92.5zM381 287q27 -65 93.5 -109.5t160.5 -44.5q95 0 161 44t93 110v530 q-27 66 -93 110t-161 44q-94 0 -160.5 -44.5t-93.5 -109.5v-530z" />
<glyph unicode="p" d="M207 -330v1434h199v-86q122 110 309 110q85 0 155 -23.5t115 -61.5t72.5 -73.5t44.5 -72.5v-690q-13 -29 -32 -57t-52.5 -61t-74 -57t-100 -40.5t-128.5 -16.5q-178 0 -303 105v-410h-205zM412 242q37 -45 102 -75t150 -30q90 0 149.5 36.5t83.5 80.5v596q-27 45 -85 81 t-148 36q-85 0 -150 -30t-102 -75v-620z" />
<glyph unicode="q" d="M166 207v690q17 37 44.5 72.5t72.5 73.5t115 61.5t155 23.5q187 0 311 -112v88h197v-1434h-205v410q-125 -105 -303 -105q-69 0 -128.5 16.5t-100 40.5t-74 57t-52.5 61t-32 57zM371 254q27 -45 85 -81t148 -36q85 0 150.5 29.5t101.5 75.5v620q-37 45 -102.5 75 t-149.5 30q-90 0 -149.5 -36.5t-83.5 -80.5v-596z" />
<glyph unicode="r" d="M180 0v154h269v796h-269v154h463v-146q142 146 416 146q24 0 53 -2v-180q-33 2 -57 2q-139 0 -242.5 -32.5t-159.5 -82.5v-655h402v-154h-875z" />
<glyph unicode="s" d="M195 174v172h190v-108q84 -105 250 -105q91 0 154 31t96 74v131q-44 66 -199 98l-141 29q-144 30 -231.5 79t-118.5 99v256q21 30 51.5 59t83 64.5t132.5 57.5t173 22q76 0 144.5 -15.5t114 -37.5t85 -52.5t60 -52.5t36.5 -45v-168h-190v104q-33 43 -96 74t-154 31 t-154 -31t-96 -74v-112q49 -67 203 -97l135 -28q145 -31 233.5 -80t118.5 -98v-277q-20 -30 -51 -59.5t-83.5 -64.5t-132.5 -57t-173 -22t-173 22t-132.5 57.5t-83 64.5t-51.5 59z" />
<glyph unicode="t" d="M174 950v154h258v330h205v-330h442v-154h-442v-712q77 -101 324 -101q58 0 139 6v-145q-93 -18 -207 -18q-357 0 -461 188v782h-258z" />
<glyph unicode="u" d="M184 199v905h205v-850q70 -117 225 -117q160 0 244 103v864h205v-1104h-193v86q-120 -111 -307 -111q-82 0 -150 22.5t-112.5 59t-72 71t-44.5 71.5z" />
<glyph unicode="v" d="M135 983v121h180l310 -891h32l312 891h166v-121l-363 -983h-272z" />
<glyph unicode="w" d="M63 983v121h189l88 -881h29l178 615h190l178 -615h29l88 881h174v-121l-145 -983h-240l-174 596h-24l-174 -596h-240z" />
<glyph unicode="x" d="M197 0v121l299 438l-299 424v121h159l271 -434h16l281 434h149v-121l-299 -424l299 -438v-121h-160l-270 434h-16l-283 -434h-147z" />
<glyph unicode="y" d="M164 981v123h184l279 -828h28l273 828h168v-119l-412 -1178q-55 -69 -157 -112t-220 -43q-81 0 -139 14v148q62 -4 100 -4q77 0 140.5 25t101.5 63l31 96z" />
<glyph unicode="z" d="M184 0v141l639 789v20h-639v154h899v-133l-651 -797v-20h651v-154h-899z" />
<glyph unicode="{" d="M297 461v153q124 0 147 107v385q19 48 48 92.5t75.5 88.5t103.5 76t135 51.5t167 19.5v-154q-122 0 -197 -63.5t-104 -163.5v-365q-35 -98 -127 -151q91 -53 127 -150v-364q29 -101 104 -165.5t197 -64.5v-151q-110 0 -203 29t-156 77.5t-104.5 103.5t-65.5 117v385 q-23 107 -147 107z" />
<glyph unicode="|" d="M526 -266v1884h217v-1884h-217z" />
<glyph unicode="}" d="M297 -207q122 0 197 64.5t104 165.5v364q36 97 127 150q-92 53 -127 151v365q-29 100 -104 163.5t-197 63.5v154q110 0 202.5 -29t155.5 -78.5t104.5 -104.5t65.5 -116v-385q23 -107 148 -107v-153q-125 0 -148 -107v-385q-24 -62 -65.5 -117t-104.5 -103.5t-155.5 -77.5 t-202.5 -29v151z" />
<glyph unicode="~" d="M104 616v177q4 4 12.5 10t36.5 22.5t58.5 29t78.5 22.5t97 10q102 0 281.5 -52.5t267.5 -52.5q60 0 117 22.5t85 45.5l27 22v-186q-10 -8 -28 -19.5t-77 -31t-122 -19.5q-71 0 -149.5 16.5t-136 36t-131.5 36t-138 16.5q-71 0 -141 -26.5t-104 -52.5z" />
<glyph unicode="&#xa0;" />
<glyph unicode="&#xa1;" d="M461 932v143q10 22 46.5 40t86.5 18t86.5 -18t46.5 -40v-143q-10 -22 -46.5 -40t-86.5 -18t-86.5 18t-46.5 40zM479 -80l29 789h172l29 -789v-239h-230v239z" />
<glyph unicode="&#xa2;" d="M166 244v616q20 42 53 82t81.5 79t120 67t154.5 38v170h177v-172q150 -21 246 -92t135 -149v-193h-191v127q-30 65 -104.5 109.5t-180.5 44.5q-107 0 -180.5 -44t-103.5 -110v-530q30 -66 103.5 -110t180.5 -44q106 0 180.5 44.5t104.5 109.5v127h191v-193 q-37 -78 -134 -149.5t-247 -91.5v-173h-177v170q-83 10 -154.5 38t-120 67t-81.5 79.5t-53 82.5z" />
<glyph unicode="&#xa3;" d="M98 670v112h119v412q16 35 42.5 70.5t69 71.5t94 63.5t121.5 45t146 17.5q95 0 178 -25t139 -65t92 -79t54 -76v-177h-197v105q-27 63 -98.5 108t-167.5 45q-93 0 -165 -45t-99 -108v-363h518l-16 -112h-502v-394q-30 -58 -74 -108h801v-168h-1047v145q27 6 60.5 33.5 t50.5 71.5v420h-119z" />
<glyph unicode="&#xa4;" d="M156 213v102l71 72q-38 50 -55 94v414q17 45 57 94l-73 76v102h139l65 -67q118 67 275 67q152 0 276 -67l68 67h135v-102l-76 -74q37 -45 60 -96v-414q-23 -52 -58 -94l74 -72v-102h-135l-68 66q-119 -68 -276 -68t-277 65l-63 -63h-139zM377 524q27 -65 94 -109t164 -44 t164 44t94 109v330q-27 65 -94 109.5t-164 44.5t-164 -44.5t-94 -109.5v-330z" />
<glyph unicode="&#xa5;" d="M104 397v111h418v119l-33 55h-385v111h320l-320 530v111h207l320 -574h28l318 574h188v-111l-317 -530h317v-111h-383l-43 -76v-98h426v-111h-424v-397h-219v397h-418z" />
<glyph unicode="&#xa6;" d="M526 -262v829h217v-829h-217zM526 813v805h217v-805h-217z" />
<glyph unicode="&#xa7;" d="M215 6v168h191v-117q30 -43 88.5 -74.5t140.5 -31.5t140.5 31.5t88.5 74.5v125q-39 63 -186 99l-125 28q-138 30 -223 78t-115 98v275q54 82 150 131q-115 56 -150 121v248q16 23 36 45.5t57.5 52.5t81 51.5t108.5 37t137 15.5q73 0 138 -15.5t108 -37.5t81 -52t57.5 -52 t35.5 -45v-168h-191v116q-30 43 -88.5 75t-140.5 32t-140.5 -32t-88.5 -75v-125q21 -34 66 -56t120 -40l125 -31q138 -30 223 -78t115 -98v-274q-54 -81 -152 -133q107 -48 152 -117v-250q-16 -23 -36 -45.5t-57.5 -52.5t-81 -52t-108.5 -37.5t-137 -15.5q-90 0 -166 22 t-126 58t-78 64t-50 59zM406 561q38 -61 184 -98l53 -12q80 1 135.5 32.5t85.5 73.5v150q-38 60 -184 96l-55 12q-78 -3 -134.5 -34.5t-84.5 -71.5v-148z" />
<glyph unicode="&#xa8;" d="M307 1341v150q43 43 117 43q42 0 73.5 -14.5t41.5 -28.5v-150q-10 -14 -41.5 -28.5t-73.5 -14.5q-74 0 -117 43zM731 1341v150q12 15 43.5 29t73.5 14t72 -14t43 -29v-150q-13 -15 -43 -29t-72 -14t-73.5 14t-43.5 29z" />
<glyph unicode="&#xa9;" d="M37 717q0 152 47.5 290.5t127.5 238t190.5 158t232.5 58.5t232.5 -58.5t190.5 -158t127.5 -238t47.5 -290.5q0 -204 -80 -375.5t-218 -271t-300 -99.5t-300 99.5t-218 271t-80 375.5zM121 717q0 -181 67 -334t185.5 -242.5t261.5 -89.5q108 0 203.5 53t163.5 142.5 t107.5 212t39.5 258.5q0 182 -66.5 334t-185 241.5t-262.5 89.5q-107 0 -202.5 -52.5t-164 -142t-108 -212t-39.5 -258.5zM299 438v553q14 32 37.5 64t63 68t100.5 58.5t133 22.5t132 -20.5t99 -54.5t61 -61.5t38 -57.5v-187h-172v127q-18 41 -59 75t-95 34 q-55 0 -95.5 -33.5t-58.5 -75.5v-473q18 -41 58.5 -73.5t95.5 -32.5t95.5 32.5t58.5 73.5v127h172v-186q-13 -23 -27.5 -43.5t-44 -49.5t-63.5 -49.5t-85.5 -35.5t-109.5 -15q-72 0 -133 22.5t-100.5 58t-63 68t-37.5 64.5z" />
<glyph unicode="&#xaa;" d="M328 829v201q82 117 247 117q133 0 228 -76v178q-21 45 -65.5 74t-112.5 29q-106 0 -158 -72v-57h-127v96q97 133 285 133q125 0 204.5 -54t108.5 -128v-533h-131v62q-93 -78 -232 -78q-55 0 -101 12t-74.5 31t-45 34.5t-26.5 30.5zM459 872q43 -61 153 -61 q67 0 116.5 20.5t74.5 53.5v94q-26 33 -75.5 55.5t-115.5 22.5q-103 0 -153 -64v-121z" />
<glyph unicode="&#xab;" d="M113 524v154l368 426h148v-111l-346 -393l346 -391v-111h-148zM641 524v154l369 426h147v-111l-346 -393l346 -391v-111h-147z" />
<glyph unicode="&#xac;" d="M113 606v168h1044v-600h-168v432h-876z" />
<glyph unicode="&#xad;" d="M266 606v168h738v-168h-738z" />
<glyph unicode="&#xae;" d="M145 1198q0 99 39 189.5t105 156.5t156.5 105t189.5 39q132 0 244.5 -66t178.5 -179t66 -245t-66 -244.5t-178.5 -178.5t-244.5 -66t-245 66t-179 178.5t-66 244.5zM215 1198q0 -176 122 -301t298 -125q174 0 297 125.5t123 300.5t-123 300.5t-297 125.5 q-176 0 -298 -125t-122 -301zM440 918v577h246q54 0 103 -29.5t73 -79.5v-157q-40 -76 -114 -101l104 -147v-63h-88l-125 200h-94v-200h-105zM545 1206h121q71 0 96 54v96q-25 53 -96 53h-121v-203z" />
<glyph unicode="&#xaf;" d="M287 1339v148h694v-148h-694z" />
<glyph unicode="&#xb0;" d="M307 1221v264q15 27 40 53.5t64 53.5t97.5 44t126.5 17t126.5 -17t97.5 -44t64 -53.5t40 -53.5v-264q-15 -27 -40 -53.5t-64 -53.5t-97.5 -44t-126.5 -17t-126.5 17t-97.5 44t-64 53.5t-40 53.5zM455 1262q22 -34 68 -59t112 -25q65 0 111.5 25t70.5 59v182 q-24 34 -70.5 59t-111.5 25q-66 0 -112 -25t-68 -59v-182z" />
<glyph unicode="&#xb1;" d="M113 51v166h1044v-166h-1044zM113 731v168h436v383h168v-383h440v-168h-440v-385h-168v385h-436z" />
<glyph unicode="&#xb2;" d="M307 573v117l424 352q62 52 70 66v147q-19 33 -66 56.5t-110 23.5q-60 0 -102.5 -19.5t-63.5 -45.5v-121h-144v170q15 19 37 38t59.5 42.5t93.5 38t120 14.5q126 0 211.5 -50.5t117.5 -111.5v-219q-12 -21 -86 -78l-354 -288v-7h449v-125h-656z" />
<glyph unicode="&#xb3;" d="M311 700v127h142v-75q19 -33 66 -56.5t110 -23.5q62 0 109 23.5t67 56.5v127q-19 35 -66.5 59.5t-109.5 24.5h-113v112h105q59 0 102.5 22t64.5 50v123q-21 25 -65 45t-102 20q-60 0 -105 -20.5t-63 -44.5v-80h-142v129q31 45 110.5 89t199.5 44q121 0 204.5 -48 t114.5 -101v-179q-15 -25 -55 -53t-94 -47q60 -17 103 -51t62 -70v-184q-30 -61 -115.5 -111.5t-211.5 -50.5q-122 0 -205 46.5t-113 96.5z" />
<glyph unicode="&#xb4;" d="M473 1237v31l127 311h197v-94l-164 -248h-160z" />
<glyph unicode="&#xb5;" d="M195 -330v1434h204v-852q74 -115 230 -115q75 0 137 28t102 73v866h205v-1104h-192v86q-128 -111 -299 -111q-102 0 -183 31v-336h-204z" />
<glyph unicode="&#xb6;" d="M82 750v442q64 115 174 178.5t240 63.5h278v-1639h-160v713h-118q-139 0 -247 67.5t-167 174.5zM1028 -205v1639h160v-1639h-160z" />
<glyph unicode="&#xb7;" d="M502 637v143q10 22 46.5 40t86.5 18t86.5 -18t46.5 -40v-143q-10 -22 -46 -39.5t-87 -17.5t-87 17.5t-46 39.5z" />
<glyph unicode="&#xb8;" d="M430 -451l27 95q80 -37 155 -37q40 0 69.5 13.5t37.5 33.5v94q-8 18 -36.5 30.5t-66.5 12.5h-118l61 213h105l-37 -127h37q66 0 111.5 -28.5t62.5 -67.5v-168q-23 -48 -79.5 -78.5t-135.5 -30.5q-123 0 -193 45z" />
<glyph unicode="&#xb9;" d="M367 1284v100l225 50h123v-756h186v-105h-532v105h192v627z" />
<glyph unicode="&#xba;" d="M326 901v369q31 74 110 128t203 54t203 -54t110 -128v-369q-31 -73 -110.5 -126.5t-202.5 -53.5t-202.5 53.5t-110.5 126.5zM461 922q21 -42 66.5 -70.5t111.5 -28.5t112.5 28.5t65.5 70.5v327q-19 44 -65 73.5t-113 29.5q-66 0 -112 -29t-66 -74v-327z" />
<glyph unicode="&#xbb;" d="M111 98v111l346 391l-346 393v111h149l369 -426v-154l-369 -426h-149zM639 98v111l346 391l-346 393v111h149l369 -426v-154l-369 -426h-149z" />
<glyph unicode="&#xbc;" d="M61 0v98l312 398h104v-99l-311 -397h-105zM61 1296v93l172 45h123v-672h133v-103h-426v103h142v545zM557 172v111l328 491h231v-487h113v-115h-113v-172h-145v172h-414zM702 287h269v352h-23zM795 938v98l309 398h104v-99l-309 -397h-104z" />
<glyph unicode="&#xbd;" d="M61 0v98l312 398h104v-99l-311 -397h-105zM61 1296v93l172 45h123v-672h133v-103h-426v103h142v545zM594 0v113l389 311q58 45 66 59v127q-16 28 -59 48t-99 20q-54 0 -93 -16.5t-55 -38.5v-109h-141v158q13 16 33.5 33t55.5 38t87.5 34.5t112.5 13.5q118 0 197.5 -45.5 t111.5 -100.5v-199q-11 -17 -80 -69l-321 -248v-6h409v-123h-614zM795 938v98l309 398h104v-99l-309 -397h-104z" />
<glyph unicode="&#xbe;" d="M61 0v98l312 398h104v-99l-311 -397h-105zM61 772v119h142v-68q16 -28 58 -47.5t99 -19.5q56 0 98 19.5t58 47.5v111q-14 29 -57 49.5t-99 20.5h-106v110h98q52 0 92 18.5t58 41.5v108q-18 21 -58 38t-92 17q-53 0 -93 -17t-56 -38v-70h-142v119q13 16 33.5 33t55.5 38 t88 34.5t114 13.5q115 0 193.5 -44t107.5 -93v-160q-15 -22 -51.5 -47t-85.5 -41q55 -16 95 -46t57 -61v-167q-29 -54 -109.5 -100t-198.5 -46q-115 0 -193 41.5t-106 85.5zM557 172v111l328 491h231v-487h113v-115h-113v-172h-145v172h-414zM702 287h269v352h-23zM795 938 v98l309 398h104v-99l-309 -397h-104z" />
<glyph unicode="&#xbf;" d="M119 -109v361q11 21 45 51t55 45.5t66 48.5l301 215v136h209v-220l-318 -225q-123 -87 -145 -123v-229q38 -53 108.5 -90t161.5 -37q90 0 160 37t108 90v162h199v-242q-164 -219 -467 -219q-99 0 -183 23t-141.5 62t-94.5 76t-64 78zM557 932v143q10 22 46.5 40t86.5 18 t86.5 -18t46.5 -40v-143q-10 -22 -46.5 -40t-86.5 -18t-86.5 18t-46.5 40z" />
<glyph unicode="&#xc0;" d="M109 0v131l360 1303h330l362 -1303v-131h-190l-119 453h-453l-120 -453h-170zM389 1765v95h195l129 -283v-33h-158zM444 621h363l-162 620h-35z" />
<glyph unicode="&#xc1;" d="M109 0v131l360 1303h330l362 -1303v-131h-190l-119 453h-453l-120 -453h-170zM444 621h363l-162 620h-35zM516 1544v33l127 283h197v-95l-164 -221h-160z" />
<glyph unicode="&#xc2;" d="M109 0v131l360 1303h330l362 -1303v-131h-190l-119 453h-453l-120 -453h-170zM303 1544v33l178 283h267l178 -283v-33h-142l-170 201l-170 -201h-141zM444 621h363l-162 620h-35z" />
<glyph unicode="&#xc3;" d="M109 0v131l360 1303h330l362 -1303v-131h-190l-119 453h-453l-120 -453h-170zM238 1534v131q11 74 68 122t145 48q49 0 91 -17t71 -41.5t54 -49t51.5 -41.5t51.5 -17q73 0 88 76v84h137v-131q-12 -74 -68.5 -121t-142.5 -47q-50 0 -92 17t-69.5 41.5t-52 49t-51 41.5 t-54.5 17q-75 0 -92 -74v-88h-135zM444 621h363l-162 620h-35z" />
<glyph unicode="&#xc4;" d="M109 0v131l360 1303h330l362 -1303v-131h-190l-119 453h-453l-120 -453h-170zM293 1614v149q43 43 117 43q42 0 73 -14.5t41 -28.5v-149q-10 -14 -41 -28.5t-73 -14.5q-74 0 -117 43zM444 621h363l-162 620h-35zM717 1614v149q12 15 43.5 29t73.5 14t71.5 -14t42.5 -29 v-149q-13 -15 -42.5 -29t-71.5 -14t-73.5 14t-43.5 29z" />
<glyph unicode="&#xc5;" d="M109 0v131l350 1266q-47 27 -66 67v207q25 48 92 80.5t150 32.5t150 -32.5t92 -80.5v-207q-20 -39 -68 -67l352 -1266v-131h-190l-119 453h-453l-120 -453h-170zM444 621h363l-162 620h-35zM504 1497q10 -19 46.5 -34t84.5 -15t83.5 15t45.5 34v141q-10 19 -45.5 34.5 t-83.5 15.5t-84.5 -15.5t-46.5 -34.5v-141z" />
<glyph unicode="&#xc6;" d="M45 0v131l383 1303h774v-168h-393v-445h362v-168h-362v-485h408v-168h-599v428h-292l-123 -428h-158zM373 596h245v670h-53z" />
<glyph unicode="&#xc7;" d="M125 283v868q19 44 47 84.5t74 83t101 73.5t132.5 50.5t165.5 19.5t165 -19.5t131 -49.5t99 -71t72.5 -78.5t46.5 -78.5v-262h-213v201q-30 77 -109.5 130.5t-191.5 53.5t-191.5 -53.5t-109.5 -130.5v-774q32 -78 110.5 -131.5t190.5 -53.5t190 52.5t111 132.5v223h213 v-285q-25 -52 -63 -98.5t-97 -93t-147 -75t-193 -30.5l-26 -94h37q66 0 111.5 -28.5t62.5 -67.5v-168q-23 -48 -79.5 -78.5t-135.5 -30.5q-123 0 -193 45l27 95q80 -37 155 -37q40 0 69.5 13.5t37.5 33.5v94q-8 18 -36 30.5t-66 12.5h-119l53 186q-89 10 -164 42 t-126.5 76.5t-85.5 91t-56 96.5z" />
<glyph unicode="&#xc8;" d="M231 0v1434h883v-168h-663v-445h614v-168h-614v-485h679v-168h-899zM475 1765v95h195l129 -283v-33h-158z" />
<glyph unicode="&#xc9;" d="M231 0v1434h883v-168h-663v-445h614v-168h-614v-485h679v-168h-899zM592 1544v33l127 283h196v-95l-163 -221h-160z" />
<glyph unicode="&#xca;" d="M231 0v1434h883v-168h-663v-445h614v-168h-614v-485h679v-168h-899zM365 1544v33l178 283h266l178 -283v-33h-141l-170 201l-170 -201h-141z" />
<glyph unicode="&#xcb;" d="M231 0v1434h883v-168h-663v-445h614v-168h-614v-485h679v-168h-899zM356 1614v149q43 43 117 43q42 0 73.5 -14.5t41.5 -28.5v-149q-10 -14 -41.5 -28.5t-73.5 -14.5q-74 0 -117 43zM780 1614v149q12 15 43.5 29t73.5 14t72 -14t43 -29v-149q-13 -15 -43 -29t-72 -14 t-73.5 14t-43.5 29z" />
<glyph unicode="&#xcc;" d="M182 0v168h344v1098h-344v168h903v-168h-340v-1098h340v-168h-903zM387 1765v95h195l129 -283v-33h-158z" />
<glyph unicode="&#xcd;" d="M182 0v168h344v1098h-344v168h903v-168h-340v-1098h340v-168h-903zM551 1544v33l127 283h196v-95l-163 -221h-160z" />
<glyph unicode="&#xce;" d="M182 0v168h344v1098h-344v168h903v-168h-340v-1098h340v-168h-903zM324 1544v33l178 283h266l178 -283v-33h-141l-170 201l-170 -201h-141z" />
<glyph unicode="&#xcf;" d="M182 0v168h344v1098h-344v168h903v-168h-340v-1098h340v-168h-903zM307 1614v149q43 43 117 43q42 0 73.5 -14.5t41.5 -28.5v-149q-10 -14 -41.5 -28.5t-73.5 -14.5q-74 0 -117 43zM731 1614v149q12 15 43.5 29t73.5 14t72 -14t43 -29v-149q-13 -15 -43 -29t-72 -14 t-73.5 14t-43.5 29z" />
<glyph unicode="&#xd0;" d="M78 645v168h102v621h477q98 0 180.5 -24.5t140.5 -66.5t97.5 -89.5t63.5 -102.5v-868q-24 -55 -63.5 -102.5t-97.5 -89.5t-140.5 -66.5t-180.5 -24.5h-477v645h-102zM399 168h219q114 0 192.5 47t109.5 121v762q-31 74 -109.5 121t-192.5 47h-219v-453h299v-168h-299 v-477z" />
<glyph unicode="&#xd1;" d="M150 0v1434h268l465 -1088h30v1088h207v-1434h-268l-465 1087h-33v-1087h-204zM260 1534v131q11 74 68 122t145 48q49 0 91 -17t71 -41.5t54.5 -49t52 -41.5t51.5 -17q73 0 88 76v84h137v-131q-12 -74 -68.5 -121t-142.5 -47q-50 0 -92 17t-70 41.5t-52.5 49t-51 41.5 t-54.5 17q-75 0 -92 -74v-88h-135z" />
<glyph unicode="&#xd2;" d="M115 283v868q19 44 47 84.5t74 83t101 73.5t132.5 50.5t165.5 19.5t165.5 -19.5t132.5 -50.5t101 -73.5t74 -83t47 -84.5v-868q-19 -44 -47 -85.5t-74 -83.5t-101 -73t-132.5 -50.5t-165.5 -19.5t-165.5 19.5t-132.5 50.5t-101 73t-74 83.5t-47 85.5zM334 330 q32 -78 110.5 -131.5t190.5 -53.5t190.5 53.5t110.5 131.5v774q-30 77 -109.5 130.5t-191.5 53.5t-191.5 -53.5t-109.5 -130.5v-774zM410 1776v94h194l129 -283v-33h-158z" />
<glyph unicode="&#xd3;" d="M115 283v868q19 44 47 84.5t74 83t101 73.5t132.5 50.5t165.5 19.5t165.5 -19.5t132.5 -50.5t101 -73.5t74 -83t47 -84.5v-868q-19 -44 -47 -85.5t-74 -83.5t-101 -73t-132.5 -50.5t-165.5 -19.5t-165.5 19.5t-132.5 50.5t-101 73t-74 83.5t-47 85.5zM334 330 q32 -78 110.5 -131.5t190.5 -53.5t190.5 53.5t110.5 131.5v774q-30 77 -109.5 130.5t-191.5 53.5t-191.5 -53.5t-109.5 -130.5v-774zM561 1554v33l127 283h197v-94l-164 -222h-160z" />
<glyph unicode="&#xd4;" d="M115 283v868q19 44 47 84.5t74 83t101 73.5t132.5 50.5t165.5 19.5t165.5 -19.5t132.5 -50.5t101 -73.5t74 -83t47 -84.5v-868q-19 -44 -47 -85.5t-74 -83.5t-101 -73t-132.5 -50.5t-165.5 -19.5t-165.5 19.5t-132.5 50.5t-101 73t-74 83.5t-47 85.5zM334 330 q32 -78 110.5 -131.5t190.5 -53.5t190.5 53.5t110.5 131.5v774q-30 77 -109.5 130.5t-191.5 53.5t-191.5 -53.5t-109.5 -130.5v-774zM334 1554v33l178 283h266l178 -283v-33h-141l-170 201l-170 -201h-141z" />
<glyph unicode="&#xd5;" d="M115 283v868q19 44 47 84.5t74 83t101 73.5t132.5 50.5t165.5 19.5t165.5 -19.5t132.5 -50.5t101 -73.5t74 -83t47 -84.5v-868q-19 -44 -47 -85.5t-74 -83.5t-101 -73t-132.5 -50.5t-165.5 -19.5t-165.5 19.5t-132.5 50.5t-101 73t-74 83.5t-47 85.5zM268 1544v131 q11 74 68 122t145 48q49 0 91 -17t71 -41.5t54.5 -49t52 -41.5t51.5 -17q73 0 88 76v84h137v-131q-12 -74 -68.5 -121t-142.5 -47q-50 0 -92 17t-69.5 41.5t-52 49t-51 41.5t-54.5 17q-76 0 -93 -74v-88h-135zM334 330q32 -78 110.5 -131.5t190.5 -53.5t190.5 53.5 t110.5 131.5v774q-30 77 -109.5 130.5t-191.5 53.5t-191.5 -53.5t-109.5 -130.5v-774z" />
<glyph unicode="&#xd6;" d="M115 283v868q19 44 47 84.5t74 83t101 73.5t132.5 50.5t165.5 19.5t165.5 -19.5t132.5 -50.5t101 -73.5t74 -83t47 -84.5v-868q-19 -44 -47 -85.5t-74 -83.5t-101 -73t-132.5 -50.5t-165.5 -19.5t-165.5 19.5t-132.5 50.5t-101 73t-74 83.5t-47 85.5zM307 1614v149 q43 43 117 43q42 0 73.5 -14.5t41.5 -28.5v-149q-10 -14 -41.5 -28.5t-73.5 -14.5q-74 0 -117 43zM334 330q32 -78 110.5 -131.5t190.5 -53.5t190.5 53.5t110.5 131.5v774q-30 77 -109.5 130.5t-191.5 53.5t-191.5 -53.5t-109.5 -130.5v-774zM731 1614v149q12 15 43.5 29 t73.5 14t72 -14t43 -29v-149q-13 -15 -43 -29t-72 -14t-73.5 14t-43.5 29z" />
<glyph unicode="&#xd7;" d="M143 213v111l371 366l-371 367v110h125l365 -360l366 360h125v-110l-372 -367l372 -366v-111h-125l-366 356l-365 -356h-125z" />
<glyph unicode="&#xd8;" d="M115 0v70l69 98q-42 53 -69 115v868q19 44 47 84.5t74 83t101 73.5t132.5 50.5t165.5 19.5q222 0 369 -116l61 88h90v-70l-70 -100q40 -48 70 -113v-868q-19 -44 -47 -85.5t-74 -83.5t-101 -73t-132.5 -50.5t-165.5 -19.5q-221 0 -369 117l-61 -88h-90zM334 383l555 797 q-42 49 -107.5 78.5t-146.5 29.5q-112 0 -191.5 -53.5t-109.5 -130.5v-721zM381 252q93 -107 254 -107q112 0 190.5 53.5t110.5 131.5v719z" />
<glyph unicode="&#xd9;" d="M147 238v1196h220v-1151q28 -57 102.5 -97.5t165.5 -40.5t165 40.5t103 97.5v1151h219v-1196q-22 -48 -59.5 -92t-95 -85t-144 -65.5t-188.5 -24.5t-188.5 24.5t-144.5 65.5t-95.5 85t-59.5 92zM424 1765v95h194l130 -283v-33h-158z" />
<glyph unicode="&#xda;" d="M147 238v1196h220v-1151q28 -57 102.5 -97.5t165.5 -40.5t165 40.5t103 97.5v1151h219v-1196q-22 -48 -59.5 -92t-95 -85t-144 -65.5t-188.5 -24.5t-188.5 24.5t-144.5 65.5t-95.5 85t-59.5 92zM557 1544v33l127 283h197v-95l-164 -221h-160z" />
<glyph unicode="&#xdb;" d="M147 238v1196h220v-1151q28 -57 102.5 -97.5t165.5 -40.5t165 40.5t103 97.5v1151h219v-1196q-22 -48 -59.5 -92t-95 -85t-144 -65.5t-188.5 -24.5t-188.5 24.5t-144.5 65.5t-95.5 85t-59.5 92zM326 1544v33l178 283h266l178 -283v-33h-141l-170 201l-170 -201h-141z" />
<glyph unicode="&#xdc;" d="M147 238v1196h220v-1151q28 -57 102.5 -97.5t165.5 -40.5t165 40.5t103 97.5v1151h219v-1196q-22 -48 -59.5 -92t-95 -85t-144 -65.5t-188.5 -24.5t-188.5 24.5t-144.5 65.5t-95.5 85t-59.5 92zM307 1614v149q43 43 117 43q42 0 73.5 -14.5t41.5 -28.5v-149 q-10 -14 -41.5 -28.5t-73.5 -14.5q-74 0 -117 43zM731 1614v149q12 15 43.5 29t73.5 14t72 -14t43 -29v-149q-13 -15 -43 -29t-72 -14t-73.5 14t-43.5 29z" />
<glyph unicode="&#xdd;" d="M127 1303v131h190l310 -576h35l309 576h172v-131l-404 -699v-604h-219v623zM594 1544v33l127 283h197v-95l-164 -221h-160z" />
<glyph unicode="&#xde;" d="M188 0v1434h220v-232h313q130 0 240 -63.5t174 -177.5v-422q-59 -107 -167 -174.5t-247 -67.5h-313v-297h-220zM408 465h264q81 0 147.5 36.5t102.5 104.5v287q-39 72 -106.5 106.5t-143.5 34.5h-264v-569z" />
<glyph unicode="&#xdf;" d="M174 0v1219q25 45 63 85t93.5 77t135 59t171.5 22q91 0 170 -22t134 -57.5t90.5 -70.5t58.5 -71v-346q-32 -43 -81.5 -80t-103.5 -57q154 -64 225 -209v-305q-62 -128 -181.5 -186t-323.5 -58v162q58 0 94.5 3.5t78 16t71.5 41t53 74.5v217q-35 78 -108.5 116t-162.5 38 v159q79 0 145.5 30t100.5 81v236q-34 58 -102.5 93.5t-157.5 35.5q-93 0 -157 -36.5t-97 -92.5v-1174h-209z" />
<glyph unicode="&#xe0;" d="M156 143v322q17 27 41 51.5t70 57.5t120 53t166 20q194 0 319 -98v268q-29 68 -96 111t-170 43q-165 0 -237 -107v-98h-191v164q13 19 28 37t53.5 50.5t82.5 56t114.5 41.5t149.5 18q81 0 152 -17.5t121 -44.5t91 -64.5t65.5 -73t41.5 -73.5v-860h-198v92 q-138 -121 -330 -121q-73 0 -137 14t-104 33t-74.5 45.5t-49.5 44t-28 35.5zM356 225q89 -96 234 -96q99 0 172 34.5t110 86.5v123q-36 51 -109.5 86t-172.5 35q-159 0 -234 -91v-178zM397 1485v94h195l129 -311v-31h-158z" />
<glyph unicode="&#xe1;" d="M156 143v322q17 27 41 51.5t70 57.5t120 53t166 20q194 0 319 -98v268q-29 68 -96 111t-170 43q-165 0 -237 -107v-98h-191v164q13 19 28 37t53.5 50.5t82.5 56t114.5 41.5t149.5 18q81 0 152 -17.5t121 -44.5t91 -64.5t65.5 -73t41.5 -73.5v-860h-198v92 q-138 -121 -330 -121q-73 0 -137 14t-104 33t-74.5 45.5t-49.5 44t-28 35.5zM356 225q89 -96 234 -96q99 0 172 34.5t110 86.5v123q-36 51 -109.5 86t-172.5 35q-159 0 -234 -91v-178zM545 1237v31l127 311h196v-94l-163 -248h-160z" />
<glyph unicode="&#xe2;" d="M156 143v322q17 27 41 51.5t70 57.5t120 53t166 20q194 0 319 -98v268q-29 68 -96 111t-170 43q-165 0 -237 -107v-98h-191v164q13 19 28 37t53.5 50.5t82.5 56t114.5 41.5t149.5 18q81 0 152 -17.5t121 -44.5t91 -64.5t65.5 -73t41.5 -73.5v-860h-198v92 q-138 -121 -330 -121q-73 0 -137 14t-104 33t-74.5 45.5t-49.5 44t-28 35.5zM322 1233v33l178 309h266l178 -309v-33h-141l-170 227l-170 -227h-141zM356 225q89 -96 234 -96q99 0 172 34.5t110 86.5v123q-36 51 -109.5 86t-172.5 35q-159 0 -234 -91v-178z" />
<glyph unicode="&#xe3;" d="M156 143v322q17 27 41 51.5t70 57.5t120 53t166 20q194 0 319 -98v268q-29 68 -96 111t-170 43q-165 0 -237 -107v-98h-191v164q13 19 28 37t53.5 50.5t82.5 56t114.5 41.5t149.5 18q81 0 152 -17.5t121 -44.5t91 -64.5t65.5 -73t41.5 -73.5v-860h-198v92 q-138 -121 -330 -121q-73 0 -137 14t-104 33t-74.5 45.5t-49.5 44t-28 35.5zM254 1247v131q11 74 68 122t145 48q49 0 91 -17t71 -41.5t54 -49t51.5 -41.5t51.5 -17q73 0 88 76v84h138v-131q-12 -74 -68.5 -121t-142.5 -47q-50 0 -92 17t-70 41.5t-52.5 49t-51 41.5 t-54.5 17q-75 0 -92 -74v-88h-135zM356 225q89 -96 234 -96q99 0 172 34.5t110 86.5v123q-36 51 -109.5 86t-172.5 35q-159 0 -234 -91v-178z" />
<glyph unicode="&#xe4;" d="M156 143v322q17 27 41 51.5t70 57.5t120 53t166 20q194 0 319 -98v268q-29 68 -96 111t-170 43q-165 0 -237 -107v-98h-191v164q13 19 28 37t53.5 50.5t82.5 56t114.5 41.5t149.5 18q81 0 152 -17.5t121 -44.5t91 -64.5t65.5 -73t41.5 -73.5v-860h-198v92 q-138 -121 -330 -121q-73 0 -137 14t-104 33t-74.5 45.5t-49.5 44t-28 35.5zM303 1341v150q43 43 117 43q42 0 73.5 -14.5t41.5 -28.5v-150q-10 -14 -41.5 -28.5t-73.5 -14.5q-74 0 -117 43zM356 225q89 -96 234 -96q99 0 172 34.5t110 86.5v123q-36 51 -109.5 86t-172.5 35 q-159 0 -234 -91v-178zM727 1341v150q12 15 43.5 29t73.5 14t71.5 -14t42.5 -29v-150q-13 -15 -42.5 -29t-71.5 -14t-73.5 14t-43.5 29z" />
<glyph unicode="&#xe5;" d="M156 143v322q17 27 41 51.5t70 57.5t120 53t166 20q194 0 319 -98v268q-29 68 -96 111t-170 43q-165 0 -237 -107v-98h-191v164q13 19 28 37t53.5 50.5t82.5 56t114.5 41.5t149.5 18q81 0 152 -17.5t121 -44.5t91 -64.5t65.5 -73t41.5 -73.5v-860h-198v92 q-138 -121 -330 -121q-73 0 -137 14t-104 33t-74.5 45.5t-49.5 44t-28 35.5zM356 225q89 -96 234 -96q99 0 172 34.5t110 86.5v123q-36 51 -109.5 86t-172.5 35q-159 0 -234 -91v-178zM389 1364v211q26 47 93 80t151 33t150 -33t94 -80v-211q-28 -48 -94 -80.5t-150 -32.5 q-85 0 -151.5 32.5t-92.5 80.5zM500 1397q13 -15 50 -30t83 -15t81.5 15t49.5 30v141q-12 18 -48 33.5t-83 15.5t-84 -15.5t-49 -33.5v-141z" />
<glyph unicode="&#xe6;" d="M70 760v110q12 39 27.5 73t43 70t61.5 61.5t84 42t109 16.5q163 0 246 -117q83 117 246 117q59 0 108.5 -16.5t82 -41t58.5 -58.5t40 -62t24 -58v-393h-469v-248q25 -123 143 -123q58 0 99.5 32t54.5 91v102h172v-151q-80 -236 -313 -236q-167 0 -254 133 q-56 -70 -122.5 -101.5t-160.5 -31.5q-61 0 -112 19.5t-83.5 51t-49 54t-29.5 47.5v301q90 183 274 183q118 0 203 -76v297q-28 123 -141 123q-111 0 -146 -123v-88h-196zM264 221q52 -94 144 -94q75 0 145 70v198q-63 82 -145 82q-98 0 -144 -90v-166zM731 647h297v201 q-13 59 -52 91t-97 32t-97 -32t-51 -91v-201z" />
<glyph unicode="&#xe7;" d="M193 244v616q21 48 56.5 92.5t90 87t135.5 68t176 25.5t175.5 -25t133 -65.5t85.5 -80t51 -79.5v-193h-191v127q-27 65 -93.5 109.5t-160.5 44.5q-95 0 -161 -44t-93 -110v-530q27 -66 93 -110t161 -44q94 0 160.5 44.5t93.5 109.5v127h191v-193q-16 -37 -47 -75t-80 -77 t-123.5 -65.5t-161.5 -30.5l-27 -96h37q66 0 111.5 -28.5t62.5 -67.5v-168q-23 -48 -79.5 -78.5t-135.5 -30.5q-122 0 -192 45l26 95q80 -37 156 -37q40 0 69.5 13.5t37.5 33.5v94q-8 18 -36.5 30.5t-66.5 12.5h-119l54 184q-80 9 -148 37t-114.5 67.5t-77.5 80.5t-49 84z " />
<glyph unicode="&#xe8;" d="M182 244v616q17 38 42.5 73.5t66.5 72.5t91 64.5t119.5 45t147.5 17.5q96 0 178.5 -25.5t136 -66t87 -79t51.5 -75.5v-383h-715v-217q29 -66 96.5 -110t165.5 -44q97 0 165 44.5t97 109.5v71h191v-141q-20 -40 -53.5 -78t-87 -78.5t-135 -65t-177.5 -24.5 q-78 0 -147.5 17.5t-119.5 45t-91 64.5t-66.5 72.5t-42.5 73.5zM387 647h524v170q-29 65 -97 109.5t-165 44.5q-98 0 -165.5 -44t-96.5 -110v-170zM453 1485v94h194l129 -311v-31h-158z" />
<glyph unicode="&#xe9;" d="M182 244v616q17 38 42.5 73.5t66.5 72.5t91 64.5t119.5 45t147.5 17.5q96 0 178.5 -25.5t136 -66t87 -79t51.5 -75.5v-383h-715v-217q29 -66 96.5 -110t165.5 -44q97 0 165 44.5t97 109.5v71h191v-141q-20 -40 -53.5 -78t-87 -78.5t-135 -65t-177.5 -24.5 q-78 0 -147.5 17.5t-119.5 45t-91 64.5t-66.5 72.5t-42.5 73.5zM387 647h524v170q-29 65 -97 109.5t-165 44.5q-98 0 -165.5 -44t-96.5 -110v-170zM588 1237v31l127 311h196v-94l-163 -248h-160z" />
<glyph unicode="&#xea;" d="M182 244v616q17 38 42.5 73.5t66.5 72.5t91 64.5t119.5 45t147.5 17.5q96 0 178.5 -25.5t136 -66t87 -79t51.5 -75.5v-383h-715v-217q29 -66 96.5 -110t165.5 -44q97 0 165 44.5t97 109.5v71h191v-141q-20 -40 -53.5 -78t-87 -78.5t-135 -65t-177.5 -24.5 q-78 0 -147.5 17.5t-119.5 45t-91 64.5t-66.5 72.5t-42.5 73.5zM352 1233v33l178 309h267l178 -309v-33h-141l-170 227l-170 -227h-142zM387 647h524v170q-29 65 -97 109.5t-165 44.5q-98 0 -165.5 -44t-96.5 -110v-170z" />
<glyph unicode="&#xeb;" d="M182 244v616q17 38 42.5 73.5t66.5 72.5t91 64.5t119.5 45t147.5 17.5q96 0 178.5 -25.5t136 -66t87 -79t51.5 -75.5v-383h-715v-217q29 -66 96.5 -110t165.5 -44q97 0 165 44.5t97 109.5v71h191v-141q-20 -40 -53.5 -78t-87 -78.5t-135 -65t-177.5 -24.5 q-78 0 -147.5 17.5t-119.5 45t-91 64.5t-66.5 72.5t-42.5 73.5zM326 1341v150q43 43 116 43q42 0 73.5 -14.5t41.5 -28.5v-150q-10 -14 -41.5 -28.5t-73.5 -14.5q-73 0 -116 43zM387 647h524v170q-29 65 -97 109.5t-165 44.5q-98 0 -165.5 -44t-96.5 -110v-170zM750 1341 v150q13 15 43.5 29t72.5 14t72 -14t43 -29v-150q-13 -15 -43 -29t-72 -14t-72.5 14t-43.5 29z" />
<glyph unicode="&#xec;" d="M193 0v154h360v796h-322v154h527v-950h360v-154h-925zM422 1485v94h194l129 -311v-31h-157z" />
<glyph unicode="&#xed;" d="M193 0v154h360v796h-322v154h527v-950h360v-154h-925zM598 1237v31l127 311h197v-94l-164 -248h-160z" />
<glyph unicode="&#xee;" d="M193 0v154h360v796h-322v154h527v-950h360v-154h-925zM354 1233v33l178 309h267l178 -309v-33h-141l-170 227l-170 -227h-142z" />
<glyph unicode="&#xef;" d="M193 0v154h360v796h-322v154h527v-950h360v-154h-925zM336 1341v150q43 43 117 43q42 0 73 -14.5t41 -28.5v-150q-10 -14 -41 -28.5t-73 -14.5q-74 0 -117 43zM760 1341v150q12 15 43.5 29t73.5 14t71.5 -14t42.5 -29v-150q-13 -15 -42.5 -29t-71.5 -14t-73.5 14 t-43.5 29z" />
<glyph unicode="&#xf0;" d="M166 244v481q17 47 49.5 91.5t81 85.5t119.5 66t153 25q182 0 310 -102v102q-31 70 -140 185l-327 -107v107l241 77q-73 62 -170 117l133 107q116 -51 238 -158l229 76v-107l-147 -49q102 -108 147 -203v-794q-21 -48 -56.5 -92.5t-90 -87t-135.5 -68t-176 -25.5 t-176 25.5t-136 68t-90.5 87t-56.5 92.5zM371 287q27 -65 93.5 -109.5t160.5 -44.5q95 0 161 44t93 110v442q-91 105 -254 105q-94 0 -160.5 -43.5t-93.5 -108.5v-395z" />
<glyph unicode="&#xf1;" d="M145 0v1104h193v-92q123 116 315 116q85 0 155 -23.5t115 -61.5t72.5 -73.5t44.5 -72.5v-897h-204v850q-27 45 -85.5 81t-148.5 36q-85 0 -150 -30t-102 -75v-862h-205zM217 1247v131q11 74 68 122t145 48q49 0 91 -17t71 -41.5t54.5 -49t52 -41.5t51.5 -17q73 0 88 76 v84h137v-131q-12 -74 -68.5 -121t-142.5 -47q-50 0 -92 17t-70 41.5t-52.5 49t-51 41.5t-54.5 17q-75 0 -92 -74v-88h-135z" />
<glyph unicode="&#xf2;" d="M176 244v616q21 48 56.5 92.5t90.5 87t136 68t176 25.5t176 -25.5t136 -68t90.5 -87t56.5 -92.5v-616q-21 -48 -56.5 -92.5t-90.5 -87t-136 -68t-176 -25.5t-176 25.5t-136 68t-90.5 87t-56.5 92.5zM381 287q27 -65 93.5 -109.5t160.5 -44.5q95 0 161 44t93 110v530 q-27 66 -93 110t-161 44q-94 0 -160.5 -44.5t-93.5 -109.5v-530zM408 1485v94h194l129 -311v-31h-158z" />
<glyph unicode="&#xf3;" d="M176 244v616q21 48 56.5 92.5t90.5 87t136 68t176 25.5t176 -25.5t136 -68t90.5 -87t56.5 -92.5v-616q-21 -48 -56.5 -92.5t-90.5 -87t-136 -68t-176 -25.5t-176 25.5t-136 68t-90.5 87t-56.5 92.5zM381 287q27 -65 93.5 -109.5t160.5 -44.5q95 0 161 44t93 110v530 q-27 66 -93 110t-161 44q-94 0 -160.5 -44.5t-93.5 -109.5v-530zM555 1237v31l127 311h197v-94l-164 -248h-160z" />
<glyph unicode="&#xf4;" d="M176 244v616q21 48 56.5 92.5t90.5 87t136 68t176 25.5t176 -25.5t136 -68t90.5 -87t56.5 -92.5v-616q-21 -48 -56.5 -92.5t-90.5 -87t-136 -68t-176 -25.5t-176 25.5t-136 68t-90.5 87t-56.5 92.5zM326 1233v33l178 309h266l178 -309v-33h-141l-170 227l-170 -227h-141z M381 287q27 -65 93.5 -109.5t160.5 -44.5q95 0 161 44t93 110v530q-27 66 -93 110t-161 44q-94 0 -160.5 -44.5t-93.5 -109.5v-530z" />
<glyph unicode="&#xf5;" d="M176 244v616q21 48 56.5 92.5t90.5 87t136 68t176 25.5t176 -25.5t136 -68t90.5 -87t56.5 -92.5v-616q-21 -48 -56.5 -92.5t-90.5 -87t-136 -68t-176 -25.5t-176 25.5t-136 68t-90.5 87t-56.5 92.5zM252 1247v131q11 74 68 122t145 48q49 0 91 -17t71 -41.5t54 -49 t51.5 -41.5t51.5 -17q73 0 88 76v84h138v-131q-12 -74 -68.5 -121t-142.5 -47q-50 0 -92 17t-70 41.5t-52.5 49t-51 41.5t-54.5 17q-75 0 -92 -74v-88h-135zM381 287q27 -65 93.5 -109.5t160.5 -44.5q95 0 161 44t93 110v530q-27 66 -93 110t-161 44q-94 0 -160.5 -44.5 t-93.5 -109.5v-530z" />
<glyph unicode="&#xf6;" d="M176 244v616q21 48 56.5 92.5t90.5 87t136 68t176 25.5t176 -25.5t136 -68t90.5 -87t56.5 -92.5v-616q-21 -48 -56.5 -92.5t-90.5 -87t-136 -68t-176 -25.5t-176 25.5t-136 68t-90.5 87t-56.5 92.5zM307 1341v150q43 43 117 43q42 0 73.5 -14.5t41.5 -28.5v-150 q-10 -14 -41.5 -28.5t-73.5 -14.5q-74 0 -117 43zM381 287q27 -65 93.5 -109.5t160.5 -44.5q95 0 161 44t93 110v530q-27 66 -93 110t-161 44q-94 0 -160.5 -44.5t-93.5 -109.5v-530zM731 1341v150q12 15 43.5 29t73.5 14t72 -14t43 -29v-150q-13 -15 -43 -29t-72 -14 t-73.5 14t-43.5 29z" />
<glyph unicode="&#xf7;" d="M113 606v168h1044v-168h-1044zM498 242v143q10 21 46.5 39t86.5 18t86.5 -18t46.5 -39v-143q-10 -22 -46.5 -40t-86.5 -18t-86.5 18t-46.5 40zM498 995v144q10 21 46.5 39t86.5 18t86.5 -18t46.5 -39v-144q-10 -22 -46 -39.5t-87 -17.5t-87 17.5t-46 39.5z" />
<glyph unicode="&#xf8;" d="M176 0v70l60 75q-41 50 -60 99v616q21 48 56.5 92.5t90.5 87t136 68t176 25.5q180 0 313 -95l53 66h93v-70l-62 -76q40 -48 62 -98v-616q-21 -48 -56.5 -92.5t-90.5 -87t-136 -68t-176 -25.5q-180 0 -313 95l-54 -66h-92zM381 326l455 569q-80 76 -201 76 q-94 0 -160.5 -44.5t-93.5 -109.5v-491zM434 207q81 -74 201 -74q95 0 161 44t93 110v489z" />
<glyph unicode="&#xf9;" d="M184 199v905h205v-850q70 -117 225 -117q160 0 244 103v864h205v-1104h-193v86q-120 -111 -307 -111q-82 0 -150 22.5t-112.5 59t-72 71t-44.5 71.5zM414 1485v94h194l129 -311v-31h-157z" />
<glyph unicode="&#xfa;" d="M184 199v905h205v-850q70 -117 225 -117q160 0 244 103v864h205v-1104h-193v86q-120 -111 -307 -111q-82 0 -150 22.5t-112.5 59t-72 71t-44.5 71.5zM549 1237v31l127 311h196v-94l-163 -248h-160z" />
<glyph unicode="&#xfb;" d="M184 199v905h205v-850q70 -117 225 -117q160 0 244 103v864h205v-1104h-193v86q-120 -111 -307 -111q-82 0 -150 22.5t-112.5 59t-72 71t-44.5 71.5zM319 1233v33l179 309h266l178 -309v-33h-141l-170 227l-170 -227h-142z" />
<glyph unicode="&#xfc;" d="M184 199v905h205v-850q70 -117 225 -117q160 0 244 103v864h205v-1104h-193v86q-120 -111 -307 -111q-82 0 -150 22.5t-112.5 59t-72 71t-44.5 71.5zM297 1341v150q43 43 117 43q42 0 73 -14.5t41 -28.5v-150q-10 -14 -41 -28.5t-73 -14.5q-74 0 -117 43zM721 1341v150 q12 15 43.5 29t73.5 14t71.5 -14t42.5 -29v-150q-13 -15 -42.5 -29t-71.5 -14t-73.5 14t-43.5 29z" />
<glyph unicode="&#xfd;" d="M168 981v123h184l279 -828h28l273 828h168v-119l-412 -1178q-55 -69 -157 -112t-220 -43q-81 0 -139 14v148q62 -4 100 -4q77 0 140.5 25t101.5 63l31 96zM563 1237v31l127 311h197v-94l-164 -248h-160z" />
<glyph unicode="&#xfe;" d="M207 -330v1764h205v-416q122 110 303 110q85 0 155 -23.5t115 -61.5t72.5 -73.5t44.5 -72.5v-690q-13 -29 -32 -57t-52.5 -61t-74 -57t-100 -40.5t-128.5 -16.5q-178 0 -303 105v-410h-205zM412 242q37 -45 102 -75t150 -30q90 0 149.5 36.5t83.5 80.5v596q-27 45 -85 81 t-148 36q-85 0 -150 -30t-102 -75v-620z" />
<glyph unicode="&#xff;" d="M168 981v123h184l279 -828h28l273 828h168v-119l-412 -1178q-55 -69 -157 -112t-220 -43q-81 0 -139 14v148q62 -4 100 -4q77 0 140.5 25t101.5 63l31 96zM324 1341v150q43 43 116 43q42 0 73.5 -14.5t41.5 -28.5v-150q-10 -14 -41.5 -28.5t-73.5 -14.5q-73 0 -116 43z M748 1341v150q13 15 43.5 29t72.5 14t72 -14t43 -29v-150q-13 -15 -43 -29t-72 -14t-72.5 14t-43.5 29z" />
<glyph unicode="&#x152;" d="M78 285v866q18 44 42.5 83.5t65 80.5t90.5 70.5t122.5 48t156.5 18.5q80 0 168 -18h479v-168h-393v-445h362v-168h-362v-485h408v-168h-492q-77 -18 -170 -18q-84 0 -156.5 18.5t-122.5 48t-90.5 71t-65 81t-42.5 84.5zM276 330q29 -76 102 -125t177 -49q43 0 63 4v1114 q-30 6 -63 6q-104 0 -177 -49t-102 -125v-776z" />
<glyph unicode="&#x153;" d="M70 233v637q12 39 27.5 73t43 70t61.5 61.5t84 42t109 16.5q160 0 246 -132q86 132 246 132q59 0 108.5 -16.5t82 -41t58.5 -58.5t40 -62t24 -58v-393h-469v-248q28 -123 143 -123q58 0 99.5 32t54.5 91v102h172v-151q-80 -236 -313 -236q-162 0 -246 129 q-84 -129 -246 -129q-73 0 -131.5 23.5t-95.5 64.5t-60 83t-38 91zM266 256q35 -123 146 -123q113 0 141 123v592q-28 123 -141 123q-111 0 -146 -123v-592zM731 647h297v201q-13 59 -52 91t-97 32t-97 -32t-51 -91v-201z" />
<glyph unicode="&#x178;" d="M127 1303v131h190l310 -576h35l309 576h172v-131l-404 -699v-604h-219v623zM309 1614v149q43 43 117 43q42 0 73.5 -14.5t41.5 -28.5v-149q-10 -14 -41.5 -28.5t-73.5 -14.5q-74 0 -117 43zM733 1614v149q12 15 43.5 29t73.5 14t72 -14t43 -29v-149q-13 -15 -43 -29 t-72 -14t-73.5 14t-43.5 29z" />
<glyph unicode="&#x2c6;" d="M324 1233v33l178 309h266l178 -309v-33h-141l-170 227l-170 -227h-141z" />
<glyph unicode="&#x2dc;" d="M256 1247v131q11 74 68 122t145 48q49 0 91 -17t71 -41.5t54 -49t51.5 -41.5t51.5 -17q74 0 89 76v84h137v-131q-12 -74 -68.5 -121t-142.5 -47q-50 0 -92 17t-70 41.5t-52.5 49t-51 41.5t-54.5 17q-75 0 -92 -74v-88h-135z" />
<glyph unicode="&#x2000;" horiz-adv-x="935" />
<glyph unicode="&#x2001;" horiz-adv-x="1870" />
<glyph unicode="&#x2002;" horiz-adv-x="935" />
<glyph unicode="&#x2003;" horiz-adv-x="1870" />
<glyph unicode="&#x2004;" horiz-adv-x="623" />
<glyph unicode="&#x2005;" horiz-adv-x="467" />
<glyph unicode="&#x2006;" horiz-adv-x="311" />
<glyph unicode="&#x2007;" horiz-adv-x="311" />
<glyph unicode="&#x2008;" horiz-adv-x="233" />
<glyph unicode="&#x2009;" horiz-adv-x="374" />
<glyph unicode="&#x200a;" horiz-adv-x="103" />
<glyph unicode="&#x2010;" d="M266 606v168h738v-168h-738z" />
<glyph unicode="&#x2011;" d="M266 606v168h738v-168h-738z" />
<glyph unicode="&#x2012;" d="M266 606v168h738v-168h-738z" />
<glyph unicode="&#x2013;" d="M123 606v168h1024v-168h-1024z" />
<glyph unicode="&#x2014;" d="M20 606v168h1229v-168h-1229z" />
<glyph unicode="&#x2018;" d="M502 1008v319q9 31 61 69t113 38h72v-103h-62q-12 0 -28 -10t-23 -23v-90q52 0 87 -17.5t46 -39.5v-143q-10 -22 -47.5 -40t-85.5 -18t-85.5 18t-47.5 40z" />
<glyph unicode="&#x2019;" d="M502 1257v144q10 22 47.5 39.5t85.5 17.5t85.5 -17.5t47.5 -39.5v-320q-9 -31 -61 -68.5t-113 -37.5h-72v102h62q12 0 28 10t23 23v90q-52 0 -87.5 17.5t-45.5 39.5z" />
<glyph unicode="&#x201a;" d="M502 39v143q10 22 47.5 40t85.5 18t85.5 -18t47.5 -40v-319q-9 -31 -61 -69t-113 -38h-72v103h62q12 0 28 9.5t23 22.5v91q-52 0 -87.5 17.5t-45.5 39.5z" />
<glyph unicode="&#x201c;" d="M285 1008v319q9 31 61 69t113 38h71v-103h-61q-12 0 -28 -10t-23 -23v-90q52 0 87.5 -17.5t45.5 -39.5v-143q-10 -22 -47.5 -40t-85.5 -18t-85.5 18t-47.5 40zM719 1008v319q9 31 61 69t113 38h72v-103h-62q-12 0 -28 -10t-23 -23v-90q52 0 87 -17.5t46 -39.5v-143 q-10 -22 -47.5 -40t-85.5 -18t-85.5 18t-47.5 40z" />
<glyph unicode="&#x201d;" d="M285 1257v144q10 22 47.5 39.5t85.5 17.5t85.5 -17.5t47.5 -39.5v-320q-9 -31 -61 -68.5t-113 -37.5h-72v102h62q12 0 28 10t23 23v90q-52 0 -87 17.5t-46 39.5zM719 1257v144q10 22 47.5 39.5t85.5 17.5t85.5 -17.5t47.5 -39.5v-320q-9 -31 -61 -68.5t-113 -37.5h-72 v102h62q12 0 28 10t23 23v90q-52 0 -87 17.5t-46 39.5z" />
<glyph unicode="&#x201e;" d="M285 39v143q10 22 47.5 40t85.5 18t85.5 -18t47.5 -40v-319q-9 -31 -61 -69t-113 -38h-72v103h62q12 0 28 9.5t23 22.5v91q-52 0 -87 17.5t-46 39.5zM719 39v143q10 22 47.5 40t85.5 18t85.5 -18t47.5 -40v-319q-9 -31 -61 -69t-113 -38h-72v103h62q12 0 28 9.5t23 22.5 v91q-52 0 -87 17.5t-46 39.5z" />
<glyph unicode="&#x2022;" d="M420 608v234q28 43 85.5 72.5t129.5 29.5t128 -28.5t87 -73.5v-236q-31 -47 -87 -76.5t-128 -29.5q-73 0 -130 31t-85 77z" />
<glyph unicode="&#x2026;" d="M94 39v143q10 22 46.5 40t86.5 18t86.5 -18t46.5 -40v-143q-10 -22 -46 -39.5t-87 -17.5t-87 17.5t-46 39.5zM502 39v143q10 22 46.5 40t86.5 18t86.5 -18t46.5 -40v-143q-10 -22 -46 -39.5t-87 -17.5t-87 17.5t-46 39.5zM909 39v143q10 22 46.5 40t86.5 18t87 -18.5 t47 -39.5v-143q-10 -22 -46.5 -39.5t-87.5 -17.5t-87 17.5t-46 39.5z" />
<glyph unicode="&#x202f;" horiz-adv-x="374" />
<glyph unicode="&#x2039;" d="M274 524v154l574 426h147v-111l-536 -393l536 -391v-111h-147z" />
<glyph unicode="&#x203a;" d="M274 98v111l537 391l-537 393v111h148l573 -426v-154l-573 -426h-148z" />
<glyph unicode="&#x205f;" horiz-adv-x="467" />
<glyph unicode="&#x20ac;" d="M86 545v110h121v152h-121v111h121v276q20 45 59 90t97 86t142.5 66.5t180.5 25.5q95 0 178.5 -25t140 -64.5t93 -78.5t55.5 -77v-168h-197v96q-26 64 -99.5 108.5t-170.5 44.5q-96 0 -169 -44.5t-101 -108.5v-227h522l-14 -111h-508v-152h485l-14 -110h-471v-254 q28 -64 101 -109t169 -45q97 0 170.5 45t99.5 109v94h197v-166q-18 -37 -54.5 -77t-93 -80t-140.5 -65.5t-179 -25.5q-96 0 -180.5 25.5t-142.5 67t-97 87t-59 91.5v303h-121z" />
<glyph unicode="&#x2122;" d="M74 1323v111h409v-111h-137v-688h-135v688h-137zM541 635v799h196l117 -562h18l115 562h191v-799h-129v596h-17l-127 -596h-92l-129 596h-16v-596h-127z" />
<glyph unicode="&#x25fc;" horiz-adv-x="1105" d="M0 0v1106h1106v-1106h-1106z" />
</font>
</defs>
</svg>
