<?xml version="1.0" standalone="no"?>
<!DOCTYPE svg PUBLIC "-//W3C//DTD SVG 1.1//EN" "http://www.w3.org/Graphics/SVG/1.1/DTD/svg11.dtd" >
<svg xmlns="http://www.w3.org/2000/svg">
<metadata></metadata>
<defs>
<font id="trim_monosemibold" horiz-adv-x="1269" >
<font-face units-per-em="2048" ascent="1536" descent="-512" />
<missing-glyph horiz-adv-x="500" />
<glyph unicode="&#xfb01;" horiz-adv-x="2539" d="M184 0v223h240v664h-240v223h240v188q18 37 49 68.5t84 61.5t138 47.5t194 17.5q132 0 223 -25v-211q-45 5 -111 5q-209 0 -268 -66v-86h379v-223h-379v-664h379v-223h-928zM1421 0v223h342v664h-299v223h609v-887h337v-223h-989zM1735 1341v152q15 33 63.5 58.5 t112.5 25.5q66 0 115.5 -26t64.5 -58v-152q-15 -33 -64 -58.5t-116 -25.5q-65 0 -113 25.5t-63 58.5z" />
<glyph unicode="&#xfb02;" horiz-adv-x="2539" d="M184 0v223h240v664h-240v223h240v188q18 37 49 68.5t84 61.5t138 47.5t194 17.5q132 0 223 -25v-211q-45 5 -111 5q-209 0 -268 -66v-86h379v-223h-379v-664h379v-223h-928zM1427 0v223h340v987h-297v224h607v-1211h338v-223h-988z" />
<glyph />
<glyph />
<glyph horiz-adv-x="682" />
<glyph unicode="&#xd;" />
<glyph unicode=" " />
<glyph unicode="!" d="M453 61v179q15 31 66 57.5t116 26.5q67 0 117 -26t65 -58v-179q-15 -33 -65 -59.5t-117 -26.5q-66 0 -116.5 26.5t-65.5 59.5zM461 1135v299h348v-299l-39 -666h-270z" />
<glyph unicode="&#x22;" d="M256 1090v344h276v-342l-38 -318h-199zM737 1090v344h277v-342l-39 -318h-197z" />
<glyph unicode="#" d="M76 387v221h143l39 226h-111v223h146l59 377h217v-164l-34 -213h239l62 377h217v-164l-35 -213h110v-223h-145l-37 -226h113v-221h-148l-61 -387h-217v164l35 223h-240l-61 -387h-217v164l34 223h-108zM463 608h239l37 226h-239z" />
<glyph unicode="$" d="M121 242v219h319v-148q22 -39 71 -69.5t124 -30.5t125.5 31t68.5 69v176q-21 39 -52 62.5t-105 40.5l-105 24q-110 26 -191.5 57.5t-131 66t-77 65.5t-46.5 67v320q15 31 42.5 65.5t73 74.5t116.5 73t155 47v170h254v-170q67 -12 127 -36t101 -52t75 -61.5t53 -60 t31 -50.5v-205h-320v133q-17 38 -68 70.5t-126 32.5q-74 0 -125 -32.5t-70 -70.5v-141q15 -34 49 -59.5t111 -42.5l102 -23q110 -24 191.5 -55.5t131 -67t77 -66.5t47.5 -69v-354q-17 -33 -45.5 -68t-74 -75t-115.5 -71.5t-152 -45.5v-170h-254v170q-82 14 -152 45.5 t-115.5 71.5t-74 75t-45.5 68z" />
<glyph unicode="%" d="M55 0v143l291 371h150v-141l-289 -373h-152zM55 850v414q24 76 102.5 133t194.5 57t194.5 -57t102.5 -133v-414q-24 -74 -102.5 -130t-194.5 -56t-194.5 56t-102.5 130zM262 881q6 -24 31 -41t59 -17t59 17t31 41v352q-6 24 -31 41.5t-59 17.5t-59 -17.5t-31 -41.5v-352z M621 172v416q26 75 105 131.5t194 56.5q114 0 192.5 -57t101.5 -131v-416q-23 -74 -101 -130t-193 -56t-194 55.5t-105 130.5zM774 920v141l291 373h149v-144l-288 -370h-152zM827 205q6 -24 32.5 -42t60.5 -18q32 0 57 18t31 42v350q-6 26 -30.5 43.5t-57.5 17.5t-60 -18 t-33 -43v-350z" />
<glyph unicode="&#x26;" d="M76 248v315q56 119 166 185q-102 51 -156 137v315q19 42 54 83.5t90.5 84.5t140.5 69.5t184 26.5t183 -26.5t139 -69t90 -84t55 -84.5v-149h-309v94q-17 33 -59 58.5t-99 25.5t-100 -26.5t-60 -59.5v-213q17 -30 60 -54t100 -24h158v94h309v-94h215v-229h-215v-353 q44 -63 149 -63q50 0 66 4v-211q-77 -25 -180 -25q-137 0 -234 62q-122 -68 -268 -68q-81 0 -153 17.5t-123.5 45.5t-93 65.5t-67.5 74.5t-42 76zM385 305q46 -100 170 -100q51 0 92.5 21t65.5 57v340h-158q-60 0 -106 -29.5t-64 -73.5v-215z" />
<glyph unicode="'" d="M492 1090v344h286v-342l-39 -318h-207z" />
<glyph unicode="(" d="M346 -4v1098q24 64 67.5 121.5t109.5 108t164 80.5t214 30h21v-224h-21q-55 0 -94.5 -19t-62 -54.5t-34 -68.5t-20.5 -79v-878q7 -38 14.5 -65.5t23.5 -61.5t37 -55t56 -35.5t80 -14.5h21v-223h-21q-116 0 -214 30t-164 80.5t-109.5 108t-67.5 121.5z" />
<glyph unicode=")" d="M346 -121h21q45 0 80 14.5t56 35.5t37 55t23.5 61.5t14.5 65.5v878q-9 46 -20.5 79t-34 68.5t-62 54.5t-94.5 19h-21v224h21q116 0 214 -30t164 -80.5t109.5 -108t67.5 -121.5v-1098q-24 -64 -67.5 -121.5t-109.5 -108t-164 -80.5t-214 -30h-21v223z" />
<glyph unicode="*" d="M178 983q0 59 24 117.5t64 93.5l283 -143l-49 311q55 31 135 31q82 0 135 -31l-49 -311l278 143q41 -33 67 -95t26 -118q0 -19 -7 -43l-313 -51l225 -225q-23 -61 -87.5 -107.5t-131.5 -52.5l-143 278l-143 -278q-67 6 -132 52.5t-88 107.5l224 225l-314 51q-4 28 -4 45z " />
<glyph unicode="+" d="M98 561v248h410v405h250v-405h413v-248h-413v-407h-250v407h-410z" />
<glyph unicode="," d="M453 61v179q15 31 65.5 57.5t114.5 26.5q67 0 118 -26.5t66 -57.5v-359q-15 -47 -84.5 -99t-154.5 -52h-97v145h80q20 0 41.5 13t30.5 34v53q-66 0 -115 27t-65 59z" />
<glyph unicode="-" d="M246 561v248h778v-248h-778z" />
<glyph unicode="." d="M453 61v179q15 31 66 57.5t116 26.5q67 0 117 -26t65 -58v-179q-15 -33 -65 -59.5t-117 -26.5q-66 0 -116.5 26.5t-65.5 59.5z" />
<glyph unicode="/" d="M160 -20l717 1558h233v-164l-717 -1558h-233v164z" />
<glyph unicode="0" d="M106 244v946q22 45 64.5 90t106.5 88t158 69.5t200 26.5q86 0 164.5 -18t136 -46.5t104.5 -65.5t76.5 -73t46.5 -71v-946q-22 -45 -64.5 -90t-106.5 -88.5t-157.5 -70t-199.5 -26.5t-199.5 26.5t-157.5 69.5t-107 88.5t-65 90.5zM428 561l383 598q-66 62 -176 62 q-72 0 -129 -29.5t-78 -71.5v-559zM453 279q66 -66 182 -66q74 0 130.5 29t76.5 71v572z" />
<glyph unicode="1" d="M195 0v211h307v960l-307 -41v207l358 97h270v-1223h289v-211h-917z" />
<glyph unicode="2" d="M131 0v238l565 546q104 101 111 127v209q-18 42 -70 71.5t-121 29.5q-64 0 -112.5 -26.5t-69.5 -61.5v-189h-295v299q16 23 38 47.5t65 57t93 57t124 42t157 17.5q104 0 195 -26.5t152.5 -69.5t102 -87t62.5 -89v-354q-24 -56 -141 -164l-428 -402v-16h576v-256h-1004z " />
<glyph unicode="3" d="M131 205v229h297v-121q18 -41 70 -70.5t118 -29.5q68 0 119.5 29.5t71.5 70.5v193q-18 49 -69.5 83t-119.5 34h-184v229h176q63 0 113 30t70 66v185q-19 35 -68.5 61.5t-114.5 26.5q-66 0 -115.5 -27t-66.5 -61v-119h-297v229q18 29 52.5 61.5t91.5 71t145.5 63.5 t189.5 25q102 0 192.5 -26.5t151 -68t100.5 -83.5t60 -82v-301q-20 -36 -75 -79t-126 -74q75 -33 132.5 -85.5t82.5 -103.5v-317q-21 -44 -61.5 -88.5t-102.5 -88t-153 -71t-195 -27.5q-102 0 -191 26t-147 66t-93.5 76t-53.5 68z" />
<glyph unicode="4" d="M76 299v240l502 895h473v-887h155v-248h-155v-299h-308v299h-667zM373 547h370v598h-34z" />
<glyph unicode="5" d="M154 205v215h295v-107q22 -41 73.5 -70.5t118.5 -29.5q66 0 118 29t70 71v297q-19 43 -69.5 73t-118.5 30q-155 0 -178 -115h-295v836h950v-258h-655v-334q117 94 282 94q138 0 240 -65.5t141 -153.5v-512q-16 -27 -40.5 -54.5t-67.5 -61t-94.5 -59.5t-126 -43.5 t-156.5 -17.5q-83 0 -157.5 17.5t-125.5 43t-95 59.5t-68 61.5t-41 54.5z" />
<glyph unicode="6" d="M143 244v948q18 36 46.5 72t74 72.5t101 64.5t131 45.5t159.5 17.5q82 0 156.5 -17.5t126 -42.5t95 -58.5t68 -61.5t40.5 -55v-209h-295v100q-18 42 -71.5 72.5t-119.5 30.5q-67 0 -118.5 -30t-71.5 -73v-329q121 106 291 106q142 0 243 -64t142 -155v-473 q-18 -32 -54 -68t-94.5 -76t-147.5 -66t-190 -26q-84 0 -160 18t-131 46.5t-101 66t-74.5 73t-45.5 71.5zM465 313q20 -41 71.5 -70.5t118.5 -29.5q66 0 119.5 30t71.5 70v262q-18 40 -72 68.5t-123 28.5q-104 0 -186 -66v-293z" />
<glyph unicode="7" d="M131 1176v258h999v-234l-534 -1200h-272v184l483 961v31h-676z" />
<glyph unicode="8" d="M123 244v301q24 51 73 102.5t121 91.5q-105 58 -161 144v360q16 23 38 47t65.5 57t93 57.5t124 42t156.5 17.5q83 0 158.5 -18t125.5 -42.5t93.5 -58t65 -56.5t38.5 -46v-360q-67 -90 -164 -144q133 -72 195 -194v-301q-21 -45 -61.5 -90.5t-102.5 -88.5t-153 -69.5 t-195 -26.5q-103 0 -193.5 27t-152 69.5t-102.5 88t-62 90.5zM444 313q18 -41 70.5 -70.5t118.5 -29.5q68 0 120 29.5t72 70.5v219q-20 43 -72 74t-120 31q-66 0 -118.5 -31.5t-70.5 -73.5v-219zM451 926q22 -34 70.5 -61t111.5 -27q66 0 115 27t69 61v209q-20 34 -69 61 t-115 27q-63 0 -111.5 -27t-70.5 -61v-209z" />
<glyph unicode="9" d="M129 205v194h297v-86q18 -41 70 -70.5t118 -29.5q68 0 120.5 29.5t72.5 70.5v310q-123 -105 -289 -105q-144 0 -246 64t-143 155v492q15 25 39 52.5t67.5 61t95 59.5t126.5 44t157 18q104 0 195 -26.5t153 -69t102.5 -87t61.5 -89.5v-948q-22 -47 -63 -92t-102.5 -88 t-152 -69t-194.5 -26q-102 0 -189.5 25t-145.5 64.5t-93.5 75.5t-56.5 71zM426 840q18 -42 71 -70.5t124 -28.5q104 0 186 66v313q-20 43 -72.5 73t-120.5 30q-66 0 -118 -30.5t-70 -72.5v-280z" />
<glyph unicode=":" d="M453 61v179q15 31 66 57.5t116 26.5q67 0 117 -26t65 -58v-179q-15 -33 -65 -59.5t-117 -26.5q-66 0 -116.5 26.5t-65.5 59.5zM453 729v178q15 31 66 57.5t116 26.5q67 0 117 -26t65 -58v-178q-15 -33 -65 -59.5t-117 -26.5q-66 0 -116.5 26.5t-65.5 59.5z" />
<glyph unicode=";" d="M453 61v179q15 31 65.5 57.5t114.5 26.5q67 0 118 -26.5t66 -57.5v-359q-15 -47 -84.5 -99t-154.5 -52h-97v145h80q20 0 41.5 13t30.5 34v53q-66 0 -115 27t-65 59zM453 729v178q15 31 66 57.5t116 26.5q67 0 117 -26t65 -58v-178q-15 -33 -65 -59.5t-117 -26.5 q-66 0 -116.5 26.5t-65.5 59.5z" />
<glyph unicode="&#x3c;" d="M82 496v219l881 395h225v-168l-791 -338l791 -336v-168h-225z" />
<glyph unicode="=" d="M98 342v248h1073v-248h-1073zM98 780v248h1073v-248h-1073z" />
<glyph unicode="&#x3e;" d="M82 100v168l790 336l-790 338v168h225l881 -395v-219l-881 -396h-225z" />
<glyph unicode="?" d="M133 981v264q21 28 47 54.5t70.5 57.5t95 53.5t123 38t152.5 15.5q88 0 166 -18t131.5 -44.5t99.5 -63.5t72.5 -68t46.5 -64v-329q-22 -48 -160 -142l-277 -186v-96h-315v217l285 194q65 44 99 70t46 47v137q-25 40 -76 66t-118 26q-66 0 -116.5 -25.5t-76.5 -66.5v-137 h-295zM358 61v179q15 31 66.5 57.5t116.5 26.5q67 0 117 -26t65 -58v-179q-15 -33 -65 -59.5t-117 -26.5q-66 0 -117 27t-66 59z" />
<glyph unicode="@" d="M96 104v869q15 70 59 140.5t111.5 131t164.5 98t206 37.5q108 0 204.5 -37.5t163 -98t110.5 -131t59 -140.5v-815h-195v86q-110 -88 -250 -88q-68 0 -125.5 18t-95 48t-57.5 51.5t-35 45.5v369q16 26 37 50t59 55t96 50t127 19q128 0 244 -82v154q-29 119 -115 193.5 t-229 74.5t-228.5 -74.5t-115.5 -193.5v-791q30 -116 113 -189t229 -83v-176q-104 0 -199.5 38t-163.5 98t-113.5 131.5t-60.5 141.5zM621 414q19 -31 58.5 -55.5t98.5 -24.5q113 0 201 67v220q-92 67 -201 67q-104 0 -157 -74v-200z" />
<glyph unicode="A" d="M86 0v184l305 1250h486l307 -1250v-184h-301l-82 383h-365l-84 -383h-266zM489 631h261l-109 514h-37z" />
<glyph unicode="B" d="M154 0v1434h567q145 0 251 -72t158 -172v-299q-21 -38 -64.5 -81t-86.5 -67q45 -23 91.5 -63t74.5 -84v-350q-54 -101 -164.5 -173.5t-259.5 -72.5h-567zM487 242h162q135 0 189 100v186q-22 41 -72 68t-107 27h-172v-381zM487 846h172q51 0 95 25.5t71 68.5v154 q-24 46 -69.5 72t-106.5 26h-162v-346z" />
<glyph unicode="C" d="M102 283v868q25 55 66 106t105 99.5t161 78t213 29.5q92 0 173 -19.5t137 -49.5t102.5 -70t73.5 -75t45 -72v-304h-320v213q-22 52 -77.5 87.5t-133.5 35.5q-79 0 -134 -35t-77 -88v-741q22 -52 77.5 -87.5t133.5 -35.5q79 0 133 34.5t78 88.5v234h320v-324 q-18 -37 -45 -72.5t-73 -76t-102 -70t-137 -49t-174 -19.5t-175 20t-140 51.5t-105.5 74t-76.5 83.5t-48 85z" />
<glyph unicode="D" d="M150 0v1434h534q95 0 177 -24.5t139.5 -67t97 -90t63.5 -101.5v-868q-24 -54 -63.5 -101.5t-97 -90t-139.5 -67t-177 -24.5h-534zM483 246h133q80 0 135 32t76 82v713q-22 50 -77 82.5t-134 32.5h-133v-942z" />
<glyph unicode="E" d="M193 0v1434h921v-246h-588v-330h549v-250h-549v-362h602v-246h-935z" />
<glyph unicode="F" d="M203 0v1434h909v-246h-575v-342h540v-246h-540v-600h-334z" />
<glyph unicode="G" d="M109 283v868q25 55 65.5 106t103.5 99.5t158.5 78t208.5 29.5q91 0 170.5 -19.5t134 -49.5t100 -70.5t72 -75.5t45.5 -73v-228h-319v139q-24 54 -76 88.5t-127 34.5t-126.5 -34.5t-76.5 -88.5v-741q22 -51 77 -87t130 -36q146 0 209 115v209h-199v241h508v-528 q-20 -39 -46 -74.5t-71.5 -76.5t-99.5 -70.5t-134 -49.5t-171 -20q-113 0 -208 29.5t-158.5 78.5t-104.5 100t-65 106z" />
<glyph unicode="H" d="M127 0v1434h334v-572h348v572h334v-1434h-334v614h-348v-614h-334z" />
<glyph unicode="I" d="M160 0v246h309v942h-309v246h948v-246h-305v-942h305v-246h-948z" />
<glyph unicode="J" d="M207 0v254q40 -4 110 -4q135 0 240 33t145 86v819h-495v246h829v-1153q-77 -125 -257 -205t-457 -80q-75 0 -115 4z" />
<glyph unicode="K" d="M156 0v1434h333v-502h31l393 502h248v-185l-375 -442l385 -623v-184h-268l-336 563l-78 -98v-465h-333z" />
<glyph unicode="L" d="M211 0v1434h334v-1188h600v-246h-934z" />
<glyph unicode="M" d="M88 0v1434h414l127 -492h28l119 492h406v-1434h-312v948h-28l-137 -497h-142l-135 497h-31v-948h-309z" />
<glyph unicode="N" d="M117 0v1434h370l322 -873h35v873h309v-1434h-371l-321 872h-35v-872h-309z" />
<glyph unicode="O" d="M90 283v868q24 55 65.5 106t106 99.5t161.5 78t212 29.5t212 -29.5t161.5 -78t106 -99.5t65.5 -106v-868q-19 -44 -48 -85t-76.5 -83.5t-105.5 -74t-140 -51.5t-175 -20t-175 20t-140 51.5t-105.5 74t-76.5 83.5t-48 85zM424 346q22 -52 77.5 -87.5t133.5 -35.5 t133.5 35.5t77.5 87.5v741q-22 52 -77.5 87.5t-133.5 35.5t-133.5 -35.5t-77.5 -87.5v-741z" />
<glyph unicode="P" d="M145 0v1434h582q137 0 251 -63.5t181 -180.5v-451q-58 -106 -170 -174.5t-262 -68.5h-248v-496h-334zM479 741h174q61 0 110 26t75 73v247q-26 50 -76.5 75.5t-108.5 25.5h-174v-447z" />
<glyph unicode="Q" d="M90 283v868q24 55 65.5 106t106 99.5t161.5 78t212 29.5t212 -29.5t161.5 -78t106 -99.5t65.5 -106v-868q-34 -78 -101.5 -148t-171.5 -112q26 -43 68 -70t82 -27h133v-231h-166q-113 0 -226 78.5t-165 195.5q-93 1 -174.5 21t-139 51.5t-105 73.5t-76.5 83t-48 85z M424 346q22 -52 77.5 -87.5t133.5 -35.5t133.5 35.5t77.5 87.5v741q-22 52 -77.5 87.5t-133.5 35.5t-133.5 -35.5t-77.5 -87.5v-741z" />
<glyph unicode="R" d="M141 0v1434h594q136 0 249 -64t179 -180v-420q-82 -147 -233 -205l250 -381v-184h-262l-306 526h-137v-526h-334zM475 760h184q134 0 189 96v231q-26 47 -76 74t-113 27h-184v-428z" />
<glyph unicode="S" d="M111 242v219h317v-125q25 -47 77.5 -80t129.5 -33q76 0 129 33t78 80v143q-20 36 -58.5 60.5t-113.5 42.5l-105 24q-111 26 -192.5 56.5t-132 64.5t-79.5 65.5t-50 69.5v330q19 33 43.5 65t70.5 71t100.5 68t136 48.5t173.5 19.5t173 -20t135.5 -48.5t100.5 -68 t70.5 -70.5t42.5 -63v-207h-315v111q-25 47 -78 79.5t-129 32.5q-77 0 -130.5 -33t-76.5 -79v-117q20 -35 57.5 -57.5t116.5 -42.5l107 -27q142 -36 238 -81.5t138.5 -85t71.5 -89.5v-358q-18 -33 -43.5 -65.5t-71 -71t-100 -67t-135 -48t-172.5 -19.5t-173.5 19.5 t-136 48.5t-100 68t-70.5 71t-44 66z" />
<glyph unicode="T" d="M80 1188v246h1108v-246h-385v-1188h-334v1188h-389z" />
<glyph unicode="U" d="M121 242v1192h334v-1108q18 -44 67.5 -73.5t112.5 -29.5q62 0 110.5 29t69.5 74v1108h334v-1192q-19 -40 -48.5 -77t-75 -73.5t-100.5 -63t-130 -43t-160 -16.5t-160 16.5t-130 43t-100.5 63t-75 73.5t-48.5 77z" />
<glyph unicode="V" d="M70 1249v185h319l240 -1063h37l245 1063h287v-185l-332 -1249h-463z" />
<glyph unicode="W" d="M53 1249v185h293l43 -1004h31l96 526h236l98 -526h31l41 1004h295v-185l-115 -1249h-371l-92 444h-29l-88 -444h-354z" />
<glyph unicode="X" d="M94 0v184l324 533l-324 532v185h299l234 -476h39l239 476h269v-185l-324 -532l324 -533v-184h-297l-234 475h-37l-241 -475h-271z" />
<glyph unicode="Y" d="M96 1249v185h299l234 -494h39l235 494h271v-185l-381 -686v-563h-334v596z" />
<glyph unicode="Z" d="M135 0v209l578 944v35h-568v246h988v-209l-578 -944v-35h578v-246h-998z" />
<glyph unicode="[" d="M354 -344v1778h643v-224h-309v-1331h309v-223h-643z" />
<glyph unicode="\" d="M160 1374v164h233l717 -1558v-164h-233z" />
<glyph unicode="]" d="M272 -121h310v1331h-310v224h643v-1778h-643v223z" />
<glyph unicode="^" d="M197 700v181l295 553h286l293 -553v-181h-199l-219 426h-37l-219 -426h-200z" />
<glyph unicode="_" d="M10 -106h1250v-197h-1250v197z" />
<glyph unicode="`" d="M430 1448v133h301l109 -315v-31h-246z" />
<glyph unicode="a" d="M127 141v332q11 21 28 42.5t49.5 49t72.5 48t99.5 35t127.5 14.5q185 0 303 -93v236q-54 102 -195 102q-69 0 -112.5 -23.5t-63.5 -52.5v-79h-286v176q15 21 32 41t58.5 54t88.5 58.5t122.5 43t160.5 18.5q108 0 198 -26.5t149 -70t97 -88.5t60 -94v-864h-299v80 q-131 -111 -315 -111q-83 0 -153 19t-114 48t-70 55t-38 50zM430 244q20 -25 63.5 -47.5t110.5 -22.5q140 0 203 78v125q-29 34 -81.5 56t-121.5 22q-67 0 -111.5 -21t-62.5 -45v-145z" />
<glyph unicode="b" d="M158 0v1434h311v-406q116 107 283 107q78 0 144.5 -24.5t110.5 -64.5t72 -80.5t43 -82.5v-654q-15 -42 -43 -82.5t-72 -80.5t-110.5 -64.5t-144.5 -24.5q-178 0 -295 117v-94h-299zM469 279q64 -68 176 -68q65 0 109 26.5t59 57.5v522q-17 31 -60 56.5t-108 25.5 q-115 0 -176 -65v-555z" />
<glyph unicode="c" d="M160 248v614q17 38 42.5 74.5t68 75t95 67t126 46.5t157.5 18q82 0 155 -18t122.5 -44.5t90.5 -61t63 -63t36 -55.5v-227h-285v131q-20 43 -68.5 72.5t-113.5 29.5q-67 0 -114 -29.5t-66 -72.5v-500q19 -42 66.5 -71t113.5 -29q65 0 113.5 29t68.5 71v131h285v-227 q-13 -26 -35 -54t-62.5 -62.5t-90.5 -61t-123.5 -44.5t-155.5 -18q-103 0 -190.5 26.5t-145.5 70t-95 89t-58 93.5z" />
<glyph unicode="d" d="M145 229v654q15 42 43.5 82.5t72 80.5t110.5 64.5t145 24.5q167 0 283 -107v406h311v-1434h-299v96q-115 -119 -295 -119q-78 0 -145 24.5t-110.5 64.5t-72 80.5t-43.5 82.5zM455 295q17 -32 60 -58t108 -26q115 0 176 68v552q-61 68 -176 68q-65 0 -109 -26t-59 -56 v-522z" />
<glyph unicode="e" d="M152 248v614q22 49 60 94.5t97.5 89.5t148 70.5t193.5 26.5q84 0 159.5 -18.5t126.5 -45t93 -61t64 -62.5t36 -53v-418h-669v-180q20 -42 70.5 -71t119.5 -29t121 29.5t72 70.5v60h286v-158q-14 -26 -36.5 -53.5t-64.5 -62t-92.5 -60.5t-125.5 -44t-160 -18 q-105 0 -193.5 26.5t-148 70t-97.5 89t-60 93.5zM461 676h383v131q-20 42 -71.5 71t-121.5 29t-120 -28.5t-70 -71.5v-131z" />
<glyph unicode="f" d="M184 0v223h240v664h-240v223h240v188q18 37 49 68.5t84 61.5t138 47.5t194 17.5q132 0 223 -25v-211q-45 5 -111 5q-209 0 -268 -66v-86h379v-223h-379v-664h379v-223h-928z" />
<glyph unicode="g" d="M150 389v494q16 42 43.5 82.5t71.5 80.5t111 64.5t146 24.5q181 0 295 -121v96h297v-1186q-22 -49 -59 -93t-94.5 -85t-144 -65.5t-191.5 -24.5q-83 0 -155.5 17t-121 42t-88.5 58.5t-61.5 60.5t-36.5 55v148h297v-70q16 -30 60 -55t106 -25q69 0 114.5 26.5t65.5 70.5 v260q-116 -107 -283 -107q-79 0 -146 24.5t-111 64.5t-71.5 80.5t-43.5 82.5zM459 453q17 -31 61 -57.5t109 -26.5q113 0 176 67v395q-64 68 -178 68q-64 0 -108.5 -26t-59.5 -56v-364z" />
<glyph unicode="h" d="M160 0v1434h309v-406q116 107 283 107q79 0 146 -24.5t111 -64.5t71.5 -80.5t43.5 -82.5v-883h-309v817q-17 31 -61 56.5t-109 25.5q-115 0 -176 -65v-834h-309z" />
<glyph unicode="i" d="M152 0v223h342v664h-299v223h608v-887h338v-223h-989zM465 1341v152q15 33 63.5 58.5t112.5 25.5q66 0 115.5 -26t64.5 -58v-152q-15 -33 -64 -58.5t-116 -25.5q-65 0 -113 25.5t-63 58.5z" />
<glyph unicode="j" d="M193 -115q149 0 255.5 33.5t149.5 83.5v885h-391v223h700v-1176q-25 -38 -63.5 -74.5t-101.5 -74.5t-139 -66.5t-183 -46.5t-227 -18v231zM569 1341v152q15 33 63.5 58.5t112.5 25.5q66 0 116 -26t65 -58v-152q-15 -33 -64.5 -58.5t-116.5 -25.5q-65 0 -113 25.5 t-63 58.5z" />
<glyph unicode="k" d="M178 0v1434h311v-715h35l416 391h215v-168l-346 -317l362 -455v-170h-245l-326 410l-111 -97v-313h-311z" />
<glyph unicode="l" d="M158 0v223h340v987h-297v224h606v-1211h338v-223h-987z" />
<glyph unicode="m" d="M74 0v1110h254v-94q68 119 192 119q77 0 123.5 -38t77.5 -102q82 140 231 140q59 0 105.5 -23.5t75 -62t44.5 -75.5t25 -77v-897h-274v836q-8 27 -30 45t-54 18q-61 0 -86 -51v-848h-240v836q-7 27 -28.5 45t-57.5 18q-28 0 -50 -15t-32 -36v-848h-276z" />
<glyph unicode="n" d="M160 0v1110h289v-106q117 131 303 131q79 0 146 -24.5t111 -64.5t71.5 -80.5t43.5 -82.5v-883h-309v817q-17 31 -61 56.5t-109 25.5q-115 0 -176 -65v-834h-309z" />
<glyph unicode="o" d="M143 248v616q21 48 58.5 93.5t96 89t146.5 70t191 26.5t190 -26.5t145 -70t95.5 -88.5t60.5 -94v-616q-23 -49 -60.5 -94t-95.5 -88.5t-145 -70t-190 -26.5t-191 26.5t-146.5 70t-96 89t-58.5 93.5zM455 305q19 -42 67 -71t113 -29q66 0 113.5 29t66.5 71v502 q-19 42 -66.5 71t-113.5 29q-65 0 -113 -29t-67 -71v-502z" />
<glyph unicode="p" d="M158 -324v1434h299v-94q115 119 295 119q78 0 144.5 -24.5t110.5 -64.5t72 -80.5t43 -82.5v-654q-15 -42 -43 -82.5t-72 -80.5t-110.5 -64.5t-144.5 -24.5q-167 0 -283 107v-408h-311zM469 279q64 -68 176 -68q65 0 109 26.5t59 57.5v522q-17 31 -60 56.5t-108 25.5 q-115 0 -176 -65v-555z" />
<glyph unicode="q" d="M145 229v654q15 42 43.5 82.5t72 80.5t110.5 64.5t145 24.5q181 0 295 -121v96h299v-1434h-311v408q-116 -107 -283 -107q-78 0 -145 24.5t-110.5 64.5t-72 80.5t-43.5 82.5zM455 295q17 -32 60 -58t108 -26q115 0 176 68v552q-61 68 -176 68q-65 0 -109 -26t-59 -56 v-522z" />
<glyph unicode="r" d="M164 0v223h235v664h-235v223h524v-149q124 149 385 149q24 0 51 -2v-274q-27 2 -61 2q-253 0 -354 -80v-533h360v-223h-905z" />
<glyph unicode="s" d="M158 184v172h288v-88q22 -31 71 -52t116 -21q69 0 118.5 21t71.5 52v94q-32 49 -155 72l-125 23q-164 30 -258 81.5t-127 102.5v287q18 29 51.5 60.5t90 69t144.5 61.5t191 24q84 0 158.5 -17t124 -41t92 -56.5t63.5 -55t37 -45.5v-168h-287v84q-23 31 -72 52.5 t-118 21.5q-67 0 -116.5 -21.5t-70.5 -52.5v-84q27 -44 156 -68l123 -24q163 -32 257.5 -83.5t127.5 -101.5v-299q-15 -23 -37 -47t-64.5 -55.5t-92.5 -55.5t-125 -40.5t-158 -16.5t-157 17t-124 41t-92.5 55.5t-64.5 55.5t-37 46z" />
<glyph unicode="t" d="M154 887v223h239v324h312v-324h387v-223h-387v-617q72 -63 284 -63q77 0 123 4v-211q-92 -25 -231 -25q-114 0 -203.5 17t-144.5 47t-88 62t-52 69v717h-239z" />
<glyph unicode="u" d="M150 217v893h309v-817q18 -31 58 -56.5t104 -25.5q111 0 172 65v834h309v-1110h-289v104q-111 -127 -299 -127q-78 0 -143 23t-108 60.5t-70.5 76t-42.5 80.5z" />
<glyph unicode="v" d="M111 942v168h290l230 -774h35l233 774h260v-168l-323 -942h-402z" />
<glyph unicode="w" d="M41 942v168h297l55 -766h31l121 492h215l119 -492h32l56 766h262v-168l-131 -942h-336l-109 401h-24l-107 -401h-350z" />
<glyph unicode="x" d="M152 0v170l266 389l-266 383v168h270l203 -371h18l207 371h268v-168l-268 -383l268 -389v-170h-272l-203 371h-18l-209 -371h-264z" />
<glyph unicode="y" d="M133 940v170h293l203 -674h33l196 674h268v-166l-381 -1132q-60 -69 -166.5 -114.5t-248.5 -45.5q-110 0 -176 20v213q62 -4 110 -4q68 0 122.5 20t84.5 48l23 74z" />
<glyph unicode="z" d="M158 0v209l565 655v23h-565v223h950v-192l-580 -670v-23h580v-225h-950z" />
<glyph unicode="{" d="M301 422v225q99 0 111 105v342q24 64 67.5 121.5t109.5 108t164 80.5t214 30v-224q-98 0 -146 -52.5t-63 -141.5v-307q-41 -113 -140 -174q100 -68 140 -177v-307q34 -192 209 -192v-224q-94 0 -176.5 20t-142.5 53t-108.5 77.5t-78.5 91.5t-49 98v342q-12 105 -111 105z " />
<glyph unicode="|" d="M469 -266v1884h332v-1884h-332z" />
<glyph unicode="}" d="M301 -141q179 0 209 192v307q40 109 139 177q-98 61 -139 174v307q-30 194 -209 194v224q116 0 214 -30t165 -80.5t110.5 -108t67.5 -121.5v-342q7 -60 35.5 -82.5t73.5 -22.5v-225q-97 0 -109 -105v-342q-23 -64 -67 -122t-111 -108.5t-165 -80t-214 -29.5v224z" />
<glyph unicode="~" d="M104 575v259q4 4 12.5 10t36.5 22.5t58.5 29t78.5 22.5t97 10q102 0 281.5 -52.5t267.5 -52.5q60 0 117 22.5t85 44.5l27 23v-268q-10 -8 -28 -19.5t-77 -31t-122 -19.5q-71 0 -149.5 16.5t-136 36t-131.5 36t-138 16.5q-45 0 -90 -11t-77.5 -26t-59 -30.5t-39.5 -26.5z " />
<glyph unicode="&#xa0;" />
<glyph unicode="&#xa1;" d="M412 879v178q15 33 65 59.5t117 26.5q66 0 116.5 -26.5t65.5 -59.5v-178q-15 -31 -66 -57.5t-116 -26.5q-67 0 -117 26t-65 58zM420 -16l39 665h270l39 -665v-299h-348v299z" />
<glyph unicode="&#xa2;" d="M139 248v614q19 41 50.5 79.5t78.5 77.5t115.5 68.5t148.5 42.5v168h256v-170q141 -26 231 -92.5t130 -134.5v-227h-285v131q-24 43 -79 72.5t-130 29.5t-128.5 -29.5t-75.5 -72.5v-500q22 -42 75.5 -71t128.5 -29t130 29t79 71v131h285v-227q-36 -65 -128 -132.5 t-233 -92.5v-172h-256v170q-153 25 -252 101.5t-141 164.5z" />
<glyph unicode="&#xa3;" d="M84 651v156h96v385q21 44 61.5 88t102 87t152 70t192.5 27q101 0 190 -26t147 -66t93.5 -76t52.5 -67v-205h-297v96q-18 42 -69 72.5t-117 30.5q-65 0 -116.5 -30.5t-71.5 -72.5v-313h479l-23 -156h-456v-297q-22 -55 -62 -104h733v-250h-1075v211q25 6 50 25.5t34 52.5 v362h-96z" />
<glyph unicode="&#xa4;" d="M133 180v150l49 51q-27 38 -43 74v456q13 33 45 76l-51 53v150h203l47 -49q107 49 252 49t252 -49l51 49h199v-150l-54 -53q30 -46 45 -76v-456q-27 -52 -43 -74l52 -51v-150h-199l-49 45q-107 -49 -254 -49t-254 49l-45 -45h-203zM451 512q20 -43 68 -71.5t116 -28.5 q67 0 115.5 28.5t68.5 71.5v344q-21 42 -69.5 71t-114.5 29q-67 0 -115 -29t-69 -71v-344z" />
<glyph unicode="&#xa5;" d="M82 401v154h379v43l-60 102h-319v154h237l-237 416v164h321l232 -484h31l233 484h289v-164l-236 -416h236v-154h-320l-39 -69l-24 -76h383v-154h-393v-401h-334v401h-379z" />
<glyph unicode="&#xa6;" d="M469 -264v880h332v-880h-332zM469 795v823h332v-823h-332z" />
<glyph unicode="&#xa7;" d="M182 25v168h287v-93q21 -31 64.5 -53t103.5 -22q59 0 102 22t62 53v95q-23 45 -137 69l-111 25q-157 32 -248.5 83t-122.5 99v297q41 62 107 106q-81 50 -107 97v280q16 23 36 46t60.5 55t88 55t119 40t151.5 17t151.5 -17t117.5 -40.5t86.5 -56t59.5 -54t35 -45.5v-168 h-286v93q-19 31 -62.5 53t-103.5 22q-59 0 -102 -22t-64 -53v-95q26 -46 139 -69l111 -25q156 -32 246.5 -83.5t121.5 -100.5v-297q-40 -60 -106 -107q77 -44 106 -94v-280q-19 -30 -49.5 -60.5t-84 -68t-137 -61t-181.5 -23.5q-298 0 -453 213zM469 586q25 -49 137 -72 l41 -8q54 3 94.5 25t59.5 51v108q-24 46 -135 72l-41 8q-55 -3 -95.5 -25t-60.5 -51v-108z" />
<glyph unicode="&#xa8;" d="M254 1325v184q50 62 156 62q61 0 100.5 -20t54.5 -42v-184q-15 -21 -54.5 -41t-100.5 -20q-102 0 -156 61zM702 1325v184q56 62 156 62q108 0 158 -62v-184q-18 -22 -57 -41.5t-101 -19.5q-95 0 -156 61z" />
<glyph unicode="&#xa9;" d="M37 717q0 152 47.5 290.5t127.5 238.5t190.5 159t232.5 59t232.5 -59t190.5 -159t127.5 -238.5t47.5 -290.5q0 -204 -80 -376t-218 -272t-300 -100t-300 100t-218 272t-80 376zM121 717q0 -181 67 -334.5t185.5 -243.5t261.5 -90q108 0 203.5 53t163.5 143t107.5 213 t39.5 259q0 182 -66.5 334.5t-185 242.5t-262.5 90q-143 0 -261.5 -90t-185.5 -243t-67 -334zM270 442v547q14 35 39 70.5t67.5 75t109 64t145.5 24.5q239 0 354 -199v-213h-256v125q-10 28 -35 52t-55 24q-32 0 -55.5 -23t-34.5 -53v-442q10 -30 33.5 -52t56.5 -22 q30 0 54.5 23.5t35.5 50.5v124h256v-210q-13 -23 -27.5 -44t-46 -51t-67.5 -51.5t-92 -37t-121 -15.5q-79 0 -145.5 24.5t-109 63.5t-67.5 74.5t-39 70.5z" />
<glyph unicode="&#xaa;" d="M313 823v203q11 18 28 36t45.5 39.5t73 34.5t97.5 13q122 0 213 -66v154q-14 36 -51 59t-90 23q-85 0 -125 -57v-52h-178v103q101 143 303 143q132 0 216.5 -57.5t115.5 -134.5v-535h-187v51q-90 -69 -217 -69q-99 0 -161 36.5t-83 75.5zM498 881q11 -19 40.5 -35.5 t79.5 -16.5q105 0 152 54v90q-46 57 -152 57q-84 0 -120 -51v-98z" />
<glyph unicode="&#xab;" d="M68 467v240l354 403h225v-162l-328 -360l328 -361v-161h-225zM623 467v240l354 403h225v-162l-330 -360l330 -361v-161h-225z" />
<glyph unicode="&#xac;" d="M98 561v248h1073v-655h-247v407h-826z" />
<glyph unicode="&#xad;" d="M86 561v248h778v-248h-778z" />
<glyph unicode="&#xae;" d="M145 1198q0 99 39 189.5t105 156.5t156.5 105t189.5 39q132 0 244.5 -66t178.5 -179t66 -245t-66 -244.5t-178.5 -178.5t-244.5 -66t-245 66t-179 178.5t-66 244.5zM225 1198q0 -171 119.5 -293.5t290.5 -122.5q170 0 289.5 122.5t119.5 293.5t-119.5 293.5t-289.5 122.5 q-171 0 -290.5 -122.5t-119.5 -293.5zM424 920v569h266q56 0 107 -30t75 -81v-166q-24 -56 -88 -90l84 -116v-86h-131l-100 180h-66v-180h-147zM571 1217h91q54 0 69 38v80q-15 37 -69 37h-91v-155z" />
<glyph unicode="&#xaf;" d="M260 1298v211h750v-211h-750z" />
<glyph unicode="&#xb0;" d="M281 1204v269q16 30 42.5 58.5t68 57.5t104.5 46.5t137 17.5q61 0 115 -12t91.5 -30.5t68.5 -44t49.5 -48t31.5 -45.5v-269q-17 -30 -43.5 -58.5t-68.5 -58t-105.5 -47.5t-138.5 -18q-74 0 -137 17.5t-104.5 47t-68 58.5t-42.5 59zM498 1260q15 -25 50 -42.5t85 -17.5 t87 18t52 42v155q-15 24 -52 42t-87 18t-85 -17.5t-50 -42.5v-155z" />
<glyph unicode="&#xb1;" d="M98 33v246h1073v-246h-1073zM98 733v246h410v356h250v-356h413v-246h-413v-358h-250v358h-410z" />
<glyph unicode="&#xb2;" d="M293 573v164l383 310q63 49 74 67v127q-13 20 -47.5 34.5t-79.5 14.5q-43 0 -74.5 -13.5t-46.5 -29.5v-114h-205v188q16 18 37 35.5t61 42.5t99.5 40t128.5 15q134 0 222.5 -52t127.5 -114v-223q-13 -23 -90 -80l-297 -225v-8h391v-179h-684z" />
<glyph unicode="&#xb3;" d="M293 692v146h205v-72q15 -20 49.5 -34.5t79.5 -14.5q44 0 78 14.5t47 34.5v111q-11 24 -45 40.5t-80 16.5h-127v158h121q42 0 74.5 14.5t47.5 34.5v106q-39 43 -122 43q-42 0 -75.5 -13.5t-47.5 -29.5v-71h-205v145q15 18 37 36.5t61.5 42.5t99.5 39t130 15 q132 0 222 -52.5t120 -109.5v-182q-11 -20 -47 -45t-85 -45q50 -19 88 -48t56 -59v-192q-15 -26 -42.5 -53t-69.5 -53.5t-104 -43t-132 -16.5t-131.5 15.5t-101.5 39t-63.5 44t-37.5 38.5z" />
<glyph unicode="&#xb4;" d="M430 1235v31l105 315h305v-133l-166 -213h-244z" />
<glyph unicode="&#xb5;" d="M158 -324v1434h309v-819q52 -80 168 -80q105 0 166 65v834h309v-1110h-289v104q-49 -56 -119 -90t-149 -34q-53 0 -86 8v-312h-309z" />
<glyph unicode="&#xb6;" d="M61 719v471q67 117 181 180.5t252 63.5h319v-1639h-231v678h-88q-149 0 -261.5 69.5t-171.5 176.5zM1001 -205v1639h232v-1639h-232z" />
<glyph unicode="&#xb7;" d="M453 618v179q15 31 66 57.5t116 26.5q67 0 117 -26t65 -58v-179q-15 -33 -65 -59.5t-117 -26.5q-66 0 -116.5 26.5t-65.5 59.5z" />
<glyph unicode="&#xb8;" d="M408 -473l34 127q94 -25 148 -25q38 0 68 12t38 29v74q-16 33 -98 33h-121l66 229h139l-31 -112h27q73 0 120 -31t64 -74v-178q-27 -56 -94.5 -89.5t-159.5 -33.5q-132 0 -200 39z" />
<glyph unicode="&#xb9;" d="M342 573v146h184v536l-184 -20v143l221 56h185v-715h178v-146h-584z" />
<glyph unicode="&#xba;" d="M305 903v361q33 78 116.5 135t215.5 57q131 0 215 -57.5t115 -134.5v-361q-30 -78 -114.5 -135t-215.5 -57q-133 0 -216.5 56.5t-115.5 135.5zM496 928q15 -34 51 -56t90 -22q53 0 89.5 22.5t49.5 55.5v309q-13 36 -49.5 59t-89.5 23q-54 0 -90.5 -23t-50.5 -59v-309z " />
<glyph unicode="&#xbb;" d="M66 66v161l327 361l-327 360v162h227l354 -403v-240l-354 -401h-227zM623 66v161l325 361l-325 360v162h225l354 -403v-240l-354 -401h-225z" />
<glyph unicode="&#xbc;" d="M55 0v143l291 371h150v-141l-289 -373h-152zM55 645v143h133v461h-133v131l168 54h187v-646h125v-143h-480zM528 150v155l289 483h322v-475h96v-163h-96v-150h-209v150h-402zM735 313h195v281h-25zM774 920v141l291 373h149v-144l-288 -370h-152z" />
<glyph unicode="&#xbd;" d="M55 0v143l291 371h150v-141l-289 -373h-152zM55 645v143h133v461h-133v131l168 54h187v-646h125v-143h-480zM569 0v162l353 272q59 48 69 64v110q-12 15 -41.5 26t-68.5 11q-37 0 -66 -10.5t-39 -22.5v-104h-205v176q15 16 35.5 32t58.5 38.5t94.5 36.5t121.5 14 q128 0 212 -47t119 -103v-206q-17 -26 -86 -74l-266 -191v-8h354v-176h-645zM774 920v141l291 373h149v-144l-288 -370h-152z" />
<glyph unicode="&#xbe;" d="M55 0v143l291 371h150v-141l-289 -373h-152zM55 754v139h203v-68q11 -15 41.5 -26t69.5 -11q37 0 67 11t41 26v99q-9 19 -38.5 32t-69.5 13h-121v155h117q70 0 104 39v97q-32 32 -104 32q-36 0 -66 -10.5t-41 -21.5v-66h-203v135q14 17 35 34t58.5 39t94 36t122.5 14 q125 0 210 -48t115 -101v-168q-24 -42 -121 -80q97 -39 131 -94v-181q-32 -54 -118 -101.5t-213 -47.5q-66 0 -123.5 14t-95.5 36t-60 39.5t-35 33.5zM528 150v155l289 483h322v-475h96v-163h-96v-150h-209v150h-402zM735 313h195v281h-25zM774 920v141l291 373h149v-144 l-288 -370h-152z" />
<glyph unicode="&#xbf;" d="M92 -88v330q22 46 160 141l276 186v97h316v-217l-285 -195q-65 -44 -99 -70t-46 -47v-137q25 -40 76 -66t118 -26q66 0 116.5 25.5t76.5 66.5v137h295v-264q-21 -28 -47 -54.5t-70.5 -57.5t-95 -53.5t-123 -38t-152.5 -15.5q-88 0 -166 18t-131.5 44.5t-99.5 63.5 t-72.5 68t-46.5 64zM506 879v178q15 33 65 59.5t117 26.5q66 0 116.5 -26.5t65.5 -59.5v-178q-15 -31 -66 -57.5t-116 -26.5q-67 0 -117 26t-65 58z" />
<glyph unicode="&#xc0;" d="M86 0v184l305 1250h486l307 -1250v-184h-301l-82 383h-365l-84 -383h-266zM352 1733v131h301l109 -297v-33h-246zM489 631h261l-109 514h-37z" />
<glyph unicode="&#xc1;" d="M86 0v184l305 1250h486l307 -1250v-184h-301l-82 383h-365l-84 -383h-266zM489 631h261l-109 514h-37zM498 1534v33l104 297h305v-131l-166 -199h-243z" />
<glyph unicode="&#xc2;" d="M86 0v184l305 1250h486l307 -1250v-184h-301l-82 383h-365l-84 -383h-266zM258 1534v33l162 297h397l162 -297v-33h-221l-137 182l-142 -182h-221zM489 631h261l-109 514h-37z" />
<glyph unicode="&#xc3;" d="M86 0v184l305 1250h486l307 -1250v-184h-301l-82 383h-365l-84 -383h-266zM213 1528v143q11 75 76.5 126.5t163.5 51.5q60 0 109.5 -21t76 -45.5t58.5 -45.5t61 -21q31 0 51 16.5t25 43.5v67h188v-143q-13 -75 -77.5 -126.5t-160.5 -51.5q-61 0 -110 21t-74.5 45.5 t-57.5 45.5t-63 21q-67 0 -78 -58v-69h-188zM489 631h261l-109 514h-37z" />
<glyph unicode="&#xc4;" d="M86 0v184l305 1250h486l307 -1250v-184h-301l-82 383h-365l-84 -383h-266zM244 1599v185q49 61 155 61q61 0 101 -20t55 -41v-185q-15 -21 -55 -41t-101 -20q-101 0 -155 61zM489 631h261l-109 514h-37zM692 1599v185q55 61 156 61q62 0 101 -19.5t57 -41.5v-185 q-18 -22 -57 -41.5t-101 -19.5q-95 0 -156 61z" />
<glyph unicode="&#xc5;" d="M86 0v184l299 1231q-24 21 -37 47v228q32 57 111.5 95t175.5 38t175.5 -38t109.5 -95v-228q-12 -22 -39 -49l303 -1229v-184h-301l-82 383h-365l-84 -383h-266zM489 631h261l-109 514h-37zM498 1497q12 -16 48.5 -30.5t88.5 -14.5t88.5 15t46.5 30v156q-9 17 -45.5 32 t-89.5 15t-89.5 -15t-47.5 -32v-156z" />
<glyph unicode="&#xc6;" d="M43 0v184l295 1250h870v-246h-321v-330h295v-250h-295v-362h332v-246h-613v356h-233l-78 -356h-252zM428 602h178v586h-47z" />
<glyph unicode="&#xc7;" d="M102 283v868q25 55 66 106t105 99.5t161 78t213 29.5q92 0 173 -19.5t137 -49.5t102.5 -70t73.5 -75t45 -72v-304h-320v213q-22 52 -77.5 87.5t-133.5 35.5q-79 0 -134 -35t-77 -88v-741q22 -52 77.5 -87.5t133.5 -35.5q79 0 133 34.5t78 88.5v234h320v-324 q-24 -47 -61 -90.5t-96.5 -89t-150 -74.5t-198.5 -33l-21 -75h27q73 0 120 -31t64 -74v-178q-27 -56 -94.5 -89.5t-159.5 -33.5q-132 0 -200 39l34 127q94 -25 148 -25q38 0 68 12t38 29v74q-16 33 -98 33h-121l58 200q-89 13 -165 45.5t-127.5 77t-85.5 90t-55 93.5z" />
<glyph unicode="&#xc8;" d="M193 0v1434h921v-246h-588v-330h549v-250h-549v-362h602v-246h-935zM403 1733v131h302l108 -297v-33h-246z" />
<glyph unicode="&#xc9;" d="M193 0v1434h921v-246h-588v-330h549v-250h-549v-362h602v-246h-935zM547 1534v33l104 297h305v-131l-165 -199h-244z" />
<glyph unicode="&#xca;" d="M193 0v1434h921v-246h-588v-330h549v-250h-549v-362h602v-246h-935zM297 1534v33l162 297h397l162 -297v-33h-221l-138 182l-141 -182h-221z" />
<glyph unicode="&#xcb;" d="M193 0v1434h921v-246h-588v-330h549v-250h-549v-362h602v-246h-935zM276 1599v185q18 22 57 41.5t99 19.5q61 0 101 -20t55 -41v-185q-15 -21 -55 -41t-101 -20q-102 0 -156 61zM725 1599v185q55 61 156 61q108 0 157 -61v-185q-49 -61 -157 -61q-95 0 -156 61z" />
<glyph unicode="&#xcc;" d="M160 0v246h309v942h-309v246h948v-246h-305v-942h305v-246h-948zM344 1733v131h301l109 -297v-33h-246z" />
<glyph unicode="&#xcd;" d="M160 0v246h309v942h-309v246h948v-246h-305v-942h305v-246h-948zM510 1534v33l104 297h306v-131l-166 -199h-244z" />
<glyph unicode="&#xce;" d="M160 0v246h309v942h-309v246h948v-246h-305v-942h305v-246h-948zM276 1534v33l162 297h398l161 -297v-33h-221l-137 182l-141 -182h-222z" />
<glyph unicode="&#xcf;" d="M160 0v246h309v942h-309v246h948v-246h-305v-942h305v-246h-948zM254 1604v184q18 22 57 41.5t99 19.5q61 0 100.5 -20t54.5 -41v-184q-15 -22 -54.5 -42t-100.5 -20q-101 0 -156 62zM702 1604v184q55 61 156 61q62 0 101 -19.5t57 -41.5v-184q-50 -62 -158 -62 q-94 0 -156 62z" />
<glyph unicode="&#xd0;" d="M72 604v248h78v582h534q95 0 177 -24.5t139.5 -67t97 -90t63.5 -101.5v-868q-24 -54 -63.5 -101.5t-97 -90t-139.5 -67t-177 -24.5h-534v604h-78zM483 246h133q80 0 135 32t76 82v713q-22 50 -77 82.5t-134 32.5h-133v-336h205v-248h-205v-358z" />
<glyph unicode="&#xd1;" d="M117 0v1434h370l322 -873h35v873h309v-1434h-371l-321 872h-35v-872h-309zM246 1528v143q11 75 76 126.5t163 51.5q60 0 110 -21t76.5 -45.5t58.5 -45.5t61 -21q31 0 50.5 16.5t24.5 43.5v67h189v-143q-13 -75 -77.5 -126.5t-160.5 -51.5q-61 0 -110 21t-74.5 45.5 t-57.5 45.5t-63 21q-67 0 -78 -58v-69h-188z" />
<glyph unicode="&#xd2;" d="M90 283v868q24 55 65.5 106t106 99.5t161.5 78t212 29.5t212 -29.5t161.5 -78t106 -99.5t65.5 -106v-868q-19 -44 -48 -85t-76.5 -83.5t-105.5 -74t-140 -51.5t-175 -20t-175 20t-140 51.5t-105.5 74t-76.5 83.5t-48 85zM371 1749v131h301l108 -297v-33h-245zM424 346 q22 -52 77.5 -87.5t133.5 -35.5t133.5 35.5t77.5 87.5v741q-22 52 -77.5 87.5t-133.5 35.5t-133.5 -35.5t-77.5 -87.5v-741z" />
<glyph unicode="&#xd3;" d="M90 283v868q24 55 65.5 106t106 99.5t161.5 78t212 29.5t212 -29.5t161.5 -78t106 -99.5t65.5 -106v-868q-19 -44 -48 -85t-76.5 -83.5t-105.5 -74t-140 -51.5t-175 -20t-175 20t-140 51.5t-105.5 74t-76.5 83.5t-48 85zM424 346q22 -52 77.5 -87.5t133.5 -35.5 t133.5 35.5t77.5 87.5v741q-22 52 -77.5 87.5t-133.5 35.5t-133.5 -35.5t-77.5 -87.5v-741zM516 1550v33l105 297h305v-131l-166 -199h-244z" />
<glyph unicode="&#xd4;" d="M90 283v868q24 55 65.5 106t106 99.5t161.5 78t212 29.5t212 -29.5t161.5 -78t106 -99.5t65.5 -106v-868q-19 -44 -48 -85t-76.5 -83.5t-105.5 -74t-140 -51.5t-175 -20t-175 20t-140 51.5t-105.5 74t-76.5 83.5t-48 85zM287 1550v33l162 297h397l162 -297v-33h-222 l-137 183l-141 -183h-221zM424 346q22 -52 77.5 -87.5t133.5 -35.5t133.5 35.5t77.5 87.5v741q-22 52 -77.5 87.5t-133.5 35.5t-133.5 -35.5t-77.5 -87.5v-741z" />
<glyph unicode="&#xd5;" d="M90 283v868q24 55 65.5 106t106 99.5t161.5 78t212 29.5t212 -29.5t161.5 -78t106 -99.5t65.5 -106v-868q-19 -44 -48 -85t-76.5 -83.5t-105.5 -74t-140 -51.5t-175 -20t-175 20t-140 51.5t-105.5 74t-76.5 83.5t-48 85zM238 1544v144q11 75 76 126.5t163 51.5 q60 0 109.5 -21t76 -45.5t58.5 -45.5t61 -21q32 0 51.5 16t24.5 43v68h189v-144q-13 -75 -77.5 -126.5t-160.5 -51.5q-61 0 -110 21t-74.5 45.5t-57.5 45.5t-63 21q-67 0 -78 -57v-70h-188zM424 346q22 -52 77.5 -87.5t133.5 -35.5t133.5 35.5t77.5 87.5v741 q-22 52 -77.5 87.5t-133.5 35.5t-133.5 -35.5t-77.5 -87.5v-741z" />
<glyph unicode="&#xd6;" d="M90 283v868q24 55 65.5 106t106 99.5t161.5 78t212 29.5t212 -29.5t161.5 -78t106 -99.5t65.5 -106v-868q-19 -44 -48 -85t-76.5 -83.5t-105.5 -74t-140 -51.5t-175 -20t-175 20t-140 51.5t-105.5 74t-76.5 83.5t-48 85zM256 1606v184q18 22 57 41.5t99 19.5 q61 0 100.5 -20t54.5 -41v-184q-15 -22 -54.5 -42t-100.5 -20q-101 0 -156 62zM424 346q22 -52 77.5 -87.5t133.5 -35.5t133.5 35.5t77.5 87.5v741q-22 52 -77.5 87.5t-133.5 35.5t-133.5 -35.5t-77.5 -87.5v-741zM705 1606v184q55 61 155 61q62 0 101 -19.5t57 -41.5v-184 q-50 -62 -158 -62q-93 0 -155 62z" />
<glyph unicode="&#xd7;" d="M111 180v162l346 344l-346 340v164h188l336 -330l336 330h186v-164l-346 -340l346 -344v-162h-186l-336 328l-336 -328h-188z" />
<glyph unicode="&#xd8;" d="M90 0v94l62 86q-41 53 -62 103v868q24 55 65.5 106t106 99.5t161.5 78t212 29.5q216 0 366 -104l54 74h125v-95l-64 -86q42 -51 64 -102v-868q-19 -44 -48 -85t-76.5 -83.5t-105.5 -74t-140 -51.5t-175 -20q-215 0 -369 103l-51 -72h-125zM424 557l412 571 q-27 45 -79.5 74t-121.5 29q-78 0 -133.5 -35.5t-77.5 -87.5v-551zM434 305q27 -44 79 -73t122 -29q78 0 133.5 35.5t77.5 87.5v551z" />
<glyph unicode="&#xd9;" d="M121 242v1192h334v-1108q18 -44 67.5 -73.5t112.5 -29.5q62 0 110.5 29t69.5 74v1108h334v-1192q-19 -40 -48.5 -77t-75 -73.5t-100.5 -63t-130 -43t-160 -16.5t-160 16.5t-130 43t-100.5 63t-75 73.5t-48.5 77zM358 1733v131h301l109 -297v-33h-246z" />
<glyph unicode="&#xda;" d="M121 242v1192h334v-1108q18 -44 67.5 -73.5t112.5 -29.5q62 0 110.5 29t69.5 74v1108h334v-1192q-19 -40 -48.5 -77t-75 -73.5t-100.5 -63t-130 -43t-160 -16.5t-160 16.5t-130 43t-100.5 63t-75 73.5t-48.5 77zM512 1534v33l104 297h306v-131l-166 -199h-244z" />
<glyph unicode="&#xdb;" d="M121 242v1192h334v-1108q18 -44 67.5 -73.5t112.5 -29.5q62 0 110.5 29t69.5 74v1108h334v-1192q-19 -40 -48.5 -77t-75 -73.5t-100.5 -63t-130 -43t-160 -16.5t-160 16.5t-130 43t-100.5 63t-75 73.5t-48.5 77zM272 1534v33l162 297h397l162 -297v-33h-221l-137 182 l-141 -182h-222z" />
<glyph unicode="&#xdc;" d="M121 242v1192h334v-1108q18 -44 67.5 -73.5t112.5 -29.5q62 0 110.5 29t69.5 74v1108h334v-1192q-19 -40 -48.5 -77t-75 -73.5t-100.5 -63t-130 -43t-160 -16.5t-160 16.5t-130 43t-100.5 63t-75 73.5t-48.5 77zM252 1606v184q18 22 57 41.5t99 19.5q61 0 100.5 -20 t54.5 -41v-184q-15 -22 -54.5 -42t-100.5 -20q-101 0 -156 62zM700 1606v184q55 61 156 61q62 0 101 -19.5t57 -41.5v-184q-50 -62 -158 -62q-94 0 -156 62z" />
<glyph unicode="&#xdd;" d="M96 1249v185h299l234 -494h39l235 494h271v-185l-381 -686v-563h-334v596zM530 1534v33l105 297h305v-131l-166 -199h-244z" />
<glyph unicode="&#xde;" d="M145 0v1434h334v-217h248q137 0 251 -63t181 -179v-451q-58 -107 -170 -176t-262 -69h-248v-279h-334zM479 526h174q62 0 110.5 25.5t74.5 73.5v247q-26 50 -76.5 74.5t-108.5 24.5h-174v-445z" />
<glyph unicode="&#xdf;" d="M141 0v1202q24 45 63 87.5t98 83.5t146.5 66t188.5 25q81 0 154.5 -16.5t124 -41t93 -56.5t66.5 -59t39 -52v-360q-25 -36 -66 -70.5t-83 -54.5q133 -72 188 -191v-315q-40 -82 -105.5 -135.5t-172.5 -83t-257 -29.5v236q90 0 139 16t83 74v194q-25 51 -77 76t-118 25 v233q59 0 108 22t74 60v205q-24 40 -74.5 64t-115.5 24q-66 0 -111.5 -25t-68.5 -63v-1141h-316z" />
<glyph unicode="&#xe0;" d="M127 141v332q11 21 28 42.5t49.5 49t72.5 48t99.5 35t127.5 14.5q185 0 303 -93v236q-54 102 -195 102q-69 0 -112.5 -23.5t-63.5 -52.5v-79h-286v176q15 21 32 41t58.5 54t88.5 58.5t122.5 43t160.5 18.5q108 0 198 -26.5t149 -70t97 -88.5t60 -94v-864h-299v80 q-131 -111 -315 -111q-83 0 -153 19t-114 48t-70 55t-38 50zM356 1448v133h301l109 -315v-31h-246zM430 244q20 -25 63.5 -47.5t110.5 -22.5q140 0 203 78v125q-29 34 -81.5 56t-121.5 22q-67 0 -111.5 -21t-62.5 -45v-145z" />
<glyph unicode="&#xe1;" d="M127 141v332q11 21 28 42.5t49.5 49t72.5 48t99.5 35t127.5 14.5q185 0 303 -93v236q-54 102 -195 102q-69 0 -112.5 -23.5t-63.5 -52.5v-79h-286v176q15 21 32 41t58.5 54t88.5 58.5t122.5 43t160.5 18.5q108 0 198 -26.5t149 -70t97 -88.5t60 -94v-864h-299v80 q-131 -111 -315 -111q-83 0 -153 19t-114 48t-70 55t-38 50zM430 244q20 -25 63.5 -47.5t110.5 -22.5q140 0 203 78v125q-29 34 -81.5 56t-121.5 22q-67 0 -111.5 -21t-62.5 -45v-145zM512 1235v31l104 315h306v-133l-166 -213h-244z" />
<glyph unicode="&#xe2;" d="M127 141v332q11 21 28 42.5t49.5 49t72.5 48t99.5 35t127.5 14.5q185 0 303 -93v236q-54 102 -195 102q-69 0 -112.5 -23.5t-63.5 -52.5v-79h-286v176q15 21 32 41t58.5 54t88.5 58.5t122.5 43t160.5 18.5q108 0 198 -26.5t149 -70t97 -88.5t60 -94v-864h-299v80 q-131 -111 -315 -111q-83 0 -153 19t-114 48t-70 55t-38 50zM270 1229v31l162 315h397l162 -315v-31h-221l-137 198l-141 -198h-222zM430 244q20 -25 63.5 -47.5t110.5 -22.5q140 0 203 78v125q-29 34 -81.5 56t-121.5 22q-67 0 -111.5 -21t-62.5 -45v-145z" />
<glyph unicode="&#xe3;" d="M127 141v332q11 21 28 42.5t49.5 49t72.5 48t99.5 35t127.5 14.5q185 0 303 -93v236q-54 102 -195 102q-69 0 -112.5 -23.5t-63.5 -52.5v-79h-286v176q15 21 32 41t58.5 54t88.5 58.5t122.5 43t160.5 18.5q108 0 198 -26.5t149 -70t97 -88.5t60 -94v-864h-299v80 q-131 -111 -315 -111q-83 0 -153 19t-114 48t-70 55t-38 50zM238 1237v143q11 75 76 127t163 52q49 0 90.5 -14t68.5 -33.5t50 -39t47.5 -33.5t48.5 -14q31 0 51 16.5t25 43.5v67h189v-143q-13 -75 -77.5 -126.5t-160.5 -51.5q-61 0 -110 21t-74.5 45.5t-57.5 45.5t-63 21 q-67 0 -78 -57v-70h-188zM430 244q20 -25 63.5 -47.5t110.5 -22.5q140 0 203 78v125q-29 34 -81.5 56t-121.5 22q-67 0 -111.5 -21t-62.5 -45v-145z" />
<glyph unicode="&#xe4;" d="M127 141v332q11 21 28 42.5t49.5 49t72.5 48t99.5 35t127.5 14.5q185 0 303 -93v236q-54 102 -195 102q-69 0 -112.5 -23.5t-63.5 -52.5v-79h-286v176q15 21 32 41t58.5 54t88.5 58.5t122.5 43t160.5 18.5q108 0 198 -26.5t149 -70t97 -88.5t60 -94v-864h-299v80 q-131 -111 -315 -111q-83 0 -153 19t-114 48t-70 55t-38 50zM260 1325v184q50 62 156 62q61 0 100.5 -20t54.5 -42v-184q-15 -21 -54.5 -41t-100.5 -20q-102 0 -156 61zM430 244q20 -25 63.5 -47.5t110.5 -22.5q140 0 203 78v125q-29 34 -81.5 56t-121.5 22 q-67 0 -111.5 -21t-62.5 -45v-145zM709 1325v184q56 62 155 62q108 0 158 -62v-184q-18 -22 -57 -41.5t-101 -19.5q-94 0 -155 61z" />
<glyph unicode="&#xe5;" d="M127 141v332q11 21 28 42.5t49.5 49t72.5 48t99.5 35t127.5 14.5q185 0 303 -93v236q-54 102 -195 102q-69 0 -112.5 -23.5t-63.5 -52.5v-79h-286v176q15 21 32 41t58.5 54t88.5 58.5t122.5 43t160.5 18.5q108 0 198 -26.5t149 -70t97 -88.5t60 -94v-864h-299v80 q-131 -111 -315 -111q-83 0 -153 19t-114 48t-70 55t-38 50zM362 1364v217q30 57 103.5 94t167.5 37t168 -37t104 -94v-217q-30 -57 -104 -94t-168 -37t-167.5 37t-103.5 94zM430 244q20 -25 63.5 -47.5t110.5 -22.5q140 0 203 78v125q-29 34 -81.5 56t-121.5 22 q-67 0 -111.5 -21t-62.5 -45v-145zM508 1401q8 -15 45.5 -29t79.5 -14q44 0 80.5 14t46.5 29v143q-10 17 -46.5 31t-80.5 14q-42 0 -79.5 -14.5t-45.5 -30.5v-143z" />
<glyph unicode="&#xe6;" d="M63 754v118q12 39 29.5 73.5t47.5 71.5t67.5 63.5t92 43.5t118.5 17q140 0 227 -84q84 84 227 84q78 0 140.5 -24.5t100.5 -64t59 -73t34 -68.5v-422h-434v-219q20 -80 92 -80q33 0 61 20.5t38 59.5v92h243v-163q-12 -36 -33.5 -70t-59.5 -73t-100.5 -63t-140.5 -24 q-174 0 -262 125q-58 -66 -121 -95.5t-153 -29.5q-49 0 -92.5 13.5t-72 32.5t-51.5 44.5t-35 44.5t-19 37v318q10 25 29.5 52t51.5 57t81 49.5t106 19.5q116 0 192 -68v269q-6 41 -30.5 61.5t-57.5 20.5q-75 0 -92 -82v-84h-283zM334 229q12 -26 36.5 -47.5t59.5 -21.5 q54 0 96 45v188q-39 58 -96 58q-36 0 -60.5 -20t-35.5 -46v-156zM772 670h191v170q-9 38 -37 59t-62 21q-33 0 -59 -21t-33 -59v-170z" />
<glyph unicode="&#xe7;" d="M160 248v614q17 38 42.5 74.5t68 75t95 67t126 46.5t157.5 18q82 0 155 -18t122.5 -44.5t90.5 -61t63 -63t36 -55.5v-227h-285v131q-20 43 -68.5 72.5t-113.5 29.5q-67 0 -114 -29.5t-66 -72.5v-500q19 -42 66.5 -71t113.5 -29q65 0 113.5 29t68.5 71v131h285v-227 q-15 -31 -45.5 -65t-80 -72.5t-127 -66.5t-167.5 -34l-20 -77h26q73 0 120.5 -31t64.5 -74v-178q-27 -56 -94.5 -89.5t-159.5 -33.5q-133 0 -201 39l35 127q94 -25 147 -25q38 0 68.5 12t38.5 29v74q-17 33 -98 33h-121l55 198q-82 10 -152 39.5t-117 69.5t-78.5 80.5 t-49.5 83.5z" />
<glyph unicode="&#xe8;" d="M152 248v614q22 49 60 94.5t97.5 89.5t148 70.5t193.5 26.5q84 0 159.5 -18.5t126.5 -45t93 -61t64 -62.5t36 -53v-418h-669v-180q20 -42 70.5 -71t119.5 -29t121 29.5t72 70.5v60h286v-158q-14 -26 -36.5 -53.5t-64.5 -62t-92.5 -60.5t-125.5 -44t-160 -18 q-105 0 -193.5 26.5t-148 70t-97.5 89t-60 93.5zM389 1448v133h301l109 -315v-31h-246zM461 676h383v131q-20 42 -71.5 71t-121.5 29t-120 -28.5t-70 -71.5v-131z" />
<glyph unicode="&#xe9;" d="M152 248v614q22 49 60 94.5t97.5 89.5t148 70.5t193.5 26.5q84 0 159.5 -18.5t126.5 -45t93 -61t64 -62.5t36 -53v-418h-669v-180q20 -42 70.5 -71t119.5 -29t121 29.5t72 70.5v60h286v-158q-14 -26 -36.5 -53.5t-64.5 -62t-92.5 -60.5t-125.5 -44t-160 -18 q-105 0 -193.5 26.5t-148 70t-97.5 89t-60 93.5zM461 676h383v131q-20 42 -71.5 71t-121.5 29t-120 -28.5t-70 -71.5v-131zM547 1235v31l104 315h305v-133l-165 -213h-244z" />
<glyph unicode="&#xea;" d="M152 248v614q22 49 60 94.5t97.5 89.5t148 70.5t193.5 26.5q84 0 159.5 -18.5t126.5 -45t93 -61t64 -62.5t36 -53v-418h-669v-180q20 -42 70.5 -71t119.5 -29t121 29.5t72 70.5v60h286v-158q-14 -26 -36.5 -53.5t-64.5 -62t-92.5 -60.5t-125.5 -44t-160 -18 q-105 0 -193.5 26.5t-148 70t-97.5 89t-60 93.5zM297 1229v31l162 315h397l162 -315v-31h-221l-138 198l-141 -198h-221zM461 676h383v131q-20 42 -71.5 71t-121.5 29t-120 -28.5t-70 -71.5v-131z" />
<glyph unicode="&#xeb;" d="M152 248v614q22 49 60 94.5t97.5 89.5t148 70.5t193.5 26.5q84 0 159.5 -18.5t126.5 -45t93 -61t64 -62.5t36 -53v-418h-669v-180q20 -42 70.5 -71t119.5 -29t121 29.5t72 70.5v60h286v-158q-14 -26 -36.5 -53.5t-64.5 -62t-92.5 -60.5t-125.5 -44t-160 -18 q-105 0 -193.5 26.5t-148 70t-97.5 89t-60 93.5zM272 1325v184q50 62 156 62q61 0 101 -20.5t55 -41.5v-184q-15 -21 -55 -41t-101 -20q-102 0 -156 61zM461 676h383v131q-20 42 -71.5 71t-121.5 29t-120 -28.5t-70 -71.5v-131zM721 1325v184q56 62 156 62q107 0 157 -62 v-184q-49 -61 -157 -61q-95 0 -156 61z" />
<glyph unicode="&#xec;" d="M152 0v223h342v664h-299v223h608v-887h338v-223h-989zM373 1448v133h301l108 -315v-31h-245z" />
<glyph unicode="&#xed;" d="M152 0v223h342v664h-299v223h608v-887h338v-223h-989zM528 1235v31l105 315h305v-133l-166 -213h-244z" />
<glyph unicode="&#xee;" d="M152 0v223h342v664h-299v223h608v-887h338v-223h-989zM283 1229v31l161 315h398l162 -315v-31h-222l-137 198l-141 -198h-221z" />
<glyph unicode="&#xef;" d="M152 0v223h342v664h-299v223h608v-887h338v-223h-989zM262 1325v184q50 62 156 62q61 0 100.5 -20t54.5 -42v-184q-15 -21 -54.5 -41t-100.5 -20q-102 0 -156 61zM711 1325v184q56 62 155 62q108 0 158 -62v-184q-18 -22 -57 -41.5t-101 -19.5q-94 0 -155 61z" />
<glyph unicode="&#xf0;" d="M135 248v454q15 49 45 95t76 88.5t115 68t149 25.5q89 0 156 -29t131 -82v127q-30 61 -102 133l-324 -104v147l199 64q-65 49 -150 96l197 160q133 -51 260 -158l229 76v-147l-117 -37q87 -96 117 -168v-807q-22 -49 -59.5 -95t-95.5 -89.5t-144.5 -70t-189.5 -26.5 t-190.5 26.5t-146 70t-96 88.5t-59.5 94zM444 305q21 -42 69 -71t114 -29q65 0 113 29t67 71v354q-21 35 -68.5 60.5t-111.5 25.5q-66 0 -114 -29t-69 -71v-340z" />
<glyph unicode="&#xf1;" d="M143 0v1110h289v-106q117 131 303 131q79 0 146 -24.5t111 -64.5t72.5 -80.5t43.5 -82.5v-883h-309v817q-17 31 -61 56.5t-109 25.5q-115 0 -176 -65v-834h-310zM215 1243v143q11 75 76.5 127t163.5 52q60 0 109.5 -21t76 -45.5t58.5 -45.5t61 -21q32 0 51.5 16t24.5 43 v68h188v-144q-13 -75 -77.5 -126.5t-160.5 -51.5q-61 0 -110 21t-74.5 45.5t-57.5 45.5t-63 21q-67 0 -78 -57v-70h-188z" />
<glyph unicode="&#xf2;" d="M143 248v616q21 48 58.5 93.5t96 89t146.5 70t191 26.5t190 -26.5t145 -70t95.5 -88.5t60.5 -94v-616q-23 -49 -60.5 -94t-95.5 -88.5t-145 -70t-190 -26.5t-191 26.5t-146.5 70t-96 89t-58.5 93.5zM358 1454v133h301l109 -315v-31h-246zM455 305q19 -42 67 -71t113 -29 q66 0 113.5 29t66.5 71v502q-19 42 -66.5 71t-113.5 29q-65 0 -113 -29t-67 -71v-502z" />
<glyph unicode="&#xf3;" d="M143 248v616q21 48 58.5 93.5t96 89t146.5 70t191 26.5t190 -26.5t145 -70t95.5 -88.5t60.5 -94v-616q-23 -49 -60.5 -94t-95.5 -88.5t-145 -70t-190 -26.5t-191 26.5t-146.5 70t-96 89t-58.5 93.5zM455 305q19 -42 67 -71t113 -29q66 0 113.5 29t66.5 71v502 q-19 42 -66.5 71t-113.5 29q-65 0 -113 -29t-67 -71v-502zM494 1241v31l104 315h305v-133l-166 -213h-243z" />
<glyph unicode="&#xf4;" d="M143 248v616q21 48 58.5 93.5t96 89t146.5 70t191 26.5t190 -26.5t145 -70t95.5 -88.5t60.5 -94v-616q-23 -49 -60.5 -94t-95.5 -88.5t-145 -70t-190 -26.5t-191 26.5t-146.5 70t-96 89t-58.5 93.5zM274 1229v31l162 315h398l161 -315v-31h-221l-137 198l-141 -198h-222z M455 305q19 -42 67 -71t113 -29q66 0 113.5 29t66.5 71v502q-19 42 -66.5 71t-113.5 29q-65 0 -113 -29t-67 -71v-502z" />
<glyph unicode="&#xf5;" d="M143 248v616q21 48 58.5 93.5t96 89t146.5 70t191 26.5t190 -26.5t145 -70t95.5 -88.5t60.5 -94v-616q-23 -49 -60.5 -94t-95.5 -88.5t-145 -70t-190 -26.5t-191 26.5t-146.5 70t-96 89t-58.5 93.5zM231 1243v143q11 75 76.5 127t163.5 52q60 0 109.5 -21t76 -45.5 t58.5 -45.5t61 -21q32 0 51.5 16t24.5 43v68h188v-144q-13 -75 -77 -126.5t-160 -51.5q-61 0 -110 21t-74.5 45.5t-57.5 45.5t-63 21q-67 0 -78 -57v-70h-189zM455 305q19 -42 67 -71t113 -29q66 0 113.5 29t66.5 71v502q-19 42 -66.5 71t-113.5 29q-65 0 -113 -29t-67 -71 v-502z" />
<glyph unicode="&#xf6;" d="M143 248v616q21 48 58.5 93.5t96 89t146.5 70t191 26.5t190 -26.5t145 -70t95.5 -88.5t60.5 -94v-616q-23 -49 -60.5 -94t-95.5 -88.5t-145 -70t-190 -26.5t-191 26.5t-146.5 70t-96 89t-58.5 93.5zM258 1325v184q50 62 156 62q61 0 100.5 -20t54.5 -42v-184 q-15 -21 -54.5 -41t-100.5 -20q-102 0 -156 61zM455 305q19 -42 67 -71t113 -29q66 0 113.5 29t66.5 71v502q-19 42 -66.5 71t-113.5 29q-65 0 -113 -29t-67 -71v-502zM707 1325v184q56 62 155 62q108 0 158 -62v-184q-18 -22 -57 -41.5t-101 -19.5q-94 0 -155 61z" />
<glyph unicode="&#xf7;" d="M98 561v248h1073v-248h-1073zM453 176v178q15 31 66 57.5t116 26.5q67 0 117 -26t65 -58v-178q-15 -33 -65 -59.5t-117 -26.5q-66 0 -116.5 26.5t-65.5 59.5zM453 1018v178q15 31 66 57.5t116 26.5q67 0 117 -26t65 -58v-178q-15 -33 -65 -59.5t-117 -26.5 q-66 0 -116.5 26.5t-65.5 59.5z" />
<glyph unicode="&#xf8;" d="M143 0v94l54 64q-34 43 -54 90v616q21 48 58.5 93.5t96 89t146.5 70t191 26.5q183 0 317 -84l43 51h131v-90l-57 -68q32 -39 57 -88v-616q-23 -49 -60.5 -94t-95.5 -88.5t-145 -70t-190 -26.5q-183 0 -320 84l-43 -53h-129zM455 465l331 397q-56 60 -151 60 q-65 0 -113 -29.5t-67 -71.5v-356zM481 250q60 -60 154 -60q66 0 113.5 29.5t66.5 71.5v358z" />
<glyph unicode="&#xf9;" d="M150 217v893h309v-817q18 -31 58 -56.5t104 -25.5q111 0 172 65v834h309v-1110h-289v104q-111 -127 -299 -127q-78 0 -143 23t-108 60.5t-70.5 76t-42.5 80.5zM360 1448v133h302l108 -315v-31h-246z" />
<glyph unicode="&#xfa;" d="M150 217v893h309v-817q18 -31 58 -56.5t104 -25.5q111 0 172 65v834h309v-1110h-289v104q-111 -127 -299 -127q-78 0 -143 23t-108 60.5t-70.5 76t-42.5 80.5zM492 1235v31l104 315h305v-133l-166 -213h-243z" />
<glyph unicode="&#xfb;" d="M150 217v893h309v-817q18 -31 58 -56.5t104 -25.5q111 0 172 65v834h309v-1110h-289v104q-111 -127 -299 -127q-78 0 -143 23t-108 60.5t-70.5 76t-42.5 80.5zM260 1229v31l162 315h397l162 -315v-31h-221l-137 198l-142 -198h-221z" />
<glyph unicode="&#xfc;" d="M150 217v893h309v-817q18 -31 58 -56.5t104 -25.5q111 0 172 65v834h309v-1110h-289v104q-111 -127 -299 -127q-78 0 -143 23t-108 60.5t-70.5 76t-42.5 80.5zM242 1325v184q50 62 155 62q61 0 101 -20.5t55 -41.5v-184q-15 -21 -55 -41t-101 -20q-101 0 -155 61z M690 1325v184q56 62 156 62q108 0 158 -62v-184q-18 -22 -57 -41.5t-101 -19.5q-95 0 -156 61z" />
<glyph unicode="&#xfd;" d="M135 940v170h293l203 -674h33l196 674h268v-166l-380 -1132q-60 -69 -167 -114.5t-249 -45.5q-110 0 -176 20v213q62 -4 110 -4q68 0 122.5 20t84.5 48l23 74zM508 1235v31l104 315h306v-133l-166 -213h-244z" />
<glyph unicode="&#xfe;" d="M158 -324v1758h311v-418q115 119 283 119q78 0 144.5 -24.5t110.5 -64.5t72 -80.5t43 -82.5v-654q-15 -42 -43 -82.5t-72 -80.5t-110.5 -64.5t-144.5 -24.5q-167 0 -283 107v-408h-311zM469 279q64 -68 176 -68q65 0 109 26.5t59 57.5v522q-17 31 -60 56.5t-108 25.5 q-115 0 -176 -65v-555z" />
<glyph unicode="&#xff;" d="M135 940v170h293l203 -674h33l196 674h268v-166l-380 -1132q-60 -69 -167 -114.5t-249 -45.5q-110 0 -176 20v213q62 -4 110 -4q68 0 122.5 20t84.5 48l23 74zM268 1325v184q50 62 156 62q61 0 101 -20.5t55 -41.5v-184q-15 -21 -55 -41t-101 -20q-102 0 -156 61z M717 1325v184q56 62 155 62q108 0 158 -62v-184q-18 -22 -57 -41.5t-101 -19.5q-94 0 -155 61z" />
<glyph unicode="&#x152;" d="M70 276v881q129 297 495 297q66 0 168 -20h475v-246h-321v-330h295v-250h-295v-362h332v-246h-478q-88 -20 -176 -20q-366 0 -495 296zM377 342q20 -49 68.5 -79t119.5 -30q23 0 41 3v960q-24 4 -41 4q-72 0 -120.5 -28.5t-67.5 -79.5v-750z" />
<glyph unicode="&#x153;" d="M63 236v636q12 39 29.5 73.5t47.5 71.5t67.5 63.5t92 43.5t118.5 17q139 0 227 -88q85 88 227 88q78 0 140.5 -24.5t100.5 -64t59 -73t34 -68.5v-422h-434v-219q20 -80 92 -80q33 0 61 20.5t38 59.5v92h243v-163q-12 -36 -33.5 -70t-59.5 -73t-100.5 -63t-140.5 -24 q-141 0 -227 86q-86 -86 -227 -86q-79 0 -143 24.5t-105 66t-66 84.5t-41 92zM346 270q9 -39 33.5 -59.5t58.5 -20.5q32 0 57 21t31 59v568q-6 41 -30.5 61.5t-57.5 20.5q-75 0 -92 -82v-568zM772 670h191v170q-9 38 -37 59t-62 21q-32 0 -57.5 -21t-34.5 -59v-170z" />
<glyph unicode="&#x178;" d="M96 1249v185h299l234 -494h39l235 494h271v-185l-381 -686v-563h-334v596zM266 1599v185q18 22 57 41.5t99 19.5q61 0 101 -20t55 -41v-185q-15 -21 -55 -41t-101 -20q-102 0 -156 61zM715 1599v185q55 61 155 61q62 0 101 -19.5t57 -41.5v-185q-18 -22 -57 -41.5 t-101 -19.5q-94 0 -155 61z" />
<glyph unicode="&#x2c6;" d="M274 1229v31l162 315h398l161 -315v-31h-221l-137 198l-141 -198h-222z" />
<glyph unicode="&#x2dc;" d="M229 1237v143q11 75 76.5 127t163.5 52q49 0 90.5 -14t68.5 -33.5t50 -39t47.5 -33.5t48.5 -14q31 0 51 16.5t25 43.5v67h188v-143q-13 -75 -77 -126.5t-160 -51.5q-61 0 -110 21t-74.5 45.5t-57.5 45.5t-63 21q-67 0 -78 -57v-70h-189z" />
<glyph unicode="&#x2000;" horiz-adv-x="940" />
<glyph unicode="&#x2001;" horiz-adv-x="1880" />
<glyph unicode="&#x2002;" horiz-adv-x="940" />
<glyph unicode="&#x2003;" horiz-adv-x="1880" />
<glyph unicode="&#x2004;" horiz-adv-x="626" />
<glyph unicode="&#x2005;" horiz-adv-x="470" />
<glyph unicode="&#x2006;" horiz-adv-x="313" />
<glyph unicode="&#x2007;" horiz-adv-x="313" />
<glyph unicode="&#x2008;" horiz-adv-x="235" />
<glyph unicode="&#x2009;" horiz-adv-x="376" />
<glyph unicode="&#x200a;" horiz-adv-x="104" />
<glyph unicode="&#x2010;" d="M246 561v248h778v-248h-778z" />
<glyph unicode="&#x2011;" d="M246 561v248h778v-248h-778z" />
<glyph unicode="&#x2012;" d="M246 561v248h778v-248h-778z" />
<glyph unicode="&#x2013;" d="M102 561v248h1065v-248h-1065z" />
<glyph unicode="&#x2014;" d="M20 561v248h1229v-248h-1229z" />
<glyph unicode="&#x2018;" d="M453 924v358q15 47 84.5 99.5t154.5 52.5h96v-146h-79q-20 0 -41.5 -13t-30.5 -34v-53q66 0 115 -27t65 -59v-178q-15 -31 -65.5 -57.5t-114.5 -26.5q-67 0 -118 26.5t-66 57.5z" />
<glyph unicode="&#x2019;" d="M453 1198v178q15 31 65.5 57.5t114.5 26.5q67 0 118 -26.5t66 -57.5v-358q-15 -47 -84.5 -99.5t-154.5 -52.5h-97v146h80q20 0 41.5 13t30.5 34v53q-66 0 -115 27t-65 59z" />
<glyph unicode="&#x201a;" d="M453 61v179q15 31 65.5 57.5t114.5 26.5q67 0 118 -26.5t66 -57.5v-359q-15 -47 -84.5 -99t-154.5 -52h-97v145h80q20 0 41.5 13t30.5 34v53q-66 0 -115 27t-65 59z" />
<glyph unicode="&#x201c;" d="M207 924v358q15 47 84.5 99.5t154.5 52.5h97v-146h-80q-20 0 -41.5 -13t-30.5 -34v-53q66 0 115 -27t65 -59v-178q-15 -31 -65.5 -57.5t-114.5 -26.5q-67 0 -118 26.5t-66 57.5zM696 924v358q15 47 85 99.5t155 52.5h96v-146h-80q-20 0 -41 -13t-30 -34v-53q66 0 115 -27 t65 -59v-178q-15 -31 -65.5 -57.5t-114.5 -26.5q-67 0 -118.5 26.5t-66.5 57.5z" />
<glyph unicode="&#x201d;" d="M207 1198v178q15 31 65.5 57.5t114.5 26.5q67 0 118 -26.5t66 -57.5v-358q-15 -47 -84.5 -99.5t-154.5 -52.5h-96v146h79q20 0 41.5 13t30.5 34v53q-66 0 -115 27t-65 59zM696 1198v178q15 31 66 57.5t115 26.5q67 0 118 -26.5t66 -57.5v-358q-15 -47 -85 -99.5 t-155 -52.5h-96v146h80q20 0 41.5 13t30.5 34v53q-66 0 -115.5 27t-65.5 59z" />
<glyph unicode="&#x201e;" d="M207 61v179q15 31 65.5 57.5t114.5 26.5q67 0 118 -26.5t66 -57.5v-359q-15 -47 -84.5 -99t-154.5 -52h-96v145h79q20 0 41.5 13t30.5 34v53q-66 0 -115 27t-65 59zM696 61v179q15 31 66 57.5t115 26.5q67 0 118 -26.5t66 -57.5v-359q-15 -46 -84.5 -98.5t-155.5 -52.5 h-96v145h80q20 0 41.5 13t30.5 34v53q-66 0 -115.5 27t-65.5 59z" />
<glyph unicode="&#x2022;" d="M371 563v289q35 53 104 89t158 36q88 0 157 -35t107 -90v-291q-37 -57 -106 -92t-158 -35t-158.5 36.5t-103.5 92.5z" />
<glyph unicode="&#x2026;" d="M45 61v179q14 32 60 58t108 26q61 0 106.5 -26t59.5 -58v-179q-13 -33 -59 -59.5t-107 -26.5q-63 0 -109 26.5t-59 59.5zM467 61v179q16 32 61 58t107 26t108 -26t60 -58v-179q-13 -33 -59 -59.5t-109 -26.5q-62 0 -107.5 26.5t-60.5 59.5zM891 61v179q14 32 59.5 58 t106.5 26q62 0 108 -26t60 -58v-179q-13 -33 -59 -59.5t-109 -26.5q-61 0 -107 26.5t-59 59.5z" />
<glyph unicode="&#x202f;" horiz-adv-x="376" />
<glyph unicode="&#x2039;" d="M250 467v240l545 403h225v-162l-514 -360l514 -361v-161h-225z" />
<glyph unicode="&#x203a;" d="M250 66v161l514 361l-514 360v162h225l545 -403v-240l-545 -401h-225z" />
<glyph unicode="&#x205f;" horiz-adv-x="470" />
<glyph unicode="&#x20ac;" d="M78 514v156h100v112h-100v154h100v256q21 45 61.5 89.5t102 87t152.5 69t194 26.5q82 0 157 -18t127 -44t95.5 -59.5t67.5 -61t39 -52.5v-191h-295v82q-18 42 -71.5 72.5t-119.5 30.5t-118 -30.5t-72 -72.5v-184h479l-21 -154h-458v-112h442l-20 -156h-422v-201 q20 -42 72 -71t118 -29q67 0 120 29.5t71 70.5v82h295v-190q-13 -24 -37.5 -51.5t-68 -61.5t-95.5 -60.5t-127.5 -44.5t-157.5 -18q-103 0 -194 27t-152.5 69.5t-102 88t-61.5 90.5v270h-100z" />
<glyph unicode="&#x2122;" d="M70 1282v152h419v-152h-120v-647h-179v647h-120zM535 635v799h251l70 -469h14l72 469h238v-799h-168v510h-17l-84 -510h-108l-82 510h-16v-510h-170z" />
<glyph unicode="&#x25fc;" horiz-adv-x="1105" d="M0 0v1106h1106v-1106h-1106z" />
</font>
</defs>
</svg>
